<svg width="669" height="707" viewBox="0 0 669 707" fill="none" xmlns="http://www.w3.org/2000/svg">
<circle opacity="0.1" cx="181.5" cy="481.5" r="4.5" fill="#FFD445"/>
<circle opacity="0.02" cx="200.5" cy="472.5" r="4.5" fill="#FFD445"/>
<circle opacity="0.02" cx="208.5" cy="457.5" r="3.5" fill="#FFD445"/>
<circle opacity="0.02" cx="220" cy="443" r="6" fill="#FFD445"/>
<circle opacity="0.02" cx="232.5" cy="454.5" r="3.5" fill="#FFD445"/>
<circle opacity="0.02" cx="232.5" cy="469.5" r="3.5" fill="#FFD445"/>
<circle opacity="0.02" cx="241" cy="473" r="2" fill="#FFD445"/>
<circle opacity="0.02" cx="208" cy="482" r="3" fill="#FFD445"/>
<circle opacity="0.02" cx="185.5" cy="384.5" r="4.5" fill="#FFD445"/>
<circle opacity="0.02" cx="208.5" cy="388.5" r="4.5" fill="#FFD445"/>
<circle opacity="0.01" cx="230.5" cy="377.5" r="4.5" fill="#FFD445"/>
<circle opacity="0.02" cx="195.5" cy="403.5" r="4.5" fill="#FFD445"/>
<circle opacity="0.1" cx="315.5" cy="386.5" r="6.5" fill="#FFD445"/>
<circle opacity="0.01" cx="326.5" cy="361.5" r="5.5" fill="#FFD445"/>
<circle opacity="0.01" cx="306.5" cy="347.5" r="5.5" fill="#FFD445"/>
<circle opacity="0.01" cx="340.5" cy="369.5" r="5.5" fill="#FFD445"/>
<circle opacity="0.01" cx="358.5" cy="375.5" r="6.5" fill="#FFD445"/>
<circle opacity="0.01" cx="374.5" cy="396.5" r="4.5" fill="#FFD445"/>
<circle opacity="0.01" cx="410.5" cy="377.5" r="5.5" fill="#FFD445"/>
<circle opacity="0.01" cx="425" cy="388" r="4" fill="#FFD445"/>
<circle opacity="0.01" cx="430.5" cy="370.5" r="5.5" fill="#FFD445"/>
<circle opacity="0.01" cx="423" cy="357" r="6" fill="#FFD445"/>
<circle opacity="0.03" cx="384.5" cy="387.5" r="6.5" fill="#FFD445"/>
<circle opacity="0.08" cx="368.5" cy="354.5" r="6.5" fill="#FFD445"/>
<circle opacity="0.07" cx="397.5" cy="358.5" r="6.5" fill="#FFD445"/>
<circle opacity="0.1" cx="403.5" cy="341.5" r="6.5" fill="#FFD445"/>
<circle opacity="0.02" cx="276.5" cy="415.5" r="4.5" fill="#FFD445"/>
<circle opacity="0.02" cx="280.5" cy="424.5" r="4.5" fill="#FFD445"/>
<circle opacity="0.01" cx="306.5" cy="457.5" r="4.5" fill="#FFD445"/>
<circle opacity="0.01" cx="326.5" cy="480.5" r="4.5" fill="#FFD445"/>
<circle opacity="0.02" cx="329" cy="488" r="5" fill="#FFD445"/>
<circle opacity="0.03" cx="339" cy="498" r="4" fill="#FFD445"/>
<circle opacity="0.03" cx="350.5" cy="505.5" r="3.5" fill="#FFD445"/>
<circle opacity="0.01" cx="365.5" cy="511.5" r="2.5" fill="#FFD445"/>
<circle opacity="0.01" cx="368" cy="524" r="4" fill="#FFD445"/>
<circle opacity="0.03" cx="388" cy="552" r="3" fill="#FFD445"/>
<circle opacity="0.02" cx="410.5" cy="568.5" r="2.5" fill="#FFD445"/>
<circle opacity="0.01" cx="417.5" cy="539.5" r="3.5" fill="#FFD445"/>
<circle opacity="0.01" cx="428" cy="549" r="3" fill="#FFD445"/>
<circle opacity="0.01" cx="434.5" cy="536.5" r="2.5" fill="#FFD445"/>
<circle opacity="0.01" cx="454.5" cy="546.5" r="2.5" fill="#FFD445"/>
<circle opacity="0.01" cx="334.5" cy="533.5" r="12.5" fill="#FFD445"/>
<circle opacity="0.01" cx="335" cy="530" r="3" fill="#FFD445"/>
<circle opacity="0.04" cx="347" cy="521" r="4" fill="#FFD445"/>
<circle opacity="0.01" cx="334.5" cy="543.5" r="2.5" fill="#FFD445"/>
<circle opacity="0.01" cx="357.5" cy="544.5" r="3.5" fill="#FFD445"/>
<circle opacity="0.01" cx="299.5" cy="439.5" r="4.5" fill="#FFD445"/>
<circle opacity="0.02" cx="297.5" cy="422.5" r="4.5" fill="#FFD445"/>
<circle opacity="0.01" cx="322.5" cy="431.5" r="4.5" fill="#FFD445"/>
<circle opacity="0.01" cx="340.5" cy="426.5" r="3.5" fill="#FFD445"/>
<circle opacity="0.01" cx="355.5" cy="430.5" r="4.5" fill="#FFD445"/>
<circle opacity="0.01" cx="376" cy="438" r="5" fill="#FFD445"/>
<circle opacity="0.01" cx="373.5" cy="413.5" r="3.5" fill="#FFD445"/>
<circle opacity="0.01" cx="364.5" cy="418.5" r="4.5" fill="#FFD445"/>
<circle opacity="0.01" cx="355" cy="410" r="6" fill="#FFD445"/>
<circle opacity="0.04" cx="345" cy="450" r="4" fill="#FFD445"/>
<circle opacity="0.04" cx="358.5" cy="462.5" r="4.5" fill="#FFD445"/>
<circle opacity="0.02" cx="379" cy="474" r="4" fill="#FFD445"/>
<circle opacity="0.01" cx="394" cy="442" r="4" fill="#FFD445"/>
<circle opacity="0.01" cx="421.5" cy="512.5" r="3.5" fill="#FFD445"/>
<circle opacity="0.01" cx="426.5" cy="506.5" r="4.5" fill="#FFD445"/>
<circle opacity="0.05" cx="433.5" cy="515.5" r="3.5" fill="#FFD445"/>
<circle opacity="0.03" cx="443.5" cy="511.5" r="3.5" fill="#FFD445"/>
<circle opacity="0.02" cx="460" cy="522" r="3" fill="#FFD445"/>
<circle opacity="0.01" cx="470" cy="539" r="4" fill="#FFD445"/>
<circle opacity="0.03" cx="480" cy="543" r="3" fill="#FFD445"/>
<circle opacity="0.06" cx="488.5" cy="558.5" r="2.5" fill="#FFD445"/>
<circle opacity="0.01" cx="502.5" cy="563.5" r="1.5" fill="#FFD445"/>
<circle opacity="0.01" cx="509.5" cy="565.5" r="2.5" fill="#FFD445"/>
<circle opacity="0.01" cx="521" cy="582" r="2" fill="#FFD445"/>
<circle opacity="0.04" cx="501" cy="588" r="3" fill="#FFD445"/>
<circle opacity="0.01" cx="510.5" cy="594.5" r="2.5" fill="#FFD445"/>
<circle opacity="0.01" cx="502.5" cy="596.5" r="1.5" fill="#FFD445"/>
<circle opacity="0.01" cx="513.5" cy="600.5" r="1.5" fill="#FFD445"/>
<circle opacity="0.01" cx="518" cy="603" r="1" fill="#FFD445"/>
<circle opacity="0.01" cx="521.5" cy="598.5" r="1.5" fill="#FFD445"/>
<circle opacity="0.01" cx="530.5" cy="611.5" r="2.5" fill="#FFD445"/>
<circle opacity="0.01" cx="516" cy="635" r="2" fill="#FFD445"/>
<circle opacity="0.01" cx="538.5" cy="649.5" r="2.5" fill="#FFD445"/>
<circle opacity="0.01" cx="454" cy="622" r="9" fill="#FFD445"/>
<circle opacity="0.01" cx="356" cy="620" r="10" fill="#FFD445"/>
<circle opacity="0.03" cx="348.5" cy="603.5" r="2.5" fill="#FFD445"/>
<circle opacity="0.03" cx="340" cy="632" r="2" fill="#FFD445"/>
<circle opacity="0.02" cx="359" cy="645" r="2" fill="#FFD445"/>
<circle opacity="0.03" cx="366.5" cy="637.5" r="1.5" fill="#FFD445"/>
<circle opacity="0.04" cx="382" cy="638" r="2" fill="#FFD445"/>
<circle opacity="0.06" cx="391" cy="639" r="3" fill="#FFD445"/>
<circle opacity="0.02" cx="392" cy="653" r="2" fill="#FFD445"/>
<circle opacity="0.02" cx="386" cy="632" r="2" fill="#FFD445"/>
<circle opacity="0.01" cx="390.5" cy="626.5" r="1.5" fill="#FFD445"/>
<circle opacity="0.01" cx="382.5" cy="623.5" r="2.5" fill="#FFD445"/>
<circle opacity="0.01" cx="420.5" cy="628.5" r="2.5" fill="#FFD445"/>
<circle opacity="0.04" cx="436" cy="653" r="2" fill="#FFD445"/>
<circle opacity="0.02" cx="457" cy="644" r="2" fill="#FFD445"/>
<circle opacity="0.02" cx="416" cy="638" r="2" fill="#FFD445"/>
<circle opacity="0.01" cx="407" cy="645" r="5" fill="#FFD445"/>
<circle opacity="0.01" cx="333" cy="592" r="2" fill="#FFD445"/>
<circle opacity="0.03" cx="337" cy="573" r="3" fill="#FFD445"/>
<circle opacity="0.01" cx="319.5" cy="584.5" r="1.5" fill="#FFD445"/>
<circle opacity="0.05" cx="368" cy="616" r="2" fill="#FFD445"/>
<circle opacity="0.03" cx="382" cy="608" r="2" fill="#FFD445"/>
<circle opacity="0.02" cx="387" cy="590" r="2" fill="#FFD445"/>
<circle opacity="0.02" cx="377" cy="582" r="3" fill="#FFD445"/>
<circle opacity="0.04" cx="469" cy="590" r="3" fill="#FFD445"/>
<circle opacity="0.03" cx="481.5" cy="611.5" r="2.5" fill="#FFD445"/>
<circle opacity="0.01" cx="485" cy="602" r="2" fill="#FFD445"/>
<circle opacity="0.01" cx="491.5" cy="604.5" r="1.5" fill="#FFD445"/>
<circle opacity="0.01" cx="503" cy="609" r="1" fill="#FFD445"/>
<circle opacity="0.01" cx="550" cy="622" r="2" fill="#FFD445"/>
<circle opacity="0.01" cx="539.5" cy="630.5" r="1.5" fill="#FFD445"/>
<circle opacity="0.01" cx="565.5" cy="637.5" r="2.5" fill="#FFD445"/>
<circle opacity="0.01" cx="586" cy="646" r="2" fill="#FFD445"/>
<circle opacity="0.01" cx="601.5" cy="656.5" r="1.5" fill="#FFD445"/>
<circle opacity="0.01" cx="601" cy="625" r="2" fill="#FFD445"/>
<circle opacity="0.01" cx="587.5" cy="614.5" r="1.5" fill="#FFD445"/>
<circle opacity="0.01" cx="604.5" cy="640.5" r="1.5" fill="#FFD445"/>
<circle opacity="0.01" cx="565.5" cy="653.5" r="1.5" fill="#FFD445"/>
<circle opacity="0.03" cx="583.5" cy="655.5" r="1.5" fill="#FFD445"/>
<circle opacity="0.07" cx="529.5" cy="628.5" r="2.5" fill="#FFD445"/>
<circle opacity="0.04" cx="499.5" cy="632.5" r="2.5" fill="#FFD445"/>
<circle opacity="0.03" cx="507" cy="628" r="2" fill="#FFD445"/>
<circle opacity="0.01" cx="537" cy="606" r="1" fill="#FFD445"/>
<circle opacity="0.01" cx="533.5" cy="607.5" r="0.5" fill="#FFD445"/>
<circle opacity="0.02" cx="498.5" cy="498.5" r="4.5" fill="#FFD445"/>
<circle opacity="0.07" cx="537.5" cy="516.5" r="3.5" fill="#FFD445"/>
<circle opacity="0.02" cx="513.5" cy="504.5" r="3.5" fill="#FFD445"/>
<circle opacity="0.01" cx="526.5" cy="521.5" r="2.5" fill="#FFD445"/>
<circle opacity="0.01" cx="534" cy="508" r="4" fill="#FFD445"/>
<circle opacity="0.01" cx="545.5" cy="504.5" r="3.5" fill="#FFD445"/>
<circle opacity="0.01" cx="534.5" cy="495.5" r="4.5" fill="#FFD445"/>
<circle opacity="0.01" cx="545" cy="487" r="3" fill="#FFD445"/>
<circle opacity="0.05" cx="546.5" cy="453.5" r="4.5" fill="#FFD445"/>
<circle opacity="0.01" cx="523.5" cy="452.5" r="3.5" fill="#FFD445"/>
<circle opacity="0.01" cx="519.5" cy="440.5" r="2.5" fill="#FFD445"/>
<circle opacity="0.01" cx="524.5" cy="416.5" r="3.5" fill="#FFD445"/>
<circle opacity="0.03" cx="540" cy="412" r="5" fill="#FFD445"/>
<circle opacity="0.01" cx="546" cy="430" r="4" fill="#FFD445"/>
<circle opacity="0.01" cx="549" cy="444" r="3" fill="#FFD445"/>
<circle opacity="0.01" cx="566.5" cy="438.5" r="4.5" fill="#FFD445"/>
<circle opacity="0.01" cx="586.5" cy="436.5" r="3.5" fill="#FFD445"/>
<circle opacity="0.01" cx="608" cy="474" r="5" fill="#FFD445"/>
<circle opacity="0.01" cx="595.5" cy="476.5" r="3.5" fill="#FFD445"/>
<circle opacity="0.01" cx="609.5" cy="473.5" r="4.5" fill="#FFD445"/>
<circle opacity="0.01" cx="598.5" cy="524.5" r="15.5" fill="#FFD445"/>
<circle opacity="0.01" cx="487" cy="446" r="5" fill="#FFD445"/>
<circle opacity="0.03" cx="544" cy="529" r="3" fill="#FFD445"/>
<circle opacity="0.02" cx="551.5" cy="537.5" r="3.5" fill="#FFD445"/>
<circle opacity="0.02" cx="559.5" cy="532.5" r="3.5" fill="#FFD445"/>
<circle opacity="0.02" cx="568.5" cy="529.5" r="2.5" fill="#FFD445"/>
<circle opacity="0.01" cx="571.5" cy="520.5" r="3.5" fill="#FFD445"/>
<circle opacity="0.08" cx="583.5" cy="525.5" r="2.5" fill="#FFD445"/>
<circle opacity="0.08" cx="581.5" cy="535.5" r="3.5" fill="#FFD445"/>
<circle opacity="0.08" cx="602" cy="526" r="3" fill="#FFD445"/>
<circle opacity="0.08" cx="593" cy="551" r="3" fill="#FFD445"/>
<circle opacity="0.05" cx="585" cy="554" r="3" fill="#FFD445"/>
<circle opacity="0.01" cx="599" cy="566" r="3" fill="#FFD445"/>
<circle opacity="0.01" cx="595.5" cy="576.5" r="1.5" fill="#FFD445"/>
<circle opacity="0.01" cx="598.5" cy="584.5" r="2.5" fill="#FFD445"/>
<circle opacity="0.01" cx="626" cy="594" r="2" fill="#FFD445"/>
<circle opacity="0.01" cx="615.5" cy="601.5" r="2.5" fill="#FFD445"/>
<circle opacity="0.01" cx="650" cy="627" r="2" fill="#FFD445"/>
<circle opacity="0.01" cx="655" cy="616" r="1" fill="#FFD445"/>
<circle opacity="0.01" cx="665.5" cy="609.5" r="2.5" fill="#FFD445"/>
<circle opacity="0.01" cx="592" cy="588" r="2" fill="#FFD445"/>
<circle opacity="0.01" cx="632.5" cy="559.5" r="5.5" fill="#FFD445"/>
<circle opacity="0.01" cx="645.5" cy="568.5" r="2.5" fill="#FFD445"/>
<circle opacity="0.01" cx="650" cy="575" r="3" fill="#FFD445"/>
<circle opacity="0.01" cx="659.5" cy="582.5" r="2.5" fill="#FFD445"/>
<circle opacity="0.05" cx="654.5" cy="588.5" r="2.5" fill="#FFD445"/>
<circle opacity="0.1" cx="666.5" cy="570.5" r="2.5" fill="#FFD445"/>
<circle opacity="0.06" cx="661" cy="544" r="3" fill="#FFD445"/>
<circle opacity="0.02" cx="660.5" cy="557.5" r="2.5" fill="#FFD445"/>
<circle opacity="0.01" cx="608" cy="542" r="3" fill="#FFD445"/>
<circle opacity="0.02" cx="620" cy="499" r="4" fill="#FFD445"/>
<circle opacity="0.02" cx="635.5" cy="509.5" r="3.5" fill="#FFD445"/>
<circle opacity="0.04" cx="642.5" cy="512.5" r="4.5" fill="#FFD445"/>
<circle opacity="0.01" cx="567.5" cy="547.5" r="3.5" fill="#FFD445"/>
<circle opacity="0.01" cx="512.5" cy="525.5" r="2.5" fill="#FFD445"/>
<circle opacity="0.02" cx="510.5" cy="511.5" r="2.5" fill="#FFD445"/>
<circle opacity="0.02" cx="507.5" cy="516.5" r="1.5" fill="#FFD445"/>
<circle opacity="0.01" cx="452" cy="498" r="3" fill="#FFD445"/>
<circle opacity="0.01" cx="456.5" cy="487.5" r="4.5" fill="#FFD445"/>
<circle opacity="0.04" cx="489.5" cy="472.5" r="4.5" fill="#FFD445"/>
<circle opacity="0.01" cx="445.5" cy="468.5" r="4.5" fill="#FFD445"/>
<circle opacity="0.02" cx="456.5" cy="458.5" r="3.5" fill="#FFD445"/>
<circle opacity="0.02" cx="411" cy="439" r="5" fill="#FFD445"/>
<circle opacity="0.03" cx="444" cy="410" r="5" fill="#FFD445"/>
<circle opacity="0.04" cx="458" cy="428" r="5" fill="#FFD445"/>
<circle opacity="0.02" cx="485.5" cy="390.5" r="25.5" fill="#FFD445"/>
<circle opacity="0.01" cx="470.5" cy="371.5" r="21.5" fill="#FFD445"/>
<circle opacity="0.02" cx="338.5" cy="409.5" r="4.5" fill="#FFD445"/>
<circle opacity="0.02" cx="258.5" cy="381.5" r="4.5" fill="#FFD445"/>
<circle opacity="0.02" cx="255.5" cy="404.5" r="6.5" fill="#FFD445"/>
<circle opacity="0.02" cx="176.5" cy="365.5" r="4.5" fill="#FFD445"/>
<circle opacity="0.02" cx="183.5" cy="361.5" r="6.5" fill="#FFD445"/>
<circle opacity="0.02" cx="212" cy="361" r="6" fill="#FFD445"/>
<circle opacity="0.1" cx="220" cy="361" r="6" fill="#FFD445"/>
<circle opacity="0.07" cx="226" cy="349" r="6" fill="#FFD445"/>
<circle opacity="0.01" cx="65" cy="404" r="24" fill="#FFD445"/>
<circle opacity="0.01" cx="99" cy="539" r="15" fill="#FFD445"/>
<circle opacity="0.02" cx="135.5" cy="540.5" r="17.5" fill="#FFD445"/>
<circle opacity="0.01" cx="153.5" cy="591.5" r="13.5" fill="#FFD445"/>
<circle opacity="0.01" cx="223.5" cy="584.5" r="11.5" fill="#FFD445"/>
<circle opacity="0.01" cx="255.5" cy="558.5" r="14.5" fill="#FFD445"/>
<circle opacity="0.04" cx="138.5" cy="576.5" r="3.5" fill="#FFD445"/>
<circle opacity="0.03" cx="83.5" cy="595.5" r="2.5" fill="#FFD445"/>
<circle opacity="0.04" cx="183.5" cy="570.5" r="2.5" fill="#FFD445"/>
<circle opacity="0.07" cx="290" cy="534" r="4" fill="#FFD445"/>
<circle opacity="0.08" cx="351" cy="555" r="4" fill="#FFD445"/>
<circle opacity="0.06" cx="269.5" cy="526.5" r="3.5" fill="#FFD445"/>
<circle opacity="0.03" cx="252" cy="528" r="3" fill="#FFD445"/>
<circle opacity="0.01" cx="240.5" cy="518.5" r="4.5" fill="#FFD445"/>
<circle opacity="0.01" cx="223.5" cy="525.5" r="3.5" fill="#FFD445"/>
<circle opacity="0.01" cx="179.5" cy="527.5" r="3.5" fill="#FFD445"/>
<circle opacity="0.02" cx="183.5" cy="509.5" r="4.5" fill="#FFD445"/>
<circle opacity="0.01" cx="248.5" cy="493.5" r="3.5" fill="#FFD445"/>
<circle opacity="0.01" cx="216.5" cy="537.5" r="2.5" fill="#FFD445"/>
<circle opacity="0.01" cx="270.5" cy="582.5" r="2.5" fill="#FFD445"/>
<circle opacity="0.01" cx="271.5" cy="589.5" r="2.5" fill="#FFD445"/>
<circle opacity="0.01" cx="274.5" cy="601.5" r="1.5" fill="#FFD445"/>
<circle opacity="0.02" cx="282" cy="606" r="2" fill="#FFD445"/>
<circle opacity="0.01" cx="273" cy="610" r="1" fill="#FFD445"/>
<circle opacity="0.02" cx="271" cy="617" r="2" fill="#FFD445"/>
<circle opacity="0.02" cx="270.5" cy="627.5" r="1.5" fill="#FFD445"/>
<circle opacity="0.03" cx="258.5" cy="621.5" r="2.5" fill="#FFD445"/>
<circle opacity="0.04" cx="249.5" cy="632.5" r="2.5" fill="#FFD445"/>
<circle opacity="0.06" cx="218" cy="608" r="2" fill="#FFD445"/>
<circle opacity="0.05" cx="250.5" cy="636.5" r="2.5" fill="#FFD445"/>
<circle opacity="0.1" cx="331" cy="660" r="5" fill="#FFD445"/>
<circle opacity="0.04" cx="289.5" cy="603.5" r="2.5" fill="#FFD445"/>
<circle opacity="0.02" cx="185.5" cy="588.5" r="2.5" fill="#FFD445"/>
<circle opacity="0.01" cx="178.5" cy="583.5" r="2.5" fill="#FFD445"/>
<circle opacity="0.01" cx="196.5" cy="605.5" r="1.5" fill="#FFD445"/>
<circle opacity="0.01" cx="205.5" cy="617.5" r="1.5" fill="#FFD445"/>
<circle opacity="0.02" cx="200.5" cy="617.5" r="2.5" fill="#FFD445"/>
<circle opacity="0.01" cx="182.5" cy="612.5" r="2.5" fill="#FFD445"/>
<circle opacity="0.01" cx="170.5" cy="597.5" r="2.5" fill="#FFD445"/>
<circle opacity="0.01" cx="179.5" cy="627.5" r="2.5" fill="#FFD445"/>
<circle opacity="0.01" cx="180.5" cy="635.5" r="1.5" fill="#FFD445"/>
<circle opacity="0.01" cx="172" cy="660" r="6" fill="#FFD445"/>
<circle opacity="0.07" cx="193.5" cy="652.5" r="2.5" fill="#FFD445"/>
<circle opacity="0.06" cx="193" cy="663" r="2" fill="#FFD445"/>
<circle opacity="0.06" cx="160.5" cy="698.5" r="2.5" fill="#FFD445"/>
<circle opacity="0.04" cx="165" cy="693" r="2" fill="#FFD445"/>
<circle opacity="0.04" cx="139.5" cy="689.5" r="1.5" fill="#FFD445"/>
<circle opacity="0.02" cx="137" cy="684" r="2" fill="#FFD445"/>
<circle opacity="0.02" cx="183.5" cy="689.5" r="1.5" fill="#FFD445"/>
<circle opacity="0.01" cx="212.5" cy="696.5" r="5.5" fill="#FFD445"/>
<circle opacity="0.02" cx="222.5" cy="700.5" r="1.5" fill="#FFD445"/>
<circle opacity="0.01" cx="171" cy="706" r="1" fill="#FFD445"/>
<circle opacity="0.1" cx="151.5" cy="641.5" r="2.5" fill="#FFD445"/>
<circle opacity="0.04" cx="156" cy="636" r="2" fill="#FFD445"/>
<circle opacity="0.02" cx="142.5" cy="620.5" r="2.5" fill="#FFD445"/>
<circle opacity="0.05" cx="100.5" cy="619.5" r="2.5" fill="#FFD445"/>
<circle opacity="0.03" cx="83" cy="646" r="4" fill="#FFD445"/>
<circle opacity="0.02" cx="105.5" cy="650.5" r="2.5" fill="#FFD445"/>
<circle opacity="0.02" cx="84.5" cy="672.5" r="1.5" fill="#FFD445"/>
<circle opacity="0.01" cx="89.5" cy="663.5" r="1.5" fill="#FFD445"/>
<circle opacity="0.02" cx="110" cy="611" r="2" fill="#FFD445"/>
<circle opacity="0.01" cx="94" cy="605" r="2" fill="#FFD445"/>
<circle opacity="0.04" cx="83.5" cy="596.5" r="2.5" fill="#FFD445"/>
<circle opacity="0.03" cx="63.5" cy="624.5" r="2.5" fill="#FFD445"/>
<circle opacity="0.01" cx="52" cy="635" r="6" fill="#FFD445"/>
<circle opacity="0.03" cx="48" cy="652" r="2" fill="#FFD445"/>
<circle opacity="0.01" cx="48.5" cy="669.5" r="1.5" fill="#FFD445"/>
<circle opacity="0.01" cx="64.5" cy="669.5" r="1.5" fill="#FFD445"/>
<circle opacity="0.01" cx="113.5" cy="666.5" r="1.5" fill="#FFD445"/>
<circle opacity="0.03" cx="151.5" cy="647.5" r="1.5" fill="#FFD445"/>
<circle opacity="0.01" cx="145.5" cy="650.5" r="1.5" fill="#FFD445"/>
<circle opacity="0.01" cx="137" cy="662" r="1" fill="#FFD445"/>
<circle opacity="0.1" cx="55" cy="387" r="6" fill="#FFD445"/>
<circle opacity="0.06" cx="90" cy="392" r="6" fill="#FFD445"/>
<circle opacity="0.03" cx="98.5" cy="396.5" r="4.5" fill="#FFD445"/>
<circle opacity="0.02" cx="122" cy="359" r="6" fill="#FFD445"/>
<circle opacity="0.01" cx="115.5" cy="378.5" r="4.5" fill="#FFD445"/>
<circle opacity="0.01" cx="128.5" cy="387.5" r="4.5" fill="#FFD445"/>
<circle opacity="0.02" cx="30" cy="367" r="6" fill="#FFD445"/>
<circle opacity="0.02" cx="20.5" cy="389.5" r="3.5" fill="#FFD445"/>
<circle opacity="0.01" cx="17" cy="412" r="7" fill="#FFD445"/>
<circle opacity="0.01" cx="32.5" cy="467.5" r="5.5" fill="#FFD445"/>
<circle opacity="0.03" cx="56.5" cy="452.5" r="7.5" fill="#FFD445"/>
<circle opacity="0.01" cx="50.5" cy="494.5" r="3.5" fill="#FFD445"/>
<circle opacity="0.01" cx="39.5" cy="505.5" r="1.5" fill="#FFD445"/>
<circle opacity="0.01" cx="28.5" cy="492.5" r="1.5" fill="#FFD445"/>
<circle opacity="0.02" cx="7" cy="480" r="3" fill="#FFD445"/>
<circle opacity="0.02" cx="67" cy="510" r="4" fill="#FFD445"/>
<circle opacity="0.03" cx="92.5" cy="507.5" r="3.5" fill="#FFD445"/>
<circle opacity="0.03" cx="151.5" cy="557.5" r="3.5" fill="#FFD445"/>
<circle opacity="0.01" cx="119" cy="515" r="2" fill="#FFD445"/>
<circle opacity="0.01" cx="123.5" cy="513.5" r="1.5" fill="#FFD445"/>
<circle opacity="0.01" cx="138" cy="519" r="2" fill="#FFD445"/>
<circle opacity="0.01" cx="147" cy="511" r="3" fill="#FFD445"/>
<circle opacity="0.01" cx="118" cy="493" r="4" fill="#FFD445"/>
<circle opacity="0.05" cx="4.5" cy="450.5" r="4.5" fill="#FFD445"/>
<circle opacity="0.02" cx="43" cy="342" r="6" fill="#FFD445"/>
<circle opacity="0.02" cx="69.5" cy="350.5" r="4.5" fill="#FFD445"/>
<circle opacity="0.02" cx="94.5" cy="330.5" r="6.5" fill="#FFD445"/>
<circle opacity="0.01" cx="105.5" cy="305.5" r="6.5" fill="#FFD445"/>
<circle opacity="0.01" cx="93.5" cy="295.5" r="6.5" fill="#FFD445"/>
<circle opacity="0.01" cx="119.5" cy="295.5" r="6.5" fill="#FFD445"/>
<circle opacity="0.01" cx="132.5" cy="324.5" r="6.5" fill="#FFD445"/>
<circle opacity="0.01" cx="187.5" cy="314.5" r="3.5" fill="#FFD445"/>
<circle opacity="0.01" cx="165.5" cy="330.5" r="6.5" fill="#FFD445"/>
<circle opacity="0.01" cx="225.5" cy="299.5" r="6.5" fill="#FFD445"/>
<circle opacity="0.01" cx="242.5" cy="317.5" r="6.5" fill="#FFD445"/>
<circle opacity="0.01" cx="80.5" cy="283.5" r="8.5" fill="#FFD445"/>
<circle opacity="0.03" cx="154" cy="278" r="8" fill="#FFD445"/>
<circle opacity="0.01" cx="159.5" cy="256.5" r="6.5" fill="#FFD445"/>
<circle opacity="0.01" cx="138.5" cy="253.5" r="6.5" fill="#FFD445"/>
<circle opacity="0.01" cx="25.5" cy="225.5" r="6.5" fill="#FFD445"/>
<circle opacity="0.01" cx="89.5" cy="222.5" r="6.5" fill="#FFD445"/>
<circle opacity="0.01" cx="85.5" cy="238.5" r="4.5" fill="#FFD445"/>
<circle opacity="0.02" cx="204" cy="264" r="8" fill="#FFD445"/>
<circle opacity="0.03" cx="222.5" cy="259.5" r="6.5" fill="#FFD445"/>
<circle opacity="0.01" cx="249.5" cy="249.5" r="7.5" fill="#FFD445"/>
<circle opacity="0.01" cx="282.5" cy="268.5" r="6.5" fill="#FFD445"/>
<circle opacity="0.01" cx="288.5" cy="248.5" r="6.5" fill="#FFD445"/>
<circle opacity="0.01" cx="336.5" cy="247.5" r="6.5" fill="#FFD445"/>
<circle opacity="0.01" cx="330" cy="293" r="7" fill="#FFD445"/>
<circle opacity="0.01" cx="370" cy="317" r="5" fill="#FFD445"/>
<circle opacity="0.01" cx="386" cy="309" r="8" fill="#FFD445"/>
<circle opacity="0.01" cx="342" cy="319" r="8" fill="#FFD445"/>
<circle opacity="0.01" cx="237.5" cy="236.5" r="4.5" fill="#FFD445"/>
<circle opacity="0.01" cx="188.5" cy="233.5" r="7.5" fill="#FFD445"/>
<circle opacity="0.01" cx="176" cy="221" r="5" fill="#FFD445"/>
<circle opacity="0.1" cx="99" cy="422" r="4" fill="#FFD445"/>
<circle opacity="0.08" cx="113.5" cy="406.5" r="5.5" fill="#FFD445"/>
<circle opacity="0.06" cx="122.5" cy="424.5" r="4.5" fill="#FFD445"/>
<circle opacity="0.02" cx="107.5" cy="453.5" r="4.5" fill="#FFD445"/>
<circle opacity="0.02" cx="89" cy="466" r="4" fill="#FFD445"/>
<circle opacity="0.02" cx="8.5" cy="508.5" r="2.5" fill="#FFD445"/>
<circle opacity="0.02" cx="38.5" cy="539.5" r="2.5" fill="#FFD445"/>
<circle opacity="0.02" cx="78.5" cy="544.5" r="2.5" fill="#FFD445"/>
<circle opacity="0.04" cx="3.5" cy="599.5" r="2.5" fill="#FFD445"/>
<circle opacity="0.02" cx="19.5" cy="581.5" r="3.5" fill="#FFD445"/>
<circle opacity="0.01" cx="33.5" cy="612.5" r="3.5" fill="#FFD445"/>
<circle opacity="0.01" cx="57" cy="590" r="2" fill="#FFD445"/>
<circle opacity="0.01" cx="36.5" cy="591.5" r="3.5" fill="#FFD445"/>
<circle opacity="0.02" cx="22" cy="521" r="4" fill="#FFD445"/>
<circle opacity="0.02" cx="129" cy="461" r="5" fill="#FFD445"/>
<circle opacity="0.02" cx="152.5" cy="477.5" r="4.5" fill="#FFD445"/>
<circle opacity="0.02" cx="151" cy="419" r="24" fill="#FFD445"/>
<circle opacity="0.01" cx="263" cy="305" r="24" fill="#FFD445"/>
<circle opacity="0.02" cx="293.5" cy="312.5" r="31.5" fill="#FFD445"/>
<circle opacity="0.01" cx="256.5" cy="195.5" r="7.5" fill="#FFD445"/>
<circle opacity="0.01" cx="247" cy="185" r="4" fill="#FFD445"/>
<circle opacity="0.01" cx="291" cy="148" r="4" fill="#FFD445"/>
<circle opacity="0.03" cx="350" cy="154" r="6" fill="#FFD445"/>
<circle opacity="0.01" cx="385" cy="144" r="6" fill="#FFD445"/>
<circle opacity="0.01" cx="343" cy="155" r="4" fill="#FFD445"/>
<circle opacity="0.02" cx="308.5" cy="174.5" r="8.5" fill="#FFD445"/>
<circle opacity="0.01" cx="343.5" cy="188.5" r="8.5" fill="#FFD445"/>
<circle opacity="0.01" cx="224" cy="187" r="3" fill="#FFD445"/>
<circle opacity="0.01" cx="197.5" cy="171.5" r="7.5" fill="#FFD445"/>
<circle opacity="0.01" cx="215" cy="163" r="5" fill="#FFD445"/>
<circle opacity="0.01" cx="219" cy="151" r="3" fill="#FFD445"/>
<circle opacity="0.01" cx="207" cy="128" r="8" fill="#FFD445"/>
<circle opacity="0.03" cx="256" cy="134" r="6" fill="#FFD445"/>
<circle opacity="0.02" cx="260" cy="99" r="4" fill="#FFD445"/>
<circle opacity="0.07" cx="320" cy="97" r="3" fill="#FFD445"/>
<circle opacity="0.02" cx="270" cy="109" r="4" fill="#FFD445"/>
<circle opacity="0.01" cx="295" cy="125" r="5" fill="#FFD445"/>
<circle opacity="0.01" cx="336.5" cy="131.5" r="3.5" fill="#FFD445"/>
<circle opacity="0.01" cx="394.5" cy="115.5" r="3.5" fill="#FFD445"/>
<circle opacity="0.01" cx="425" cy="100" r="8" fill="#FFD445"/>
<circle opacity="0.02" cx="435" cy="97" r="8" fill="#FFD445"/>
<circle opacity="0.01" cx="384.5" cy="121.5" r="2.5" fill="#FFD445"/>
<circle opacity="0.01" cx="373" cy="88" r="6" fill="#FFD445"/>
<circle opacity="0.01" cx="347.5" cy="111.5" r="7.5" fill="#FFD445"/>
<circle opacity="0.02" cx="163" cy="134" r="10" fill="#FFD445"/>
<circle opacity="0.04" cx="172" cy="122" r="11" fill="#FFD445"/>
<circle opacity="0.01" cx="175" cy="154" r="6" fill="#FFD445"/>
<circle opacity="0.01" cx="131.5" cy="108.5" r="8.5" fill="#FFD445"/>
<circle opacity="0.01" cx="60.5" cy="183.5" r="8.5" fill="#FFD445"/>
<circle opacity="0.01" cx="78" cy="197" r="5" fill="#FFD445"/>
<circle opacity="0.02" cx="90.5" cy="186.5" r="5.5" fill="#FFD445"/>
<circle opacity="0.01" cx="88.5" cy="167.5" r="3.5" fill="#FFD445"/>
<circle opacity="0.01" cx="95.5" cy="151.5" r="2.5" fill="#FFD445"/>
<circle opacity="0.01" cx="93" cy="123" r="5" fill="#FFD445"/>
<circle opacity="0.01" cx="96" cy="108" r="3" fill="#FFD445"/>
<circle opacity="0.01" cx="231" cy="86" r="4" fill="#FFD445"/>
<circle opacity="0.01" cx="242" cy="75" r="5" fill="#FFD445"/>
<circle opacity="0.01" cx="219.5" cy="200.5" r="2.5" fill="#FFD445"/>
<circle opacity="0.01" cx="235" cy="197" r="2" fill="#FFD445"/>
<circle opacity="0.01" cx="266" cy="177" r="4" fill="#FFD445"/>
<circle opacity="0.01" cx="275" cy="164" r="3" fill="#FFD445"/>
<circle opacity="0.01" cx="297" cy="62" r="3" fill="#FFD445"/>
<circle opacity="0.01" cx="323" cy="52" r="5" fill="#FFD445"/>
<circle opacity="0.02" cx="263" cy="48" r="4" fill="#FFD445"/>
<circle opacity="0.01" cx="395" cy="36" r="13" fill="#FFD445"/>
<circle opacity="0.01" cx="353" cy="8" r="5" fill="#FFD445"/>
<circle opacity="0.01" cx="354.5" cy="55.5" r="6.5" fill="#FFD445"/>
<circle opacity="0.01" cx="397" cy="4" r="4" fill="#FFD445"/>
<circle opacity="0.01" cx="449" cy="55" r="4" fill="#FFD445"/>
<circle opacity="0.01" cx="478.5" cy="44.5" r="4.5" fill="#FFD445"/>
<circle opacity="0.01" cx="465" cy="25" r="2" fill="#FFD445"/>
<circle opacity="0.01" cx="453" cy="33" r="2" fill="#FFD445"/>
<circle opacity="0.01" cx="423" cy="28" r="2" fill="#FFD445"/>
<circle opacity="0.01" cx="434" cy="48" r="2" fill="#FFD445"/>
<circle opacity="0.01" cx="417" cy="64" r="6" fill="#FFD445"/>
<circle opacity="0.03" cx="442" cy="17" r="7" fill="#FFD445"/>
</svg>
