<svg width="80" height="80" viewBox="0 0 80 80" fill="none" xmlns="http://www.w3.org/2000/svg">
<path fill-rule="evenodd" clip-rule="evenodd" d="M29.8816 3.00018C32.6502 3.00018 35.4446 3.02606 38.2131 3.02606C37.1523 5.30298 36.1173 7.5799 35.0823 9.83095C34.746 10.2191 34.4096 10.5813 34.0991 10.9435C34.332 12.2631 34.5907 13.5568 34.8236 14.8764C38.6012 14.9023 42.3788 14.954 46.1564 15.0058C44.7592 15.6009 43.362 16.196 41.9648 16.817C38.8341 16.7911 35.6774 16.7911 32.5467 16.7652H27.2166H27.1907H25.7935H25.7677V16.7911L17.7726 16.817C16.3754 16.196 14.9782 15.6009 13.581 15.0058C17.3586 14.954 21.1362 14.9023 24.9138 14.8764C25.1726 13.5568 25.4054 12.2631 25.6642 10.9435C25.3278 10.5813 24.9914 10.2191 24.6551 9.83095C23.6201 7.5799 22.5851 5.30298 21.5502 3.02606C24.3187 3.02606 27.0872 3.00018 29.8816 3.00018V3.00018ZM32.4173 17.3086L32.3138 17.826C33.918 18.6281 34.5907 19.7666 34.7201 21.1638C34.7977 22.4834 34.0215 23.596 33.4523 24.0876C32.8572 24.6827 32.3914 25.3295 32.3138 26.2351C32.5984 26.9337 33.0383 27.4512 33.5816 27.9687C32.9607 28.3309 32.4432 29.0037 32.2103 29.5729C32.1327 30.8407 32.5984 31.7722 33.4264 32.2638L33.4005 34.5148H26.3628L26.311 32.2638C27.1649 31.7722 27.6306 30.8407 27.553 29.5729C27.3201 29.0037 26.7767 28.3309 26.1558 27.9687C26.725 27.4512 27.1649 26.9337 27.4236 26.2351C27.3719 25.3295 26.8802 24.6827 26.2851 24.0876C25.7159 23.596 24.9656 22.4834 25.0173 21.1638C25.1467 19.7666 25.8194 18.6281 27.4236 17.826L27.3201 17.3086H32.4173ZM33.504 35.1099C34.3579 35.2652 35.4187 35.6016 35.8844 36.2484C36.4537 35.912 36.997 35.5498 37.5662 35.2134C37.825 34.7995 37.5662 34.489 37.5662 34.1009C38.0061 33.7386 38.446 33.3764 38.9117 32.9883C39.6103 32.8848 39.7655 33.4281 40.4641 34.1785C41.2921 35.1876 41.7061 35.1617 41.6285 36.0932C41.0851 36.6106 40.5676 37.1022 40.0502 37.6197C39.7914 37.3869 39.5327 37.1281 38.9893 37.2316C38.4718 37.6456 38.0837 37.9043 37.5404 38.3183C37.9026 39.2498 38.0837 40.5694 37.7991 41.5008C38.6271 41.7596 39.2998 42.2771 39.4033 43.3379C39.4033 43.8036 39.3774 44.2435 39.2481 44.6057H20.5152C20.3858 44.2435 20.3341 43.8036 20.36 43.3379C20.4376 42.2771 21.1103 41.7596 21.9383 41.5008C21.6537 40.5694 21.8607 39.2498 22.197 38.3183C21.6537 37.9043 21.2914 37.6456 20.7481 37.2316C20.2047 37.1281 19.9719 37.3869 19.6872 37.6197C19.1698 37.1022 18.6523 36.6106 18.1348 36.0932C18.0313 35.1617 17.9278 34.2302 17.8502 33.2988C18.8593 33.1953 19.8425 33.0918 20.8516 32.9883C21.2914 33.3764 21.7313 33.7386 22.1712 34.1009C22.1712 34.489 21.9383 34.7995 22.1712 35.2134C22.7404 35.5498 23.3096 35.912 23.8788 36.2484C24.3187 35.6016 25.3795 35.2652 26.2593 35.1099H33.504ZM38.9893 45.1491L38.9634 47.4001C38.5236 47.5036 38.0837 47.6071 37.6439 47.7365C36.4537 48.8491 35.5739 51.2295 35.6774 53.1442C38.8341 53.6875 42.7411 56.068 45.0439 59.0176C47.4502 62.0449 46.9068 64.3477 45.5872 66.1847C43.983 68.4099 40.697 69.8589 37.618 70.6868C35.0306 70.7127 32.469 70.7386 29.8816 70.7645C27.2942 70.7386 24.7068 70.7127 22.1194 70.6868C19.0404 69.8589 15.7803 68.4099 14.1761 66.1847C12.8306 64.3477 12.3131 62.0449 14.6935 59.0176C17.0222 56.068 20.9292 53.6875 24.06 53.1442C24.1893 51.2295 23.2837 48.8491 22.0935 47.7365C21.6795 47.6071 21.2397 47.5036 20.7998 47.4001L20.7481 45.1491H38.9893Z" fill="#E2C391"/>
<path fill-rule="evenodd" clip-rule="evenodd" d="M41.3969 33.5574L41.1123 33.1952L44.5018 28.0204L45.9766 29.8833L41.3969 33.5574L41.6815 33.9196L47.4773 31.7203L45.9766 29.8833L41.3969 33.5574ZM57.1542 20.9308C57.6717 21.6036 58.1892 22.2504 58.7067 22.9232C58.2927 22.9232 57.8787 22.949 57.4647 22.9749C57.827 23.9581 57.4647 24.7861 56.792 25.2259C56.0934 25.6658 55.0843 25.7176 54.3081 25.0448C53.9459 26.3385 53.4025 27.27 52.0829 28.2015C50.6598 29.2364 48.9004 30.1162 47.4515 30.8924C47.0892 30.4525 46.727 30.0127 46.3647 29.5728C46.0284 29.1071 45.6661 28.6672 45.3298 28.2273C46.3906 26.9854 47.6326 25.4588 48.9263 24.2686C50.1165 23.1819 51.1515 22.8714 52.4969 22.7938C52.0312 21.8882 52.264 20.905 52.885 20.3357C53.4542 19.7924 54.334 19.5854 55.2137 20.1546C55.3172 19.7665 55.4207 19.3525 55.5501 18.9644C56.0675 19.6113 56.6109 20.284 57.1542 20.9308Z" fill="#E2C391"/>
<path fill-rule="evenodd" clip-rule="evenodd" d="M38.4994 76.4825C38.4218 76.2496 38.37 76.1202 38.3959 75.7839C38.4476 75.2664 38.7581 75.1111 39.0945 75.0594C39.3015 75.0076 39.5344 75.0076 39.7155 74.9818C39.8448 74.93 39.9483 74.8783 40.1812 74.7489C40.2847 74.93 40.4141 75.137 40.5176 75.3181C40.6211 75.4993 40.7246 75.7062 40.8539 75.8874C40.6211 76.0167 40.4917 76.0944 40.4141 76.172C40.2847 76.3272 40.1553 76.5083 40.026 76.6895C39.819 76.9482 39.5344 77.1293 39.0427 76.9223C38.7323 76.7671 38.6546 76.6377 38.4994 76.4825Z" fill="#E2C391"/>
<path fill-rule="evenodd" clip-rule="evenodd" d="M41.0867 74.9818C41.4231 75.5511 41.7595 76.1462 42.0958 76.7154C42.4581 76.4825 42.8462 76.2755 43.2343 76.0427C43.5189 75.8874 43.1825 75.3182 43.7776 74.9818C44.0623 74.8007 44.3469 74.6455 44.6315 74.4902C45.2007 74.1539 46.2874 74.6713 47.0895 74.2056C47.6846 73.8692 47.4518 73.9986 47.4518 73.9986C48.021 73.6881 47.9692 72.9378 49.4182 72.1098C49.7028 71.9287 49.9874 71.7734 50.272 71.6182C50.686 70.9972 50.6343 70.8937 50.8154 70.5315C51.1 70.3762 51.3846 70.1951 51.6692 70.0399C52.1091 70.7902 52.4455 70.8161 52.7042 70.5832C53.0664 70.2727 52.7042 69.8329 53.2734 69.4965C53.765 69.4706 54.4636 69.5741 54.7483 69.393C55.3434 69.0825 55.6538 68.5909 55.9385 68.0993C56.1455 67.763 56.3524 67.4783 56.5853 67.2713C57.0252 66.8832 57.5944 66.7539 58.3448 66.9609C58.0601 66.4693 57.7755 66.0035 57.5168 65.5119C57.2322 65.0462 56.9476 64.5546 56.6629 64.0888C56.4818 64.8392 56.0678 65.2273 55.5245 65.4343C55.2399 65.5378 54.8776 65.5895 54.4895 65.5895C53.9203 65.5895 53.3511 65.6154 52.756 65.9518C52.4713 66.107 52.2126 66.7797 51.9539 67.1937C51.3587 67.5301 51.1518 66.9609 50.7119 67.1161C50.3755 67.2455 50.2462 67.556 50.6601 68.3063C50.3755 68.4616 50.0909 68.6427 49.8063 68.7979C49.4182 68.772 49.3406 68.6944 48.6161 68.7203C48.3315 68.9014 48.0469 69.0567 47.7364 69.2378C46.3133 70.0658 45.6923 69.6518 45.1231 69.9623C45.1231 69.9623 45.356 69.8329 44.7867 70.1692C43.9588 70.635 43.8811 71.8511 43.3119 72.1616C43.0273 72.3427 42.7168 72.4979 42.4322 72.679C41.863 73.0154 41.5266 72.4203 41.242 72.6014C40.8539 72.8084 40.4658 73.0413 40.1035 73.2483C40.414 73.8434 40.7504 74.4126 41.0867 74.9818Z" fill="#E2C391"/>
<path d="M58.1894 20.2322C61.9412 17.3861 65.7446 19.9217 65.8999 24.6567C66.1328 32.5224 61.4754 36.2224 57.1544 38.6546C52.316 41.3455 47.2188 42.4322 46.8824 45.9511C46.8048 50.9706 54.36 53.9461 58.7328 57.0252C62.2775 59.5091 63.9593 61.8895 58.5516 64.865" stroke="#E2C391" stroke-width="2.69091" stroke-miterlimit="22.9256"/>
</svg>
