<svg width="193" height="50" viewBox="0 0 193 50" fill="none" xmlns="http://www.w3.org/2000/svg">
<path d="M161.882 16.7233C157.331 12.9187 146.557 5.84345 136.586 2.9733C127.819 0.503643 119.722 1.37136 117.246 10.716C114.301 21.6626 136.653 37.4151 128.087 45.4248C123.603 49.6299 105.936 50.4308 84.8558 37.2816C62.6381 23.3981 45.4394 12.318 0.936983 37.2816" stroke="url(#paint0_linear)" stroke-width="2.34951" stroke-miterlimit="22.9256"/>
<path fill-rule="evenodd" clip-rule="evenodd" d="M192.399 48.8957C192.599 48.5619 192.8 48.3617 192.934 47.6942C193.135 46.7597 192.666 46.2925 192.131 46.0255C191.729 45.8253 191.328 45.6918 191.06 45.4915C190.859 45.4248 190.659 45.2246 190.324 44.8241C190.056 45.0911 189.722 45.4248 189.387 45.6918C189.12 45.9588 188.785 46.2258 188.517 46.5595C188.852 46.8932 188.986 47.0935 189.12 47.2937C189.253 47.6275 189.32 48.028 189.521 48.4284C189.722 48.9624 190.123 49.4964 191.127 49.4296C191.796 49.2962 191.997 49.0959 192.399 48.8957Z" fill="url(#paint1_linear)"/>
<path fill-rule="evenodd" clip-rule="evenodd" d="M188.584 44.7573C187.647 45.625 186.71 46.426 185.773 47.2937C185.238 46.693 184.636 46.0923 184.1 45.4248C183.699 45.0243 184.569 44.1566 183.766 43.2221C183.364 42.7549 182.896 42.2877 182.494 41.8204C181.624 40.9527 179.416 41.2864 178.211 39.9515C177.341 39.017 177.676 39.4175 177.676 39.4175C176.873 38.483 177.341 37.2148 175.267 34.8787C174.798 34.4114 174.397 34.011 173.995 33.5437C173.594 32.2088 173.728 32.0085 173.661 31.2743C173.192 30.8071 172.791 30.4066 172.389 29.9394C171.185 31.0073 170.515 30.8738 170.181 30.3398C169.712 29.5389 170.649 28.9381 169.779 28.0037C168.909 27.6699 167.571 27.4697 167.169 27.0692C166.299 26.1347 166.032 25.0668 165.831 23.9988C165.63 23.3313 165.429 22.6639 165.095 22.1966C164.493 21.2622 163.623 20.6614 162.15 20.6614C162.886 19.9272 163.69 19.193 164.426 18.5255C165.229 17.7913 165.965 17.1238 166.768 16.3896C166.701 17.858 167.169 18.7925 168.039 19.46C168.508 19.8605 169.11 20.1275 169.846 20.3277C170.85 20.6614 171.854 21.0619 172.724 21.9964C173.125 22.4636 173.259 23.7318 173.46 24.6663C174.33 25.6008 174.999 24.733 175.735 25.267C176.271 25.6008 176.338 26.2682 175.133 27.4029C175.535 27.8702 176.003 28.2707 176.405 28.7379C177.141 28.9381 177.275 28.8046 178.613 29.2719C179.014 29.7391 179.416 30.2063 179.884 30.6736C181.959 33.0097 183.364 32.6093 184.167 33.477C184.167 33.477 183.833 33.1432 184.703 34.0777C185.84 35.3459 185.305 37.5486 186.175 38.483C186.577 38.9503 187.045 39.4175 187.446 39.8847C188.316 40.7525 189.186 39.9515 189.655 40.4187C190.19 41.0195 190.793 41.6202 191.328 42.2209C190.391 43.0886 189.454 43.8896 188.584 44.7573Z" fill="url(#paint2_linear)"/>
<path d="M161.833 15.3708C162.178 14.9863 162.771 14.9536 163.156 15.2979C163.542 15.6421 163.575 16.2329 163.229 16.6174L161.98 18.0099C161.634 18.3944 161.042 18.427 160.657 18.0828C160.271 17.7386 160.238 17.1478 160.584 16.7633L161.833 15.3708Z" fill="url(#paint3_linear)"/>
<path fill-rule="evenodd" clip-rule="evenodd" d="M160.21 13.0522C159.808 12.7185 159.273 12.7852 158.938 13.119C158.47 13.5862 158.068 14.0534 157.667 14.5207C157.332 14.9212 157.399 15.5219 157.734 15.8556C158.135 16.1894 158.737 16.1894 159.072 15.7889C159.474 15.3216 159.875 14.8544 160.344 14.3872C160.678 13.9867 160.611 13.386 160.21 13.0522Z" fill="url(#paint4_linear)"/>
<path fill-rule="evenodd" clip-rule="evenodd" d="M157.198 10.983C156.797 10.6493 156.194 10.6493 155.86 11.0498C155.458 11.517 155.057 11.9843 154.655 12.4515C154.321 12.852 154.388 13.4527 154.789 13.7864C155.124 14.1202 155.726 14.0534 156.061 13.7197C156.462 13.2525 156.864 12.7185 157.265 12.2512C157.6 11.9175 157.6 11.3168 157.198 10.983Z" fill="url(#paint5_linear)"/>
<path fill-rule="evenodd" clip-rule="evenodd" d="M154.053 8.98062C153.651 8.64688 153.049 8.71363 152.781 9.11412C152.38 9.58135 151.978 10.0486 151.577 10.5158C151.242 10.9163 151.309 11.517 151.644 11.8508C152.045 12.1845 152.648 12.1178 152.982 11.7173C153.384 11.25 153.785 10.7828 154.187 10.3156C154.521 9.91509 154.454 9.31436 154.053 8.98062Z" fill="url(#paint6_linear)"/>
<path fill-rule="evenodd" clip-rule="evenodd" d="M150.841 7.17844C150.439 6.8447 149.904 6.91145 149.569 7.31193C149.168 7.77916 148.766 8.2464 148.365 8.71363C148.03 9.11411 148.097 9.71484 148.498 10.0486C148.9 10.3156 149.502 10.3156 149.837 9.91509C150.172 9.44785 150.573 8.91387 150.975 8.44664C151.309 8.04615 151.242 7.51217 150.841 7.17844Z" fill="url(#paint7_linear)"/>
<path fill-rule="evenodd" clip-rule="evenodd" d="M147.562 5.443C147.16 5.17601 146.625 5.24276 146.29 5.64324C145.889 6.11047 145.487 6.57771 145.152 7.04494C144.818 7.44543 144.885 8.04615 145.286 8.31314C145.688 8.64688 146.29 8.58013 146.558 8.17965C146.959 7.71242 147.361 7.24518 147.695 6.77795C148.03 6.37746 147.963 5.77674 147.562 5.443Z" fill="url(#paint8_linear)"/>
<path fill-rule="evenodd" clip-rule="evenodd" d="M144.216 3.9078C143.814 3.57407 143.279 3.70756 142.944 4.0413C142.543 4.57528 142.208 5.04251 141.806 5.50975C141.472 5.91023 141.539 6.51096 141.94 6.77795C142.342 7.11169 142.944 7.04494 143.279 6.64445C143.613 6.17722 144.015 5.70999 144.416 5.17601C144.684 4.77552 144.617 4.24154 144.216 3.9078Z" fill="url(#paint9_linear)"/>
<path fill-rule="evenodd" clip-rule="evenodd" d="M140.803 2.57285C140.401 2.23912 139.799 2.30586 139.531 2.70635C139.13 3.24033 138.795 3.70756 138.393 4.1748C138.126 4.57528 138.193 5.17601 138.594 5.443C138.996 5.77674 139.531 5.70999 139.866 5.3095C140.2 4.77552 140.602 4.30829 141.003 3.84106C141.271 3.44057 141.204 2.83984 140.803 2.57285Z" fill="url(#paint10_linear)"/>
<path fill-rule="evenodd" clip-rule="evenodd" d="M137.256 1.43814C136.854 1.17115 136.319 1.2379 135.984 1.63839C135.65 2.10562 135.248 2.57285 134.914 3.10683C134.646 3.50732 134.713 4.0413 135.114 4.37504C135.516 4.64203 136.051 4.57528 136.386 4.1748C136.72 3.70756 137.122 3.17358 137.457 2.70635C137.791 2.30586 137.657 1.70513 137.256 1.43814Z" fill="url(#paint11_linear)"/>
<path fill-rule="evenodd" clip-rule="evenodd" d="M133.709 0.637174C133.307 0.370183 132.705 0.436931 132.437 0.837416C132.036 1.30465 131.701 1.83863 131.367 2.30586C131.032 2.70635 131.166 3.30708 131.567 3.57407C131.969 3.84106 132.504 3.77431 132.839 3.37382C133.174 2.90659 133.508 2.37261 133.91 1.90538C134.177 1.50489 134.11 0.970912 133.709 0.637174Z" fill="url(#paint12_linear)"/>
<path fill-rule="evenodd" clip-rule="evenodd" d="M130.028 0.370183C129.627 0.0364456 129.025 0.169941 128.757 0.570426C128.422 1.03766 128.021 1.50489 127.686 2.03887C127.418 2.43936 127.485 2.97334 127.887 3.30708C128.288 3.57407 128.891 3.50732 129.158 3.04009C129.493 2.57285 129.894 2.10562 130.229 1.57164C130.497 1.17115 130.43 0.637174 130.028 0.370183Z" fill="url(#paint13_linear)"/>
<path fill-rule="evenodd" clip-rule="evenodd" d="M126.348 0.703921C125.946 0.436931 125.344 0.570426 125.076 0.970912C124.742 1.43814 124.407 1.97213 124.072 2.43936C123.805 2.83984 123.872 3.44057 124.273 3.70756C124.675 3.97455 125.277 3.9078 125.545 3.44057C125.879 2.97334 126.214 2.50611 126.548 1.97213C126.883 1.57164 126.749 1.03766 126.348 0.703921Z" fill="url(#paint14_linear)"/>
<path fill-rule="evenodd" clip-rule="evenodd" d="M122.935 2.17237C122.533 1.90538 121.998 1.97213 121.73 2.37261C121.396 2.90659 121.061 3.37382 120.726 3.9078C120.392 4.30829 120.526 4.84227 120.927 5.10926C121.329 5.443 121.931 5.3095 122.199 4.90902C122.533 4.37504 122.868 3.9078 123.202 3.37382C123.47 2.97334 123.403 2.43936 122.935 2.17237Z" fill="url(#paint15_linear)"/>
<path fill-rule="evenodd" clip-rule="evenodd" d="M120.325 4.64203C119.923 4.37504 119.321 4.50853 119.053 4.90902C118.719 5.443 118.384 5.91023 118.049 6.44421C117.782 6.8447 117.916 7.37868 118.317 7.64567C118.719 7.91266 119.321 7.84591 119.589 7.37868C119.923 6.91145 120.258 6.37747 120.592 5.91023C120.86 5.50975 120.726 4.90902 120.325 4.64203Z" fill="url(#paint16_linear)"/>
<path fill-rule="evenodd" clip-rule="evenodd" d="M118.652 7.91266C118.183 7.64567 117.648 7.77916 117.38 8.17965C117.046 8.64688 116.711 9.18086 116.443 9.6481C116.176 10.1153 116.243 10.6493 116.711 10.9163C117.113 11.1833 117.648 11.0498 117.916 10.6493C118.25 10.1153 118.585 9.6481 118.919 9.11412C119.187 8.71363 119.053 8.17965 118.652 7.91266Z" fill="url(#paint17_linear)"/>
<path fill-rule="evenodd" clip-rule="evenodd" d="M117.916 11.4503C117.514 11.1833 116.979 11.3168 116.711 11.784C116.376 12.2513 116.042 12.7852 115.774 13.2525C115.506 13.7197 115.64 14.2537 116.042 14.5207C116.443 14.7877 116.979 14.6542 117.246 14.1869C117.581 13.7197 117.916 13.1857 118.183 12.7185C118.451 12.318 118.317 11.7173 117.916 11.4503Z" fill="url(#paint18_linear)"/>
<path fill-rule="evenodd" clip-rule="evenodd" d="M118.585 15.0546C118.183 14.7877 117.581 14.9212 117.313 15.3216C117.046 15.8556 116.711 16.3896 116.443 16.8568C116.176 17.2573 116.31 17.858 116.711 18.125C117.113 18.3253 117.648 18.1918 117.916 17.7913C118.25 17.3241 118.585 16.7901 118.853 16.2561C119.12 15.8556 118.986 15.3216 118.585 15.0546Z" fill="url(#paint19_linear)"/>
<path fill-rule="evenodd" clip-rule="evenodd" d="M119.99 18.392C119.522 18.1918 118.986 18.3253 118.719 18.7258C118.451 19.2597 118.116 19.727 117.849 20.261C117.581 20.6614 117.715 21.1954 118.183 21.4624C118.585 21.7294 119.12 21.5959 119.388 21.1954C119.656 20.6614 119.99 20.1275 120.258 19.6602C120.526 19.193 120.392 18.659 119.99 18.392Z" fill="url(#paint20_linear)"/>
<path fill-rule="evenodd" clip-rule="evenodd" d="M121.73 21.5959C121.329 21.3957 120.793 21.5292 120.526 21.9296C120.258 22.4636 119.923 22.9309 119.656 23.4648C119.388 23.8653 119.522 24.4661 119.99 24.6663C120.392 24.9333 120.927 24.7998 121.195 24.3326C121.462 23.8653 121.797 23.3313 122.065 22.7974C122.332 22.3969 122.199 21.8629 121.73 21.5959Z" fill="url(#paint21_linear)"/>
<path fill-rule="evenodd" clip-rule="evenodd" d="M123.671 24.6663C123.269 24.4661 122.734 24.5996 122.466 25C122.199 25.534 121.931 26.068 121.596 26.5352C121.396 27.0025 121.529 27.5364 121.931 27.8034C122.399 28.0037 122.935 27.8702 123.135 27.403C123.47 26.9357 123.738 26.4017 124.005 25.8678C124.273 25.4673 124.139 24.9333 123.671 24.6663Z" fill="url(#paint22_linear)"/>
<path fill-rule="evenodd" clip-rule="evenodd" d="M125.678 27.7367C125.277 27.5364 124.742 27.6699 124.474 28.0704C124.206 28.6044 123.939 29.1384 123.671 29.6056C123.403 30.0729 123.537 30.6068 124.005 30.8071C124.407 31.0741 124.942 30.9406 125.21 30.4733C125.478 29.9394 125.745 29.4721 126.08 28.9381C126.281 28.5377 126.147 27.9369 125.678 27.7367Z" fill="url(#paint23_linear)"/>
<path fill-rule="evenodd" clip-rule="evenodd" d="M127.619 30.8071C127.218 30.6068 126.682 30.7403 126.415 31.2076C126.147 31.7415 125.879 32.2088 125.612 32.7428C125.411 33.1432 125.545 33.744 126.013 33.9442C126.415 34.1445 126.95 34.011 127.151 33.5437C127.485 33.0765 127.753 32.5425 128.021 32.0085C128.221 31.608 128.088 31.0741 127.619 30.8071Z" fill="url(#paint24_linear)"/>
<path fill-rule="evenodd" clip-rule="evenodd" d="M129.359 34.011C128.958 33.8107 128.422 34.011 128.155 34.4114C127.887 34.9454 127.619 35.4794 127.351 35.9466C127.151 36.4139 127.351 36.9478 127.753 37.1481C128.221 37.4151 128.757 37.2148 128.958 36.8144C129.225 36.2804 129.493 35.7464 129.761 35.2124C129.961 34.8119 129.828 34.278 129.359 34.011Z" fill="url(#paint25_linear)"/>
<path fill-rule="evenodd" clip-rule="evenodd" d="M130.631 37.4818C130.162 37.2148 129.627 37.4151 129.426 37.8823C129.158 38.3496 128.891 38.8835 128.623 39.4175C128.422 39.8847 128.623 40.4187 129.025 40.619C129.493 40.8192 130.028 40.619 130.229 40.2185C130.497 39.6845 130.764 39.1505 131.032 38.6165C131.233 38.2161 131.032 37.6821 130.631 37.4818Z" fill="url(#paint26_linear)"/>
<path fill-rule="evenodd" clip-rule="evenodd" d="M130.564 41.0862C130.162 40.886 129.627 41.0194 129.426 41.4867C129.158 42.0207 128.891 42.5546 128.623 43.0886C128.422 43.4891 128.623 44.0231 129.024 44.2233C129.493 44.4236 130.028 44.2901 130.229 43.8228C130.497 43.2889 130.764 42.7549 130.965 42.2209C131.233 41.8204 131.032 41.2864 130.564 41.0862Z" fill="url(#paint27_linear)"/>
<path fill-rule="evenodd" clip-rule="evenodd" d="M128.556 44.0898C128.155 43.8228 127.619 44.0231 127.418 44.4903C127.151 45.0243 126.883 45.5583 126.615 46.0923C126.415 46.4928 126.615 47.0267 127.084 47.227C127.485 47.4272 128.021 47.227 128.221 46.8265C128.489 46.2925 128.757 45.7585 128.958 45.2246C129.158 44.8241 129.025 44.2901 128.556 44.0898Z" fill="url(#paint28_linear)"/>
<path fill-rule="evenodd" clip-rule="evenodd" d="M125.277 45.6918C124.808 45.4915 124.34 45.6918 124.139 46.0923C123.872 46.6262 123.604 47.1602 123.403 47.6942C123.202 48.1614 123.403 48.6287 123.805 48.8289C124.273 49.0292 124.808 48.8957 125.009 48.4284C125.21 47.8944 125.478 47.3605 125.678 46.8265C125.879 46.3593 125.745 45.892 125.277 45.6918Z" fill="url(#paint29_linear)"/>
<path fill-rule="evenodd" clip-rule="evenodd" d="M121.663 46.3593C121.195 46.159 120.726 46.3593 120.526 46.8265C120.258 47.3605 120.057 47.8944 119.789 48.4284C119.589 48.8957 119.789 49.3629 120.258 49.5631C120.659 49.7634 121.195 49.5631 121.396 49.1627C121.663 48.6287 121.864 48.0947 122.132 47.5607C122.332 47.0935 122.132 46.5595 121.663 46.3593Z" fill="url(#paint30_linear)"/>
<path fill-rule="evenodd" clip-rule="evenodd" d="M117.983 46.5595C117.514 46.3593 116.979 46.5595 116.845 47.0267C116.577 47.5607 116.376 48.0947 116.109 48.6287C115.975 49.0959 116.176 49.5631 116.577 49.7634C117.046 49.9636 117.581 49.7634 117.782 49.2962C117.983 48.7622 118.183 48.2282 118.451 47.6942C118.652 47.227 118.384 46.7597 117.983 46.5595Z" fill="url(#paint31_linear)"/>
<path fill-rule="evenodd" clip-rule="evenodd" d="M114.302 46.3593C113.833 46.159 113.298 46.3593 113.164 46.8265C112.897 47.3605 112.696 47.8944 112.495 48.4284C112.294 48.8957 112.495 49.4296 112.963 49.5631C113.432 49.7634 113.9 49.5631 114.101 49.0959C114.302 48.5619 114.57 48.0279 114.77 47.494C114.971 47.0267 114.703 46.5595 114.302 46.3593Z" fill="url(#paint32_linear)"/>
<path fill-rule="evenodd" clip-rule="evenodd" d="M110.621 45.8253C110.153 45.6918 109.684 45.892 109.484 46.3593C109.283 46.8932 109.082 47.4272 108.814 47.9612C108.681 48.4284 108.881 48.8957 109.35 49.0959C109.818 49.2962 110.287 49.0292 110.487 48.6287C110.688 48.028 110.889 47.494 111.157 46.96C111.29 46.5595 111.09 46.0255 110.621 45.8253Z" fill="url(#paint33_linear)"/>
<path fill-rule="evenodd" clip-rule="evenodd" d="M107.008 45.0911C106.539 44.8908 106.071 45.1578 105.87 45.5583C105.669 46.0923 105.468 46.693 105.268 47.227C105.067 47.6275 105.334 48.1614 105.736 48.3617C106.204 48.4952 106.74 48.2949 106.874 47.8277C107.141 47.2937 107.342 46.7597 107.543 46.2258C107.677 45.7585 107.476 45.2246 107.008 45.0911Z" fill="url(#paint34_linear)"/>
<path fill-rule="evenodd" clip-rule="evenodd" d="M103.461 44.0898C102.992 43.8896 102.524 44.1566 102.323 44.6238C102.122 45.1578 101.922 45.6918 101.721 46.2258C101.587 46.693 101.788 47.1602 102.256 47.3605C102.725 47.494 103.193 47.2937 103.394 46.8265C103.595 46.2925 103.795 45.7585 103.996 45.2246C104.13 44.7573 103.929 44.2233 103.461 44.0898Z" fill="url(#paint35_linear)"/>
<path fill-rule="evenodd" clip-rule="evenodd" d="M99.9808 42.8884C99.5124 42.6881 99.0439 42.9551 98.8432 43.4224C98.6424 43.9563 98.4416 44.4903 98.2409 45.091C98.107 45.4915 98.3747 46.0255 98.7762 46.159C99.2447 46.3593 99.7801 46.0923 99.9139 45.625C100.115 45.0911 100.315 44.5571 100.516 44.0231C100.65 43.5559 100.449 43.0219 99.9808 42.8884Z" fill="url(#paint36_linear)"/>
<path fill-rule="evenodd" clip-rule="evenodd" d="M96.5678 41.4867C96.0994 41.3532 95.564 41.6202 95.4302 42.0207C95.2294 42.6214 95.0287 43.1554 94.8948 43.6894C94.6941 44.1566 94.9617 44.6906 95.4302 44.8241C95.8986 44.9576 96.3671 44.7573 96.5009 44.2901C96.7017 43.6894 96.9025 43.1554 97.1032 42.6214C97.2371 42.1542 97.0363 41.6869 96.5678 41.4867Z" fill="url(#paint37_linear)"/>
<path fill-rule="evenodd" clip-rule="evenodd" d="M93.2218 39.9515C92.7533 39.818 92.218 40.085 92.0841 40.5522C91.8834 41.0862 91.7495 41.6202 91.5488 42.2209C91.4149 42.6214 91.6157 43.1554 92.0841 43.2889C92.5526 43.4224 93.088 43.2221 93.2218 42.7549C93.4226 42.1542 93.5564 41.6202 93.7572 41.0862C93.891 40.619 93.6233 40.085 93.2218 39.9515Z" fill="url(#paint38_linear)"/>
<path fill-rule="evenodd" clip-rule="evenodd" d="M89.9427 38.2828C89.4742 38.1493 88.9389 38.3496 88.805 38.8168C88.6712 39.4175 88.4704 39.9515 88.2697 40.4855C88.1358 40.9527 88.4035 41.4867 88.8719 41.6202C89.3404 41.7537 89.8088 41.4867 89.9427 41.0195C90.1434 40.4855 90.3442 39.9515 90.478 39.3508C90.6119 38.8835 90.4111 38.4163 89.9427 38.2828Z" fill="url(#paint39_linear)"/>
<path fill-rule="evenodd" clip-rule="evenodd" d="M86.7305 36.4139C86.262 36.2804 85.7267 36.5474 85.5928 37.0146C85.459 37.6153 85.2582 38.1493 85.1244 38.6833C84.9905 39.1505 85.2582 39.6845 85.7267 39.818C86.1951 39.9515 86.6635 39.6845 86.7974 39.2173C86.9982 38.6165 87.132 38.0826 87.3328 37.5486C87.4666 37.0813 87.1989 36.5474 86.7305 36.4139Z" fill="url(#paint40_linear)"/>
<path fill-rule="evenodd" clip-rule="evenodd" d="M83.5852 34.4782C83.1167 34.3447 82.6483 34.6117 82.5144 35.0789C82.3137 35.6796 82.1798 36.2136 81.9791 36.8144C81.8452 37.2816 82.1129 37.7488 82.5814 37.8823C83.0498 38.0158 83.5852 37.7488 83.719 37.2816C83.8529 36.6809 83.9867 36.1469 84.1875 35.6129C84.3213 35.1457 84.0536 34.6117 83.5852 34.4782Z" fill="url(#paint41_linear)"/>
<path fill-rule="evenodd" clip-rule="evenodd" d="M80.4399 32.5425C79.9715 32.409 79.503 32.7428 79.3692 33.21C79.1684 33.744 79.0346 34.278 78.9007 34.8787C78.7669 35.3459 79.0346 35.8131 79.503 35.9466C79.9715 36.0801 80.4399 35.8131 80.5737 35.3459C80.7076 34.7452 80.9083 34.2112 81.0422 33.6105C81.176 33.1432 80.9083 32.676 80.4399 32.5425Z" fill="url(#paint42_linear)"/>
<path fill-rule="evenodd" clip-rule="evenodd" d="M77.2946 30.6736C76.8262 30.5401 76.2908 30.8071 76.2239 31.2743C76.0231 31.875 75.8893 32.409 75.7554 33.0097C75.6216 33.477 75.8893 33.9442 76.3577 34.0777C76.8262 34.2112 77.3615 33.8775 77.4285 33.4102C77.6292 32.8763 77.7631 32.2755 77.8969 31.7415C78.0307 31.2743 77.7631 30.8071 77.2946 30.6736Z" fill="url(#paint43_linear)"/>
<path fill-rule="evenodd" clip-rule="evenodd" d="M74.0824 28.8046C73.614 28.7379 73.1455 29.0049 73.0117 29.4721C72.8778 30.0729 72.744 30.6068 72.5432 31.2076C72.4763 31.6748 72.744 32.142 73.2124 32.2755C73.6809 32.3423 74.1493 32.0753 74.2832 31.608C74.417 31.0073 74.5509 30.4733 74.6847 29.8726C74.8185 29.4054 74.5509 28.9381 74.0824 28.8046Z" fill="url(#paint44_linear)"/>
<path fill-rule="evenodd" clip-rule="evenodd" d="M70.8033 27.0692C70.3348 27.0025 69.8664 27.2695 69.7326 27.7367C69.5987 28.3374 69.4649 28.8714 69.331 29.4721C69.2641 29.9394 69.5318 30.4066 70.0002 30.5401C70.4687 30.6736 70.9371 30.3398 71.071 29.8726C71.2048 29.2719 71.3387 28.7379 71.4725 28.1372C71.6063 27.6699 71.2717 27.2027 70.8033 27.0692Z" fill="url(#paint45_linear)"/>
<path fill-rule="evenodd" clip-rule="evenodd" d="M67.4572 25.4673C66.9888 25.4005 66.5203 25.6675 66.4534 26.1347C66.3196 26.7355 66.1857 27.3362 66.0519 27.8702C65.9181 28.4042 66.2527 28.8714 66.7211 28.9381C67.1896 29.0716 67.658 28.7379 67.7919 28.2707C67.9257 27.6699 68.0595 27.136 68.1264 26.5352C68.2603 26.068 67.9926 25.6008 67.4572 25.4673Z" fill="url(#paint46_linear)"/>
<path fill-rule="evenodd" clip-rule="evenodd" d="M64.0443 24.0656C63.5758 23.9988 63.1074 24.2658 63.0405 24.733C62.9066 25.3338 62.7728 25.9345 62.6389 26.4685C62.572 27.0025 62.8397 27.4697 63.3751 27.5364C63.8435 27.6699 64.312 27.3362 64.3789 26.869C64.5127 26.2682 64.6466 25.7343 64.7804 25.1335C64.8473 24.6663 64.5796 24.1991 64.0443 24.0656Z" fill="url(#paint47_linear)"/>
<path fill-rule="evenodd" clip-rule="evenodd" d="M60.5644 22.8641C60.0959 22.7974 59.6275 23.0644 59.5606 23.5316C59.4267 24.1323 59.2929 24.733 59.226 25.3338C59.0921 25.801 59.4267 26.2682 59.8952 26.335C60.3636 26.4685 60.8321 26.1347 60.9659 25.6675C61.0328 25.0668 61.1667 24.4661 61.3005 23.9321C61.3674 23.3981 61.0997 22.9309 60.5644 22.8641Z" fill="url(#paint48_linear)"/>
<path fill-rule="evenodd" clip-rule="evenodd" d="M57.0176 21.9296C56.5491 21.7962 56.0807 22.1299 56.0138 22.5971C55.8799 23.1979 55.7461 23.7986 55.6792 24.3993C55.5453 24.8665 55.8799 25.3338 56.3484 25.4005C56.8837 25.534 57.3522 25.2003 57.4191 24.6663C57.5529 24.1323 57.6199 23.5316 57.7537 22.9309C57.8206 22.4636 57.486 21.9964 57.0176 21.9296Z" fill="url(#paint49_linear)"/>
<path fill-rule="evenodd" clip-rule="evenodd" d="M53.4038 21.1954C52.9354 21.1287 52.4669 21.4624 52.3331 21.9296C52.2662 22.5304 52.1323 23.1311 52.0654 23.7318C51.9985 24.1991 52.3331 24.6663 52.8015 24.733C53.27 24.7998 53.7384 24.4661 53.8054 23.9988C53.9392 23.3981 54.0061 22.8641 54.14 22.2634C54.2069 21.7962 53.8723 21.3289 53.4038 21.1954Z" fill="url(#paint50_linear)"/>
<path fill-rule="evenodd" clip-rule="evenodd" d="M49.7232 20.7949C49.2547 20.7282 48.7863 21.0619 48.7194 21.5292C48.5855 22.1299 48.5186 22.7306 48.4517 23.3313C48.3179 23.7986 48.6525 24.2658 49.1878 24.3326C49.6563 24.3993 50.1247 24.0656 50.1916 23.5983C50.2586 22.9976 50.3924 22.3969 50.4593 21.8629C50.5262 21.3289 50.1916 20.8617 49.7232 20.7949Z" fill="url(#paint51_linear)"/>
<path fill-rule="evenodd" clip-rule="evenodd" d="M46.0425 20.6614C45.5741 20.5947 45.1056 20.9284 45.0387 21.4624C44.9049 21.9964 44.838 22.5971 44.771 23.1979C44.7041 23.6651 45.0387 24.1323 45.5072 24.1991C45.9756 24.3326 46.4441 23.9321 46.511 23.4648C46.6448 22.8641 46.7117 22.2634 46.7787 21.7294C46.8456 21.1954 46.511 20.7282 46.0425 20.6614Z" fill="url(#paint52_linear)"/>
<path fill-rule="evenodd" clip-rule="evenodd" d="M42.3619 20.7949C41.8934 20.7282 41.425 21.1287 41.3581 21.5959C41.2912 22.1966 41.1573 22.7974 41.0904 23.3981C41.0235 23.8653 41.3581 24.3326 41.8934 24.3993C42.3619 24.4661 42.8303 24.1323 42.8972 23.5983C42.9642 22.9976 43.0311 22.3969 43.098 21.8629C43.1649 21.3289 42.8303 20.8617 42.3619 20.7949Z" fill="url(#paint53_linear)"/>
<path fill-rule="evenodd" clip-rule="evenodd" d="M38.6812 21.1954C38.2128 21.1287 37.7444 21.4624 37.6774 21.9964C37.6105 22.5971 37.5436 23.1979 37.4767 23.7318C37.4097 24.2658 37.7443 24.733 38.2128 24.7998C38.7482 24.7998 39.2166 24.4661 39.2166 23.9988C39.3504 23.3981 39.4174 22.7974 39.4843 22.1966C39.5512 21.7294 39.1497 21.2622 38.6812 21.1954Z" fill="url(#paint54_linear)"/>
<path fill-rule="evenodd" clip-rule="evenodd" d="M35.0675 21.7962C34.5321 21.7294 34.1306 22.1299 34.0637 22.5971C33.9968 23.1979 33.9298 23.7986 33.8629 24.3993C33.796 24.8665 34.1306 25.3338 34.666 25.4005C35.1344 25.4673 35.6029 25.0668 35.6698 24.5996C35.7367 23.9988 35.8036 23.3981 35.8706 22.7974C35.8706 22.3301 35.5359 21.8629 35.0675 21.7962Z" fill="url(#paint55_linear)"/>
<path fill-rule="evenodd" clip-rule="evenodd" d="M31.4538 22.5971C30.9184 22.5304 30.5169 22.9309 30.45 23.3981C30.383 23.9988 30.3161 24.5996 30.2492 25.2003C30.2492 25.7343 30.5838 26.2015 31.0522 26.2015C31.5876 26.2682 32.0561 25.9345 32.0561 25.4005C32.123 24.7998 32.1899 24.1991 32.2568 23.5983C32.3237 23.1311 31.9222 22.6639 31.4538 22.5971Z" fill="url(#paint56_linear)"/>
<path fill-rule="evenodd" clip-rule="evenodd" d="M27.907 23.5983C27.3716 23.5316 26.9701 23.9321 26.9032 24.3993C26.8362 25 26.7693 25.6008 26.7693 26.2015C26.7024 26.7355 27.037 27.136 27.5724 27.2027C28.0408 27.2695 28.5093 26.869 28.5762 26.4017C28.5762 25.801 28.6431 25.2003 28.71 24.5996C28.7769 24.0656 28.3754 23.5983 27.907 23.5983Z" fill="url(#paint57_linear)"/>
<path fill-rule="evenodd" clip-rule="evenodd" d="M24.3602 24.733C23.8917 24.6663 23.4232 25.0668 23.4232 25.534C23.3563 26.1347 23.2894 26.7355 23.2225 27.3362C23.2225 27.8702 23.624 28.3374 24.0925 28.3374C24.6278 28.4042 25.0293 28.0037 25.0963 27.5364C25.0963 26.869 25.1632 26.2682 25.2301 25.6675C25.2301 25.2003 24.8955 24.733 24.3602 24.733Z" fill="url(#paint58_linear)"/>
<path fill-rule="evenodd" clip-rule="evenodd" d="M20.8803 25.9345C20.4118 25.9345 19.9434 26.335 19.9434 26.8022C19.8764 27.403 19.8764 28.0037 19.8095 28.6712C19.8095 29.1384 20.1441 29.6056 20.6795 29.6056C21.1479 29.6724 21.6164 29.2719 21.6164 28.7379C21.6833 28.1372 21.7502 27.5364 21.7502 26.9357C21.8172 26.4017 21.4156 26.0012 20.8803 25.9345Z" fill="url(#paint59_linear)"/>
<path fill-rule="evenodd" clip-rule="evenodd" d="M17.4673 27.3362C16.9989 27.2695 16.5304 27.6699 16.5304 28.2039C16.4635 28.8046 16.4635 29.4054 16.3966 30.0061C16.3966 30.5401 16.7981 30.9406 17.2665 31.0073C17.8019 31.0073 18.2034 30.6068 18.2703 30.1396C18.2703 29.5389 18.3373 28.9381 18.3373 28.2707C18.4042 27.8034 18.0027 27.3362 17.4673 27.3362Z" fill="url(#paint60_linear)"/>
<path fill-rule="evenodd" clip-rule="evenodd" d="M14.1212 28.8046C13.5859 28.7379 13.1844 29.1384 13.1174 29.6724C13.1174 30.2731 13.1174 30.8738 13.0505 31.5413C13.0505 32.0085 13.452 32.4758 13.9205 32.4758C14.4559 32.4758 14.8574 32.0753 14.9243 31.608C14.9243 31.0073 14.9912 30.3398 14.9912 29.7391C14.9912 29.2719 14.5897 28.8046 14.1212 28.8046Z" fill="url(#paint61_linear)"/>
<path fill-rule="evenodd" clip-rule="evenodd" d="M10.7752 30.3398C10.2398 30.3398 9.8383 30.7403 9.8383 31.2743C9.77139 31.875 9.77139 32.4758 9.77139 33.0765C9.70448 33.6105 10.106 34.011 10.6414 34.0777C11.1767 34.0777 11.5782 33.6772 11.5782 33.1432C11.6452 32.5425 11.6452 31.9418 11.6452 31.2743C11.7121 30.8071 11.3106 30.3398 10.7752 30.3398Z" fill="url(#paint62_linear)"/>
<path fill-rule="evenodd" clip-rule="evenodd" d="M7.49606 32.0085C6.96069 31.9418 6.49226 32.409 6.49226 32.8763C6.49226 33.477 6.49226 34.1445 6.49226 34.7452C6.49226 35.2792 6.89377 35.6796 7.36223 35.6796C7.89758 35.6796 8.29913 35.2792 8.36604 34.8119C8.36604 34.1445 8.36604 33.5437 8.36604 32.943C8.36604 32.409 7.96451 32.0085 7.49606 32.0085Z" fill="url(#paint63_linear)"/>
<path fill-rule="evenodd" clip-rule="evenodd" d="M4.21696 33.6772C3.68159 33.6772 3.28006 34.0777 3.28006 34.6117C3.21315 35.2124 3.21313 35.8131 3.21313 36.4806C3.21313 36.9479 3.61467 37.4151 4.15002 37.4151C4.68539 37.4151 5.08693 37.0146 5.08693 36.4806C5.08693 35.8799 5.08693 35.2124 5.15385 34.6117C5.15385 34.0777 4.68541 33.6772 4.21696 33.6772Z" fill="url(#paint64_linear)"/>
<path d="M0.000930786 36.3471C0.000930786 35.831 0.420395 35.4127 0.93782 35.4127C1.45525 35.4127 1.87471 35.831 1.87471 36.3471V38.2161C1.87471 38.7321 1.45525 39.1505 0.93782 39.1505C0.420395 39.1505 0.000930786 38.7321 0.000930786 38.2161V36.3471Z" fill="url(#paint65_linear)"/>
<defs>
<linearGradient id="paint0_linear" x1="166.601" y1="24.9681" x2="0.936802" y2="24.9681" gradientUnits="userSpaceOnUse">
<stop stop-color="#E2C391"/>
<stop offset="1" stop-color="#E2C391" stop-opacity="0"/>
</linearGradient>
<linearGradient id="paint1_linear" x1="198.64" y1="25" x2="0.00071651" y2="25" gradientUnits="userSpaceOnUse">
<stop stop-color="#E2C391"/>
<stop offset="1" stop-color="#E2C391" stop-opacity="0"/>
</linearGradient>
<linearGradient id="paint2_linear" x1="198.64" y1="25" x2="0.00071651" y2="25" gradientUnits="userSpaceOnUse">
<stop stop-color="#E2C391"/>
<stop offset="1" stop-color="#E2C391" stop-opacity="0"/>
</linearGradient>
<linearGradient id="paint3_linear" x1="198.64" y1="25" x2="0.00071651" y2="25" gradientUnits="userSpaceOnUse">
<stop stop-color="#E2C391"/>
<stop offset="1" stop-color="#E2C391" stop-opacity="0"/>
</linearGradient>
<linearGradient id="paint4_linear" x1="198.64" y1="25" x2="0.00071651" y2="25" gradientUnits="userSpaceOnUse">
<stop stop-color="#E2C391"/>
<stop offset="1" stop-color="#E2C391" stop-opacity="0"/>
</linearGradient>
<linearGradient id="paint5_linear" x1="198.64" y1="25" x2="0.00071651" y2="25" gradientUnits="userSpaceOnUse">
<stop stop-color="#E2C391"/>
<stop offset="1" stop-color="#E2C391" stop-opacity="0"/>
</linearGradient>
<linearGradient id="paint6_linear" x1="198.64" y1="25" x2="0.00071651" y2="25" gradientUnits="userSpaceOnUse">
<stop stop-color="#E2C391"/>
<stop offset="1" stop-color="#E2C391" stop-opacity="0"/>
</linearGradient>
<linearGradient id="paint7_linear" x1="198.64" y1="25" x2="0.00071651" y2="25" gradientUnits="userSpaceOnUse">
<stop stop-color="#E2C391"/>
<stop offset="1" stop-color="#E2C391" stop-opacity="0"/>
</linearGradient>
<linearGradient id="paint8_linear" x1="198.64" y1="25" x2="0.00071651" y2="25" gradientUnits="userSpaceOnUse">
<stop stop-color="#E2C391"/>
<stop offset="1" stop-color="#E2C391" stop-opacity="0"/>
</linearGradient>
<linearGradient id="paint9_linear" x1="198.64" y1="25" x2="0.00071651" y2="25" gradientUnits="userSpaceOnUse">
<stop stop-color="#E2C391"/>
<stop offset="1" stop-color="#E2C391" stop-opacity="0"/>
</linearGradient>
<linearGradient id="paint10_linear" x1="198.64" y1="25" x2="0.00071651" y2="25" gradientUnits="userSpaceOnUse">
<stop stop-color="#E2C391"/>
<stop offset="1" stop-color="#E2C391" stop-opacity="0"/>
</linearGradient>
<linearGradient id="paint11_linear" x1="198.64" y1="25" x2="0.00071651" y2="25" gradientUnits="userSpaceOnUse">
<stop stop-color="#E2C391"/>
<stop offset="1" stop-color="#E2C391" stop-opacity="0"/>
</linearGradient>
<linearGradient id="paint12_linear" x1="198.64" y1="25" x2="0.00071651" y2="25" gradientUnits="userSpaceOnUse">
<stop stop-color="#E2C391"/>
<stop offset="1" stop-color="#E2C391" stop-opacity="0"/>
</linearGradient>
<linearGradient id="paint13_linear" x1="198.64" y1="25" x2="0.00071651" y2="25" gradientUnits="userSpaceOnUse">
<stop stop-color="#E2C391"/>
<stop offset="1" stop-color="#E2C391" stop-opacity="0"/>
</linearGradient>
<linearGradient id="paint14_linear" x1="198.64" y1="25" x2="0.00071651" y2="25" gradientUnits="userSpaceOnUse">
<stop stop-color="#E2C391"/>
<stop offset="1" stop-color="#E2C391" stop-opacity="0"/>
</linearGradient>
<linearGradient id="paint15_linear" x1="198.64" y1="25" x2="0.00071651" y2="25" gradientUnits="userSpaceOnUse">
<stop stop-color="#E2C391"/>
<stop offset="1" stop-color="#E2C391" stop-opacity="0"/>
</linearGradient>
<linearGradient id="paint16_linear" x1="198.64" y1="25" x2="0.00071651" y2="25" gradientUnits="userSpaceOnUse">
<stop stop-color="#E2C391"/>
<stop offset="1" stop-color="#E2C391" stop-opacity="0"/>
</linearGradient>
<linearGradient id="paint17_linear" x1="198.64" y1="25" x2="0.00071651" y2="25" gradientUnits="userSpaceOnUse">
<stop stop-color="#E2C391"/>
<stop offset="1" stop-color="#E2C391" stop-opacity="0"/>
</linearGradient>
<linearGradient id="paint18_linear" x1="198.64" y1="25" x2="0.00071651" y2="25" gradientUnits="userSpaceOnUse">
<stop stop-color="#E2C391"/>
<stop offset="1" stop-color="#E2C391" stop-opacity="0"/>
</linearGradient>
<linearGradient id="paint19_linear" x1="198.64" y1="25" x2="0.00071651" y2="25" gradientUnits="userSpaceOnUse">
<stop stop-color="#E2C391"/>
<stop offset="1" stop-color="#E2C391" stop-opacity="0"/>
</linearGradient>
<linearGradient id="paint20_linear" x1="198.64" y1="25" x2="0.00071651" y2="25" gradientUnits="userSpaceOnUse">
<stop stop-color="#E2C391"/>
<stop offset="1" stop-color="#E2C391" stop-opacity="0"/>
</linearGradient>
<linearGradient id="paint21_linear" x1="198.64" y1="25" x2="0.00071651" y2="25" gradientUnits="userSpaceOnUse">
<stop stop-color="#E2C391"/>
<stop offset="1" stop-color="#E2C391" stop-opacity="0"/>
</linearGradient>
<linearGradient id="paint22_linear" x1="198.64" y1="25" x2="0.00071651" y2="25" gradientUnits="userSpaceOnUse">
<stop stop-color="#E2C391"/>
<stop offset="1" stop-color="#E2C391" stop-opacity="0"/>
</linearGradient>
<linearGradient id="paint23_linear" x1="198.64" y1="25" x2="0.00071651" y2="25" gradientUnits="userSpaceOnUse">
<stop stop-color="#E2C391"/>
<stop offset="1" stop-color="#E2C391" stop-opacity="0"/>
</linearGradient>
<linearGradient id="paint24_linear" x1="198.64" y1="25" x2="0.00071651" y2="25" gradientUnits="userSpaceOnUse">
<stop stop-color="#E2C391"/>
<stop offset="1" stop-color="#E2C391" stop-opacity="0"/>
</linearGradient>
<linearGradient id="paint25_linear" x1="198.64" y1="25" x2="0.00071651" y2="25" gradientUnits="userSpaceOnUse">
<stop stop-color="#E2C391"/>
<stop offset="1" stop-color="#E2C391" stop-opacity="0"/>
</linearGradient>
<linearGradient id="paint26_linear" x1="198.64" y1="25" x2="0.00071651" y2="25" gradientUnits="userSpaceOnUse">
<stop stop-color="#E2C391"/>
<stop offset="1" stop-color="#E2C391" stop-opacity="0"/>
</linearGradient>
<linearGradient id="paint27_linear" x1="198.64" y1="25" x2="0.00071651" y2="25" gradientUnits="userSpaceOnUse">
<stop stop-color="#E2C391"/>
<stop offset="1" stop-color="#E2C391" stop-opacity="0"/>
</linearGradient>
<linearGradient id="paint28_linear" x1="198.64" y1="25" x2="0.00071651" y2="25" gradientUnits="userSpaceOnUse">
<stop stop-color="#E2C391"/>
<stop offset="1" stop-color="#E2C391" stop-opacity="0"/>
</linearGradient>
<linearGradient id="paint29_linear" x1="198.64" y1="25" x2="0.00071651" y2="25" gradientUnits="userSpaceOnUse">
<stop stop-color="#E2C391"/>
<stop offset="1" stop-color="#E2C391" stop-opacity="0"/>
</linearGradient>
<linearGradient id="paint30_linear" x1="198.64" y1="25" x2="0.00071651" y2="25" gradientUnits="userSpaceOnUse">
<stop stop-color="#E2C391"/>
<stop offset="1" stop-color="#E2C391" stop-opacity="0"/>
</linearGradient>
<linearGradient id="paint31_linear" x1="198.64" y1="25" x2="0.00071651" y2="25" gradientUnits="userSpaceOnUse">
<stop stop-color="#E2C391"/>
<stop offset="1" stop-color="#E2C391" stop-opacity="0"/>
</linearGradient>
<linearGradient id="paint32_linear" x1="198.64" y1="25" x2="0.00071651" y2="25" gradientUnits="userSpaceOnUse">
<stop stop-color="#E2C391"/>
<stop offset="1" stop-color="#E2C391" stop-opacity="0"/>
</linearGradient>
<linearGradient id="paint33_linear" x1="198.64" y1="25" x2="0.00071651" y2="25" gradientUnits="userSpaceOnUse">
<stop stop-color="#E2C391"/>
<stop offset="1" stop-color="#E2C391" stop-opacity="0"/>
</linearGradient>
<linearGradient id="paint34_linear" x1="198.64" y1="25" x2="0.00071651" y2="25" gradientUnits="userSpaceOnUse">
<stop stop-color="#E2C391"/>
<stop offset="1" stop-color="#E2C391" stop-opacity="0"/>
</linearGradient>
<linearGradient id="paint35_linear" x1="198.64" y1="25" x2="0.00071651" y2="25" gradientUnits="userSpaceOnUse">
<stop stop-color="#E2C391"/>
<stop offset="1" stop-color="#E2C391" stop-opacity="0"/>
</linearGradient>
<linearGradient id="paint36_linear" x1="198.64" y1="25" x2="0.00071651" y2="25" gradientUnits="userSpaceOnUse">
<stop stop-color="#E2C391"/>
<stop offset="1" stop-color="#E2C391" stop-opacity="0"/>
</linearGradient>
<linearGradient id="paint37_linear" x1="198.64" y1="25" x2="0.00071651" y2="25" gradientUnits="userSpaceOnUse">
<stop stop-color="#E2C391"/>
<stop offset="1" stop-color="#E2C391" stop-opacity="0"/>
</linearGradient>
<linearGradient id="paint38_linear" x1="198.64" y1="25" x2="0.00071651" y2="25" gradientUnits="userSpaceOnUse">
<stop stop-color="#E2C391"/>
<stop offset="1" stop-color="#E2C391" stop-opacity="0"/>
</linearGradient>
<linearGradient id="paint39_linear" x1="198.64" y1="25" x2="0.00071651" y2="25" gradientUnits="userSpaceOnUse">
<stop stop-color="#E2C391"/>
<stop offset="1" stop-color="#E2C391" stop-opacity="0"/>
</linearGradient>
<linearGradient id="paint40_linear" x1="198.64" y1="25" x2="0.00071651" y2="25" gradientUnits="userSpaceOnUse">
<stop stop-color="#E2C391"/>
<stop offset="1" stop-color="#E2C391" stop-opacity="0"/>
</linearGradient>
<linearGradient id="paint41_linear" x1="198.64" y1="25" x2="0.00071651" y2="25" gradientUnits="userSpaceOnUse">
<stop stop-color="#E2C391"/>
<stop offset="1" stop-color="#E2C391" stop-opacity="0"/>
</linearGradient>
<linearGradient id="paint42_linear" x1="198.64" y1="25" x2="0.00071651" y2="25" gradientUnits="userSpaceOnUse">
<stop stop-color="#E2C391"/>
<stop offset="1" stop-color="#E2C391" stop-opacity="0"/>
</linearGradient>
<linearGradient id="paint43_linear" x1="198.64" y1="25" x2="0.00071651" y2="25" gradientUnits="userSpaceOnUse">
<stop stop-color="#E2C391"/>
<stop offset="1" stop-color="#E2C391" stop-opacity="0"/>
</linearGradient>
<linearGradient id="paint44_linear" x1="198.64" y1="25" x2="0.00071651" y2="25" gradientUnits="userSpaceOnUse">
<stop stop-color="#E2C391"/>
<stop offset="1" stop-color="#E2C391" stop-opacity="0"/>
</linearGradient>
<linearGradient id="paint45_linear" x1="198.64" y1="25" x2="0.00071651" y2="25" gradientUnits="userSpaceOnUse">
<stop stop-color="#E2C391"/>
<stop offset="1" stop-color="#E2C391" stop-opacity="0"/>
</linearGradient>
<linearGradient id="paint46_linear" x1="198.64" y1="25" x2="0.00071651" y2="25" gradientUnits="userSpaceOnUse">
<stop stop-color="#E2C391"/>
<stop offset="1" stop-color="#E2C391" stop-opacity="0"/>
</linearGradient>
<linearGradient id="paint47_linear" x1="198.64" y1="25" x2="0.00071651" y2="25" gradientUnits="userSpaceOnUse">
<stop stop-color="#E2C391"/>
<stop offset="1" stop-color="#E2C391" stop-opacity="0"/>
</linearGradient>
<linearGradient id="paint48_linear" x1="198.64" y1="25" x2="0.00071651" y2="25" gradientUnits="userSpaceOnUse">
<stop stop-color="#E2C391"/>
<stop offset="1" stop-color="#E2C391" stop-opacity="0"/>
</linearGradient>
<linearGradient id="paint49_linear" x1="198.64" y1="25" x2="0.00071651" y2="25" gradientUnits="userSpaceOnUse">
<stop stop-color="#E2C391"/>
<stop offset="1" stop-color="#E2C391" stop-opacity="0"/>
</linearGradient>
<linearGradient id="paint50_linear" x1="198.64" y1="25" x2="0.00071651" y2="25" gradientUnits="userSpaceOnUse">
<stop stop-color="#E2C391"/>
<stop offset="1" stop-color="#E2C391" stop-opacity="0"/>
</linearGradient>
<linearGradient id="paint51_linear" x1="198.64" y1="25" x2="0.00071651" y2="25" gradientUnits="userSpaceOnUse">
<stop stop-color="#E2C391"/>
<stop offset="1" stop-color="#E2C391" stop-opacity="0"/>
</linearGradient>
<linearGradient id="paint52_linear" x1="198.64" y1="25" x2="0.00071651" y2="25" gradientUnits="userSpaceOnUse">
<stop stop-color="#E2C391"/>
<stop offset="1" stop-color="#E2C391" stop-opacity="0"/>
</linearGradient>
<linearGradient id="paint53_linear" x1="198.64" y1="25" x2="0.00071651" y2="25" gradientUnits="userSpaceOnUse">
<stop stop-color="#E2C391"/>
<stop offset="1" stop-color="#E2C391" stop-opacity="0"/>
</linearGradient>
<linearGradient id="paint54_linear" x1="198.64" y1="25" x2="0.00071651" y2="25" gradientUnits="userSpaceOnUse">
<stop stop-color="#E2C391"/>
<stop offset="1" stop-color="#E2C391" stop-opacity="0"/>
</linearGradient>
<linearGradient id="paint55_linear" x1="198.64" y1="25" x2="0.00071651" y2="25" gradientUnits="userSpaceOnUse">
<stop stop-color="#E2C391"/>
<stop offset="1" stop-color="#E2C391" stop-opacity="0"/>
</linearGradient>
<linearGradient id="paint56_linear" x1="198.64" y1="25" x2="0.00071651" y2="25" gradientUnits="userSpaceOnUse">
<stop stop-color="#E2C391"/>
<stop offset="1" stop-color="#E2C391" stop-opacity="0"/>
</linearGradient>
<linearGradient id="paint57_linear" x1="198.64" y1="25" x2="0.00071651" y2="25" gradientUnits="userSpaceOnUse">
<stop stop-color="#E2C391"/>
<stop offset="1" stop-color="#E2C391" stop-opacity="0"/>
</linearGradient>
<linearGradient id="paint58_linear" x1="198.64" y1="25" x2="0.00071651" y2="25" gradientUnits="userSpaceOnUse">
<stop stop-color="#E2C391"/>
<stop offset="1" stop-color="#E2C391" stop-opacity="0"/>
</linearGradient>
<linearGradient id="paint59_linear" x1="198.64" y1="25" x2="0.00071651" y2="25" gradientUnits="userSpaceOnUse">
<stop stop-color="#E2C391"/>
<stop offset="1" stop-color="#E2C391" stop-opacity="0"/>
</linearGradient>
<linearGradient id="paint60_linear" x1="198.64" y1="25" x2="0.00071651" y2="25" gradientUnits="userSpaceOnUse">
<stop stop-color="#E2C391"/>
<stop offset="1" stop-color="#E2C391" stop-opacity="0"/>
</linearGradient>
<linearGradient id="paint61_linear" x1="198.64" y1="25" x2="0.00071651" y2="25" gradientUnits="userSpaceOnUse">
<stop stop-color="#E2C391"/>
<stop offset="1" stop-color="#E2C391" stop-opacity="0"/>
</linearGradient>
<linearGradient id="paint62_linear" x1="198.64" y1="25" x2="0.00071651" y2="25" gradientUnits="userSpaceOnUse">
<stop stop-color="#E2C391"/>
<stop offset="1" stop-color="#E2C391" stop-opacity="0"/>
</linearGradient>
<linearGradient id="paint63_linear" x1="198.64" y1="25" x2="0.00071651" y2="25" gradientUnits="userSpaceOnUse">
<stop stop-color="#E2C391"/>
<stop offset="1" stop-color="#E2C391" stop-opacity="0"/>
</linearGradient>
<linearGradient id="paint64_linear" x1="198.64" y1="25" x2="0.00071651" y2="25" gradientUnits="userSpaceOnUse">
<stop stop-color="#E2C391"/>
<stop offset="1" stop-color="#E2C391" stop-opacity="0"/>
</linearGradient>
<linearGradient id="paint65_linear" x1="198.64" y1="25" x2="0.00071651" y2="25" gradientUnits="userSpaceOnUse">
<stop stop-color="#E2C391"/>
<stop offset="1" stop-color="#E2C391" stop-opacity="0"/>
</linearGradient>
</defs>
</svg>
