<svg width="66" height="66" viewBox="0 0 66 66" fill="none" xmlns="http://www.w3.org/2000/svg">
<path fill-rule="evenodd" clip-rule="evenodd" d="M24.7136 2.69836C26.981 2.69836 29.2695 2.71955 31.5368 2.71955C30.668 4.58427 29.8204 6.44899 28.9728 8.29252C28.6974 8.61037 28.4219 8.90703 28.1676 9.20369C28.3583 10.2844 28.5702 11.3439 28.7609 12.4246C31.8547 12.4458 34.9484 12.4881 38.0421 12.5305C36.8979 13.0179 35.7536 13.5053 34.6094 14.0138C32.0454 13.9926 29.4602 13.9926 26.8962 13.9714H22.5311H22.5099H21.3656H21.3444V13.9926L14.7967 14.0138C13.6525 13.5053 12.5082 13.0179 11.3639 12.5305C14.4577 12.4881 17.5514 12.4458 20.6452 12.4246C20.8571 11.3439 21.0478 10.2844 21.2597 9.20369C20.9842 8.90703 20.7087 8.61037 20.4333 8.29252C19.5857 6.44899 18.7381 4.58427 17.8905 2.71955C20.1578 2.71955 22.4251 2.69836 24.7136 2.69836V2.69836ZM26.7903 14.4164L26.7055 14.8402C28.0193 15.4971 28.5702 16.4295 28.6762 17.5737C28.7397 18.6544 28.104 19.5656 27.6379 19.9682C27.1505 20.4556 26.7691 20.9853 26.7055 21.727C26.9386 22.2991 27.2988 22.7229 27.7438 23.1467C27.2352 23.4434 26.8114 23.9943 26.6207 24.4605C26.5572 25.4988 26.9386 26.2616 27.6167 26.6643L27.5955 28.5078H21.8318L21.7894 26.6643C22.4887 26.2616 22.8701 25.4988 22.8065 24.4605C22.6158 23.9943 22.1708 23.4434 21.6623 23.1467C22.1285 22.7229 22.4887 22.2991 22.7006 21.727C22.6582 20.9853 22.2556 20.4556 21.7682 19.9682C21.302 19.5656 20.6875 18.6544 20.7299 17.5737C20.8359 16.4295 21.3868 15.4971 22.7006 14.8402L22.6158 14.4164H26.7903ZM27.6802 28.9952C28.3795 29.1223 29.2483 29.3978 29.6297 29.9275C30.0959 29.652 30.5409 29.3554 31.0071 29.0799C31.219 28.7409 31.0071 28.4866 31.0071 28.1687C31.3673 27.8721 31.7275 27.5754 32.1089 27.2576C32.6811 27.1728 32.8082 27.6178 33.3803 28.2323C34.0584 29.0587 34.3975 29.0375 34.3339 29.8004C33.8889 30.2242 33.4651 30.6268 33.0413 31.0506C32.8294 30.8599 32.6175 30.648 32.1725 30.7327C31.7487 31.0718 31.4309 31.2837 30.9859 31.6227C31.2825 32.3855 31.4309 33.4662 31.1978 34.2291C31.8759 34.441 32.4268 34.8648 32.5116 35.7336C32.5116 36.115 32.4904 36.4752 32.3844 36.7719H17.0429C16.9369 36.4752 16.8945 36.115 16.9157 35.7336C16.9793 34.8648 17.5302 34.441 18.2083 34.2291C17.9752 33.4662 18.1447 32.3855 18.4202 31.6227C17.9752 31.2837 17.6786 31.0718 17.2336 30.7327C16.7886 30.648 16.5979 30.8599 16.3648 31.0506C15.941 30.6268 15.5172 30.2242 15.0934 29.8004C15.0086 29.0375 14.9239 28.2747 14.8603 27.5119C15.6867 27.4271 16.4919 27.3423 17.3183 27.2576C17.6786 27.5754 18.0388 27.8721 18.399 28.1687C18.399 28.4866 18.2083 28.7409 18.399 29.0799C18.8652 29.3554 19.3314 29.652 19.7976 29.9275C20.1578 29.3978 21.0266 29.1223 21.747 28.9952H27.6802V28.9952ZM32.1725 37.2169L32.1513 39.0604C31.7911 39.1452 31.4309 39.2299 31.0706 39.3359C30.0959 40.247 29.3754 42.1965 29.4602 43.7646C32.0454 44.2096 35.2451 46.159 37.131 48.5747C39.1016 51.0539 38.6567 52.9398 37.576 54.4443C36.2622 56.2667 33.5711 57.4533 31.0494 58.1314C28.9304 58.1526 26.8326 58.1738 24.7136 58.195C22.5946 58.1738 20.4756 58.1526 18.3566 58.1314C15.835 57.4533 13.1651 56.2667 11.8513 54.4443C10.7494 52.9398 10.3256 51.0539 12.2751 48.5747C14.1822 46.159 17.3819 44.2096 19.9459 43.7646C20.0518 42.1965 19.3102 40.247 18.3354 39.3359C17.9964 39.2299 17.6362 39.1452 17.2759 39.0604L17.2336 37.2169H32.1725Z" fill="url(#paint0_linear)"/>
<path fill-rule="evenodd" clip-rule="evenodd" d="M34.1442 27.7236L33.9111 27.427L36.687 23.189L37.8949 24.7146L34.1442 27.7236L34.3773 28.0203L39.1239 26.2191L37.8949 24.7146L34.1442 27.7236V27.7236ZM47.0489 17.3829C47.4727 17.9338 47.8965 18.4636 48.3203 19.0145C47.9813 19.0145 47.6423 19.0357 47.3032 19.0569C47.5999 19.8621 47.3032 20.5402 46.7523 20.9004C46.1801 21.2607 45.3537 21.303 44.718 20.7521C44.4214 21.8116 43.9764 22.5744 42.8957 23.3373C41.7302 24.1849 40.2893 24.9053 39.1027 25.541C38.806 25.1808 38.5094 24.8206 38.2127 24.4604C37.9372 24.0789 37.6406 23.7187 37.3651 23.3585C38.2339 22.3414 39.251 21.0911 40.3105 20.1164C41.2853 19.2264 42.1329 18.9721 43.2347 18.9086C42.8533 18.1669 43.044 17.3617 43.5526 16.8955C44.0188 16.4505 44.7392 16.281 45.4597 16.7472C45.5444 16.4294 45.6292 16.0903 45.7352 15.7725C46.159 16.3022 46.6039 16.8531 47.0489 17.3829V17.3829Z" fill="url(#paint1_linear)"/>
<path fill-rule="evenodd" clip-rule="evenodd" d="M31.7709 62.8777C31.7074 62.687 31.665 62.5811 31.6862 62.3056C31.7286 61.8818 31.9828 61.7547 32.2583 61.7123C32.4278 61.6699 32.6185 61.6699 32.7669 61.6487C32.8728 61.6063 32.9576 61.564 33.1483 61.458C33.233 61.6063 33.339 61.7759 33.4238 61.9242C33.5085 62.0725 33.5933 62.242 33.6992 62.3904C33.5085 62.4963 33.4026 62.5599 33.339 62.6235C33.233 62.7506 33.1271 62.8989 33.0211 63.0473C32.8516 63.2592 32.6185 63.4075 32.2159 63.238C31.9616 63.1108 31.8981 63.0049 31.7709 62.8777V62.8777Z" fill="url(#paint2_linear)"/>
<path fill-rule="evenodd" clip-rule="evenodd" d="M33.8902 61.6488C34.1657 62.1149 34.4411 62.6023 34.7166 63.0685C35.0132 62.8778 35.3311 62.7083 35.649 62.5176C35.882 62.3904 35.6066 61.9242 36.0939 61.6488C36.327 61.5004 36.5601 61.3733 36.7932 61.2462C37.2594 60.9707 38.1494 61.3945 38.8063 61.0131C39.2936 60.7376 39.1029 60.8435 39.1029 60.8435C39.5691 60.5893 39.5267 59.9748 40.7134 59.2967C40.9464 59.1483 41.1795 59.0212 41.4126 58.8941C41.7517 58.3855 41.7093 58.3008 41.8576 58.0041C42.0907 57.877 42.3238 57.7286 42.5569 57.6015C42.9171 58.216 43.1926 58.2372 43.4045 58.0465C43.7011 57.7922 43.4045 57.432 43.8707 57.1565C44.2733 57.1353 44.8454 57.2201 45.0785 57.0717C45.5659 56.8174 45.8201 56.4148 46.0532 56.0122C46.2228 55.7368 46.3923 55.5037 46.583 55.3342C46.9432 55.0163 47.4094 54.9103 48.0239 55.0799C47.7908 54.6773 47.5577 54.2958 47.3458 53.8932C47.1127 53.5118 46.8796 53.1092 46.6466 52.7278C46.4982 53.3423 46.1592 53.6601 45.7142 53.8297C45.4811 53.9144 45.1844 53.9568 44.8666 53.9568C44.4004 53.9568 43.9342 53.978 43.4469 54.2535C43.2138 54.3806 43.0019 54.9315 42.79 55.2706C42.3026 55.546 42.1331 55.0799 41.7729 55.207C41.4974 55.313 41.3914 55.5672 41.7305 56.1817C41.4974 56.3089 41.2643 56.4572 41.0312 56.5844C40.7134 56.5632 40.6498 56.4996 40.0565 56.5208C39.8234 56.6691 39.5903 56.7963 39.336 56.9446C38.1706 57.6227 37.662 57.2836 37.1958 57.5379C37.1958 57.5379 37.3865 57.432 36.9204 57.7074C36.2423 58.0888 36.1787 59.0848 35.7125 59.3391C35.4794 59.4874 35.2251 59.6145 34.9921 59.7629C34.5259 60.0383 34.2504 59.551 34.0173 59.6993C33.6995 59.8688 33.3816 60.0595 33.085 60.229C33.3392 60.7164 33.6147 61.1826 33.8902 61.6488V61.6488Z" fill="url(#paint3_linear)"/>
<path d="M47.8963 16.8109C50.9688 14.48 54.0837 16.5566 54.2109 20.4343C54.4016 26.8761 50.5874 29.9063 47.0487 31.8981C43.0861 34.1019 38.9117 34.9919 38.6362 37.8737C38.5727 41.9846 44.7601 44.4214 48.3412 46.943C51.2443 48.9773 52.6216 50.9268 48.1929 53.3636" stroke="url(#paint4_linear)" stroke-width="2.69091" stroke-miterlimit="22.9256"/>
<defs>
<linearGradient id="paint0_linear" x1="10.9189" y1="30.4467" x2="38.4977" y2="30.4467" gradientUnits="userSpaceOnUse">
<stop stop-color="#FFD445"/>
<stop offset="0.5" stop-color="#BB7B15"/>
<stop offset="1" stop-color="#FFD445"/>
</linearGradient>
<linearGradient id="paint1_linear" x1="33.9111" y1="21.8964" x2="48.3203" y2="21.8964" gradientUnits="userSpaceOnUse">
<stop stop-color="#FFD445"/>
<stop offset="0.5" stop-color="#BB7B15"/>
<stop offset="1" stop-color="#FFD445"/>
</linearGradient>
<linearGradient id="paint2_linear" x1="31.6807" y1="62.3848" x2="33.6992" y2="62.3848" gradientUnits="userSpaceOnUse">
<stop stop-color="#FFD445"/>
<stop offset="0.5" stop-color="#BB7B15"/>
<stop offset="1" stop-color="#FFD445"/>
</linearGradient>
<linearGradient id="paint3_linear" x1="33.085" y1="57.8981" x2="48.0239" y2="57.8981" gradientUnits="userSpaceOnUse">
<stop stop-color="#FFD445"/>
<stop offset="0.5" stop-color="#BB7B15"/>
<stop offset="1" stop-color="#FFD445"/>
</linearGradient>
<linearGradient id="paint4_linear" x1="38.6357" y1="34.5975" x2="54.2177" y2="34.5975" gradientUnits="userSpaceOnUse">
<stop stop-color="#FFD445"/>
<stop offset="0.5" stop-color="#BB7B15"/>
<stop offset="1" stop-color="#FFD445"/>
</linearGradient>
</defs>
</svg>
