<svg width="579" height="562" viewBox="0 0 579 562" fill="none" xmlns="http://www.w3.org/2000/svg"><g clip-path="url(#clip0)"><path fill-rule="evenodd" clip-rule="evenodd" d="M240.965 162.886c-12.704-8.316-21.38-15.835-29.518-24.269-6.67-6.91-12.979-14.442-20.842-23.526-6.912-7.987-14.354-15.66-24.972-23.582 7.908-.456 16.729 1.016 25.275 3.719 9.016 2.849 18.472 7.214 26.59 13.161 9.986 7.312 17.942 17.018 20.559 29.224-4.332-4.093-7.159-8.052-11.467-11.316-4.853-3.678-8.154-5.877-13.242-8.267 5.525 7.641 12.195 15.974 17.768 24.639 4.247 6.597 7.863 13.389 9.849 20.217zM201.432 78.69c-4.004-10.32-10.953-17.19-19.07-22.193-10.803-6.654-23.682-10.007-34.457-13.775-10.362-3.626-20.781-8.397-32.369-19.307C108.385 16.69 101.639 8.91 92.413.045c-4.203 11.197-3.71 27.276 1.254 39.726 1.965 4.922 4.627 9.275 7.976 12.535 2.289 2.232 4.914 4.101 7.915 5.861-2.321-4.507-4.951-11.116-6.354-17.591-.959-4.43-1.351-8.796-.671-12.385 5.824 6.918 10.58 10.629 15.309 13.56 5.804 3.597 11.567 6.023 19.228 11.762-4.449 1.155-8.377.7-13.663-.426 3.79 5.694 11.321 11.03 19.831 15.534 13.675 7.243 33.748 13.51 57.487 25.014-2.193-4.862-5.21-9.077-8.713-12.682-5.824-5.987-13.003-10.295-20.025-13.124 4.813-.403 9.372.967 13.793 2.959 5.351 2.406 10.499 5.719 15.652 7.901zM108.28 91.342c-6.014-.837-9.88-2.63-12.603-5.987-1.816-2.244-3.127-5.183-4.223-9a39.136 39.136 0 01-1.282-6.66c2.896-2.208 7.556-3.683 12.11-3.822 4.627-.138 9.149 1.11 11.616 4.378-5.432-.07-9.804 2.057-12.267 5.133.505 6.22 1.953 10.52 6.649 15.958zm8.704 31.009c-3.329-.342-5.836-1.504-7.814-3.301-2.16-1.959-3.685-4.666-4.943-7.881-1.14-2.91-1.945-5.934-2.269-8.109 2.823-.646 6.549-.939 10.237-.699 4.11.268 8.174 1.195 10.905 3.028 1.998 1.342 3.421 3.353 3.773 6.487-3.502.821-8.591 1.114-12.372.48 1.791 3.113 2.313 6.853 2.483 9.995zm19.56-21.299c-2.932-.427-5.254-1.959-7.03-4.052-2.281-2.69-3.66-6.304-4.263-9.698-.368-2.077-.598-4.187-.889-6.186 3.179-.504 6.96-.334 10.544.516 3.402.809 6.625 2.227 8.987 4.255 1.97 1.695 3.224 3.963 2.924 7.174-2.479-.65-4.263-1.597-6.216-2.219-1.663-.528-3.454-.825-5.909-.504-.203 1.41-.017 3.049.319 4.71.429 2.118 1.1 4.269 1.533 6.004zm42.133 48.637c-8.748-.13-17.08.987-23.078 3.471 7.745 7.588 8.518 28.025 17.04 38.922 14.075 21.965 41.692 16.026 56.548-1.752-6.779 7.202-15.944 11.381-24.883 12.482-9.242 1.138-17.727-1.825-24.005-7.336-6.588-5.78-11.066-16.002-11.167-25.603-.04-3.975.781-8.235 2.54-11.978 1.569-3.345 3.887-6.272 7.005-8.206zm.267-15.096c-3.458-.858-6.916-3.057-10.148-5.926-3.972-3.419-7.211-6.926-10.589-11.483-2.471-3.507-4.441-6.609-4.497-10.311 1.306-2.049 3.357-1.63 5.602-.126 3.992 2.666 6.827 6.166 10.115 9.555 1.379 1.419 4.785 4.553 7.871 6.796 3.64 2.646 5.011 6.154 4.692 8.597-.231 1.744-1.315 2.943-3.046 2.898zm108.223 63.074c-1.756.101-3.212.666-4.259 3.068-2.083 4.768-2.472 12.145-3.426 17.588-1.505 8.576-3.264 16.811-6.512 24.879-.089.402 1.323 4.544 2.953 9.092 1.852 5.174 3.979 10.869 4.489 12.161 1.29 3.285 2.633 6.54 3.936 9.613 1.229 2.894 2.382 5.345 2.819 5.52v-81.921z" fill="#fff"/><path fill-rule="evenodd" clip-rule="evenodd" d="M161.144 185.436c.323 5.337 1.395 10.418 3.486 14.933 2.488 5.362 6.415 9.926 12.247 13.182 5.946 3.316 13.024 3.833 20.758.02-6.46-.13-12.543-.658-18.359-3.552-6.103-3.041-10.006-6.784-12.83-11.45-2.265-3.748-3.838-8.089-5.302-13.133z" fill="#fff"/><path fill-rule="evenodd" clip-rule="evenodd" d="M231.152 170.335a45.59 45.59 0 00-4.805-4.721c.054.572.082 1.152.082 1.739 0 10.007-8.073 18.116-18.027 18.116s-18.027-8.109-18.027-18.116a18.118 18.118 0 017.841-14.947 89.598 89.598 0 00-4.272-.847c-5.548 3.921-9.123 10.099-9.123 17.05 0 1.126.093 2.232.275 3.313a23.912 23.912 0 01-1.064-7.064c0-5.22 1.681-10.061 4.549-14.065a91.367 91.367 0 00-3.043-.287l-1.27.788c-.87.541-1.877 1.655-2.856 2.963-1.44 1.927-2.718 4.187-3.507 5.87a22.236 22.236 0 00-1.589 4.8 24.411 24.411 0 00-.538 5.247c.049 4.601.991 8.885 2.657 12.657 1.683 3.8 4.118 7.072 7.131 9.605 2.945 2.471 6.298 4.105 9.861 4.999 3.891.975 8.061 1.081 12.247.443 7.054-1.077 14.084-4.256 19.9-8.954 3.624-2.931 6.762-6.442 9.124-10.389a37.911 37.911 0 00-2.477-4.222c-3.613 8.409-11.899 14.518-21.775 15.359 10.104-1.803 17.872-9.668 18.706-19.337z" fill="#FE5700"/><path fill-rule="evenodd" clip-rule="evenodd" d="M147.788 143.954c-3.47-2.114-8.081-5.309-12.267-8.914-3.458-2.979-7.228-7.393-9.254-11.95-.882-1.979-1.404-3.43-1.622-5.784 4.671-1.288 9.262-1.32 13.626-.3 4.397 1.032 8.567 3.142 12.369 6.129 3.385 2.658 6.143 5.963 7.284 9.617.562 1.821.74 3.792.372 5.967-3.741-2.297-6.803-5.146-10.213-7.496-2.123-1.463-4.392-2.828-7.021-3.739 2.144 2.545 3.854 4.886 5.472 8.076.971 2.35 1.845 5.142 1.254 8.394zm112.381 2.39c-3.402.174-6.294-1.078-8.737-3.142-4.797-4.061-8.227-11.076-10.152-18.035-.813-2.947-1.076-6.279-1.674-9.405-.615-3.187-1.578-6.158-3.843-8.296 5.683-2.382 11.888-.679 16.895 2.943 4.287 3.105 7.701 7.621 9.149 12.194 1.096 3.471.817 7.21-1.97 11.124-.728-3.642-2.439-6.621-4.235-9.255a11.223 11.223 0 00-5.116-4.077c.946 3.935 1.856 7.878 3.037 11.715 1.533 4.999 3.527 9.824 6.646 14.234zm-34.918-45.877c-3.057-1.65-6.099-3.732-8.287-6.26-3.418-4.686-6.091-10.872-7.313-17.237-1.08-5.658-1.019-11.458.696-16.47 6.528 2.618 12.073 6.881 16.672 12.064 3.591 4.052 8.008 10.315 10.459 16.672 1.46 3.78 2.229 7.597 1.715 10.999-2.313-.553-4.934-2.768-7.482-5.528-3.823-4.142-7.483-9.519-9.687-12.364.691 2.898 1.808 6.345 2.572 9.726.671 2.992 1.068 5.93.655 8.398zm16.798-13.701c-2.067-1.716-3.483-4.597-4.405-7.747-1.096-3.744-1.5-7.873-1.48-10.877.028-3.63.78-7.21 2.451-10.096 4.384 1.617 7.171 4.97 9.582 8.04 2.528 3.214 4.073 7.112 4.247 12.506.08 2.552-.142 5.556-.874 7.592-1.363-.626-2.71-2.32-3.948-4.345-1.856-3.032-3.458-6.808-4.469-8.844.073 1.878-.012 3.621.044 5.808.049 1.93-.59 6.487-1.148 7.963zm28.114 19.066c.587-2.288.955-4.764.708-7.015-.752-3.858-2.585-8.032-5.177-11.564-2.302-3.138-5.202-5.768-8.466-7.21-1.702 4.462-2.135 9.19-1.682 13.868.36 3.654 1.432 8.734 3.45 12.876 1.201 2.463 2.738 4.597 4.655 5.902.789-1.406.898-3.735.7-6.276-.295-3.808-1.274-8.105-1.675-10.515 1.117 1.679 2.31 3.817 3.637 5.752 1.169 1.707 2.443 3.255 3.85 4.182zm16.397 42.137c1.877-2.837 2.536-6.845 2.504-10.999-.041-4.934-1.064-10.08-2.184-13.705-1.355-4.386-3.572-8.438-6.65-11.312-4.716 3.573-6.86 8.654-8.659 13.259-1.885 4.82-2.33 10.112-.571 16.697.833 3.117 2.197 6.67 3.831 8.869 1.415-1.26 2.43-3.809 3.187-6.715 1.136-4.353 1.699-9.515 2.18-12.348.598 2.296 1.335 4.377 2.067 7.04.643 2.357 3.082 7.637 4.295 9.214zm-5.137 26.619a26.648 26.648 0 00-7.07-10.36c-3.462-3.122-7.769-5.024-12.328-5.943-4.845-.979-9.974-.849-14.678.102.138 6.019 2.577 11.771 6.346 16.551 2.811 3.564 8.292 7.97 14.031 10.454 4.753 2.052 9.687 2.792 13.432.642 0-.025-5.533-5.016-10.071-9.934-3.264-3.54-5.852-6.597-6.564-8.084 2.253.13 4.683.955 6.993 1.979 4.421 1.959 8.413 4.646 9.909 4.593zm-6.706-81.815c-1.278-3.544-3.518-7.824-6.451-11.308-2.855-3.386-6.362-6.015-10.285-6.479a19.443 19.443 0 01.182-8.543c.594-2.346 1.666-4.532 3.284-6.199 2.362.94 4.522 2.463 6.346 4.341 2.346 2.419 4.129 5.426 5.064 8.528 1.699-3.159 3.058-6.077 4.688-8.662 2.293-3.638 5.128-6.613 10.212-8.653 1.683 2.467 2.536 5.324 2.734 8.25.211 3.078-.303 6.232-1.338 9.093-1.165 3.227-2.941 6.26-4.975 8.954-.101-2.703-.38-4.056-.854-5.483-.352-1.077-.813-2.195-1.387-3.967-1.436 1.386-2.629 3.585-3.612 6.089-1.836 4.69-2.952 10.466-3.608 14.039zm-165.45 76.645c1.181-3.926 4.012-6.755 7.483-8.751 5.043-2.902 11.454-4.056 16.154-4.296 4.21-.216 10.726.52 13.966 4.182-3.798.825-8.38 1.053-11.721 3.358 1.65.719 1.788 1.134 3.531 2.3 3.24 2.162 6.868 4.272 11.758 3.276-1.23 2.345-5.497 4.361-8.802 4.796-5.872.781-11.414.065-16.829-1.105-5.234-1.134-10.355-2.695-15.54-3.76zm-12.575 28.249c3.183-5.04 10.27-9.93 15.103-12.767 4.409-2.581 10.993-4.764 17.473-5.276 6.293-.492 12.49.589 16.502 4.414-5.201 1.272-11.406 1.447-15.491 4.475 1.978 1.785 4.696 2.732 7.175 3.032 4.575.557 8.211.809 12.316-.065-1.557 3.077-5.488 5.337-9.82 6.678-5.424 1.679-13.068 2.187-20.802 1.988-8.231-.211-16.567-1.227-22.456-2.479zm5.226 34.284c2.467-5.719 6.536-10.669 11.547-14.673 5.618-4.491 12.43-7.796 19.496-9.666 6.257-1.654 12.785-2.479 19.026-1.906-5.121 2.935-11.981 5.601-15.572 10.279 2.6.354 6.435.09 10.305-.504 4.377-.67 8.797-1.772 11.516-2.885-1.044 3.385-4.988 6.328-9.793 8.751-6.795 3.434-15.317 5.836-19.802 7.015-8.749 2.296-17.958 3.215-26.723 3.589zm20.943-82.567c-4.166-.683-9.849-1.911-15.256-3.597-4.47-1.398-9.756-3.878-13.384-6.995-1.577-1.354-2.609-2.386-3.669-4.244 4.134-2.459 8.632-3.873 13.291-4.349 4.696-.484 9.554-.012 14.363 1.285 4.279 1.158 8.178 3.032 10.609 5.682 1.205 1.317 2.083 2.878 2.503 4.768-4.501-.752-8.534-2.163-12.728-3.057-2.617-.557-5.335-.992-8.243-.943 3.021 1.435 5.537 2.837 8.275 4.959 1.796 1.63 3.653 3.654 4.239 6.491zm-19.164 12.018c-5.233-5.958-14.88-1.503-18.609 1.078-4.21 2.918-9.104 10.067-9.36 17.493 3.402.297 7.698.24 9.89-.081 4.672-.679 8.59-4.487 16.474-2.406 1.08.228-.033-3.577-2.973-5.467-2.597-1.54-5.032-1.821-8.04-2.585 1.5-1.719 2.843-3.264 4.323-4.536 2.168-1.866 4.627-3.142 8.295-3.496z" fill="#fff"/><path fill-rule="evenodd" clip-rule="evenodd" d="M95.441 187.952c-4.566-3.711-14.31.212-20.984 7.658-5.537 6.178-8.817 14.925-6.6 22.42 3.462-2.618 8.275-4.333 10.378-5.012 4.494-1.455 14.715-3.174 23.415-3.67 1.1.041-5.226-4.109-8.611-5.243-2.815-1.085-6.949-1.159-10.047-1.407.089-2.182 1.274-4.666 2.52-6.161 1.828-2.208 6.37-7.617 9.93-8.585zm-28.222 67.557c-1.302-5.715-.506-11.661 1.513-17.315 2.406-5.58 5.043-9.519 8.615-12.872 4.853-3.471 13.315-2.614 14.904 1.52.93 6.28-7.337 11.271-11.875 15.213-4.97 4.443-8.773 7.719-13.157 13.454zm57.163-3.898c-3.009 8.613-11.867 16.132-17.497 21.611-4.652 4.528-16.276 11.56-22.448 13.917-2.682 1.029-4.611 1.602-7.564 1.659-.275-8.02.178-14.271 2.282-20.104 2.204-6.109 5.982-11.632 10.613-15.977 4.603-4.317 10.055-7.467 15.644-8.869 2.391-.598 4.862-.634 7.422.11-6.257 3.906-10.568 7.836-13.52 12.344-2.027 3.093-3.799 5.662-5.222 10.592 2.37-1.276 6.774-4.024 11.535-6.845 7.628-4.516 16.17-9.226 18.755-8.438zm23.677 24.347c-.251.357-10.678 9.706-21.089 20.644-6.35 6.665-13.719 15.473-15.79 18.697-2.237 3.475-4.465 7.108-6.447 11.518-3.151-7.129-3.029-17.002-2.463-24.196.566-7.247 2.888-14.401 6.686-21.168 3.381-6.032 7.923-11.218 13.416-13.909 2.73-1.337 5.8-2.089 9.314-2.028-3.126 3.869-7.672 9.613-10.738 15.547-2.621 5.068-4.069 8.279-3.199 12.941 1.686-3.926 5.258-8.332 9.65-11.888 6.253-5.061 14.169-8.394 20.66-6.158zm40.77 9.361c.385 9.116-19.272 30.805-24.106 36.999-4.477 5.735-11.903 13.06-16.765 17.551-2.107 1.947-6.427 5.893-9.145 7.048-3.215-7.345-4.574-15.779-4.777-21.977-.206-6.495 1.262-13.035 3.96-18.795 2.682-5.723 6.581-10.681 11.256-14.063 2.003-1.451 4.284-2.402 6.937-2.666-4.372 5.958-6.924 11.214-8.004 16.502-.74 3.629-1.436 6.674-.943 11.783 1.731-2.069 4.809-6.26 8.191-10.657 2.948-3.833 10.609-10.572 18.015-15.096 6.176-3.776 12.146-5.621 15.381-6.629zm30.198 13.685c1.593 11.409-4.931 26.818-12.616 39.759-4.776 8.04-8.566 13.344-13.262 18.433-2.795 3.032-5.913 5.991-9.752 9.409-3.959-6.97-6.01-17.262-6.847-23.407-.882-6.439-.097-13.096 1.994-19.108 1.302-3.747 3.644-9.088 6.609-13.486 2.609-3.869 5.703-7.007 8.995-7.686-1.881 3.219-2.864 10.275-3.066 16.884-.133 4.512.093 8.812.647 11.539 3.285-2.609 13.271-15.128 15.892-19.119 3.911-5.959 8.332-11.893 11.406-13.218zm32.179 8.308c5.27 4.8 3.709 22.712.287 37.987-2.059 9.182-5.06 17.258-7.115 21.266-1.803 3.507-4.283 7.068-8.368 11.287-5.226-6.475-9.052-16.681-10.941-22.843-1.982-6.45-2.293-13.409-1.156-19.924.707-4.065 2.216-9.938 4.517-14.946 2.031-4.406 4.672-8.149 7.936-9.401-1.391 3.618-1.217 11.019-.315 17.831.618 4.646 1.569 9.015 2.596 11.718 2.929-3.227 5.25-12.486 7.268-17.026 3.014-6.772 3.345-12.685 5.291-15.949zm32.822 12.669c7.831 4.463 10.055 16.12 9.626 27.135-.283 7.308-1.735 14.335-3.486 18.794-1.395 3.549-3.317 6.93-5.978 10.312-5.739-2.983-10.908-10.235-14.233-17.884-2.439-5.617-3.887-11.454-3.839-15.97.041-3.747-.032-8.389.547-12.746.517-3.874 1.553-7.528 3.648-10.133-.223.935 2.281 7.312 4.946 13.458 2.265 5.235 4.656 10.303 5.582 11.71 1.986-2.707 2.783-8.743 3.078-14.494.198-3.898.162-7.67.109-10.182zM263.95 194.858c-2.754-2.813-7.037-2.654-9.403-1.752-3.341 1.268-5.934 3.658-7.887 6.564-1.614 2.402-2.787 5.162-3.576 7.93 2.026.996 6.799 1.272 11.362.927 2.2-.163 6.066-.87 9.262-2.325 3.009-1.37 5.428-3.402 5.306-6.276-3.256.334-5.504.395-7.854.35-1.772-.033-3.608-.118-5.978-.187.509-.866 1.423-1.606 2.475-2.24 2.605-1.569 6.051-2.479 6.293-2.991zm-24.158 18.514c-3.216-1.069-6.848-.634-9.796.992-2.508 1.377-4.142 3.438-5.137 5.82-1.181 2.841-1.456 6.141-1.209 9.316 2.188.528 7.725-.427 12.101-1.76 2.112-.642 5.732-2.179 8.535-4.296 2.641-1.996 6.422-5.678 5.682-8.459-2.952.988-6.208 2.325-9.472 3.26-1.97.565-3.944.988-5.857 1.098.227-1.285.777-2.069 1.666-2.943a39.39 39.39 0 013.487-3.028zm-37.854 12.397c-4.441-1.471-8.575-.581-12.644 1.658-3.931 2.167-6.346 4.947-7.919 8.199-1.804 3.739-2.5 8.096-3.106 12.864 3.32.11 12.057-1.057 18.095-2.894 2.909-.89 7.904-3.008 11.774-5.93 3.641-2.752 8.858-7.837 7.839-11.67-4.073 1.366-8.567 3.207-13.068 4.5-2.718.78-5.444 1.362-8.077 1.512.307-1.772 1.067-2.853 2.297-4.061a55.113 55.113 0 014.809-4.178zm-44.859 5.495c-4.789-1.426-9.181-.341-13.457 2.187-4.129 2.443-6.621 5.495-8.194 9.019-1.808 4.053-2.993 9.845-3.487 14.962 6.969-.138 13.55-1.463 19.665-4.016 4.437-1.853 8.628-4.349 12.551-7.507 3.802-3.057 11.018-13.576 9.8-17.64-7.62 3.78-9.703 7.296-15.746 10.003-2.192.979-4.869 1.715-8.457 2.028.271-1.902 1.048-3.081 2.322-4.414a58.99 58.99 0 015.003-4.622zm43.338 19.709c-.384 3.715-10.565 13.592-20.984 21.095-5.816 4.191-12.95 7.646-15.507 8.877-2.507 1.207-4.975 2.175-7.163 2.736-1.383-4.386-1.512-9.255-1.108-12.779.421-3.691 1.897-7.288 4.073-10.353 2.164-3.048 5.023-5.58 8.231-7.162a9.705 9.705 0 014.558-1.016c-1.581 1.496-3.393 4.61-4.688 7.719-.974 2.337-1.654 4.674-1.723 6.324 3.495-2.914 4.017-3.426 6.027-4.881 2.896-2.093 5.594-3.398 11.94-5.971 4.182-1.695 14.237-4.247 16.344-4.589zm55.06 15.994c1.525 3.052 1.691 7.121 1.153 11.247-.639 4.905-2.281 9.893-3.839 13.364-1.884 4.198-4.582 7.954-7.992 10.438-4.255-4.134-5.772-9.455-7.001-14.255-1.286-5.028-1.088-10.344 1.464-16.681 1.209-2.999 2.997-6.365 4.89-8.352 1.258 1.43 1.954 4.089 2.354 7.072.603 4.471.53 9.674.667 12.551.874-2.211 1.857-4.19 2.913-6.751.926-2.26 3.996-7.214 5.391-8.633zm-23.451-11.389c-.299 5.374-2.398 11.113-5.177 16.389-3.296 6.271-7.555 11.892-10.896 15.486-4.041 4.34-8.579 7.458-13.065 8.267-1.589-8.958-.024-17.453 1.513-25.013 1.614-7.918 4.736-15.092 10.569-21.872 2.766-3.211 6.257-6.483 9.08-7.771.356 2.934-.477 7.133-1.767 11.551-1.926 6.626-4.874 13.743-6.342 17.815 2.022-2.382 4.016-4.353 6.39-7.076 2.099-2.41 7.636-6.89 9.695-7.776zm47.452 31.045c1.978 2.614 2.835 5.886 3.021 9.129.223 3.853-.501 7.666-1.403 10.267-1.088 3.15-3.038 5.857-5.885 7.467-4.785-3.78-7.147-8.206-9.145-12.182-2.091-4.166-2.807-8.401-1.44-13.185.647-2.268 1.792-4.764 3.264-6.142 1.452 1.285 2.576 3.488 3.466 5.918 1.339 3.646 2.156 7.8 2.779 10.121.461-1.674 1.068-3.15 1.642-5.081.506-1.707 2.601-5.332 3.701-6.312zm-21.837-50.762c1.452 2.483 1.796 5.418 1.533 8.259-.312 3.374-1.477 6.609-2.645 8.776-1.408 2.621-3.54 4.767-6.342 5.857-3.847-3.797-5.404-7.902-6.686-11.572-1.347-3.845-1.436-7.605.445-11.617.889-1.902 2.261-3.946 3.785-4.987 1.145 1.272 1.873 3.309 2.363 5.516.728 3.312.922 7.015 1.177 9.096.639-1.406 1.391-2.621 2.167-4.239.684-1.431 3.074-4.353 4.203-5.089zm77.419-73.093c14.589-5.613 23.455-14.116 31.127-23.615 6.383-7.902 11.94-16.494 19.285-24.684 6.379-7.113 12.891-17.226 22.683-24.278-4-.223-13.651 3.72-23.035 8.28-8.813 4.284-17.396 9.113-20.842 11.551-9.209 6.512-29.36 27.09-31.77 37.959 4.805-.955 15.236-9.401 19.539-13.002 3.75-3.138 3.709-2.431 8.049-5.5-2.823 5.17-1.61 3.24-6.75 10.954-3.92 5.873-16.45 16.254-18.286 22.335zm37.878-84.079c4.004-10.32 10.953-17.189 19.075-22.192 10.799-6.654 23.681-10.007 34.452-13.775 8.445-2.955 21.752-6.934 33.004-14.295 6.197-4.057 11.75-9.86 15.734-14.807 1.715 4.56-.247 9.64-3.596 14.287-4.36 6.044-11.066 11.356-15.078 13.843-5.804 3.597-11.568 6.024-19.224 11.763 4.445 1.154 8.376.7 13.658-.427-3.789 5.695-11.317 11.032-19.826 15.535-13.679 7.243-33.749 13.51-57.491 25.013 2.196-4.86 5.209-9.076 8.716-12.681 5.82-5.987 13-10.296 20.021-13.124-4.809-.403-9.367.967-13.792 2.959-5.347 2.406-10.5 5.718-15.653 7.901zm40.289 106.747c-.324 5.337-1.396 10.417-3.487 14.933-2.487 5.361-6.415 9.926-12.243 13.181-5.95 3.317-13.028 3.833-20.761.021 6.459-.13 12.542-.659 18.359-3.553 6.107-3.04 10.006-6.783 12.829-11.449 2.269-3.748 3.839-8.089 5.303-13.133z" fill="#fff"/><path fill-rule="evenodd" clip-rule="evenodd" d="M343.223 170.332a45.455 45.455 0 014.803-4.719 18.168 18.168 0 00-.084 1.74c0 10.007 8.073 18.116 18.027 18.116 9.958 0 18.027-8.109 18.027-18.116a18.118 18.118 0 00-7.841-14.947 90.778 90.778 0 014.276-.848c5.544 3.921 9.123 10.1 9.123 17.051 0 1.126-.097 2.231-.275 3.312a24.038 24.038 0 001.063-7.064c0-5.219-1.68-10.06-4.552-14.064a91.792 91.792 0 013.047-.288l1.266.789c.87.541 1.877 1.654 2.855 2.963 1.444 1.927 2.718 4.187 3.507 5.869a21.997 21.997 0 011.594 4.8c.376 1.781.55 3.557.534 5.248-.049 4.601-.987 8.885-2.658 12.657-1.682 3.8-4.113 7.072-7.13 9.604-2.941 2.472-6.298 4.106-9.861 5-3.891.975-8.061 1.081-12.247.443-7.054-1.077-14.084-4.256-19.896-8.954-3.624-2.931-6.763-6.443-9.125-10.389a37.939 37.939 0 012.477-4.224c3.609 8.41 11.899 14.519 21.772 15.36-10.105-1.803-17.87-9.669-18.702-19.339z" fill="#FE5700"/><path fill-rule="evenodd" clip-rule="evenodd" d="M292.947 174.588a26.647 26.647 0 017.074-10.361c3.458-3.121 7.766-5.023 12.324-5.942 4.846-.98 9.978-.85 14.678.102-.133 6.019-2.572 11.771-6.342 16.55-2.811 3.565-8.291 7.971-14.035 10.454-4.752 2.053-9.687 2.793-13.432.643.004-.025 5.537-5.016 10.071-9.934 3.268-3.54 5.853-6.597 6.565-8.084-2.253.13-4.68.955-6.993 1.979-4.421 1.959-8.413 4.646-9.91 4.593zm62.397 124.416c-1.594 11.409 4.93 26.817 12.619 39.759 4.773 8.04 8.563 13.344 13.258 18.433 2.795 3.032 5.914 5.991 9.752 9.409 3.96-6.971 6.01-17.262 6.848-23.408.881-6.438.097-13.096-1.99-19.107-1.307-3.748-3.649-9.088-6.613-13.486-2.609-3.87-5.703-7.007-8.991-7.686 1.88 3.219 2.863 10.275 3.061 16.884.138 4.512-.093 8.812-.647 11.539-3.28-2.609-13.266-15.128-15.891-19.12-3.911-5.958-8.332-11.892-11.406-13.217zm-30.541 24.752c-2.67 5.134 1.181 15.751 8.04 26.404 4.122 6.406 10.055 11.238 12.737 13.709 2.346 2.163 5.226 4.175 9.509 6.231 2.172-6.393 2.237-15.233 1.962-20.452-.178-3.329-2.096-9.646-4.454-15.482-2.139-5.288-4.643-10.182-6.544-12.092-2.77-2.78-6.524-7.459-9.355-7.495 2.067 2.361 3.414 12.608 4.627 18.042.825 3.707 1.319 7.3 1.29 9.645-2.184-1.138-5.909-5.54-9.683-9.921-2.908-3.378-5.844-6.743-8.129-8.589zm37.558-103.044c4.437-1.471 8.575-.585 12.644 1.658 3.931 2.167 6.346 4.947 7.915 8.199 1.808 3.735 2.504 8.096 3.111 12.864-3.321.11-12.058-1.057-18.096-2.898-2.912-.886-7.903-3.004-11.774-5.926-3.644-2.756-8.862-7.837-7.839-11.669 4.073 1.361 8.567 3.206 13.064 4.499 2.723.78 5.449 1.362 8.082 1.512-.308-1.772-1.068-2.853-2.298-4.061a55.721 55.721 0 00-4.809-4.178zm53.143 15.523c2.799-1.195 5.533-.846 8.291.39 2.666 1.187 4.385 2.861 5.582 4.886 1.371 2.324 2.488 5.747 3.139 8.803-4.223.403-8.296.061-12.175-1.056-2.811-.813-5.517-2.033-8.109-3.667-2.508-1.589-7.6-7.446-7.147-9.99 4.87 1.756 6.374 3.739 10.217 4.954 1.395.439 3.066.699 5.258.639-.296-1.13-.85-1.793-1.711-2.508a36.513 36.513 0 00-3.345-2.451zm-41.551 14.738c.389 3.715 10.565 13.592 20.988 21.095 5.816 4.19 12.951 7.645 15.503 8.877 2.508 1.207 4.975 2.174 7.167 2.735 1.384-4.385 1.513-9.255 1.108-12.779-.424-3.69-1.896-7.287-4.077-10.352-2.163-3.049-5.019-5.581-8.23-7.162a9.682 9.682 0 00-4.559-1.016c1.586 1.496 3.398 4.609 4.692 7.719.971 2.337 1.65 4.674 1.723 6.324-3.494-2.914-4.016-3.426-6.03-4.882-2.892-2.093-5.594-3.397-11.936-5.97-4.182-1.695-14.241-4.248-16.349-4.589zm-47.488 25.379c2.775.711 5.444 2.845 7.758 5.467 2.754 3.113 5.011 6.914 6.35 9.824 1.618 3.516 2.511 7.316 2.2 10.864-4.963.443-9.169-1.52-12.886-3.381-3.895-1.947-7.151-5.008-9.756-10.133-1.234-2.427-2.378-5.426-2.593-7.731 1.598-.016 3.665 1.004 5.776 2.39 3.163 2.081 6.419 4.995 8.316 6.495-.922-1.776-1.63-3.5-2.669-5.585-.923-1.841-2.367-6.531-2.496-8.21zm10.787-22.241c.914 4.19 3.284 8.434 6.132 12.23 3.385 4.512 7.438 8.393 10.516 10.795 3.721 2.903 7.685 4.772 11.309 4.841.125-7.243-2.172-13.726-4.332-19.473-2.261-6.024-5.622-11.271-11.058-15.86-2.577-2.174-5.736-4.3-8.118-4.954.089 2.349 1.274 5.548 2.84 8.856 2.349 4.963 5.561 10.186 7.227 13.202-1.889-1.618-3.701-2.914-5.913-4.756-1.954-1.625-6.872-4.442-8.603-4.881zm-41.809 43.19c-.696 4.877-.3 13.128.768 17.758 1.27 5.503 4.037 8.942 6.128 11.779 1.864 2.532 6.309 6.601 9.335 7.056 2.637-8.259 2.965-15.897 3.159-22.684.198-7.109-.793-13.45-3.766-19.254-1.411-2.752-3.325-5.508-5.1-6.503-.744 2.694-.866 6.466-.704 10.409.243 5.91 1.121 12.206 1.472 15.823-1.027-2.044-2.099-3.711-3.316-6.044-1.076-2.061-6.674-7.662-7.976-8.34zm21.699-52.088c2.099 1.675 3.454 4.219 4.271 6.918.979 3.211 1.202 6.642 1.032 9.097-.202 2.971-1.169 5.804-3.078 7.946-4.546-1.894-7.321-5.003-9.719-7.832-2.508-2.959-3.952-6.353-3.871-10.792.04-2.101.416-4.528 1.29-6.105 1.408.691 2.75 2.256 3.956 4.073 1.808 2.727 3.316 6.028 4.287 7.824.012-1.544.186-2.963.235-4.759.04-1.586.938-5.236 1.597-6.37zm-4.659-23.302c-.097 4.264 2.026 9.284 4.942 13.515 1.921 2.788 4.377 5.572 7.325 7.556 2.686 1.805 5.776 2.947 9.258 2.825 1.622-4.727.931-8.857.211-12.515-.757-3.833-2.65-7.113-6.537-9.877-1.84-1.309-4.849-3.032-6.835-3.357.752 2.17 1.897 4.158 3.009 6.064 1.517 2.614 1.889 5.239 1.99 8.365-.954-1.394-2.88-3.796-5.056-6.129-2.916-3.134-6.273-6.15-8.307-6.447zm-33.252-59.903c.352-2.414 3.252-5.495 6.193-7.483 2.722-1.837 6.184-3.243 10.342-4.219.036 3.594-.546 7.069-1.946 10.109-1.423 3.085-3.668 5.983-7.021 7.56-2.463 1.215-8.275-3.451-7.568-5.967zm27.746 188.908c-.574 4.158-.732 8.564-.129 12.816.785 5.572 2.872 10.868 7.017 14.953 1.926 1.898 4.288 3.26 7.204 3.707 1.832-1.63 3.151-4.845 3.798-8.328.777-4.158.594-8.698-.805-11.373-1.569-3.003-4.397-5.434-8.134-7.889-2.289-1.5-4.906-2.727-8.951-3.886zm-18.042-237.524c-5.343-1.512-8.518-4.471-9.517-8.275-.801-3.061-.194-6.67 1.824-10.511 3.066-5.833 8.372-11.015 11.883-15.73 3.551 3.89 6.318 7.576 8.732 12.283 1.194 2.577 1.893 5.178 2.447 8.076-3.494 3.78-6.815 8.032-9.606 13.572-.485-3.63-.424-6.093-.606-8.946-.138-2.203-.417-4.634-1.202-8.02-.853 2.346-2.184 4.667-3.005 7.402-1.059 3.532-1.25 7.438-.95 10.149zm16.045-29.866c-2.354-2.662-5.032-5.105-6.67-7.975-1.189-2.085-1.828-4.394-1.395-7.178.518-2.207 2.398-5.137 4.453-8.007 1.792-2.508 3.717-4.967 4.979-6.853 2.322 1.919 3.822 3.805 5.024 5.85 1.33 2.255 2.289 4.706 3.591 7.608-4.283 4.975-7.377 10.901-9.982 16.555zm-6.784 60.053c-1.088-6.044-1.881-14.547-.582-20.769 1.436-6.199 4.21-11.523 7.802-16.848 2.366-3.374 4.793-5.93 8.498-8.19.259 4.808-.033 8.739 0 12.726.028 4.061.392 8.178 2.01 13.336-1.561 2.174-4.146 6.194-5.27 8.808-.085-.13-.757-2.699-1.477-5.292-.574-2.065-1.181-4.142-1.549-5.008-2.192 3.045-3.389 5.56-4.829 8.487-2.075 4.211-3.349 8.771-4.603 12.75zm11.067-49.172c-.211-4.833.679-9.32 2.681-13.804 2.54-5.483 5.084-10.258 9.198-14.16 2.617-2.866 5.97-5.427 9.08-8.073.562 2.004 1.177 5.268 1.391 8.455.195 2.95.049 5.828-.809 7.576-1.553-.354-3.106-.703-4.655-1.053-3.863 2.923-6.213 6.199-9.315 9.946-2.524 3.276-5.104 6.024-7.571 11.113zm10.949 17.64c-.372-2.927-1.242-9.34-.404-14.1.986-5.32 2.386-7.605 5.181-12.108 3.357-4.703 6.305-8.641 10.593-12.52 4.756-4.076 13.76-9.734 20.142-6.202-.142.387-5.828 7.089-10.431 14.995-3.268 5.613-5.59 12.592-6.799 14.957-2.253 5.483-4.211 9.499-6.755 12.755-1.363-1.724-1.82-3.943-1.832-6.317-.016-3.625 1.011-7.617 1.484-10.767-1.399.976-2.633 2.691-3.725 4.614-1.448 2.548-2.649 5.462-3.644 7.507-1.266 2.601-2.564 5.158-3.81 7.186zm27.179-15.392c-.323-3.102.538-6.463 1.889-9.666 1.327-3.154 3.187-6.41 5.355-9.442 2.241-3.134 4.809-6.028 7.475-8.328 3.592-2.939 9.222-6.174 14.447-5.772-.113.285-3.858 6.674-7.401 12.45-1.752 2.857-3.584 6.69-5.315 10.824-2.993 7.141-5.679 15.173-7.115 20.595-1.783-4.292-2.208-8.666-1.613-12.97.509-3.683 1.767-7.32 3.563-10.808-1.242.825-2.52 1.63-3.713 2.557-1.642 1.276-2.876 2.841-3.968 4.524-1.258 1.95-2.326 4.052-3.604 6.036zm-44.353 58.074c1.728-6.435 5.258-11.877 9.55-17.551 2.787-4.154 5.08-7.333 7.478-10.312 2.714-3.373 6.128-7.032 9.829-10.56 5.565-5.308 11.786-10.324 17.271-13.644.651 3.853.214 7.381-.817 10.759-1.339 4.377-3.685 8.499-5.978 12.734-2.824 5.223-5.934 10.291-7.993 12.193.344-4.653-.303-8.69-1.165-11.116-2.325 3.43-4.655 6.865-6.985 10.295-2.333 3.126-6.463 7.422-10.839 10.983-3.568 2.902-7.297 5.316-10.351 6.219z" fill="#fff"/><path fill-rule="evenodd" clip-rule="evenodd" d="M386.754 132.296c2.892-5.247 8.045-11.027 13.853-16.563 7.479-7.121 16.041-13.844 22.242-18.497 5.14-3.858 10.39-7.699 16.069-12.21.756 2.382-.728 5.771-3.317 9.478-5.982 8.552-17.861 18.774-21.715 22.054-9.161 6.707-19.136 12.304-27.132 15.738zm72.772-58.151c.312-2.906 1.873-6.792 3.867-10.8 2.88-5.788 6.661-11.823 8.882-15.498 2.969-4.918 5.994-9.84 8.558-14.42 1.574 1.666 2.241 4.795 2.447 8.071-.412 6.024-1.241 10.463-2.879 14.519-1.74 4.308-4.389 8.194-8.417 13.096-4.094 3.491-7.491 5.633-12.458 5.032z" fill="#FE5700"/><path fill-rule="evenodd" clip-rule="evenodd" d="M425.648 144.348c1.209-2.435 1.816-4.215 2.803-5.479 1.197-1.537 2.956-2.313 7.033-2.585 2.872-.195 5.529.422 5.938 2.211-.283 3.235-1.29 5.101-2.928 6.174-1.711 1.126-4.114 1.382-7.083 1.431-2.37-.33-4.214-.663-5.763-1.752zm12.983 21.53c.854-2.679 3.042-4.715 5.683-6.077 3.296-1.695 6.524-2.357 9.27-1.784 3.495.727 6.209 3.45 7.289 8.56-1.262 2.857-5.938 3.654-10.767 3.223-4.664-.415-9.469-1.972-11.475-3.922zm-4.248 20.708c2.512 2.972 4.284 5.183 6.181 7.008a26.617 26.617 0 0010.568 6.255c3.24 1.016 6.674 1.435 10.148 1.248-.073-3.069-.501-6.52-1.775-9.458-1.436-3.325-4.352-5.288-7.819-6.276-5.622-1.605-12.704-.646-17.303 1.223zm-4.367 29.078c1.759 2.346 4.36 6.052 7.211 9.788 1.189 1.561 6.439 8.295 10.965 11.222 3.111 2.012 5.881 2.227 6.767-2.248.764-3.853-.307-7.247-2.334-10.096-1.852-2.605-5.359-5.438-9.25-7.381-4.619-2.309-9.78-3.362-13.359-1.285zm-28.297 81.612c2.29 4.085 5.367 8.731 8.32 13.373 3.135 4.934 6.132 9.873 7.903 14.153 3.511 8.494 5.792 18.81 6.719 18.924 1.658-1.337 4.606-5.999 4.825-11.881.271-7.381-.146-12.783-2.597-18.603-3.891-9.259-11.737-15.592-25.17-15.966z" fill="#fff"/><path fill-rule="evenodd" clip-rule="evenodd" d="M455.917 105.901c.202-3.776 1.359-7.287 3.183-10.458 3.936-6.844 10.97-12.088 18.129-14.933.42 4.65.222 9.568-1.299 13.9-1.29 3.667-3.527 6.919-7.151 9.227-3.276 2.09-7.369 2.752-12.862 2.264zm3.96 16.616c2.297.89 4.841 1.931 7.296 3.179 3.204 1.634 6.257 3.617 8.421 6.076 1.028 1.167 2.205 3 4.425 6.776 1.339-.683 2.269-1.598 2.447-4.683-.388-3.877-2.35-6.763-5.359-9.71-4.987-4.174-12.769-5.068-17.23-1.638zm10.132 32.236c4.336 3.492 7.224 6.877 9.845 10.292 1.686 2.19 5.31 7.186 8.813 11.067 2.289 2.533 4.526 4.589 6.14 5.085 2.002-.545 3.361-1.618 3.729-3.743-.121-4.821-2.115-9.442-5.238-13.263-5.585-6.845-14.783-11.137-23.289-9.438zm4.539 37.312c5.258 4.236 8.757 8.337 11.94 12.475 2.042 2.658 6.435 8.714 10.682 13.417 2.774 3.072 5.488 5.568 7.446 6.166 2.422-.663 4.069-1.964 4.514-4.541-.142-5.84-2.561-11.441-6.347-16.079-6.774-8.296-17.925-13.498-28.235-11.438zm-7.103 55.526c1.711 5.048 4.117 10.828 6.407 16.596 2.426 6.129 4.724 12.246 5.913 17.469 2.362 10.365 3.316 22.758 4.198 22.985 1.76-1.414 5.161-6.617 6.079-13.531 1.153-8.677 1.396-15.083-.263-22.192-2.637-11.304-9.436-19.555-22.334-21.327zm26.427-13.852c2.997 4.914 4.797 9.361 6.375 13.771 1.015 2.837 3.142 9.243 5.371 14.389 1.456 3.357 2.957 6.174 4.215 7.113 1.767-.122 3.094-.988 3.781-3.252.769-5.369-.069-10.97-1.99-15.957-3.434-8.934-10.342-15.901-17.752-16.064zm-44.73 47.169c.74 5.703 1.23 9.861 1.905 13.69 1.084 6.166 2.767 11.872 4.87 16.851 1.747 4.13 3.786 7.76 6.018 10.727.821-3.577 1.525-7.93 1.553-12.458.037-5.126-1.237-10.044-3.134-14.352-3.082-6.995-7.794-12.389-11.212-14.458z" fill="#FE5700"/><path d="M24.43 376.222l1.788-1.545 5.703 6.654 45.841-39.674-5.702-6.654 1.787-1.548 21.344 24.907c1.784 2.081 3.215 4.422 4.332 7.04 1.104 2.626 1.787 5.475 2.042 8.548a30.707 30.707 0 01-.647 9.287c-.704 3.122-2.05 6.288-4.073 9.519-2.01 3.224-4.615 6.235-7.802 8.995-3.2 2.768-6.528 4.89-9.974 6.39-3.458 1.508-6.746 2.357-9.877 2.556-3.127.195-6.192-.077-9.141-.821-2.949-.739-5.63-1.857-8.017-3.373a27.326 27.326 0 01-6.26-5.374L24.43 376.222zm13.659 12.307l8.105 9.458c1.974 2.305 4.162 3.996 6.536 5.093 2.362 1.086 4.724 1.594 7.074 1.537 2.338-.069 4.822-.59 7.434-1.557a37.817 37.817 0 007.483-3.796c2.394-1.557 4.845-3.431 7.373-5.622 2.528-2.186 4.749-4.357 6.662-6.523a39.299 39.299 0 004.926-6.946c1.375-2.484 2.294-4.902 2.742-7.248.437-2.357.312-4.8-.38-7.332-.691-2.553-2.03-4.975-4.008-7.28l-8.105-9.458-45.842 39.674zm45.724 49.409l1.363-1.935 7.131 5.081 34.982-49.604-7.135-5.081 1.368-1.934 21.974 15.648-1.363 1.935-7.131-5.077-34.982 49.604 7.131 5.081-1.363 1.934-21.975-15.652zm56.047-.085c1.719-3.772 3.855-7.081 6.419-9.934 2.568-2.87 5.323-5.101 8.267-6.731a33.68 33.68 0 019.238-3.492c3.22-.699 6.439-.869 9.626-.483a29.846 29.846 0 019.085 2.544c4.166 1.915 7.737 4.345 10.706 7.272 1.347 1.357 2.503 2.264 3.462 2.707.833.382 1.586.455 2.261.215.675-.256 1.488-.76 2.431-1.524l1.824.837-8.91 19.579-1.82-.837c.877-4.557.922-8.788.129-12.706a21.073 21.073 0 00-.898-3.276c-.376-1.012-.95-2.15-1.735-3.39-.781-1.248-1.885-2.459-3.309-3.609-1.435-1.159-3.13-2.195-5.124-3.11-5.97-2.747-11.726-2.406-17.255 1.041-5.513 3.455-10.423 9.893-14.726 19.343-4.284 9.422-5.889 17.295-4.838 23.611 1.052 6.316 4.599 10.865 10.601 13.62 1.99.915 3.879 1.525 5.691 1.862 1.804.313 3.43.374 4.882.15 1.452-.227 2.678-.52 3.685-.898a21.38 21.38 0 003.053-1.459c3.471-1.959 6.626-4.764 9.481-8.41l1.82.838-8.91 19.579-1.824-.838c-.02-.813-.077-1.443-.166-1.878-.073-.443-.271-.91-.591-1.402-.303-.5-.748-.874-1.326-1.142-.959-.443-2.395-.74-4.296-.878-4.149-.329-8.315-1.451-12.481-3.365a30.03 30.03 0 01-9.554-6.951 32.31 32.31 0 01-6.362-10.145c-1.521-3.784-2.188-8.019-2.002-12.706.178-4.67 1.339-9.352 3.466-14.034zm68.241 22.493l5.578-26.294 58.639 10.084-3.438 26.664-2.325-.403c.586-7.43-.093-13.323-2.059-17.684-2.431-5.435-6.269-8.597-11.491-9.491l-5.735-.988-10.205 59.924 8.599 1.479-.396 2.337-26.533-4.56.396-2.337 8.599 1.475 10.205-59.923-5.74-.988c-5.234-.898-9.885.801-13.974 5.117-3.296 3.451-5.889 8.784-7.794 15.99l-2.326-.402zm69.673 49.063l-.182-2.366 9.89-.764 16.037-65.874 2.726-.207 28.664 62.427 8.251-.638.182 2.366-30.464 2.349-.178-2.366 11.329-.873-9.311-20.376-18.961 1.463-5.193 21.494 9.521-.736.178 2.365-22.489 1.736zm18.533-27.277l17.319-1.337-11.046-24.136-6.273 25.473zm48.637-17.766l-7.2-25.896 56.601-18.408 9.266 25.221-2.244.731c-2.912-6.857-6.237-11.763-9.995-14.705-4.659-3.683-9.521-4.691-14.556-3.053l-5.541 1.801 18.633 57.842 8.3-2.699.728 2.256-25.611 8.329-.728-2.256 8.3-2.699-18.63-57.843-5.541 1.801c-5.052 1.646-8.385 5.32-10.015 11.051-1.326 4.593-1.164 10.528.478 17.799l-2.245.728zm74.692-21.286c-2.24-3.488-3.866-7.077-4.882-10.78-1.027-3.719-1.415-7.255-1.201-10.628.219-3.374.894-6.601 2.043-9.702 1.144-3.106 2.734-5.923 4.772-8.414a29.923 29.923 0 017.022-6.329 29.86 29.86 0 018.635-3.845c3.098-.845 6.306-1.146 9.594-.922 3.284.223 6.492.93 9.643 2.113 3.146 1.191 6.184 3.008 9.149 5.463 2.948 2.451 5.537 5.414 7.777 8.897 2.783 4.325 4.603 8.792 5.453 13.385.841 4.617.788 8.905-.158 12.864a32.66 32.66 0 01-4.833 10.962 30.092 30.092 0 01-8.47 8.272 29.936 29.936 0 01-10.969 4.357c-3.972.723-7.94.703-11.932-.069-3.992-.748-7.903-2.463-11.733-5.138-3.822-2.662-7.127-6.166-9.91-10.486zm8.931-5.805c5.598 8.703 11.341 14.295 17.206 16.803 5.865 2.504 11.584 1.943 17.125-1.654 5.553-3.609 8.397-8.617 8.542-15.027.134-6.401-2.596-13.953-8.194-22.651-5.614-8.727-11.386-14.393-17.352-17.002-5.954-2.614-11.697-2.118-17.226 1.475-5.513 3.585-8.324 8.641-8.405 15.177-.073 6.532 2.69 14.157 8.304 22.879zm78.652-18.912l-1.771-1.561 5.763-6.601-45.462-40.113-5.767 6.601-1.772-1.565 18.128-20.749c2.285-2.618 4.644-4.626 7.091-6.036 2.438-1.419 4.744-2.166 6.916-2.288 2.18-.11 4.202.158 6.091.809a14.926 14.926 0 015.1 2.983c2.961 2.613 4.583 5.581 4.842 8.901.271 3.313-.575 6.784-2.528 10.414l.408.361c3.612-3.02 7.159-4.625 10.658-4.796 3.511-.162 6.512.846 9.02 3.057l7.454 6.576c2.394 2.114 4.433 3.207 6.111 3.297 1.679.089 3.333-.817 4.975-2.691 1.145-1.313 2.079-2.902 2.791-4.78l2.063 1.089c-1.238 2.955-2.957 5.678-5.137 8.174a16.83 16.83 0 01-3.223 2.886c-1.149.792-2.48 1.443-3.968 1.939-1.472.508-3.078.524-4.789.093-1.723-.439-3.389-1.394-5.036-2.845l-7.992-7.052c-2.576-2.272-5.351-3.475-8.32-3.646-2.96-.158-5.646 1.142-8.065 3.91l-6.73 7.702 23.382 20.628 5.764-6.601 1.775 1.565-17.772 20.339zm-14.933-37.504l7.681-8.795c1.088-1.24 1.755-2.48 2.006-3.731.259-1.269.122-2.508-.396-3.736a14.718 14.718 0 00-2.144-3.507c-.918-1.102-2.083-2.297-3.519-3.561a20.4 20.4 0 00-4.271-2.939 16.822 16.822 0 00-4.679-1.638c-1.63-.317-3.248-.187-4.894.395-1.647.585-3.119 1.629-4.437 3.141l-5.647 6.459 20.3 17.912z" fill="#FE5700"/><path d="M24.43 376.222l1.788-1.545 5.703 6.654 45.841-39.674-5.702-6.654 1.787-1.548 21.344 24.907c1.784 2.081 3.215 4.422 4.332 7.04 1.104 2.626 1.787 5.475 2.042 8.548a30.707 30.707 0 01-.647 9.287c-.704 3.122-2.05 6.288-4.073 9.519-2.01 3.224-4.615 6.235-7.802 8.995-3.2 2.768-6.528 4.89-9.974 6.39-3.458 1.508-6.746 2.357-9.877 2.556-3.127.195-6.192-.077-9.141-.821-2.949-.739-5.63-1.857-8.017-3.373a27.326 27.326 0 01-6.26-5.374L24.43 376.222v0zm13.659 12.307l8.105 9.458c1.974 2.305 4.162 3.996 6.536 5.093 2.362 1.086 4.724 1.594 7.074 1.537 2.338-.069 4.822-.59 7.434-1.557a37.817 37.817 0 007.483-3.796c2.394-1.557 4.845-3.431 7.373-5.622 2.528-2.186 4.749-4.357 6.662-6.523a39.299 39.299 0 004.926-6.946c1.375-2.484 2.294-4.902 2.742-7.248.437-2.357.312-4.8-.38-7.332-.691-2.553-2.03-4.975-4.008-7.28l-8.105-9.458-45.842 39.674v0zm45.724 49.409l1.363-1.935 7.131 5.081 34.982-49.604-7.135-5.081 1.368-1.934 21.974 15.648-1.363 1.935-7.131-5.077-34.982 49.604 7.131 5.081-1.363 1.934-21.975-15.652v0zm56.047-.085c1.719-3.772 3.855-7.081 6.419-9.934 2.568-2.87 5.323-5.101 8.267-6.731a33.68 33.68 0 019.238-3.492c3.22-.699 6.439-.869 9.626-.483a29.846 29.846 0 019.085 2.544c4.166 1.915 7.737 4.345 10.706 7.272 1.347 1.357 2.503 2.264 3.462 2.707.833.382 1.586.455 2.261.215.675-.256 1.488-.76 2.431-1.524l1.824.837-8.91 19.579-1.82-.837c.877-4.557.922-8.788.129-12.706a21.073 21.073 0 00-.898-3.276c-.376-1.012-.95-2.15-1.735-3.39-.781-1.248-1.885-2.459-3.309-3.609-1.435-1.159-3.13-2.195-5.124-3.11-5.97-2.747-11.726-2.406-17.255 1.041-5.513 3.455-10.423 9.893-14.726 19.343-4.284 9.422-5.889 17.295-4.838 23.611 1.052 6.316 4.599 10.865 10.601 13.62 1.99.915 3.879 1.525 5.691 1.862 1.804.313 3.43.374 4.882.15 1.452-.227 2.678-.52 3.685-.898a21.38 21.38 0 003.053-1.459c3.471-1.959 6.626-4.764 9.481-8.41l1.82.838-8.91 19.579-1.824-.838c-.021-.813-.077-1.443-.166-1.878-.073-.443-.271-.91-.591-1.402-.303-.5-.748-.874-1.326-1.142-.959-.443-2.395-.74-4.296-.878-4.149-.329-8.315-1.451-12.481-3.365a30.03 30.03 0 01-9.554-6.951 32.31 32.31 0 01-6.362-10.145c-1.521-3.784-2.188-8.019-2.002-12.706.178-4.67 1.339-9.352 3.466-14.034zm68.241 22.493l5.578-26.294 58.639 10.084-3.438 26.664-2.325-.403c.586-7.43-.093-13.323-2.059-17.684-2.431-5.435-6.269-8.597-11.491-9.491l-5.735-.988-10.205 59.924 8.599 1.479-.396 2.337-26.533-4.56.396-2.337 8.599 1.475 10.205-59.923-5.74-.988c-5.234-.898-9.885.801-13.974 5.117-3.296 3.451-5.889 8.784-7.794 15.99l-2.326-.402v0zm69.673 49.063l-.182-2.366 9.89-.764 16.037-65.874 2.726-.207 28.664 62.427 8.251-.638.182 2.366-30.464 2.349-.178-2.366 11.329-.873-9.311-20.376-18.961 1.463-5.193 21.493 9.521-.735.178 2.365-22.489 1.736v0zm18.533-27.277l17.319-1.337-11.046-24.136-6.273 25.473v0zm48.637-17.766l-7.2-25.896 56.601-18.408 9.266 25.221-2.244.731c-2.912-6.857-6.237-11.763-9.995-14.705-4.659-3.683-9.521-4.691-14.556-3.053l-5.541 1.801 18.633 57.842 8.3-2.699.728 2.256-25.611 8.329-.728-2.256 8.3-2.699-18.63-57.843-5.541 1.801c-5.052 1.646-8.385 5.32-10.015 11.051-1.326 4.593-1.164 10.528.478 17.799l-2.245.728v0zm74.692-21.286c-2.24-3.488-3.866-7.077-4.882-10.78-1.027-3.719-1.415-7.255-1.201-10.628.219-3.374.894-6.601 2.043-9.702 1.144-3.106 2.734-5.923 4.772-8.414a29.923 29.923 0 017.022-6.329 29.86 29.86 0 018.635-3.845c3.098-.845 6.306-1.146 9.594-.922 3.284.223 6.492.93 9.643 2.113 3.146 1.191 6.184 3.008 9.149 5.463 2.948 2.451 5.537 5.414 7.777 8.897 2.783 4.325 4.603 8.792 5.453 13.385.841 4.617.788 8.905-.158 12.864a32.66 32.66 0 01-4.833 10.962 30.092 30.092 0 01-8.47 8.272 29.936 29.936 0 01-10.969 4.357c-3.972.723-7.94.703-11.932-.069-3.992-.748-7.903-2.463-11.733-5.138-3.822-2.662-7.127-6.166-9.91-10.486v0zm8.931-5.805c5.598 8.703 11.341 14.295 17.206 16.803 5.865 2.504 11.584 1.943 17.125-1.654 5.553-3.609 8.397-8.617 8.542-15.027.134-6.401-2.596-13.953-8.194-22.651-5.614-8.727-11.386-14.393-17.352-17.002-5.953-2.614-11.697-2.118-17.226 1.475-5.513 3.585-8.324 8.641-8.405 15.177-.073 6.532 2.69 14.157 8.304 22.879v0zm78.652-18.912l-1.771-1.561 5.763-6.601-45.462-40.113-5.767 6.601-1.772-1.565 18.128-20.749c2.285-2.618 4.644-4.626 7.091-6.036 2.438-1.419 4.744-2.166 6.916-2.288 2.18-.11 4.202.158 6.091.809a14.926 14.926 0 015.1 2.983c2.961 2.613 4.583 5.581 4.842 8.901.271 3.313-.574 6.784-2.528 10.414l.408.361c3.612-3.02 7.159-4.625 10.658-4.796 3.511-.162 6.512.846 9.02 3.057l7.454 6.576c2.394 2.114 4.433 3.207 6.111 3.297 1.679.089 3.333-.817 4.975-2.691 1.145-1.313 2.079-2.902 2.791-4.78l2.063 1.089c-1.238 2.955-2.957 5.678-5.137 8.174a16.83 16.83 0 01-3.223 2.886c-1.149.792-2.48 1.443-3.968 1.939-1.472.508-3.078.524-4.789.093-1.723-.439-3.389-1.394-5.036-2.845l-7.992-7.052c-2.576-2.272-5.351-3.475-8.32-3.646-2.96-.158-5.646 1.142-8.065 3.91l-6.73 7.702 23.382 20.628 5.764-6.601 1.775 1.565-17.772 20.339v0zm-14.933-37.504l7.681-8.795c1.088-1.24 1.755-2.48 2.006-3.731.259-1.269.122-2.508-.396-3.736a14.718 14.718 0 00-2.144-3.507c-.918-1.102-2.083-2.297-3.519-3.561a20.4 20.4 0 00-4.271-2.939 16.822 16.822 0 00-4.679-1.638c-1.63-.317-3.248-.187-4.894.395-1.647.585-3.119 1.629-4.437 3.141l-5.647 6.459 20.3 17.912v0z" stroke="#FE5700" stroke-width="3.743" stroke-miterlimit="22.926"/><path d="M164.496 541.893l.259-.914 3.571 1.016 6.593-23.396-3.572-1.016.255-.914 8.458 2.406.635 21.078 11.846-17.526 7.592 2.163-.255.91-3.361-.955-6.592 23.399 3.357.956-.255.91-10.363-2.947.259-.914 3.357.959 6.346-22.518-.064-.02-14.67 21.668-1.052-.301-.781-25.744c-.028-.46.013-.87.114-1.236l-.138-.041-6.593 23.4 3.576 1.016-.259.91-8.263-2.349zm34.274 9.784l.17-.935 3.903.703 12.81-23.875 1.075.195 4.842 27.066 3.26.589-.17.935-12.025-2.175.166-.935 4.473.809-1.561-8.828-7.486-1.353-4.166 7.795 3.757.679-.166.931-8.882-1.601zm9.91-8.686l6.839 1.235-1.856-10.462-4.983 9.227zm21.274 14.351l.118-.938 3.684.463 3.022-24.127-3.685-.468.117-.939 8.992 1.134 8.728 19.588 2.164-17.25-3.685-.468.117-.943 8.523 1.081-.122.939-3.684-.467-3.204 25.578-1.076-.134-11.758-26.363a2.097 2.097 0 01-.165-1.13l-.11-.012-3.021 24.127 3.685.468-.122.939-8.518-1.078zm32.75-5.474l.801.02c.299 1.878.942 3.528 1.925 4.959.736 1.081 1.634 1.93 2.69 2.552 1.051.614 2.22.943 3.498.98 1.849.048 3.313-.386 4.389-1.297 1.072-.906 1.634-2.178 1.678-3.812.041-1.521-.461-2.801-1.504-3.837-1.04-1.033-2.694-1.874-4.959-2.516-.862-.24-1.63-.5-2.31-.764a13 13 0 01-2.026-1.037 7.247 7.247 0 01-1.683-1.398 5.887 5.887 0 01-1.059-1.866c-.267-.727-.389-1.544-.364-2.43.06-2.26.805-4.061 2.236-5.41 1.428-1.354 3.37-1.996 5.817-1.931 1.092.033 2.079.244 2.968.65.874.382 1.485.59 1.825.598.509.012.849-.354 1.027-1.089l.801.02-.109 6.784-.793-.025a15.032 15.032 0 00-1.642-3.483c-.429-.691-1.056-1.28-1.873-1.76-.821-.476-1.642-.728-2.467-.752-1.537-.041-2.791.37-3.758 1.236-.974.865-1.472 1.922-1.508 3.182a3.543 3.543 0 00.36 1.699c.254.512.558.939.93 1.276.364.338.865.667 1.5.98.631.317 1.19.557 1.671.728.489.162 1.096.357 1.844.585 1.323.402 2.447.837 3.382 1.305a9.968 9.968 0 012.447 1.723 6.098 6.098 0 011.545 2.422c.327.947.473 2.037.44 3.276-.064 2.431-.954 4.366-2.665 5.813-1.715 1.447-3.79 2.138-6.221 2.077-1.472-.041-2.985-.468-4.538-1.277-.683-.345-1.156-.524-1.423-.532-.546-.016-.959.098-1.242.333-.287.24-.587.655-.894 1.256l-.801-.02.065-9.218zm33.951-3.447c-.126-1.654-.017-3.227.331-4.727.348-1.504.882-2.821 1.602-3.963a13.62 13.62 0 012.56-3.02 11.714 11.714 0 013.276-2.041 12.008 12.008 0 013.673-.873c1.824-.139 3.543.02 5.149.467.732.211 1.31.305 1.731.272.364-.028.643-.15.833-.361.186-.224.376-.557.558-1.008l.801-.061.647 8.588-.797.061c-.57-1.768-1.367-3.26-2.402-4.475a8.332 8.332 0 00-.942-.972 7.215 7.215 0 00-1.262-.849c-.514-.289-1.133-.496-1.853-.622a9.732 9.732 0 00-2.39-.093c-2.621.199-4.571 1.438-5.845 3.719-1.266 2.28-1.743 5.491-1.432 9.633.312 4.133 1.266 7.202 2.852 9.21 1.585 2.004 3.701 2.906 6.334 2.707a9.617 9.617 0 002.35-.455c.691-.24 1.274-.537 1.739-.895.465-.361.837-.703 1.116-1.032a8.63 8.63 0 00.789-1.105c.837-1.358 1.403-2.955 1.699-4.784l.801-.061.647 8.584-.797.061a4.68 4.68 0 00-.421-.622 1.5 1.5 0 00-.477-.378 1.134 1.134 0 00-.684-.142c-.42.032-.982.207-1.674.528-1.517.691-3.191 1.106-5.019 1.248a11.897 11.897 0 01-4.68-.577 12.781 12.781 0 01-4.182-2.317c-1.262-1.028-2.31-2.382-3.147-4.056-.837-1.671-1.331-3.537-1.484-5.589zm30.743 10.283l-.117-.943 3.47-.439-3.021-24.127-3.471.439-.117-.943 10.69-1.349.117.938-3.47.439 3.021 24.132 5.38-.683c1.233-.155 2.261-.48 3.11-.963.845-.492 1.537-1.232 2.067-2.24.562-1.065.938-2.105 1.124-3.122.178-1.016.263-2.186.251-3.495l1.076-.138.833 9.844-20.943 2.65zm20.676-28.448l-.21-.926 10.492-2.431.21.923-3.397.788 4.327 18.852c.235 1.02.579 1.857 1.028 2.507.457.651.999 1.106 1.626 1.366a5.398 5.398 0 001.953.423c.68.016 1.432-.069 2.253-.26 2.257-.525 3.923-1.537 4.987-3.032 1.072-1.504 1.347-3.382.829-5.638l-3.959-17.242-3.62.837-.211-.922 8.369-1.943.21.927-3.616.837 3.992 17.384c.574 2.512.255 4.605-.975 6.28-1.225 1.678-3.154 2.825-5.792 3.438-6.216 1.439-9.958-.593-11.223-6.1l-3.871-16.856-3.402.788zm36.681 17.262l-.259-.914 3.365-.955-6.592-23.4-3.365.955-.259-.91 10.993-3.13c2.69-.764 4.829-.796 6.435-.093 1.606.703 2.674 2.008 3.211 3.918.393 1.402.227 2.719-.493 3.959-.72 1.252-1.808 2.235-3.264 2.967l.061.211c2.042-.317 3.802-.053 5.27.797 1.476.849 2.467 2.17 2.973 3.967.61 2.166.295 4.089-.955 5.772-1.25 1.678-3.244 2.906-5.986 3.686l-11.135 3.17zm6.747-2.906l3.781-1.077c3.43-.975 4.563-3.528 3.398-7.661-.534-1.886-1.303-3.268-2.314-4.134-1.015-.874-2.273-1.093-3.765-.667l-4.55 1.297 3.45 12.242zm-3.709-13.161l4.55-1.296c1.238-.354 2.046-1.061 2.41-2.138.377-1.073.356-2.333-.048-3.776a8.847 8.847 0 00-.764-1.902 6.307 6.307 0 00-1.169-1.504c-.478-.447-1.068-.732-1.776-.862-.712-.122-1.501-.065-2.378.183l-3.713 1.057 2.888 10.238z" fill="#fff" stroke="#fff" stroke-width="1.447"/><path fill-rule="evenodd" clip-rule="evenodd" d="M116.243 515.014c-19.568-8.137-39.023-19.506-58.425-34.796-15.026-11.84-27.087-27.16-35.77-40.382 15.717 14.153 31.612 26.005 48.329 36.975 11.604 7.617 23.609 14.808 36.22 22.047 7.041 4.04 12.595 6.434 13.594 8.56.485 4.426-1.113 6.999-3.948 7.596zm339.548-1.565c19.439-8.442 38.716-20.119 57.875-35.711 14.836-12.076 26.658-27.586 35.132-40.942-15.491 14.401-31.2 26.501-47.743 37.731-11.487 7.8-23.374 15.181-35.872 22.619-6.977 4.15-12.494 6.63-13.457 8.772-.416 4.434 1.222 6.983 4.065 7.531z" fill="#FE5700"/><path fill-rule="evenodd" clip-rule="evenodd" d="M548.126 334.593c.826-3.674 1.246-8.495.648-13.019-.579-4.394-2.116-8.515-5.165-11.035.958-2.54 2.625-5.097 4.744-7.089 1.763-1.65 3.842-2.91 6.095-3.434 1.485 2.077 2.484 4.532 3.005 7.101.676 3.308.559 6.808-.323 9.925 3.126-1.735 5.84-3.455 8.603-4.743 3.887-1.813 7.871-2.776 13.246-1.732.089 2.988-.732 5.857-2.135 8.426-1.481 2.703-3.608 5.077-6.019 6.922-2.714 2.081-5.84 3.67-8.999 4.833 1.367-2.329 1.86-3.618 2.232-5.077.279-1.097.494-2.288.963-4.089-1.954.382-4.138 1.586-6.314 3.163-4.069 2.946-8.113 7.198-10.581 9.848zM30.86 342.336c-.828-3.674-1.245-8.491-.646-13.019.578-4.394 2.115-8.511 5.165-11.035a19.312 19.312 0 00-4.745-7.084c-1.763-1.655-3.842-2.915-6.095-3.439-1.484 2.077-2.484 4.532-3.005 7.101-.676 3.308-.558 6.808.323 9.925-3.126-1.731-5.84-3.451-8.603-4.743-3.887-1.813-7.87-2.776-13.246-1.732-.089 2.992.732 5.857 2.136 8.43 1.48 2.699 3.608 5.073 6.018 6.922 2.714 2.081 5.84 3.671 9 4.829-1.368-2.325-1.861-3.617-2.233-5.073-.28-1.101-.494-2.292-.963-4.093 1.954.387 4.138 1.586 6.314 3.163 4.069 2.946 8.113 7.202 10.58 9.848z" fill="#fff"/></g><defs><clipPath id="clip0"><path d="M0 0h578.987v561.618H0V0z" fill="#fff"/></clipPath></defs></svg>