<svg width="58" height="50" viewBox="0 0 58 50" fill="none" xmlns="http://www.w3.org/2000/svg"><path fill-rule="evenodd" clip-rule="evenodd" d="M22.61 21.295c-1.647-1.088-2.772-2.07-3.827-3.174-.865-.903-1.683-1.888-2.702-3.076-.897-1.045-1.862-2.048-3.238-3.084 1.025-.06 2.169.133 3.277.486 1.169.373 2.395.944 3.448 1.721 1.294.957 2.326 2.226 2.665 3.822-.561-.535-.928-1.053-1.486-1.48-.63-.48-1.058-.768-1.717-1.08.716.998 1.58 2.088 2.303 3.221.551.863 1.02 1.751 1.277 2.644zm-5.125-11.011c-.52-1.35-1.42-2.247-2.473-2.902-1.4-.87-3.07-1.308-4.468-1.801-1.343-.474-2.694-1.098-4.197-2.525C5.42 2.176 4.545 1.16 3.35 0c-.545 1.464-.481 3.567.162 5.195.255.644.6 1.213 1.035 1.64.296.291.637.536 1.026.766a10.01 10.01 0 01-.824-2.3c-.124-.58-.175-1.15-.087-1.62.755.904 1.372 1.39 1.985 1.773.753.47 1.5.788 2.493 1.538-.577.151-1.086.092-1.771-.056.491.745 1.468 1.443 2.571 2.032 1.773.947 4.376 1.767 7.454 3.27a5.806 5.806 0 00-1.13-1.657c-.755-.783-1.686-1.347-2.596-1.717.624-.052 1.215.127 1.788.387.694.315 1.362.748 2.03 1.034zM5.407 11.94c-.78-.11-1.282-.345-1.635-.784-.235-.293-.405-.678-.547-1.177a5.156 5.156 0 01-.166-.87c.375-.29.98-.482 1.57-.5.6-.018 1.186.145 1.506.572-.704-.009-1.271.269-1.59.671.065.814.253 1.376.862 2.087zm1.128 4.054c-.431-.044-.757-.197-1.013-.431-.28-.257-.478-.61-.64-1.031a5.265 5.265 0 01-.295-1.06 4.784 4.784 0 011.327-.092c.533.035 1.06.156 1.414.396.26.175.444.439.49.848a4.523 4.523 0 01-1.605.063c.233.407.3.896.322 1.307zm2.536-2.785a1.454 1.454 0 01-.911-.53c-.296-.352-.475-.824-.553-1.268-.048-.272-.078-.548-.115-.81a3.614 3.614 0 011.367.068c.441.106.859.292 1.165.557.256.221.418.518.38.938-.322-.085-.553-.209-.807-.29a1.659 1.659 0 00-.766-.066 1.89 1.89 0 00.042.616c.055.277.142.558.198.785zm5.463 6.361c-1.134-.018-2.214.128-2.992.453 1.004.992 1.104 3.665 2.21 5.09 1.824 2.872 5.405 2.096 7.332-.23a5.354 5.354 0 01-3.227 1.633 3.92 3.92 0 01-3.112-.96c-.855-.755-1.435-2.092-1.448-3.347a3.683 3.683 0 01.33-1.567c.203-.437.503-.82.907-1.073zm.035-1.975c-.449-.112-.897-.4-1.316-.775a8.794 8.794 0 01-1.373-1.502c-.32-.458-.576-.864-.583-1.348.17-.268.435-.213.726-.016.518.348.886.806 1.312 1.25.179.185.62.595 1.02.888.472.346.65.805.609 1.124-.03.228-.17.385-.395.379zm14.033 8.248c-.228.014-.417.087-.553.402-.27.623-.32 1.588-.444 2.3-.195 1.121-.423 2.198-.844 3.253-.012.053.171.594.383 1.189.24.677.516 1.421.582 1.59.167.43.341.855.51 1.257.16.379.309.7.366.722V25.843z" fill="#424B54"/><path fill-rule="evenodd" clip-rule="evenodd" d="M12.261 24.244c.042.698.181 1.362.452 1.953a3.714 3.714 0 001.588 1.724c.771.433 1.689.5 2.692.002-.838-.017-1.627-.086-2.38-.464-.792-.398-1.298-.888-1.664-1.498-.294-.49-.498-1.057-.688-1.717zm9.077-1.975a5.95 5.95 0 00-.623-.617c.007.075.01.15.01.227 0 1.309-1.046 2.37-2.337 2.37-1.29 0-2.337-1.061-2.337-2.37 0-.811.403-1.528 1.017-1.954a11.54 11.54 0 00-.554-.111c-.72.512-1.183 1.32-1.183 2.23 0 .147.012.291.036.433a3.163 3.163 0 01.452-2.763 11.52 11.52 0 00-.395-.038l-.165.103c-.113.07-.243.216-.37.388a4.706 4.706 0 00-.455.767 2.92 2.92 0 00-.206.628 3.215 3.215 0 00-.07.686c.007.602.129 1.162.345 1.655.218.497.534.925.925 1.256a3.16 3.16 0 001.278.654 4.003 4.003 0 001.588.058c.915-.14 1.826-.557 2.58-1.171.47-.383.877-.842 1.184-1.359a4.993 4.993 0 00-.322-.552c-.468 1.1-1.543 1.899-2.823 2.009 1.31-.236 2.317-1.264 2.425-2.529zM10.53 18.82a12.597 12.597 0 01-1.591-1.166c-.449-.39-.938-.967-1.2-1.563a2.157 2.157 0 01-.21-.757 3.515 3.515 0 011.766-.039c.57.135 1.11.411 1.604.802.439.347.796.78.944 1.257.073.238.096.496.049.78-.485-.3-.882-.672-1.324-.98a3.78 3.78 0 00-.911-.489c.278.333.5.64.71 1.056.125.308.239.673.162 1.098zm14.57.312c-.44.022-.816-.141-1.132-.411-.622-.531-1.067-1.449-1.317-2.359-.105-.385-.14-.82-.217-1.23-.08-.416-.204-.805-.498-1.084.737-.312 1.541-.09 2.19.384.556.407 1 .997 1.187 1.595.142.454.106.943-.255 1.455-.095-.476-.317-.866-.55-1.21a1.458 1.458 0 00-.663-.534c.123.515.24 1.03.394 1.532.199.654.457 1.285.861 1.862zm-4.527-6c-.396-.215-.79-.488-1.075-.818-.443-.613-.79-1.422-.948-2.254-.14-.74-.132-1.499.09-2.154.847.342 1.566.9 2.162 1.577.466.53 1.039 1.35 1.357 2.18.189.495.289.994.222 1.44-.3-.073-.64-.363-.97-.724-.496-.541-.97-1.245-1.256-1.617.09.38.234.83.333 1.272.087.391.139.776.085 1.098zm2.178-1.792c-.268-.224-.451-.6-.57-1.012a5.269 5.269 0 01-.193-1.423c.004-.474.102-.943.318-1.32.569.211.93.65 1.243 1.051.327.42.528.93.55 1.636.01.334-.018.726-.113.993-.177-.082-.351-.304-.512-.569-.24-.396-.448-.89-.58-1.156.01.245-.001.473.006.76.007.252-.076.848-.149 1.04zm3.646 2.494c.076-.3.123-.623.091-.918a3.92 3.92 0 00-.67-1.512c-.3-.41-.675-.754-1.099-.943a4.011 4.011 0 00-.218 1.814c.047.478.186 1.142.448 1.684.155.322.355.601.603.772.102-.184.117-.489.091-.821-.038-.498-.165-1.06-.217-1.375.145.22.3.499.471.752.152.223.317.426.5.547zm2.126 5.51c.243-.37.329-.895.325-1.438a6.654 6.654 0 00-.284-1.792c-.175-.574-.463-1.104-.862-1.48-.611.468-.89 1.132-1.123 1.734-.244.63-.302 1.323-.074 2.184.108.407.285.872.497 1.16.184-.165.315-.498.413-.878.148-.57.22-1.245.283-1.615.078.3.173.572.268.92.083.309.4 1 .557 1.205zm-.666 3.481a3.49 3.49 0 00-.917-1.355c-.449-.408-1.007-.656-1.598-.777a4.829 4.829 0 00-1.903.014c.017.787.334 1.539.822 2.164.365.466 1.075 1.042 1.82 1.367.616.268 1.256.365 1.741.084 0-.003-.717-.656-1.306-1.299-.423-.463-.758-.863-.85-1.057.291.017.607.125.906.259.573.256 1.09.607 1.285.6zm-.87-10.699a5.073 5.073 0 00-.836-1.478c-.37-.443-.825-.787-1.334-.848a2.567 2.567 0 01.023-1.117 1.79 1.79 0 01.426-.81c.307.122.587.321.823.567.304.316.536.71.657 1.115.22-.413.396-.794.608-1.132.297-.476.665-.865 1.324-1.132.218.323.329.696.354 1.079.028.402-.039.815-.173 1.189a4.527 4.527 0 01-.645 1.17c-.013-.353-.05-.53-.11-.716-.046-.141-.106-.287-.18-.519-.187.181-.342.469-.47.796-.237.614-.382 1.369-.467 1.836zM5.534 22.15c.153-.514.52-.884.97-1.145.654-.38 1.486-.53 2.095-.562.546-.028 1.39.068 1.81.547-.492.108-1.086.138-1.519.439.214.094.232.148.458.3.42.284.89.56 1.524.43-.159.306-.712.57-1.14.626-.762.102-1.48.009-2.183-.144-.679-.148-1.342-.353-2.015-.492zm-1.63 3.693c.413-.659 1.331-1.298 1.958-1.67.572-.337 1.425-.622 2.266-.69.816-.064 1.62.078 2.14.578-.675.166-1.48.19-2.01.585.257.234.61.357.931.397.593.073 1.065.106 1.597-.009-.202.403-.712.698-1.273.874-.704.22-1.695.286-2.697.26a16.883 16.883 0 01-2.912-.325zm.678 4.484c.32-.748.847-1.396 1.497-1.92a6.89 6.89 0 012.528-1.263c.81-.216 1.657-.324 2.467-.25-.664.384-1.554.733-2.02 1.345.338.046.835.011 1.337-.066.567-.088 1.14-.232 1.493-.377-.136.442-.647.827-1.27 1.144-.88.449-1.986.763-2.567.917-1.135.3-2.329.42-3.465.47zM7.297 19.53c-.54-.09-1.277-.25-1.978-.471-.58-.183-1.265-.507-1.735-.915-.205-.177-.339-.312-.476-.555a4.15 4.15 0 011.723-.569 5.097 5.097 0 011.863.168c.554.152 1.06.397 1.375.744.156.172.27.376.325.623-.584-.098-1.107-.283-1.65-.4a4.657 4.657 0 00-1.07-.123 5.55 5.55 0 011.074.648c.232.214.473.478.55.85zm-2.484 1.571c-.68-.78-1.93-.197-2.413.14-.546.383-1.18 1.317-1.214 2.288.441.04.998.032 1.282-.01.606-.089 1.114-.587 2.136-.315.14.03-.004-.468-.385-.715-.337-.201-.653-.238-1.043-.338.195-.225.369-.427.56-.593.282-.244.6-.41 1.077-.457z" fill="#424B54"/><path fill-rule="evenodd" clip-rule="evenodd" d="M3.742 24.573c-.592-.485-1.856.028-2.721 1.001-.718.808-1.143 1.952-.856 2.932.449-.342 1.073-.566 1.346-.655.582-.19 1.908-.415 3.036-.48.142.005-.678-.537-1.117-.686-.365-.142-.9-.151-1.303-.184.012-.285.166-.61.327-.806.237-.288.826-.996 1.288-1.122zm-3.66 8.834c-.169-.747-.065-1.525.196-2.264.313-.73.654-1.245 1.118-1.683.629-.454 1.726-.342 1.932.198.12.822-.951 1.474-1.54 1.99-.644.581-1.137 1.01-1.706 1.76zm7.412-.509c-.39 1.126-1.539 2.11-2.269 2.826-.603.592-2.11 1.511-2.91 1.82-.348.134-.598.21-.98.217-.037-1.05.022-1.867.295-2.63a5.427 5.427 0 011.376-2.089c.597-.564 1.304-.976 2.029-1.16.31-.078.63-.083.962.015-.811.51-1.37 1.025-1.753 1.614-.263.404-.493.74-.677 1.385.307-.167.878-.526 1.495-.895.99-.59 2.097-1.206 2.432-1.103zm3.07 3.183c-.032.047-1.384 1.27-2.734 2.7-.823.872-1.779 2.024-2.047 2.445-.29.455-.58.93-.836 1.507-.409-.933-.393-2.224-.32-3.165.074-.947.375-1.883.867-2.768.439-.789 1.027-1.467 1.74-1.819a2.578 2.578 0 011.207-.265c-.405.506-.994 1.257-1.392 2.033-.34.663-.528 1.083-.415 1.692.219-.513.682-1.09 1.252-1.554.81-.662 1.837-1.098 2.678-.806zm5.286 1.225c.05 1.192-2.498 4.028-3.125 4.838-.58.75-1.543 1.708-2.174 2.295-.273.255-.833.77-1.185.922-.417-.96-.594-2.063-.62-2.874a5.485 5.485 0 01.514-2.458c.347-.748.853-1.397 1.46-1.839.259-.19.554-.314.898-.349-.566.78-.897 1.467-1.037 2.158-.096.475-.186.873-.123 1.541.225-.27.624-.818 1.062-1.393.383-.502 1.376-1.383 2.336-1.974.801-.494 1.575-.736 1.995-.867zm3.916 1.789c.207 1.492-.639 3.507-1.635 5.2-.62 1.05-1.111 1.745-1.72 2.41-.362.397-.767.784-1.264 1.23-.514-.911-.78-2.257-.888-3.06a5.477 5.477 0 01.258-2.5 8.17 8.17 0 01.857-1.763c.338-.506.74-.916 1.167-1.005-.244.421-.372 1.344-.398 2.208-.017.59.012 1.152.084 1.509.426-.341 1.72-1.978 2.06-2.5.508-.78 1.08-1.555 1.48-1.729zm4.173 1.087c.683.627.48 2.97.037 4.967-.267 1.201-.656 2.257-.923 2.781-.234.459-.555.925-1.085 1.476-.677-.846-1.174-2.181-1.419-2.987a5.695 5.695 0 01-.15-2.605c.092-.532.288-1.3.586-1.955.264-.576.606-1.066 1.03-1.23-.181.474-.159 1.442-.042 2.333.08.607.204 1.178.337 1.532.38-.422.68-1.633.943-2.227.39-.885.433-1.659.686-2.085zm4.255 1.656c1.016.584 1.304 2.108 1.249 3.549-.037.956-.225 1.875-.453 2.458-.18.464-.43.906-.775 1.348-.744-.39-1.414-1.338-1.845-2.339-.316-.734-.504-1.497-.498-2.088.006-.49-.004-1.097.071-1.667.067-.506.201-.984.473-1.325-.029.122.296.956.642 1.76.293.685.603 1.347.723 1.531.258-.354.361-1.143.4-1.895.025-.51.02-1.003.013-1.332zM25.59 25.476c-.356-.368-.912-.347-1.218-.23-.434.167-.77.48-1.023.86-.21.313-.361.674-.464 1.036.263.13.882.167 1.473.122a3.86 3.86 0 001.201-.305c.39-.179.704-.444.688-.82a7.805 7.805 0 01-1.018.046c-.23-.005-.468-.016-.775-.025a.912.912 0 01.32-.293c.339-.205.785-.324.817-.391zm-3.131 2.421a1.601 1.601 0 00-1.27.13 1.5 1.5 0 00-.666.76c-.154.372-.19.804-.157 1.22.284.068 1.001-.057 1.569-.231a3.89 3.89 0 001.106-.562c.343-.26.833-.742.737-1.106-.383.13-.805.304-1.228.426a3.49 3.49 0 01-.76.144.66.66 0 01.217-.385c.181-.18.37-.333.452-.396zm-4.909 1.621c-.575-.192-1.111-.076-1.639.217-.51.283-.823.647-1.027 1.072-.234.49-.324 1.059-.403 1.682.431.015 1.564-.138 2.347-.378a5.395 5.395 0 001.526-.775c.472-.36 1.149-1.025 1.017-1.526-.528.178-1.111.419-1.695.588a4.816 4.816 0 01-1.047.198c.04-.232.138-.373.298-.531.25-.249.51-.46.623-.547zm-5.816.719c-.62-.187-1.19-.045-1.745.286-.535.32-.858.718-1.062 1.18-.235.53-.388 1.287-.452 1.956a6.873 6.873 0 002.55-.525 6.704 6.704 0 001.627-.982c.493-.4 1.428-1.775 1.27-2.307-.988.495-1.258.954-2.041 1.308a3.324 3.324 0 01-1.097.266c.035-.25.136-.403.301-.578.26-.273.53-.507.649-.604zm5.62 2.577c-.05.486-1.37 1.778-2.721 2.759-.754.548-1.68 1-2.011 1.16a5.17 5.17 0 01-.929.358 4.263 4.263 0 01-.143-1.67c.054-.483.245-.954.528-1.355.28-.398.65-.73 1.067-.936.178-.088.373-.138.59-.133-.204.196-.44.603-.607 1.01-.126.305-.214.61-.223.827.453-.382.52-.449.781-.639.376-.274.725-.444 1.548-.78.543-.222 1.846-.556 2.12-.6zm7.139 2.092c.197.399.219.931.149 1.47a6.64 6.64 0 01-.498 1.748c-.244.55-.594 1.04-1.036 1.365-.552-.54-.748-1.236-.908-1.864-.167-.657-.14-1.353.19-2.181.157-.393.389-.833.634-1.093.163.188.253.535.305.925.078.585.069 1.265.087 1.642.113-.29.24-.548.378-.883.12-.296.518-.944.699-1.13zm-3.041-1.49c-.04.703-.311 1.454-.672 2.144a9.873 9.873 0 01-1.413 2.025c-.523.567-1.112.975-1.693 1.08-.206-1.17-.003-2.282.196-3.27.209-1.036.614-1.974 1.37-2.86.359-.42.811-.848 1.178-1.017.046.384-.062.933-.23 1.511-.25.866-.632 1.797-.822 2.33.262-.312.52-.57.829-.926.272-.315.99-.9 1.257-1.017zm6.152 4.06c.257.342.368.77.392 1.194a3.684 3.684 0 01-.182 1.343c-.14.412-.394.766-.763.976-.62-.494-.926-1.073-1.186-1.593-.27-.545-.364-1.099-.186-1.724.084-.297.232-.623.423-.803.188.168.334.456.45.774.173.476.279 1.02.36 1.323.06-.219.138-.412.213-.664.065-.224.337-.698.48-.826zm-2.831-6.638c.188.325.233.709.199 1.08-.04.441-.192.864-.343 1.148-.183.342-.46.623-.823.766-.498-.497-.7-1.034-.866-1.514-.175-.502-.187-.994.057-1.519.116-.248.294-.516.491-.652.149.166.243.433.306.721.095.434.12.918.153 1.19.083-.184.18-.343.281-.555.089-.187.399-.569.545-.665zm10.038-9.558c1.892-.735 3.042-1.846 4.036-3.089.828-1.033 1.549-2.156 2.501-3.227.827-.93 1.671-2.253 2.941-3.175-.519-.03-1.77.486-2.987 1.082-1.142.56-2.255 1.192-2.702 1.511-1.194.851-3.807 3.543-4.12 4.964.623-.125 1.976-1.23 2.534-1.7.486-.41.481-.318 1.044-.72-.366.677-.209.424-.876 1.433-.508.768-2.133 2.125-2.37 2.92zm4.912-10.996c.52-1.35 1.42-2.247 2.473-2.902 1.4-.87 3.071-1.308 4.468-1.801 1.095-.386 2.82-.907 4.279-1.87.803-.53 1.524-1.289 2.04-1.936.223.597-.032 1.261-.466 1.869-.566.79-1.435 1.485-1.955 1.81-.753.47-1.5.788-2.493 1.538.576.151 1.086.092 1.771-.056-.491.745-1.467 1.443-2.57 2.032-1.774.947-4.377 1.767-7.455 3.27a5.808 5.808 0 011.13-1.657c.755-.783 1.686-1.347 2.596-1.717-.623-.052-1.214.127-1.788.387-.694.315-1.362.748-2.03 1.033zm5.224 13.96c-.042.698-.181 1.362-.452 1.953a3.716 3.716 0 01-1.588 1.723c-.771.434-1.689.502-2.692.003.838-.017 1.627-.086 2.38-.464.793-.398 1.298-.888 1.664-1.498.294-.49.498-1.057.688-1.717zm-9.077-1.975c.191-.221.4-.426.623-.617-.007.074-.011.15-.011.227 0 1.309 1.047 2.37 2.337 2.37 1.292 0 2.338-1.061 2.338-2.37 0-.811-.403-1.528-1.017-1.954.183-.042.368-.079.555-.111.718.512 1.182 1.32 1.182 2.23a2.7 2.7 0 01-.035.433 3.164 3.164 0 00-.453-2.763 11.575 11.575 0 01.395-.038l.165.103c.112.07.243.216.37.388.187.252.352.547.455.767.092.198.16.41.206.628.049.233.072.465.07.686a4.219 4.219 0 01-.345 1.655 3.455 3.455 0 01-.925 1.256 3.16 3.16 0 01-1.278.654 4.004 4.004 0 01-1.588.058 5.467 5.467 0 01-2.58-1.171 5.175 5.175 0 01-1.183-1.359c.096-.192.203-.376.321-.552.468 1.1 1.543 1.899 2.823 2.009-1.31-.236-2.317-1.265-2.425-2.53zm-6.519.556a3.5 3.5 0 01.917-1.355c.449-.408 1.007-.657 1.598-.777a4.827 4.827 0 011.904.014c-.018.787-.334 1.539-.823 2.164-.364.466-1.075 1.042-1.82 1.367-.616.268-1.256.365-1.741.084 0-.003.718-.656 1.306-1.299.423-.463.758-.863.85-1.057-.291.017-.606.125-.906.259-.573.256-1.09.607-1.285.6zm8.09 16.27c-.206 1.492.64 3.507 1.637 5.2.619 1.05 1.11 1.745 1.719 2.41.362.397.767.784 1.264 1.23.514-.911.78-2.257.888-3.06a5.484 5.484 0 00-.258-2.5 8.201 8.201 0 00-.857-1.763c-.339-.506-.74-.916-1.166-1.005.244.421.371 1.344.397 2.208.018.59-.012 1.152-.084 1.509-.425-.341-1.72-1.978-2.06-2.5-.508-.78-1.08-1.555-1.48-1.729zm-3.959 3.237c-.346.672.153 2.06 1.042 3.453.535.838 1.304 1.47 1.652 1.793.304.282.677.546 1.233.815.281-.837.29-1.993.254-2.675-.023-.435-.272-1.261-.577-2.025-.278-.691-.602-1.331-.849-1.58-.36-.364-.846-.976-1.213-.981.268.309.443 1.649.6 2.36.107.484.171.954.167 1.26-.283-.148-.766-.724-1.255-1.297-.377-.441-.758-.881-1.054-1.123zm4.869-13.475c.576-.192 1.112-.077 1.64.217.51.283.823.647 1.026 1.072.235.488.325 1.059.403 1.682-.43.015-1.563-.138-2.346-.379a5.372 5.372 0 01-1.527-.775c-.472-.36-1.149-1.024-1.016-1.526.528.178 1.11.42 1.694.589.353.102.706.178 1.048.197-.04-.231-.139-.373-.298-.53a7.258 7.258 0 00-.624-.547zm6.891 2.03c.363-.157.717-.11 1.075.05.346.156.568.375.724.64.178.304.322.751.407 1.151a4.182 4.182 0 01-1.579-.138 4.085 4.085 0 01-1.051-.48c-.326-.207-.986-.973-.927-1.306.631.23.826.489 1.325.648.18.057.397.091.681.083a.59.59 0 00-.221-.328 4.744 4.744 0 00-.434-.32zm-5.387 1.927c.05.486 1.37 1.778 2.72 2.759.755.548 1.68 1 2.011 1.16.325.159.645.285.93.358.179-.573.195-1.21.143-1.67a2.959 2.959 0 00-.529-1.355c-.28-.398-.65-.73-1.067-.936a1.247 1.247 0 00-.59-.133c.205.196.44.603.607 1.01.126.305.214.61.224.826-.453-.38-.52-.448-.782-.638-.375-.274-.725-.444-1.548-.78-.542-.222-1.846-.556-2.12-.6zm-6.158 3.319c.36.093.706.372 1.006.715.357.407.65.904.823 1.285.21.46.326.956.285 1.42-.643.058-1.188-.198-1.67-.442-.505-.255-.927-.655-1.265-1.325-.16-.317-.309-.71-.336-1.01.207-.003.475.13.748.312.41.272.833.653 1.079.849-.12-.232-.212-.458-.346-.73-.12-.241-.307-.855-.324-1.074zm1.399-2.909c.118.549.426 1.103.795 1.6a7.85 7.85 0 001.363 1.412c.483.38.997.624 1.467.633.016-.947-.282-1.795-.562-2.547-.293-.788-.729-1.474-1.434-2.074-.334-.284-.744-.562-1.052-.648.011.307.165.726.368 1.158.304.65.72 1.332.937 1.727-.245-.212-.48-.381-.767-.622-.253-.213-.89-.581-1.115-.639zm-5.421 5.649c-.09.637-.039 1.716.1 2.322.164.72.523 1.169.794 1.54.242.331.818.863 1.21.923.342-1.08.385-2.079.41-2.967.026-.93-.103-1.759-.488-2.518-.183-.36-.431-.72-.662-.85-.096.352-.112.846-.09 1.361.03.773.144 1.597.19 2.07-.133-.268-.272-.486-.43-.79-.14-.27-.865-1.003-1.034-1.091zm2.813-6.812c.272.219.448.552.554.905.127.42.156.868.134 1.19-.026.388-.152.758-.4 1.038-.589-.247-.949-.654-1.26-1.024a2.031 2.031 0 01-.501-1.411c.005-.275.054-.592.167-.799.182.09.357.295.513.533.234.357.43.788.556 1.023.001-.202.024-.387.03-.622.005-.207.122-.685.207-.833zm-.604-3.047c-.012.557.263 1.214.641 1.767.25.365.568.729.95.988.348.236.749.386 1.2.37.21-.619.12-1.159.028-1.637-.099-.501-.344-.93-.848-1.291-.239-.172-.629-.397-.886-.44.097.284.246.544.39.793.197.342.245.686.258 1.094a7.817 7.817 0 00-.656-.801c-.378-.41-.813-.804-1.077-.843zm-4.311-7.834c.045-.316.421-.718.803-.978.352-.24.801-.425 1.34-.552.005.47-.07.924-.252 1.322-.184.403-.475.782-.91.988-.32.16-1.073-.45-.981-.78zm3.597 24.704a6.16 6.16 0 00-.017 1.676c.102.728.373 1.421.91 1.955.25.248.556.426.934.485.238-.213.409-.634.493-1.09.1-.543.077-1.137-.105-1.486-.203-.393-.57-.711-1.054-1.032-.297-.196-.637-.357-1.161-.508zm-2.34-31.061c-.692-.198-1.104-.585-1.233-1.083-.104-.4-.026-.872.236-1.374.398-.763 1.086-1.44 1.54-2.057.461.509.82.99 1.133 1.606.155.337.246.677.317 1.056a7.594 7.594 0 00-1.245 1.775c-.063-.475-.055-.797-.079-1.17a6.142 6.142 0 00-.155-1.049c-.111.307-.284.61-.39.968a3.59 3.59 0 00-.123 1.328zm2.081-3.906c-.305-.348-.652-.668-.865-1.043a1.4 1.4 0 01-.18-.939c.066-.288.31-.671.577-1.047.232-.328.482-.65.645-.896.301.251.496.498.652.765.172.295.296.616.465.995-.555.65-.956 1.426-1.294 2.165zm-.879 7.853c-.142-.79-.244-1.902-.076-2.716.186-.81.546-1.507 1.012-2.203.306-.441.621-.776 1.101-1.071.034.629-.004 1.143 0 1.664.004.531.051 1.07.261 1.744-.202.285-.537.81-.683 1.152-.011-.017-.098-.353-.192-.692a7.44 7.44 0 00-.2-.655c-.285.398-.44.727-.627 1.11-.269.55-.434 1.147-.596 1.667zm1.434-6.43a3.934 3.934 0 01.348-1.805c.33-.717.66-1.342 1.193-1.852.339-.375.774-.71 1.177-1.056.073.262.153.69.18 1.106.026.386.007.762-.104.99l-.604-.137c-.501.382-.806.81-1.208 1.3-.327.43-.662.788-.982 1.454zm1.42 2.307c-.048-.383-.16-1.222-.052-1.844.128-.696.31-.995.672-1.584.435-.615.817-1.13 1.373-1.637.617-.533 1.784-1.273 2.612-.81-.019.05-.756.926-1.353 1.96-.423.734-.724 1.647-.881 1.956-.292.717-.546 1.242-.876 1.668-.177-.225-.236-.516-.238-.826-.002-.474.131-.996.193-1.408-.182.127-.342.352-.483.603-.188.334-.344.715-.473.982-.164.34-.332.674-.494.94zm3.524-2.013c-.042-.406.07-.845.245-1.264a6.52 6.52 0 01.694-1.235 6.26 6.26 0 01.97-1.089c.465-.384 1.195-.807 1.873-.755-.015.037-.5.873-.96 1.628a11 11 0 00-.689 1.416 22.768 22.768 0 00-.922 2.693 3.235 3.235 0 01-.21-1.696c.066-.482.23-.957.462-1.413-.16.107-.326.213-.481.334a2.326 2.326 0 00-.515.591c-.163.256-.301.53-.467.79zm-5.75 7.594c.223-.841.681-1.553 1.237-2.295.362-.543.66-.959.97-1.348.352-.442.795-.92 1.275-1.381.721-.695 1.528-1.35 2.239-1.785.084.504.028.966-.106 1.407-.174.573-.478 1.112-.775 1.666-.366.683-.77 1.345-1.036 1.594.044-.608-.04-1.136-.152-1.454l-.905 1.347c-.303.409-.838.97-1.406 1.436-.462.38-.946.695-1.342.813zm10.854-2.933c.375-.687 1.043-1.442 1.796-2.166.97-.931 2.08-1.81 2.884-2.42.667-.504 1.348-1.006 2.084-1.596.098.312-.094.755-.43 1.24-.776 1.118-2.316 2.455-2.816 2.884-1.188.877-2.481 1.609-3.518 2.058zM50.95 9.69c.04-.38.243-.888.502-1.412.373-.757.863-1.546 1.151-2.027.385-.643.777-1.287 1.11-1.886.204.218.29.628.317 1.056-.053.788-.16 1.368-.373 1.899-.226.563-.57 1.071-1.091 1.712-.531.457-.972.737-1.616.658zm-4.393 9.18c.157-.318.236-.55.364-.716.155-.2.383-.302.912-.338.372-.025.717.055.77.29-.037.422-.168.666-.38.807-.222.147-.534.18-.919.187-.307-.043-.546-.087-.747-.23zm1.683 2.816c.111-.35.395-.616.738-.794.427-.222.846-.309 1.202-.234.453.095.805.451.945 1.12-.164.373-.77.477-1.396.421-.605-.054-1.228-.258-1.488-.513zm-.55 2.708c.326.389.555.678.801.917.396.384.865.658 1.37.818.42.133.866.187 1.317.163-.01-.401-.066-.853-.23-1.237-.187-.435-.565-.692-1.014-.82-.73-.21-1.648-.085-2.244.16zm-.567 3.803c.229.306.566.791.936 1.28.154.204.835 1.085 1.421 1.467.404.263.763.292.878-.294.099-.503-.04-.947-.303-1.32-.24-.34-.695-.711-1.2-.965-.598-.302-1.267-.44-1.731-.168zM43.455 38.87c.296.534.696 1.141 1.078 1.748.407.645.795 1.291 1.025 1.85.455 1.112.751 2.46.871 2.476.215-.175.598-.785.626-1.554.035-.965-.019-1.672-.337-2.433-.504-1.21-1.522-2.039-3.263-2.088zm7.027-25.027a3.07 3.07 0 01.413-1.368c.51-.895 1.422-1.58 2.35-1.952.055.608.03 1.25-.168 1.817-.167.48-.457.905-.927 1.207-.425.273-.956.36-1.668.296zm.514 2.173c.297.116.627.252.946.416.415.213.811.473 1.092.794.133.153.285.392.573.886.174-.09.294-.209.318-.612-.05-.507-.305-.884-.695-1.27-.647-.546-1.656-.663-2.234-.214zm1.314 4.215a7.5 7.5 0 011.276 1.346c.218.287.688.94 1.142 1.448.297.33.587.6.796.665.26-.072.436-.212.484-.49-.016-.63-.274-1.235-.68-1.734-.723-.896-1.916-1.457-3.019-1.235zm.588 4.879c.682.555 1.135 1.091 1.548 1.632.265.348.835 1.14 1.385 1.755.36.401.712.728.966.806.314-.087.527-.257.585-.594-.018-.764-.332-1.496-.823-2.102-.878-1.085-2.324-1.766-3.661-1.496zm-.921 7.262c.221.66.533 1.416.83 2.17.315.802.613 1.602.767 2.285.306 1.355.43 2.976.544 3.005.228-.184.67-.865.789-1.769.15-1.135.18-1.973-.034-2.902-.342-1.478-1.224-2.557-2.896-2.79zm3.426-1.812c.389.643.622 1.225.827 1.801.132.371.407 1.209.696 1.882.19.439.384.807.547.93.229-.016.401-.129.49-.425.1-.702-.009-1.435-.258-2.087-.445-1.168-1.34-2.08-2.302-2.1zm-5.8 6.169c.096.746.16 1.29.247 1.79.141.806.36 1.553.632 2.204.227.54.49 1.014.78 1.403a7.662 7.662 0 00.202-1.63 4.643 4.643 0 00-.407-1.877c-.4-.914-1.01-1.62-1.454-1.89z" fill="#424B54"/></svg>