<svg width="86" height="120" viewBox="0 0 86 120" fill="none" xmlns="http://www.w3.org/2000/svg">
<path d="M8.4668 109.267V108.941H9.66936V100.611H8.4668V100.285H12.9701C13.3459 100.285 13.7196 100.346 14.0913 100.467C14.4629 100.584 14.8199 100.767 15.1623 101.018C15.5047 101.264 15.8053 101.563 16.0642 101.914C16.3273 102.264 16.536 102.69 16.6905 103.191C16.845 103.688 16.9223 104.227 16.9223 104.807C16.9223 105.388 16.845 105.926 16.6905 106.423C16.536 106.916 16.3273 107.335 16.0642 107.682C15.8053 108.024 15.5047 108.317 15.1623 108.559C14.8199 108.801 14.4629 108.981 14.0913 109.098C13.7196 109.21 13.3459 109.267 12.9701 109.267H8.4668ZM10.9721 108.941H12.682C13.0996 108.941 13.4712 108.866 13.7969 108.715C14.1226 108.565 14.3877 108.365 14.5923 108.114C14.7969 107.864 14.966 107.559 15.0997 107.2C15.2333 106.841 15.3251 106.467 15.3752 106.079C15.4295 105.69 15.4567 105.266 15.4567 104.807C15.4567 104.348 15.4295 103.922 15.3752 103.529C15.3251 103.137 15.2333 102.759 15.0997 102.396C14.966 102.028 14.7969 101.717 14.5923 101.463C14.3877 101.204 14.1226 100.997 13.7969 100.842C13.4712 100.688 13.0996 100.611 12.682 100.611H10.9721V108.941Z" fill="url(#paint0_linear)"/>
<path d="M18.2877 109.267V108.941H19.4903V100.611H18.2877V100.285H21.9956V100.611H20.793V108.941H21.9956V109.267H18.2877Z" fill="url(#paint1_linear)"/>
<path d="M23.4236 104.807C23.4236 104.239 23.503 103.705 23.6616 103.204C23.8203 102.699 24.0374 102.26 24.313 101.888C24.5886 101.517 24.908 101.195 25.2713 100.924C25.6346 100.653 26.0271 100.45 26.4488 100.316C26.8705 100.179 27.2985 100.11 27.7328 100.11C28.3633 100.11 28.9479 100.208 29.4865 100.404C29.7329 100.496 29.9291 100.542 30.0753 100.542C30.2005 100.542 30.2987 100.508 30.3696 100.442C30.4406 100.371 30.5137 100.26 30.5889 100.11H30.8645V103.06H30.5889C30.4385 102.442 30.2026 101.911 29.8811 101.469C29.7851 101.335 29.6849 101.216 29.5805 101.112C29.4761 101.007 29.3383 100.901 29.1671 100.792C29.0001 100.68 28.7934 100.592 28.547 100.529C28.3048 100.467 28.0334 100.435 27.7328 100.435C26.8267 100.435 26.1252 100.809 25.6283 101.557C25.1356 102.3 24.8892 103.383 24.8892 104.807C24.8892 106.227 25.1356 107.3 25.6283 108.027C26.121 108.753 26.8225 109.116 27.7328 109.116C28.0334 109.116 28.3048 109.085 28.547 109.022C28.7934 108.96 29.0001 108.874 29.1671 108.766C29.3383 108.653 29.4761 108.544 29.5805 108.44C29.6849 108.336 29.7851 108.217 29.8811 108.083C30.2026 107.64 30.4385 107.11 30.5889 106.492H30.8645V109.442H30.5889C30.5388 109.342 30.4949 109.267 30.4573 109.217C30.4239 109.166 30.3738 109.121 30.307 109.079C30.2402 109.033 30.163 109.01 30.0753 109.01C29.9291 109.01 29.7329 109.056 29.4865 109.148C28.9479 109.344 28.3633 109.442 27.7328 109.442C27.1816 109.442 26.6492 109.336 26.1356 109.123C25.6262 108.91 25.169 108.611 24.764 108.227C24.3589 107.839 24.0332 107.348 23.7869 106.755C23.5447 106.162 23.4236 105.513 23.4236 104.807Z" fill="url(#paint2_linear)"/>
<path d="M32.6558 103.968L32.8061 100.285H40.9985L41.1488 103.968H40.8231C40.7313 102.949 40.5016 102.168 40.1342 101.625C39.679 100.949 39.0861 100.611 38.3554 100.611H37.5537V108.941H38.7562V109.267H35.0484V108.941H36.2509V100.611H35.4492C34.7185 100.611 34.1256 100.949 33.6704 101.625C33.303 102.168 33.0733 102.949 32.9815 103.968H32.6558Z" fill="url(#paint3_linear)"/>
<path d="M41.3117 109.267V108.941H42.6771L45.5707 100.11H45.9465L49.2285 108.941H50.3685V109.267H46.1595V108.941H47.7253L46.6606 106.06H44.0425L43.103 108.941H44.4183V109.267H41.3117ZM44.1427 105.734H46.5353L45.2701 102.321L44.1427 105.734Z" fill="url(#paint4_linear)"/>
<path d="M50.2808 103.968L50.4311 100.285H58.6235L58.7738 103.968H58.4481C58.3563 102.949 58.1266 102.168 57.7592 101.625C57.304 100.949 56.7111 100.611 55.9804 100.611H55.1787V108.941H56.3812V109.267H52.6734V108.941H53.8759V100.611H53.0742C52.3435 100.611 51.7506 100.949 51.2954 101.625C50.928 102.168 50.6983 102.949 50.6065 103.968H50.2808Z" fill="url(#paint5_linear)"/>
<path d="M60.1518 104.807C60.1518 104.239 60.2311 103.705 60.3898 103.204C60.5484 102.699 60.7656 102.26 61.0412 101.888C61.3167 101.517 61.6362 101.195 61.9994 100.924C62.3627 100.653 62.7552 100.45 63.177 100.316C63.5987 100.179 64.0267 100.11 64.4609 100.11C64.8952 100.11 65.3232 100.179 65.7449 100.316C66.1666 100.45 66.5592 100.653 66.9224 100.924C67.2857 101.195 67.6051 101.517 67.8807 101.888C68.1563 102.26 68.3734 102.699 68.5321 103.204C68.6908 103.705 68.7701 104.239 68.7701 104.807C68.7701 105.513 68.6469 106.162 68.4006 106.755C68.1584 107.348 67.8348 107.839 67.4298 108.227C67.0247 108.611 66.5654 108.91 66.0518 109.123C65.5424 109.336 65.0121 109.442 64.4609 109.442C63.9098 109.442 63.3774 109.336 62.8638 109.123C62.3544 108.91 61.8971 108.611 61.4921 108.227C61.0871 107.839 60.7614 107.348 60.515 106.755C60.2729 106.162 60.1518 105.513 60.1518 104.807ZM61.6174 104.807C61.6174 106.227 61.8637 107.3 62.3565 108.027C62.8492 108.753 63.5507 109.116 64.4609 109.116C65.3712 109.116 66.0727 108.753 66.5654 108.027C67.0581 107.3 67.3045 106.227 67.3045 104.807C67.3045 103.383 67.056 102.3 66.5592 101.557C66.0664 100.809 65.367 100.435 64.4609 100.435C63.5548 100.435 62.8533 100.809 62.3565 101.557C61.8637 102.3 61.6174 103.383 61.6174 104.807Z" fill="url(#paint6_linear)"/>
<path d="M70.1355 109.267V108.941H71.3381V100.611H70.1355V100.285H73.9186C74.3946 100.285 74.8163 100.348 75.1837 100.473C75.5512 100.598 75.8393 100.769 76.0481 100.987C76.2569 101.199 76.4135 101.433 76.5178 101.688C76.6222 101.939 76.6744 102.204 76.6744 102.483C76.6744 103.026 76.5157 103.463 76.1984 103.793C75.8811 104.118 75.4468 104.344 74.8956 104.469V104.544C75.5345 104.644 76.021 104.868 76.355 105.214C76.6932 105.561 76.8623 105.964 76.8623 106.423V107.789C76.8623 108.227 76.9333 108.538 77.0753 108.722C77.2214 108.901 77.4657 108.991 77.8081 108.991C78.0461 108.991 78.2945 108.943 78.5534 108.847L78.6286 109.16C78.211 109.298 77.7747 109.367 77.3195 109.367C77.1149 109.367 76.9187 109.342 76.7308 109.292C76.5429 109.246 76.355 109.169 76.1671 109.06C75.9834 108.951 75.8351 108.789 75.7224 108.571C75.6138 108.354 75.5595 108.095 75.5595 107.795V106.329C75.5595 105.857 75.4322 105.461 75.1775 105.139C74.927 104.818 74.5491 104.657 74.0438 104.657H72.6408V108.941H73.8434V109.267H70.1355ZM72.6408 104.331H74.2442C74.4697 104.331 74.6576 104.287 74.808 104.2C74.9624 104.112 75.0794 103.987 75.1587 103.824C75.238 103.657 75.2923 103.477 75.3215 103.285C75.3549 103.089 75.3717 102.859 75.3717 102.596C75.3717 102.35 75.3424 102.114 75.284 101.888C75.2297 101.663 75.1441 101.452 75.0272 101.256C74.9144 101.06 74.7537 100.903 74.5449 100.786C74.3361 100.669 74.0939 100.611 73.8183 100.611H72.6408V104.331Z" fill="url(#paint7_linear)"/>
<path d="M8.4668 109.267V108.941H9.66936V100.611H8.4668V100.285H12.9701C13.3459 100.285 13.7196 100.346 14.0913 100.467C14.4629 100.584 14.8199 100.767 15.1623 101.018C15.5047 101.264 15.8053 101.563 16.0642 101.914C16.3273 102.264 16.536 102.69 16.6905 103.191C16.845 103.688 16.9223 104.227 16.9223 104.807C16.9223 105.388 16.845 105.926 16.6905 106.423C16.536 106.916 16.3273 107.335 16.0642 107.682C15.8053 108.024 15.5047 108.317 15.1623 108.559C14.8199 108.801 14.4629 108.981 14.0913 109.098C13.7196 109.21 13.3459 109.267 12.9701 109.267H8.4668ZM10.9721 108.941H12.682C13.0996 108.941 13.4712 108.866 13.7969 108.715C14.1226 108.565 14.3877 108.365 14.5923 108.114C14.7969 107.864 14.966 107.559 15.0997 107.2C15.2333 106.841 15.3251 106.467 15.3752 106.079C15.4295 105.69 15.4567 105.266 15.4567 104.807C15.4567 104.348 15.4295 103.922 15.3752 103.529C15.3251 103.137 15.2333 102.759 15.0997 102.396C14.966 102.028 14.7969 101.717 14.5923 101.463C14.3877 101.204 14.1226 100.997 13.7969 100.842C13.4712 100.688 13.0996 100.611 12.682 100.611H10.9721V108.941Z" stroke="url(#paint8_linear)" stroke-width="0.712627"/>
<path d="M18.2877 109.267V108.941H19.4903V100.611H18.2877V100.285H21.9956V100.611H20.793V108.941H21.9956V109.267H18.2877Z" stroke="url(#paint9_linear)" stroke-width="0.712627"/>
<path d="M23.4236 104.807C23.4236 104.239 23.503 103.705 23.6616 103.204C23.8203 102.699 24.0374 102.26 24.313 101.888C24.5886 101.517 24.908 101.195 25.2713 100.924C25.6346 100.653 26.0271 100.45 26.4488 100.316C26.8705 100.179 27.2985 100.11 27.7328 100.11C28.3633 100.11 28.9479 100.208 29.4865 100.404C29.7329 100.496 29.9291 100.542 30.0753 100.542C30.2005 100.542 30.2987 100.508 30.3696 100.442C30.4406 100.371 30.5137 100.26 30.5889 100.11H30.8645V103.06H30.5889C30.4385 102.442 30.2026 101.911 29.8811 101.469C29.7851 101.335 29.6849 101.216 29.5805 101.112C29.4761 101.007 29.3383 100.901 29.1671 100.792C29.0001 100.68 28.7934 100.592 28.547 100.529C28.3048 100.467 28.0334 100.435 27.7328 100.435C26.8267 100.435 26.1252 100.809 25.6283 101.557C25.1356 102.3 24.8892 103.383 24.8892 104.807C24.8892 106.227 25.1356 107.3 25.6283 108.027C26.121 108.753 26.8225 109.116 27.7328 109.116C28.0334 109.116 28.3048 109.085 28.547 109.022C28.7934 108.96 29.0001 108.874 29.1671 108.766C29.3383 108.653 29.4761 108.544 29.5805 108.44C29.6849 108.336 29.7851 108.217 29.8811 108.083C30.2026 107.64 30.4385 107.11 30.5889 106.492H30.8645V109.442H30.5889C30.5388 109.342 30.4949 109.267 30.4573 109.217C30.4239 109.166 30.3738 109.121 30.307 109.079C30.2402 109.033 30.163 109.01 30.0753 109.01C29.9291 109.01 29.7329 109.056 29.4865 109.148C28.9479 109.344 28.3633 109.442 27.7328 109.442C27.1816 109.442 26.6492 109.336 26.1356 109.123C25.6262 108.91 25.169 108.611 24.764 108.227C24.3589 107.839 24.0332 107.348 23.7869 106.755C23.5447 106.162 23.4236 105.513 23.4236 104.807Z" stroke="url(#paint10_linear)" stroke-width="0.712627"/>
<path d="M32.6558 103.968L32.8061 100.285H40.9985L41.1488 103.968H40.8231C40.7313 102.949 40.5016 102.168 40.1342 101.625C39.679 100.949 39.0861 100.611 38.3554 100.611H37.5537V108.941H38.7562V109.267H35.0484V108.941H36.2509V100.611H35.4492C34.7185 100.611 34.1256 100.949 33.6704 101.625C33.303 102.168 33.0733 102.949 32.9815 103.968H32.6558Z" stroke="url(#paint11_linear)" stroke-width="0.712627"/>
<path d="M41.3117 109.267V108.941H42.6771L45.5707 100.11H45.9465L49.2285 108.941H50.3685V109.267H46.1595V108.941H47.7253L46.6606 106.06H44.0425L43.103 108.941H44.4183V109.267H41.3117ZM44.1427 105.734H46.5353L45.2701 102.321L44.1427 105.734Z" stroke="url(#paint12_linear)" stroke-width="0.712627"/>
<path d="M50.2808 103.968L50.4311 100.285H58.6235L58.7738 103.968H58.4481C58.3563 102.949 58.1266 102.168 57.7592 101.625C57.304 100.949 56.7111 100.611 55.9804 100.611H55.1787V108.941H56.3812V109.267H52.6734V108.941H53.8759V100.611H53.0742C52.3435 100.611 51.7506 100.949 51.2954 101.625C50.928 102.168 50.6983 102.949 50.6065 103.968H50.2808Z" stroke="url(#paint13_linear)" stroke-width="0.712627"/>
<path d="M60.1518 104.807C60.1518 104.239 60.2311 103.705 60.3898 103.204C60.5484 102.699 60.7656 102.26 61.0412 101.888C61.3167 101.517 61.6362 101.195 61.9994 100.924C62.3627 100.653 62.7552 100.45 63.177 100.316C63.5987 100.179 64.0267 100.11 64.4609 100.11C64.8952 100.11 65.3232 100.179 65.7449 100.316C66.1666 100.45 66.5592 100.653 66.9224 100.924C67.2857 101.195 67.6051 101.517 67.8807 101.888C68.1563 102.26 68.3734 102.699 68.5321 103.204C68.6908 103.705 68.7701 104.239 68.7701 104.807C68.7701 105.513 68.6469 106.162 68.4006 106.755C68.1584 107.348 67.8348 107.839 67.4298 108.227C67.0247 108.611 66.5654 108.91 66.0518 109.123C65.5424 109.336 65.0121 109.442 64.4609 109.442C63.9098 109.442 63.3774 109.336 62.8638 109.123C62.3544 108.91 61.8971 108.611 61.4921 108.227C61.0871 107.839 60.7614 107.348 60.515 106.755C60.2729 106.162 60.1518 105.513 60.1518 104.807ZM61.6174 104.807C61.6174 106.227 61.8637 107.3 62.3565 108.027C62.8492 108.753 63.5507 109.116 64.4609 109.116C65.3712 109.116 66.0727 108.753 66.5654 108.027C67.0581 107.3 67.3045 106.227 67.3045 104.807C67.3045 103.383 67.056 102.3 66.5592 101.557C66.0664 100.809 65.367 100.435 64.4609 100.435C63.5548 100.435 62.8533 100.809 62.3565 101.557C61.8637 102.3 61.6174 103.383 61.6174 104.807Z" stroke="url(#paint14_linear)" stroke-width="0.712627"/>
<path d="M70.1355 109.267V108.941H71.3381V100.611H70.1355V100.285H73.9186C74.3946 100.285 74.8163 100.348 75.1837 100.473C75.5512 100.598 75.8393 100.769 76.0481 100.987C76.2569 101.199 76.4135 101.433 76.5178 101.688C76.6222 101.939 76.6744 102.204 76.6744 102.483C76.6744 103.026 76.5157 103.463 76.1984 103.793C75.8811 104.118 75.4468 104.344 74.8956 104.469V104.544C75.5345 104.644 76.021 104.868 76.355 105.214C76.6932 105.561 76.8623 105.964 76.8623 106.423V107.789C76.8623 108.227 76.9333 108.538 77.0753 108.722C77.2214 108.901 77.4657 108.991 77.8081 108.991C78.0461 108.991 78.2945 108.943 78.5534 108.847L78.6286 109.16C78.211 109.298 77.7747 109.367 77.3195 109.367C77.1149 109.367 76.9187 109.342 76.7308 109.292C76.5429 109.246 76.355 109.169 76.1671 109.06C75.9834 108.951 75.8351 108.789 75.7224 108.571C75.6138 108.354 75.5595 108.095 75.5595 107.795V106.329C75.5595 105.857 75.4322 105.461 75.1775 105.139C74.927 104.818 74.5491 104.657 74.0438 104.657H72.6408V108.941H73.8434V109.267H70.1355ZM72.6408 104.331H74.2442C74.4697 104.331 74.6576 104.287 74.808 104.2C74.9624 104.112 75.0794 103.987 75.1587 103.824C75.238 103.657 75.2923 103.477 75.3215 103.285C75.3549 103.089 75.3717 102.859 75.3717 102.596C75.3717 102.35 75.3424 102.114 75.284 101.888C75.2297 101.663 75.1441 101.452 75.0272 101.256C74.9144 101.06 74.7537 100.903 74.5449 100.786C74.3361 100.669 74.0939 100.611 73.8183 100.611H72.6408V104.331Z" stroke="url(#paint15_linear)" stroke-width="0.712627"/>
<path d="M22.9277 116.733V116.567H23.5785V112.325H22.9277V112.159H24.4686L25.5787 115.668L26.7431 112.159H28.1276V112.325H27.5151V116.567H28.1276V116.733H26.2391V116.567H26.8516V112.484H26.8388L25.3937 116.823H25.2023L23.8465 112.538C23.821 112.462 23.8082 112.391 23.8082 112.325H23.7827V116.567H24.4335V116.733H22.9277Z" fill="#FBFBFF"/>
<path d="M28.7784 116.733V116.567H29.3909V112.325H28.7784V112.159H32.3513L32.3832 113.358H32.2173C32.2003 113.273 32.1844 113.204 32.1695 113.151C32.1546 113.098 32.1259 113.023 32.0833 112.928C32.0429 112.832 31.9919 112.741 31.9302 112.656C31.7728 112.435 31.5304 112.325 31.2029 112.325H30.0544V114.258H30.6478C30.8583 114.258 31.0391 114.143 31.1901 113.913C31.2369 113.841 31.2773 113.74 31.3113 113.61C31.3454 113.48 31.3624 113.386 31.3624 113.326H31.5155V115.349H31.3624C31.3624 115.289 31.3454 115.195 31.3113 115.065C31.2773 114.935 31.2369 114.834 31.1901 114.762C31.0412 114.536 30.8605 114.424 30.6478 114.424H30.0544V116.567H31.1295C31.6038 116.567 31.9451 116.424 32.1535 116.137C32.2556 115.999 32.3268 115.872 32.3673 115.757C32.4077 115.642 32.4449 115.492 32.4789 115.307H32.6448L32.6257 116.733H28.7784Z" fill="#FBFBFF"/>
<path d="M33.2637 116.733V116.567H33.9145V112.325H33.2637V112.159H34.8523L36.7983 115.358V112.325H36.1475V112.159H37.6533V112.325H37.0025V116.823H36.8111L34.192 112.516C34.1558 112.456 34.1378 112.393 34.1378 112.325H34.1186V116.567H34.7694V116.733H33.2637Z" fill="#FBFBFF"/>
<path d="M38.3487 112.229C38.3487 112.131 38.3753 112.05 38.4285 111.986C38.4816 111.923 38.555 111.891 38.6486 111.891C38.7421 111.891 38.8155 111.923 38.8687 111.986C38.9219 112.05 38.9484 112.131 38.9484 112.229C38.9484 112.295 38.9378 112.415 38.9165 112.589L38.7379 114.009H38.5592L38.3806 112.589C38.3593 112.413 38.3487 112.293 38.3487 112.229Z" fill="#FBFBFF"/>
<path d="M40.0905 115.215H40.2309C40.2925 115.54 40.4127 115.825 40.5913 116.07C40.7253 116.255 40.8859 116.399 41.073 116.504C41.2623 116.606 41.4686 116.657 41.6919 116.657C42.0173 116.657 42.2715 116.575 42.4544 116.411C42.6394 116.247 42.7319 116.023 42.7319 115.738C42.7319 115.472 42.6383 115.252 42.4512 115.078C42.264 114.901 41.9705 114.762 41.5707 114.66C41.4176 114.621 41.2815 114.581 41.1624 114.539C41.0433 114.494 40.9231 114.436 40.8019 114.366C40.6807 114.296 40.5796 114.217 40.4988 114.13C40.4201 114.043 40.3553 113.937 40.3042 113.811C40.2553 113.684 40.2309 113.542 40.2309 113.387C40.2309 112.993 40.3531 112.676 40.5977 112.433C40.8423 112.191 41.1794 112.069 41.609 112.069C41.8004 112.069 41.9748 112.102 42.1322 112.168C42.2874 112.232 42.3948 112.264 42.4544 112.264C42.5437 112.264 42.6022 112.199 42.6298 112.069H42.7702L42.7829 113.253H42.6426C42.5703 113.045 42.4692 112.845 42.3395 112.653C42.2608 112.534 42.1481 112.435 42.0014 112.357C41.8567 112.276 41.7121 112.235 41.5675 112.235C41.2974 112.235 41.0794 112.313 40.9135 112.468C40.7477 112.623 40.6647 112.811 40.6647 113.03C40.6647 113.138 40.6881 113.237 40.7349 113.326C40.7817 113.413 40.838 113.486 40.904 113.543C40.9699 113.601 41.0592 113.656 41.1719 113.709C41.2847 113.76 41.3836 113.799 41.4686 113.827C41.5537 113.853 41.6622 113.883 41.794 113.92C42.028 113.983 42.2268 114.055 42.3906 114.133C42.5564 114.21 42.7021 114.306 42.8276 114.42C42.9552 114.535 43.0498 114.675 43.1115 114.838C43.1732 115 43.204 115.189 43.204 115.406C43.204 115.829 43.0573 116.172 42.7638 116.433C42.4703 116.693 42.1098 116.823 41.6824 116.823C41.425 116.823 41.1581 116.756 40.8816 116.622C40.7604 116.564 40.6764 116.536 40.6296 116.536C40.5339 116.536 40.4616 116.557 40.4127 116.599C40.3638 116.642 40.3138 116.716 40.2628 116.823H40.1224L40.0905 115.215Z" fill="#FBFBFF"/>
<path d="M45.6987 114.462C45.6987 114.173 45.7391 113.901 45.8199 113.645C45.9007 113.388 46.0113 113.165 46.1517 112.975C46.2921 112.786 46.4548 112.622 46.6398 112.484C46.8248 112.346 47.0247 112.243 47.2395 112.175C47.4543 112.104 47.6723 112.069 47.8935 112.069C48.2146 112.069 48.5124 112.119 48.7867 112.219C48.9122 112.266 49.0122 112.29 49.0866 112.29C49.1504 112.29 49.2004 112.272 49.2365 112.238C49.2727 112.202 49.3099 112.146 49.3482 112.069H49.4885V113.572H49.3482C49.2716 113.257 49.1515 112.987 48.9877 112.762C48.9388 112.694 48.8877 112.633 48.8346 112.58C48.7814 112.527 48.7112 112.472 48.624 112.417C48.539 112.36 48.4337 112.315 48.3082 112.283C48.1849 112.251 48.0466 112.235 47.8935 112.235C47.432 112.235 47.0747 112.426 46.8216 112.806C46.5707 113.185 46.4452 113.737 46.4452 114.462C46.4452 115.185 46.5707 115.732 46.8216 116.102C47.0726 116.472 47.4299 116.657 47.8935 116.657C48.0466 116.657 48.1849 116.641 48.3082 116.609C48.4337 116.577 48.539 116.533 48.624 116.478C48.7112 116.421 48.7814 116.365 48.8346 116.312C48.8877 116.259 48.9388 116.198 48.9877 116.13C49.1515 115.905 49.2716 115.635 49.3482 115.32H49.4885V116.823H49.3482C49.3227 116.772 49.3003 116.733 49.2812 116.708C49.2642 116.682 49.2386 116.659 49.2046 116.638C49.1706 116.614 49.1313 116.603 49.0866 116.603C49.0122 116.603 48.9122 116.626 48.7867 116.673C48.5124 116.773 48.2146 116.823 47.8935 116.823C47.6128 116.823 47.3416 116.768 47.08 116.66C46.8206 116.551 46.5877 116.399 46.3814 116.204C46.1751 116.006 46.0092 115.756 45.8837 115.454C45.7604 115.152 45.6987 114.821 45.6987 114.462Z" fill="#FBFBFF"/>
<path d="M50.3626 116.733V116.567H50.9751V112.325H50.3626V112.159H52.2512V112.325H51.6387V116.567H52.5893C52.8062 116.567 52.9934 116.534 53.1508 116.469C53.3082 116.403 53.4443 116.289 53.5591 116.127C53.6803 115.955 53.7675 115.783 53.8207 115.61C53.876 115.438 53.9164 115.238 53.9419 115.011H54.1333L54.0632 116.733H50.3626Z" fill="#FBFBFF"/>
<path d="M54.4906 112.325V112.159H56.3792V112.325H55.7667V115.7C55.7667 115.883 55.7922 116.039 55.8432 116.169C55.8964 116.296 55.9708 116.395 56.0665 116.465C56.1644 116.533 56.2707 116.582 56.3855 116.612C56.5004 116.642 56.6322 116.657 56.7811 116.657C57.1873 116.657 57.5106 116.55 57.7509 116.338C57.9934 116.125 58.1146 115.817 58.1146 115.413V112.325H57.4638V112.159H58.9695V112.325H58.3187V115.438C58.3187 115.887 58.1805 116.23 57.904 116.469C57.6297 116.705 57.2554 116.823 56.7811 116.823C55.6625 116.823 55.1031 116.329 55.1031 115.342V112.325H54.4906Z" fill="#FBFBFF"/>
<path d="M59.5118 116.733V116.567H60.1243V112.325H59.5118V112.159H61.5152C62.0044 112.159 62.367 112.257 62.6031 112.452C62.8413 112.646 62.9604 112.916 62.9604 113.262C62.9604 113.516 62.87 113.729 62.6892 113.904C62.5084 114.078 62.2777 114.192 61.9969 114.245V114.283C62.3564 114.328 62.6403 114.457 62.8487 114.669C63.0571 114.882 63.1613 115.151 63.1613 115.476C63.1613 115.87 63.0156 116.178 62.7243 116.402C62.435 116.623 62.0405 116.733 61.5408 116.733H59.5118ZM60.7879 116.567H61.477C62.1022 116.567 62.4148 116.193 62.4148 115.445C62.4148 115.102 62.35 114.834 62.2202 114.641C62.0905 114.445 61.8895 114.347 61.6173 114.347H60.7879V116.567ZM60.7879 114.181H61.6173C61.8428 114.181 62.0118 114.1 62.1245 113.939C62.2394 113.775 62.2968 113.562 62.2968 113.301C62.2968 113.171 62.284 113.053 62.2585 112.947C62.233 112.838 62.1905 112.735 62.1309 112.637C62.0735 112.539 61.9874 112.463 61.8725 112.408C61.7598 112.352 61.6237 112.325 61.4642 112.325H60.7879V114.181Z" fill="#FBFBFF"/>
<path d="M24.7408 68.4V69.1933H25.5342H44.7574C46.4422 69.1933 48.115 68.9404 49.7735 68.4373L49.7735 68.4373L49.7813 68.4349C51.452 67.9093 53.0495 67.1042 54.5732 66.0265C56.1025 64.9448 57.4441 63.64 58.597 62.1154C59.7845 60.5509 60.7138 58.6739 61.3957 56.4992L61.3963 56.4974C62.082 54.2918 62.4213 51.9122 62.4213 49.3639C62.4213 46.8156 62.082 44.4361 61.3963 42.2305C60.7154 40.0228 59.7876 38.1203 58.6015 36.5381C57.4501 34.9788 56.1098 33.6469 54.581 32.5464C53.0576 31.4322 51.4588 30.6073 49.7852 30.0802C48.1239 29.5393 46.4471 29.2671 44.7574 29.2671H25.5342H24.7408V30.0604V31.4507V32.244H25.5342H29.8742V66.2164H25.5342H24.7408V67.0097V68.4ZM54.2384 54.6815L54.2384 54.6815L54.2373 54.6898C54.031 56.2889 53.6531 57.8253 53.1042 59.3004C52.5587 60.7663 51.8768 61.9879 51.0676 62.9788C50.2784 63.9451 49.2471 64.7302 47.9542 65.3269C46.6839 65.9132 45.2139 66.2164 43.5276 66.2164H37.022V32.244H43.5276C45.2109 32.244 46.6782 32.555 47.9466 33.1567C49.2371 33.7689 50.2687 34.5779 51.0597 35.5787L51.0597 35.5787L51.0636 35.5836C51.873 36.5913 52.5558 37.8392 53.1021 39.3416L53.1032 39.3444C53.6525 40.8378 54.0307 42.3926 54.2372 44.0102L54.2371 44.0102L54.2383 44.0184C54.4643 45.6527 54.5783 47.434 54.5783 49.3639C54.5783 51.2939 54.4643 53.0658 54.2384 54.6815Z" fill="url(#paint16_linear)" stroke="url(#paint17_linear)" stroke-width="1.58667"/>
<mask id="mask0" mask-type="alpha" maskUnits="userSpaceOnUse" x="24" y="28" width="40" height="42">
<path d="M25.534 68.2V66.8097H30.6674V31.2507H25.534V29.8604H44.7573C46.3615 29.8604 47.9567 30.1189 49.5431 30.6358C51.1294 31.1348 52.6534 31.9191 54.1149 32.9886C55.5765 34.0402 56.8598 35.3146 57.9649 36.8118C59.0878 38.309 59.9791 40.1271 60.6385 42.266C61.298 44.387 61.6278 46.6864 61.6278 49.1639C61.6278 51.6414 61.298 53.9408 60.6385 56.0618C59.9791 58.1651 59.0878 59.9564 57.9649 61.4358C56.8598 62.8973 55.5765 64.145 54.1149 65.1788C52.6534 66.2126 51.1294 66.9791 49.5431 67.4781C47.9567 67.9594 46.3615 68.2 44.7573 68.2H25.534ZM36.2285 66.8097H43.5274C45.3098 66.8097 46.8962 66.4889 48.2865 65.8472C49.6767 65.2056 50.8086 64.35 51.6819 63.2806C52.5553 62.2111 53.2772 60.91 53.8476 59.3771C54.4179 57.8442 54.8101 56.249 55.024 54.5913C55.2557 52.9337 55.3715 51.1245 55.3715 49.1639C55.3715 47.2033 55.2557 45.3852 55.024 43.7097C54.8101 42.0343 54.4179 40.4212 53.8476 38.8705C53.2772 37.302 52.5553 35.9741 51.6819 34.8868C50.8086 33.7817 49.6767 32.8994 48.2865 32.2399C46.8962 31.5805 45.3098 31.2507 43.5274 31.2507H36.2285V66.8097Z" fill="url(#paint18_linear)"/>
<path d="M25.534 68.2H24.1097V69.6243H25.534V68.2ZM25.534 66.8097V65.3855H24.1097V66.8097H25.534ZM30.6674 66.8097V68.234H32.0916V66.8097H30.6674ZM30.6674 31.2507H32.0916V29.8264H30.6674V31.2507ZM25.534 31.2507H24.1097V32.675H25.534V31.2507ZM25.534 29.8604V28.4361H24.1097V29.8604H25.534ZM49.5431 30.6358L49.1018 31.99L49.1087 31.9922L49.1156 31.9944L49.5431 30.6358ZM54.1149 32.9886L53.2739 34.138L53.2831 34.1447L54.1149 32.9886ZM57.9649 36.8118L56.819 37.6577L56.8255 37.6664L57.9649 36.8118ZM60.6385 42.266L59.2775 42.6856L59.2785 42.6889L60.6385 42.266ZM60.6385 56.0618L61.9976 56.488L61.9986 56.4847L60.6385 56.0618ZM57.9649 61.4358L56.8304 60.5747L56.8288 60.5768L57.9649 61.4358ZM54.1149 65.1788L53.2925 64.016L54.1149 65.1788ZM49.5431 67.4781L49.9565 68.8411L49.9635 68.839L49.9705 68.8368L49.5431 67.4781ZM36.2285 66.8097H34.8042V68.234H36.2285V66.8097ZM53.8476 59.3771L55.1824 59.8738L53.8476 59.3771ZM55.024 54.5913L53.6134 54.3942L53.6124 54.4016L53.6114 54.4091L55.024 54.5913ZM55.024 43.7097L53.6111 43.8901L53.6121 43.8975L53.6131 43.9049L55.024 43.7097ZM53.8476 38.8705L52.509 39.3572L52.5108 39.3622L53.8476 38.8705ZM51.6819 34.8868L50.5645 35.77L50.5715 35.7788L51.6819 34.8868ZM36.2285 31.2507V29.8264H34.8042V31.2507H36.2285ZM26.9583 68.2V66.8097H24.1097V68.2H26.9583ZM25.534 68.234H30.6674V65.3855H25.534V68.234ZM32.0916 66.8097V31.2507H29.2431V66.8097H32.0916ZM30.6674 29.8264H25.534V32.675H30.6674V29.8264ZM26.9583 31.2507V29.8604H24.1097V31.2507H26.9583ZM25.534 31.2847H44.7573V28.4361H25.534V31.2847ZM44.7573 31.2847C46.2057 31.2847 47.6522 31.5176 49.1018 31.99L49.9843 29.2816C48.2612 28.7201 46.5173 28.4361 44.7573 28.4361V31.2847ZM49.1156 31.9944C50.541 32.4428 51.9267 33.1522 53.2739 34.138L54.956 31.8391C53.38 30.686 51.7178 29.8269 49.9705 29.2771L49.1156 31.9944ZM53.2831 34.1447C54.6205 35.1069 55.7989 36.2755 56.819 37.6576L59.1109 35.966C57.9208 34.3537 56.5325 32.9734 54.9468 31.8324L53.2831 34.1447ZM56.8255 37.6664C57.8329 39.0096 58.6571 40.6735 59.2775 42.6856L61.9996 41.8463C61.301 39.5807 60.3428 37.6085 59.1044 35.9572L56.8255 37.6664ZM59.2785 42.6889C59.8908 44.6582 60.2035 46.8134 60.2035 49.1639H63.0521C63.0521 46.5593 62.7053 44.1159 61.9986 41.8431L59.2785 42.6889ZM60.2035 49.1639C60.2035 51.5144 59.8908 53.6696 59.2785 55.6389L61.9986 56.4847C62.7053 54.2119 63.0521 51.7685 63.0521 49.1639H60.2035ZM59.2795 55.6357C58.6602 57.6106 57.8373 59.2481 56.8304 60.5747L59.0994 62.2969C60.3383 60.6646 61.2979 58.7195 61.9976 56.488L59.2795 55.6357ZM56.8288 60.5768C55.81 61.9243 54.6317 63.0688 53.2925 64.016L54.9374 66.3416C56.5213 65.2213 57.9097 63.8704 59.101 62.2948L56.8288 60.5768ZM53.2925 64.016C51.9424 64.971 50.5505 65.6681 49.1156 66.1195L49.9705 68.8368C51.7083 68.29 53.3643 67.4543 54.9374 66.3416L53.2925 64.016ZM49.1296 66.1152C47.6728 66.5571 46.2167 66.7757 44.7573 66.7757V69.6243C46.5062 69.6243 48.2406 69.3616 49.9565 68.8411L49.1296 66.1152ZM44.7573 66.7757H25.534V69.6243H44.7573V66.7757ZM36.2285 68.234H43.5274V65.3855H36.2285V68.234ZM43.5274 68.234C45.4823 68.234 47.2776 67.8815 48.8833 67.1404L47.6896 64.554C46.5147 65.0963 45.1373 65.3855 43.5274 65.3855V68.234ZM48.8833 67.1404C50.4483 66.4181 51.7606 65.4359 52.7851 64.1815L50.5788 62.3797C49.8565 63.2641 48.9052 63.993 47.6896 64.554L48.8833 67.1404ZM52.7851 64.1815C53.7737 62.9709 54.5673 61.5269 55.1824 59.8738L52.5127 58.8804C51.9871 60.2931 51.3369 61.4513 50.5788 62.3797L52.7851 64.1815ZM55.1824 59.8738C55.7914 58.2372 56.2091 56.5363 56.4365 54.7736L53.6114 54.4091C53.4111 55.9616 53.0445 57.4513 52.5127 58.8804L55.1824 59.8738ZM56.4345 54.7885C56.6768 53.0556 56.7958 51.1796 56.7958 49.1639H53.9473C53.9473 51.0694 53.8346 52.8118 53.6134 54.3942L56.4345 54.7885ZM56.7958 49.1639C56.7958 47.148 56.6767 45.2639 56.4348 43.5146L53.6131 43.9049C53.8346 45.5064 53.9473 47.2585 53.9473 49.1639H56.7958ZM56.4368 43.5294C56.2096 41.75 55.7925 40.0323 55.1843 38.3788L52.5108 39.3622C53.0434 40.8101 53.4105 42.3186 53.6111 43.8901L56.4368 43.5294ZM55.1861 38.3838C54.5726 36.6966 53.7805 35.225 52.7923 33.9949L50.5715 35.7788C51.3301 36.7231 51.9818 37.9074 52.509 39.3572L55.1861 38.3838ZM52.7994 34.0037C51.7781 32.7114 50.4663 31.6976 48.8969 30.9531L47.676 33.5268C48.8871 34.1013 49.8391 34.852 50.5645 35.7699L52.7994 34.0037ZM48.8969 30.9531C47.2879 30.1898 45.4877 29.8264 43.5274 29.8264V32.675C45.132 32.675 46.5045 32.9711 47.676 33.5268L48.8969 30.9531ZM43.5274 29.8264H36.2285V32.675H43.5274V29.8264ZM34.8042 31.2507V66.8097H37.6527V31.2507H34.8042Z" fill="url(#paint19_linear)"/>
</mask>
<g mask="url(#mask0)">
<rect x="21.5332" y="39" width="43.4" height="11.6667" fill="url(#paint20_linear)"/>
</g>
<path d="M10.639 31.0472L43.4663 12.0943L76.2936 31.0472V68.9529L43.4663 87.9057L10.639 68.9529V31.0472Z" stroke="#FFD445" stroke-width="4.66667"/>
<mask id="mask1" mask-type="alpha" maskUnits="userSpaceOnUse" x="8" y="9" width="71" height="82">
<path d="M10.639 31.0472L43.4663 12.0943L76.2936 31.0472V68.9529L43.4663 87.9057L10.639 68.9529V31.0472Z" stroke="url(#paint21_linear)" stroke-width="4.66667"/>
</mask>
<g mask="url(#mask1)">
<rect x="31.1562" y="35.6063" width="48.5588" height="27.7655" transform="rotate(93.6482 31.1562 35.6063)" fill="url(#paint22_linear)"/>
</g>
<mask id="mask2" mask-type="alpha" maskUnits="userSpaceOnUse" x="8" y="9" width="71" height="82">
<path d="M10.639 31.0472L43.4663 12.0943L76.2936 31.0472V68.9529L43.4663 87.9057L10.639 68.9529V31.0472Z" stroke="#FFD445" stroke-width="4.66667"/>
</mask>
<g mask="url(#mask2)">
<rect x="14.8994" y="65.3613" width="28.3891" height="9.42724" transform="rotate(30.1537 14.8994 65.3613)" fill="url(#paint23_linear)"/>
</g>
<mask id="mask3" mask-type="alpha" maskUnits="userSpaceOnUse" x="8" y="9" width="71" height="82">
<path d="M10.639 31.0472L43.4663 12.0943L76.2936 31.0472V68.9529L43.4663 87.9057L10.639 68.9529V31.0472Z" stroke="#FFD445" stroke-width="4.66667"/>
</mask>
<g mask="url(#mask3)">
<rect x="70.791" y="4.26666" width="49.6623" height="29.4" transform="rotate(56.5316 70.791 4.26666)" fill="url(#paint24_linear)"/>
</g>
<g filter="url(#filter0_f)">
<rect x="1.93359" y="35.1898" width="0.170449" height="23.0259" transform="rotate(-46.2705 1.93359 35.1898)" fill="url(#paint25_linear)" fill-opacity="0.6"/>
</g>
<g filter="url(#filter1_f)">
<rect x="10.9404" y="41.7801" width="0.170449" height="13.0818" transform="rotate(-46.2705 10.9404 41.7801)" fill="url(#paint26_linear)" fill-opacity="0.6"/>
</g>
<g filter="url(#filter2_f)">
<rect x="18.876" y="38.5815" width="0.170449" height="23.0259" transform="rotate(44.237 18.876 38.5815)" fill="url(#paint27_linear)" fill-opacity="0.6"/>
</g>
<g filter="url(#filter3_f)">
<circle cx="13.3569" cy="44.7323" r="2.41642" fill="white" fill-opacity="0.2"/>
</g>
<g filter="url(#filter4_f)">
<rect x="31.9189" y="95.1028" width="0.170449" height="23.0259" transform="rotate(-122.018 31.9189 95.1028)" fill="url(#paint28_linear)"/>
</g>
<g filter="url(#filter5_f)">
<rect x="40.5244" y="87.9957" width="0.170449" height="13.0818" transform="rotate(-122.018 40.5244 87.9957)" fill="url(#paint29_linear)"/>
</g>
<g filter="url(#filter6_f)">
<rect x="39.377" y="79.517" width="0.170449" height="23.0259" transform="rotate(-31.5108 39.377 79.517)" fill="url(#paint30_linear)"/>
</g>
<g filter="url(#filter7_f)">
<circle cx="43.9807" cy="86.3805" r="4.76883" transform="rotate(-75.7478 43.9807 86.3805)" fill="white" fill-opacity="0.2"/>
</g>
<g filter="url(#filter8_f)">
<rect x="32.2666" y="1.12317" width="0.170449" height="23.0259" transform="rotate(-46.2705 32.2666 1.12317)" fill="url(#paint31_linear)" fill-opacity="0.9"/>
</g>
<g filter="url(#filter9_f)">
<rect x="41.2734" y="7.71344" width="0.170449" height="13.0818" transform="rotate(-46.2705 41.2734 7.71344)" fill="url(#paint32_linear)" fill-opacity="0.9"/>
</g>
<g filter="url(#filter10_f)">
<rect x="49.209" y="4.51477" width="0.170449" height="23.0259" transform="rotate(44.237 49.209 4.51477)" fill="url(#paint33_linear)" fill-opacity="0.9"/>
</g>
<g filter="url(#filter11_f)">
<circle cx="43.6897" cy="10.6657" r="4.06568" fill="white" fill-opacity="0.2"/>
</g>
<g filter="url(#filter12_f)">
<rect x="67.0479" y="44.9857" width="0.16471" height="22.2506" transform="rotate(-46.2705 67.0479 44.9857)" fill="url(#paint34_linear)" fill-opacity="0.6"/>
</g>
<g filter="url(#filter13_f)">
<rect x="75.751" y="51.3541" width="0.16471" height="12.6414" transform="rotate(-46.2705 75.751 51.3541)" fill="url(#paint35_linear)" fill-opacity="0.6"/>
</g>
<g filter="url(#filter14_f)">
<rect x="83.4199" y="48.2632" width="0.16471" height="22.2506" transform="rotate(44.237 83.4199 48.2632)" fill="url(#paint36_linear)" fill-opacity="0.6"/>
</g>
<g filter="url(#filter15_f)">
<circle cx="78.086" cy="54.207" r="2.33507" fill="white" fill-opacity="0.2"/>
</g>
<g opacity="0.4" filter="url(#filter16_f)">
<rect x="1" y="23.4832" width="0.115131" height="15.5529" transform="rotate(-46.2705 1 23.4832)" fill="url(#paint37_linear)"/>
</g>
<g opacity="0.4" filter="url(#filter17_f)">
<rect x="7.08398" y="27.9347" width="0.115131" height="8.83619" transform="rotate(-46.2705 7.08398 27.9347)" fill="url(#paint38_linear)"/>
</g>
<g opacity="0.4" filter="url(#filter18_f)">
<rect x="12.4434" y="25.7741" width="0.115131" height="15.5529" transform="rotate(44.237 12.4434 25.7741)" fill="url(#paint39_linear)"/>
</g>
<g filter="url(#filter19_f)">
<circle cx="8.71617" cy="29.9288" r="1.63219" fill="white" fill-opacity="0.2"/>
</g>
<g opacity="0.6" filter="url(#filter20_f)">
<rect x="52.7998" y="32.8165" width="0.115131" height="15.5529" transform="rotate(-46.2705 52.7998 32.8165)" fill="url(#paint40_linear)"/>
</g>
<g opacity="0.6" filter="url(#filter21_f)">
<rect x="58.8838" y="37.2679" width="0.115131" height="8.83619" transform="rotate(-46.2705 58.8838 37.2679)" fill="url(#paint41_linear)"/>
</g>
<g opacity="0.6" filter="url(#filter22_f)">
<rect x="64.2432" y="35.1074" width="0.115131" height="15.5529" transform="rotate(44.237 64.2432 35.1074)" fill="url(#paint42_linear)"/>
</g>
<g filter="url(#filter23_f)">
<circle cx="60.516" cy="39.2621" r="1.63219" fill="white" fill-opacity="0.2"/>
</g>
<mask id="mask4" mask-type="alpha" maskUnits="userSpaceOnUse" x="8" y="9" width="71" height="82">
<path d="M10.639 31.0472L43.4663 12.0943L76.2936 31.0472V68.9529L43.4663 87.9057L10.639 68.9529V31.0472Z" stroke="#FFD445" stroke-width="4.66667"/>
</mask>
<g mask="url(#mask4)">
<rect x="45.333" y="63.5333" width="45.7333" height="19.6" fill="url(#paint43_linear)"/>
</g>
<mask id="mask5" mask-type="alpha" maskUnits="userSpaceOnUse" x="8" y="9" width="71" height="82">
<path d="M10.639 31.0472L43.4663 12.0943L76.2936 31.0472V68.9529L43.4663 87.9057L10.639 68.9529V31.0472Z" stroke="#FFD445" stroke-width="4.66667"/>
</mask>
<g mask="url(#mask5)">
<rect x="73.7998" y="59.8" width="5.6" height="7" fill="url(#paint44_linear)"/>
</g>
<mask id="mask6" mask-type="alpha" maskUnits="userSpaceOnUse" x="8" y="9" width="71" height="82">
<path d="M10.639 31.0472L43.4663 12.0943L76.2936 31.0472V68.9529L43.4663 87.9057L10.639 68.9529V31.0472Z" stroke="#FFD445" stroke-width="4.66667"/>
</mask>
<g mask="url(#mask6)">
<rect x="12.666" y="32.2667" width="0.933333" height="35.4667" fill="url(#paint45_linear)"/>
<rect x="7.5332" y="29.4667" width="0.933333" height="41.0667" fill="url(#paint46_linear)"/>
<rect x="43.291" y="14.6046" width="0.933333" height="35.2106" transform="rotate(60 43.291 14.6046)" fill="url(#paint47_linear)"/>
<rect x="44.1035" y="8.20801" width="0.933333" height="44.3841" transform="rotate(60 44.1035 8.20801)" fill="url(#paint48_linear)"/>
<rect x="74.0908" y="32.2198" width="0.933333" height="35.2106" transform="rotate(120 74.0908 32.2198)" fill="url(#paint49_linear)"/>
<rect x="80.0371" y="29.7254" width="0.933333" height="44.3841" transform="rotate(120 80.0371 29.7254)" fill="url(#paint50_linear)"/>
<rect width="0.933311" height="35.522" transform="matrix(0.500012 -0.866019 -0.866032 -0.499988 43.4219 85.5178)" fill="url(#paint51_linear)"/>
<rect width="0.933311" height="44.3837" transform="matrix(0.500012 -0.866019 -0.866032 -0.499988 44.1035 91.8387)" fill="url(#paint52_linear)"/>
<rect width="0.933312" height="35.6186" transform="matrix(-0.500012 -0.866019 -0.866032 0.499988 74.2686 67.725)" fill="url(#paint53_linear)"/>
<rect width="0.933312" height="44.3837" transform="matrix(-0.500012 -0.866019 -0.866032 0.499988 80.0371 70.322)" fill="url(#paint54_linear)"/>
<rect x="74.2666" y="67.7333" width="0.933333" height="35.4667" transform="rotate(180 74.2666 67.7333)" fill="url(#paint55_linear)"/>
<rect x="79.3994" y="70.5333" width="0.933333" height="41.0667" transform="rotate(180 79.3994 70.5333)" fill="url(#paint56_linear)"/>
</g>
<defs>
<filter id="filter0_f" x="1.49424" y="34.6273" width="17.6353" height="16.9186" filterUnits="userSpaceOnUse" color-interpolation-filters="sRGB">
<feFlood flood-opacity="0" result="BackgroundImageFix"/>
<feBlend mode="normal" in="SourceGraphic" in2="BackgroundImageFix" result="shape"/>
<feGaussianBlur stdDeviation="0.219675" result="effect1_foregroundBlur"/>
</filter>
<filter id="filter1_f" x="10.5011" y="41.2176" width="10.4496" height="10.0447" filterUnits="userSpaceOnUse" color-interpolation-filters="sRGB">
<feFlood flood-opacity="0" result="BackgroundImageFix"/>
<feBlend mode="normal" in="SourceGraphic" in2="BackgroundImageFix" result="shape"/>
<feGaussianBlur stdDeviation="0.219675" result="effect1_foregroundBlur"/>
</filter>
<filter id="filter2_f" x="2.37315" y="38.1421" width="17.0643" height="17.4947" filterUnits="userSpaceOnUse" color-interpolation-filters="sRGB">
<feFlood flood-opacity="0" result="BackgroundImageFix"/>
<feBlend mode="normal" in="SourceGraphic" in2="BackgroundImageFix" result="shape"/>
<feGaussianBlur stdDeviation="0.219675" result="effect1_foregroundBlur"/>
</filter>
<filter id="filter3_f" x="9.18303" y="40.5585" width="8.34765" height="8.34765" filterUnits="userSpaceOnUse" color-interpolation-filters="sRGB">
<feFlood flood-opacity="0" result="BackgroundImageFix"/>
<feBlend mode="normal" in="SourceGraphic" in2="BackgroundImageFix" result="shape"/>
<feGaussianBlur stdDeviation="0.8787" result="effect1_foregroundBlur"/>
</filter>
<filter id="filter4_f" x="31.3888" y="82.3108" width="20.4922" height="13.2313" filterUnits="userSpaceOnUse" color-interpolation-filters="sRGB">
<feFlood flood-opacity="0" result="BackgroundImageFix"/>
<feBlend mode="normal" in="SourceGraphic" in2="BackgroundImageFix" result="shape"/>
<feGaussianBlur stdDeviation="0.219675" result="effect1_foregroundBlur"/>
</filter>
<filter id="filter5_f" x="39.9942" y="80.476" width="12.0609" height="7.95906" filterUnits="userSpaceOnUse" color-interpolation-filters="sRGB">
<feFlood flood-opacity="0" result="BackgroundImageFix"/>
<feBlend mode="normal" in="SourceGraphic" in2="BackgroundImageFix" result="shape"/>
<feGaussianBlur stdDeviation="0.219675" result="effect1_foregroundBlur"/>
</filter>
<filter id="filter6_f" x="38.9376" y="78.9885" width="13.0587" height="20.5983" filterUnits="userSpaceOnUse" color-interpolation-filters="sRGB">
<feFlood flood-opacity="0" result="BackgroundImageFix"/>
<feBlend mode="normal" in="SourceGraphic" in2="BackgroundImageFix" result="shape"/>
<feGaussianBlur stdDeviation="0.219675" result="effect1_foregroundBlur"/>
</filter>
<filter id="filter7_f" x="35.7427" y="78.1423" width="16.4764" height="16.4764" filterUnits="userSpaceOnUse" color-interpolation-filters="sRGB">
<feFlood flood-opacity="0" result="BackgroundImageFix"/>
<feBlend mode="normal" in="SourceGraphic" in2="BackgroundImageFix" result="shape"/>
<feGaussianBlur stdDeviation="1.73412" result="effect1_foregroundBlur"/>
</filter>
<filter id="filter8_f" x="31.8273" y="0.56065" width="17.6353" height="16.9186" filterUnits="userSpaceOnUse" color-interpolation-filters="sRGB">
<feFlood flood-opacity="0" result="BackgroundImageFix"/>
<feBlend mode="normal" in="SourceGraphic" in2="BackgroundImageFix" result="shape"/>
<feGaussianBlur stdDeviation="0.219675" result="effect1_foregroundBlur"/>
</filter>
<filter id="filter9_f" x="40.8341" y="7.15092" width="10.4496" height="10.0447" filterUnits="userSpaceOnUse" color-interpolation-filters="sRGB">
<feFlood flood-opacity="0" result="BackgroundImageFix"/>
<feBlend mode="normal" in="SourceGraphic" in2="BackgroundImageFix" result="shape"/>
<feGaussianBlur stdDeviation="0.219675" result="effect1_foregroundBlur"/>
</filter>
<filter id="filter10_f" x="32.7062" y="4.07542" width="17.0643" height="17.4947" filterUnits="userSpaceOnUse" color-interpolation-filters="sRGB">
<feFlood flood-opacity="0" result="BackgroundImageFix"/>
<feBlend mode="normal" in="SourceGraphic" in2="BackgroundImageFix" result="shape"/>
<feGaussianBlur stdDeviation="0.219675" result="effect1_foregroundBlur"/>
</filter>
<filter id="filter11_f" x="36.6672" y="3.64312" width="14.0451" height="14.0451" filterUnits="userSpaceOnUse" color-interpolation-filters="sRGB">
<feFlood flood-opacity="0" result="BackgroundImageFix"/>
<feBlend mode="normal" in="SourceGraphic" in2="BackgroundImageFix" result="shape"/>
<feGaussianBlur stdDeviation="1.47843" result="effect1_foregroundBlur"/>
</filter>
<filter id="filter12_f" x="66.6233" y="44.4421" width="17.0415" height="16.349" filterUnits="userSpaceOnUse" color-interpolation-filters="sRGB">
<feFlood flood-opacity="0" result="BackgroundImageFix"/>
<feBlend mode="normal" in="SourceGraphic" in2="BackgroundImageFix" result="shape"/>
<feGaussianBlur stdDeviation="0.212279" result="effect1_foregroundBlur"/>
</filter>
<filter id="filter13_f" x="75.3264" y="50.8105" width="10.0978" height="9.70655" filterUnits="userSpaceOnUse" color-interpolation-filters="sRGB">
<feFlood flood-opacity="0" result="BackgroundImageFix"/>
<feBlend mode="normal" in="SourceGraphic" in2="BackgroundImageFix" result="shape"/>
<feGaussianBlur stdDeviation="0.212279" result="effect1_foregroundBlur"/>
</filter>
<filter id="filter14_f" x="67.4729" y="47.8386" width="16.4898" height="16.9057" filterUnits="userSpaceOnUse" color-interpolation-filters="sRGB">
<feFlood flood-opacity="0" result="BackgroundImageFix"/>
<feBlend mode="normal" in="SourceGraphic" in2="BackgroundImageFix" result="shape"/>
<feGaussianBlur stdDeviation="0.212279" result="effect1_foregroundBlur"/>
</filter>
<filter id="filter15_f" x="74.0527" y="50.1737" width="8.06659" height="8.06659" filterUnits="userSpaceOnUse" color-interpolation-filters="sRGB">
<feFlood flood-opacity="0" result="BackgroundImageFix"/>
<feBlend mode="normal" in="SourceGraphic" in2="BackgroundImageFix" result="shape"/>
<feGaussianBlur stdDeviation="0.849115" result="effect1_foregroundBlur"/>
</filter>
<filter id="filter16_f" x="0.703239" y="23.1033" width="11.9118" height="11.4278" filterUnits="userSpaceOnUse" color-interpolation-filters="sRGB">
<feFlood flood-opacity="0" result="BackgroundImageFix"/>
<feBlend mode="normal" in="SourceGraphic" in2="BackgroundImageFix" result="shape"/>
<feGaussianBlur stdDeviation="0.148381" result="effect1_foregroundBlur"/>
</filter>
<filter id="filter17_f" x="6.78722" y="27.5547" width="7.05824" height="6.78478" filterUnits="userSpaceOnUse" color-interpolation-filters="sRGB">
<feFlood flood-opacity="0" result="BackgroundImageFix"/>
<feBlend mode="normal" in="SourceGraphic" in2="BackgroundImageFix" result="shape"/>
<feGaussianBlur stdDeviation="0.148381" result="effect1_foregroundBlur"/>
</filter>
<filter id="filter18_f" x="1.29601" y="25.4773" width="11.5262" height="11.8169" filterUnits="userSpaceOnUse" color-interpolation-filters="sRGB">
<feFlood flood-opacity="0" result="BackgroundImageFix"/>
<feBlend mode="normal" in="SourceGraphic" in2="BackgroundImageFix" result="shape"/>
<feGaussianBlur stdDeviation="0.148381" result="effect1_foregroundBlur"/>
</filter>
<filter id="filter19_f" x="5.89694" y="27.1095" width="5.63847" height="5.63847" filterUnits="userSpaceOnUse" color-interpolation-filters="sRGB">
<feFlood flood-opacity="0" result="BackgroundImageFix"/>
<feBlend mode="normal" in="SourceGraphic" in2="BackgroundImageFix" result="shape"/>
<feGaussianBlur stdDeviation="0.593523" result="effect1_foregroundBlur"/>
</filter>
<filter id="filter20_f" x="52.503" y="32.4366" width="11.9118" height="11.4278" filterUnits="userSpaceOnUse" color-interpolation-filters="sRGB">
<feFlood flood-opacity="0" result="BackgroundImageFix"/>
<feBlend mode="normal" in="SourceGraphic" in2="BackgroundImageFix" result="shape"/>
<feGaussianBlur stdDeviation="0.148381" result="effect1_foregroundBlur"/>
</filter>
<filter id="filter21_f" x="58.587" y="36.888" width="7.05824" height="6.78478" filterUnits="userSpaceOnUse" color-interpolation-filters="sRGB">
<feFlood flood-opacity="0" result="BackgroundImageFix"/>
<feBlend mode="normal" in="SourceGraphic" in2="BackgroundImageFix" result="shape"/>
<feGaussianBlur stdDeviation="0.148381" result="effect1_foregroundBlur"/>
</filter>
<filter id="filter22_f" x="53.0958" y="34.8107" width="11.5262" height="11.8169" filterUnits="userSpaceOnUse" color-interpolation-filters="sRGB">
<feFlood flood-opacity="0" result="BackgroundImageFix"/>
<feBlend mode="normal" in="SourceGraphic" in2="BackgroundImageFix" result="shape"/>
<feGaussianBlur stdDeviation="0.148381" result="effect1_foregroundBlur"/>
</filter>
<filter id="filter23_f" x="57.6967" y="36.4428" width="5.63847" height="5.63847" filterUnits="userSpaceOnUse" color-interpolation-filters="sRGB">
<feFlood flood-opacity="0" result="BackgroundImageFix"/>
<feBlend mode="normal" in="SourceGraphic" in2="BackgroundImageFix" result="shape"/>
<feGaussianBlur stdDeviation="0.593523" result="effect1_foregroundBlur"/>
</filter>
<linearGradient id="paint0_linear" x1="43.5477" y1="102.339" x2="43.5477" y2="106.927" gradientUnits="userSpaceOnUse">
<stop stop-color="#FFD445"/>
<stop offset="1" stop-color="#BB7B15"/>
</linearGradient>
<linearGradient id="paint1_linear" x1="43.5477" y1="102.339" x2="43.5477" y2="106.927" gradientUnits="userSpaceOnUse">
<stop stop-color="#FFD445"/>
<stop offset="1" stop-color="#BB7B15"/>
</linearGradient>
<linearGradient id="paint2_linear" x1="43.5477" y1="102.339" x2="43.5477" y2="106.927" gradientUnits="userSpaceOnUse">
<stop stop-color="#FFD445"/>
<stop offset="1" stop-color="#BB7B15"/>
</linearGradient>
<linearGradient id="paint3_linear" x1="43.5477" y1="102.339" x2="43.5477" y2="106.927" gradientUnits="userSpaceOnUse">
<stop stop-color="#FFD445"/>
<stop offset="1" stop-color="#BB7B15"/>
</linearGradient>
<linearGradient id="paint4_linear" x1="43.5477" y1="102.339" x2="43.5477" y2="106.927" gradientUnits="userSpaceOnUse">
<stop stop-color="#FFD445"/>
<stop offset="1" stop-color="#BB7B15"/>
</linearGradient>
<linearGradient id="paint5_linear" x1="43.5477" y1="102.339" x2="43.5477" y2="106.927" gradientUnits="userSpaceOnUse">
<stop stop-color="#FFD445"/>
<stop offset="1" stop-color="#BB7B15"/>
</linearGradient>
<linearGradient id="paint6_linear" x1="43.5477" y1="102.339" x2="43.5477" y2="106.927" gradientUnits="userSpaceOnUse">
<stop stop-color="#FFD445"/>
<stop offset="1" stop-color="#BB7B15"/>
</linearGradient>
<linearGradient id="paint7_linear" x1="43.5477" y1="102.339" x2="43.5477" y2="106.927" gradientUnits="userSpaceOnUse">
<stop stop-color="#FFD445"/>
<stop offset="1" stop-color="#BB7B15"/>
</linearGradient>
<linearGradient id="paint8_linear" x1="43.5477" y1="102.339" x2="43.5477" y2="106.927" gradientUnits="userSpaceOnUse">
<stop stop-color="#FFD445"/>
<stop offset="1" stop-color="#BB7B15"/>
</linearGradient>
<linearGradient id="paint9_linear" x1="43.5477" y1="102.339" x2="43.5477" y2="106.927" gradientUnits="userSpaceOnUse">
<stop stop-color="#FFD445"/>
<stop offset="1" stop-color="#BB7B15"/>
</linearGradient>
<linearGradient id="paint10_linear" x1="43.5477" y1="102.339" x2="43.5477" y2="106.927" gradientUnits="userSpaceOnUse">
<stop stop-color="#FFD445"/>
<stop offset="1" stop-color="#BB7B15"/>
</linearGradient>
<linearGradient id="paint11_linear" x1="43.5477" y1="102.339" x2="43.5477" y2="106.927" gradientUnits="userSpaceOnUse">
<stop stop-color="#FFD445"/>
<stop offset="1" stop-color="#BB7B15"/>
</linearGradient>
<linearGradient id="paint12_linear" x1="43.5477" y1="102.339" x2="43.5477" y2="106.927" gradientUnits="userSpaceOnUse">
<stop stop-color="#FFD445"/>
<stop offset="1" stop-color="#BB7B15"/>
</linearGradient>
<linearGradient id="paint13_linear" x1="43.5477" y1="102.339" x2="43.5477" y2="106.927" gradientUnits="userSpaceOnUse">
<stop stop-color="#FFD445"/>
<stop offset="1" stop-color="#BB7B15"/>
</linearGradient>
<linearGradient id="paint14_linear" x1="43.5477" y1="102.339" x2="43.5477" y2="106.927" gradientUnits="userSpaceOnUse">
<stop stop-color="#FFD445"/>
<stop offset="1" stop-color="#BB7B15"/>
</linearGradient>
<linearGradient id="paint15_linear" x1="43.5477" y1="102.339" x2="43.5477" y2="106.927" gradientUnits="userSpaceOnUse">
<stop stop-color="#FFD445"/>
<stop offset="1" stop-color="#BB7B15"/>
</linearGradient>
<linearGradient id="paint16_linear" x1="43.5811" y1="39.2193" x2="43.5811" y2="58.0696" gradientUnits="userSpaceOnUse">
<stop stop-color="#FFD445"/>
<stop offset="1" stop-color="#BB7B15"/>
</linearGradient>
<linearGradient id="paint17_linear" x1="43.5811" y1="39.2193" x2="43.5811" y2="58.0696" gradientUnits="userSpaceOnUse">
<stop stop-color="#FFD445"/>
<stop offset="1" stop-color="#BB7B15"/>
</linearGradient>
<linearGradient id="paint18_linear" x1="43.2333" y1="27.8208" x2="43.2333" y2="68.203" gradientUnits="userSpaceOnUse">
<stop stop-color="#FFD445"/>
<stop offset="1" stop-color="#BB7B15"/>
</linearGradient>
<linearGradient id="paint19_linear" x1="43.2333" y1="27.8208" x2="43.2333" y2="68.203" gradientUnits="userSpaceOnUse">
<stop stop-color="#FFD445"/>
<stop offset="1" stop-color="#BB7B15"/>
</linearGradient>
<linearGradient id="paint20_linear" x1="43.2332" y1="39" x2="43.2332" y2="50.6667" gradientUnits="userSpaceOnUse">
<stop stop-color="#FFD445"/>
<stop offset="0.489583" stop-color="#E9D297"/>
<stop offset="1" stop-color="#D59D28"/>
</linearGradient>
<linearGradient id="paint21_linear" x1="10.0996" y1="12.9" x2="75.1996" y2="84.3" gradientUnits="userSpaceOnUse">
<stop stop-color="#D6922C"/>
<stop offset="1" stop-color="#FFD445"/>
</linearGradient>
<linearGradient id="paint22_linear" x1="68.2494" y1="50.132" x2="36.227" y2="40.5568" gradientUnits="userSpaceOnUse">
<stop offset="0.0882542" stop-color="#FFD445"/>
<stop offset="0.61784" stop-color="#A45E05"/>
<stop offset="1" stop-color="#FFD445"/>
</linearGradient>
<linearGradient id="paint23_linear" x1="39.0958" y1="62.6833" x2="19.8221" y2="73.6556" gradientUnits="userSpaceOnUse">
<stop stop-color="#FFD445"/>
<stop offset="0.510417" stop-color="#A45E05"/>
<stop offset="1" stop-color="#FFD445"/>
</linearGradient>
<linearGradient id="paint24_linear" x1="72.4569" y1="25.3211" x2="115.669" y2="27.8122" gradientUnits="userSpaceOnUse">
<stop stop-color="#FFD445"/>
<stop offset="0.458333" stop-color="#EF9800"/>
<stop offset="1" stop-color="#FFD445"/>
</linearGradient>
<linearGradient id="paint25_linear" x1="2.01882" y1="35.1898" x2="2.01882" y2="58.2157" gradientUnits="userSpaceOnUse">
<stop stop-color="white" stop-opacity="0.2"/>
<stop offset="0.505208" stop-color="white" stop-opacity="0.69"/>
<stop offset="1" stop-color="white" stop-opacity="0.2"/>
</linearGradient>
<linearGradient id="paint26_linear" x1="11.0257" y1="41.7801" x2="11.0257" y2="54.8619" gradientUnits="userSpaceOnUse">
<stop stop-color="white" stop-opacity="0.2"/>
<stop offset="0.505208" stop-color="white" stop-opacity="0.69"/>
<stop offset="1" stop-color="white" stop-opacity="0.2"/>
</linearGradient>
<linearGradient id="paint27_linear" x1="18.9612" y1="38.5815" x2="18.9612" y2="61.6073" gradientUnits="userSpaceOnUse">
<stop stop-color="white" stop-opacity="0.2"/>
<stop offset="0.505208" stop-color="white" stop-opacity="0.69"/>
<stop offset="1" stop-color="white" stop-opacity="0.2"/>
</linearGradient>
<linearGradient id="paint28_linear" x1="32.0042" y1="95.1028" x2="32.0042" y2="118.129" gradientUnits="userSpaceOnUse">
<stop stop-color="white" stop-opacity="0.2"/>
<stop offset="0.505208" stop-color="white" stop-opacity="0.69"/>
<stop offset="1" stop-color="white" stop-opacity="0.2"/>
</linearGradient>
<linearGradient id="paint29_linear" x1="40.6096" y1="87.9957" x2="40.6096" y2="101.078" gradientUnits="userSpaceOnUse">
<stop stop-color="white" stop-opacity="0.2"/>
<stop offset="0.505208" stop-color="white" stop-opacity="0.69"/>
<stop offset="1" stop-color="white" stop-opacity="0.2"/>
</linearGradient>
<linearGradient id="paint30_linear" x1="39.4622" y1="79.517" x2="39.4622" y2="102.543" gradientUnits="userSpaceOnUse">
<stop stop-color="white" stop-opacity="0.2"/>
<stop offset="0.505208" stop-color="white" stop-opacity="0.69"/>
<stop offset="1" stop-color="white" stop-opacity="0.2"/>
</linearGradient>
<linearGradient id="paint31_linear" x1="32.3518" y1="1.12317" x2="32.3518" y2="24.149" gradientUnits="userSpaceOnUse">
<stop stop-color="white" stop-opacity="0.2"/>
<stop offset="0.505208" stop-color="white" stop-opacity="0.69"/>
<stop offset="1" stop-color="white" stop-opacity="0.2"/>
</linearGradient>
<linearGradient id="paint32_linear" x1="41.3587" y1="7.71344" x2="41.3587" y2="20.7953" gradientUnits="userSpaceOnUse">
<stop stop-color="white" stop-opacity="0.2"/>
<stop offset="0.505208" stop-color="white" stop-opacity="0.69"/>
<stop offset="1" stop-color="white" stop-opacity="0.2"/>
</linearGradient>
<linearGradient id="paint33_linear" x1="49.2942" y1="4.51477" x2="49.2942" y2="27.5406" gradientUnits="userSpaceOnUse">
<stop stop-color="white" stop-opacity="0.2"/>
<stop offset="0.505208" stop-color="white" stop-opacity="0.69"/>
<stop offset="1" stop-color="white" stop-opacity="0.2"/>
</linearGradient>
<linearGradient id="paint34_linear" x1="67.1302" y1="44.9857" x2="67.1302" y2="67.2363" gradientUnits="userSpaceOnUse">
<stop stop-color="white" stop-opacity="0.2"/>
<stop offset="0.505208" stop-color="white" stop-opacity="0.69"/>
<stop offset="1" stop-color="white" stop-opacity="0.2"/>
</linearGradient>
<linearGradient id="paint35_linear" x1="75.8333" y1="51.3541" x2="75.8333" y2="63.9955" gradientUnits="userSpaceOnUse">
<stop stop-color="white" stop-opacity="0.2"/>
<stop offset="0.505208" stop-color="white" stop-opacity="0.69"/>
<stop offset="1" stop-color="white" stop-opacity="0.2"/>
</linearGradient>
<linearGradient id="paint36_linear" x1="83.5023" y1="48.2632" x2="83.5023" y2="70.5138" gradientUnits="userSpaceOnUse">
<stop stop-color="white" stop-opacity="0.2"/>
<stop offset="0.505208" stop-color="white" stop-opacity="0.69"/>
<stop offset="1" stop-color="white" stop-opacity="0.2"/>
</linearGradient>
<linearGradient id="paint37_linear" x1="1.05757" y1="23.4832" x2="1.05757" y2="39.0362" gradientUnits="userSpaceOnUse">
<stop stop-color="white" stop-opacity="0.2"/>
<stop offset="0.505208" stop-color="white" stop-opacity="0.69"/>
<stop offset="1" stop-color="white" stop-opacity="0.2"/>
</linearGradient>
<linearGradient id="paint38_linear" x1="7.14155" y1="27.9347" x2="7.14155" y2="36.7709" gradientUnits="userSpaceOnUse">
<stop stop-color="white" stop-opacity="0.2"/>
<stop offset="0.505208" stop-color="white" stop-opacity="0.69"/>
<stop offset="1" stop-color="white" stop-opacity="0.2"/>
</linearGradient>
<linearGradient id="paint39_linear" x1="12.5009" y1="25.7741" x2="12.5009" y2="41.3271" gradientUnits="userSpaceOnUse">
<stop stop-color="white" stop-opacity="0.2"/>
<stop offset="0.505208" stop-color="white" stop-opacity="0.69"/>
<stop offset="1" stop-color="white" stop-opacity="0.2"/>
</linearGradient>
<linearGradient id="paint40_linear" x1="52.8574" y1="32.8165" x2="52.8574" y2="48.3695" gradientUnits="userSpaceOnUse">
<stop stop-color="white" stop-opacity="0.2"/>
<stop offset="0.505208" stop-color="white" stop-opacity="0.69"/>
<stop offset="1" stop-color="white" stop-opacity="0.2"/>
</linearGradient>
<linearGradient id="paint41_linear" x1="58.9414" y1="37.2679" x2="58.9414" y2="46.1041" gradientUnits="userSpaceOnUse">
<stop stop-color="white" stop-opacity="0.2"/>
<stop offset="0.505208" stop-color="white" stop-opacity="0.69"/>
<stop offset="1" stop-color="white" stop-opacity="0.2"/>
</linearGradient>
<linearGradient id="paint42_linear" x1="64.3007" y1="35.1074" x2="64.3007" y2="50.6604" gradientUnits="userSpaceOnUse">
<stop stop-color="white" stop-opacity="0.2"/>
<stop offset="0.505208" stop-color="white" stop-opacity="0.69"/>
<stop offset="1" stop-color="white" stop-opacity="0.2"/>
</linearGradient>
<linearGradient id="paint43_linear" x1="74.9663" y1="68.4333" x2="54.5969" y2="69.2701" gradientUnits="userSpaceOnUse">
<stop stop-color="#CB9021"/>
<stop offset="0.526042" stop-color="#C08219"/>
<stop offset="1" stop-color="#FFD445"/>
</linearGradient>
<linearGradient id="paint44_linear" x1="76.5998" y1="59.8" x2="76.5998" y2="66.8" gradientUnits="userSpaceOnUse">
<stop stop-color="#FFD545"/>
<stop offset="1" stop-color="#CB9021"/>
</linearGradient>
<linearGradient id="paint45_linear" x1="13.1327" y1="32.2667" x2="13.1327" y2="67.7333" gradientUnits="userSpaceOnUse">
<stop stop-color="#FBE188"/>
<stop offset="0.458937" stop-color="white" stop-opacity="0.541063"/>
<stop offset="1" stop-color="#FFD545"/>
</linearGradient>
<linearGradient id="paint46_linear" x1="7.99987" y1="29.4667" x2="7.99987" y2="70.5333" gradientUnits="userSpaceOnUse">
<stop stop-color="#FFD548"/>
<stop offset="0.458937" stop-color="white" stop-opacity="0.541063"/>
<stop offset="1" stop-color="#FFD545"/>
</linearGradient>
<linearGradient id="paint47_linear" x1="43.7577" y1="14.6046" x2="43.7577" y2="49.8152" gradientUnits="userSpaceOnUse">
<stop stop-color="#FFD548"/>
<stop offset="0.458937" stop-color="#FEEDB2" stop-opacity="0.541063"/>
<stop offset="1" stop-color="#FBE187"/>
</linearGradient>
<linearGradient id="paint48_linear" x1="44.5702" y1="8.20801" x2="44.5702" y2="52.5921" gradientUnits="userSpaceOnUse">
<stop stop-color="#FFE797"/>
<stop offset="0.458937" stop-color="white" stop-opacity="0.541063"/>
<stop offset="1" stop-color="#FFD545"/>
</linearGradient>
<linearGradient id="paint49_linear" x1="74.5575" y1="32.2198" x2="74.5575" y2="67.4305" gradientUnits="userSpaceOnUse">
<stop stop-color="#F3A610"/>
<stop offset="0.458937" stop-color="#FFD64D"/>
<stop offset="1" stop-color="#F7EBC2"/>
</linearGradient>
<linearGradient id="paint50_linear" x1="80.5038" y1="29.7254" x2="80.5038" y2="74.1095" gradientUnits="userSpaceOnUse">
<stop stop-color="#F19F07"/>
<stop offset="0.418558" stop-color="#FCC736"/>
<stop offset="0.957466" stop-color="white"/>
</linearGradient>
<linearGradient id="paint51_linear" x1="0.466656" y1="0" x2="0.466656" y2="35.522" gradientUnits="userSpaceOnUse">
<stop stop-color="#FFEDAF"/>
<stop offset="0.458937" stop-color="#C78C1E"/>
<stop offset="1" stop-color="#FFD545"/>
</linearGradient>
<linearGradient id="paint52_linear" x1="0.466656" y1="0" x2="0.466656" y2="44.3837" gradientUnits="userSpaceOnUse">
<stop stop-color="white"/>
<stop offset="0.528823" stop-color="#BC7E16"/>
<stop offset="1" stop-color="#FFD545"/>
</linearGradient>
<linearGradient id="paint53_linear" x1="0.466656" y1="0" x2="0.466656" y2="35.6186" gradientUnits="userSpaceOnUse">
<stop stop-color="#D6A913"/>
<stop offset="0.260968" stop-color="#DFAA4D"/>
<stop offset="0.603137" stop-color="white" stop-opacity="0.541063"/>
<stop offset="1" stop-color="#FFD545"/>
</linearGradient>
<linearGradient id="paint54_linear" x1="0.466656" y1="0" x2="0.466656" y2="44.3837" gradientUnits="userSpaceOnUse">
<stop stop-color="#CC9121"/>
<stop offset="0.400024" stop-color="#D8A12A"/>
<stop offset="0.699165" stop-color="white" stop-opacity="0.541063"/>
<stop offset="1" stop-color="#FFDB63"/>
</linearGradient>
<linearGradient id="paint55_linear" x1="74.7333" y1="67.7333" x2="74.7333" y2="103.2" gradientUnits="userSpaceOnUse">
<stop stop-color="#D19825"/>
<stop offset="0.382779" stop-color="white" stop-opacity="0.541063"/>
<stop offset="1" stop-color="#F3AA1D"/>
</linearGradient>
<linearGradient id="paint56_linear" x1="79.8661" y1="70.5333" x2="79.8661" y2="111.6" gradientUnits="userSpaceOnUse">
<stop stop-color="#F09B03"/>
<stop offset="0.40625" stop-color="white" stop-opacity="0.541063"/>
<stop offset="1" stop-color="#CB9021"/>
</linearGradient>
</defs>
</svg>
