<svg width="86" height="111" viewBox="0 0 86 111" fill="none" xmlns="http://www.w3.org/2000/svg">
<g clip-path="url(#clip0)">
<path d="M8 101.89V101.565H9.20256V93.2343H8V92.9086H12.5033C12.8791 92.9086 13.2528 92.9692 13.6245 93.0903C13.9961 93.2072 14.3531 93.3909 14.6955 93.6415C15.0379 93.8878 15.3385 94.1864 15.5974 94.5371C15.8605 94.8879 16.0693 95.3138 16.2237 95.8148C16.3782 96.3117 16.4555 96.8504 16.4555 97.4308C16.4555 98.0112 16.3782 98.5498 16.2237 99.0467C16.0693 99.5394 15.8605 99.9591 15.5974 100.306C15.3385 100.648 15.0379 100.94 14.6955 101.183C14.3531 101.425 13.9961 101.604 13.6245 101.721C13.2528 101.834 12.8791 101.89 12.5033 101.89H8ZM10.5053 101.565H12.2152C12.6328 101.565 13.0044 101.489 13.3301 101.339C13.6558 101.189 13.9209 100.988 14.1255 100.738C14.3301 100.487 14.4992 100.182 14.6329 99.8234C14.7665 99.4643 14.8583 99.0906 14.9084 98.7022C14.9627 98.3139 14.9899 97.8901 14.9899 97.4308C14.9899 96.9715 14.9627 96.5456 14.9084 96.1531C14.8583 95.7606 14.7665 95.3827 14.6329 95.0194C14.4992 94.6519 14.3301 94.3409 14.1255 94.0862C13.9209 93.8273 13.6558 93.6206 13.3301 93.4661C13.0044 93.3116 12.6328 93.2343 12.2152 93.2343H10.5053V101.565Z" fill="url(#paint0_linear)"/>
<path d="M17.8209 101.89V101.565H19.0235V93.2343H17.8209V92.9086H21.5288V93.2343H20.3262V101.565H21.5288V101.89H17.8209Z" fill="url(#paint1_linear)"/>
<path d="M22.9568 97.4308C22.9568 96.8629 23.0362 96.3284 23.1948 95.8274C23.3535 95.3221 23.5706 94.8837 23.8462 94.5121C24.1218 94.1404 24.4412 93.8189 24.8045 93.5475C25.1678 93.2761 25.5603 93.0736 25.982 92.94C26.4037 92.8022 26.8317 92.7333 27.266 92.7333C27.8965 92.7333 28.4811 92.8314 29.0197 93.0277C29.2661 93.1195 29.4623 93.1654 29.6085 93.1654C29.7337 93.1654 29.8319 93.132 29.9029 93.0652C29.9738 92.9942 30.0469 92.8836 30.1221 92.7333H30.3977V95.6833H30.1221C29.9717 95.0653 29.7358 94.535 29.4143 94.0924C29.3183 93.9588 29.2181 93.8398 29.1137 93.7354C29.0093 93.631 28.8715 93.5245 28.7003 93.416C28.5333 93.3032 28.3266 93.2156 28.0802 93.1529C27.838 93.0903 27.5666 93.059 27.266 93.059C26.3599 93.059 25.6584 93.4327 25.1615 94.1801C24.6688 94.9234 24.4224 96.0069 24.4224 97.4308C24.4224 98.8505 24.6688 99.9236 25.1615 100.65C25.6542 101.377 26.3557 101.74 27.266 101.74C27.5666 101.74 27.838 101.709 28.0802 101.646C28.3266 101.583 28.5333 101.498 28.7003 101.389C28.8715 101.276 29.0093 101.168 29.1137 101.064C29.2181 100.959 29.3183 100.84 29.4143 100.706C29.7358 100.264 29.9717 99.7336 30.1221 99.1156H30.3977V102.066H30.1221C30.072 101.965 30.0281 101.89 29.9905 101.84C29.9571 101.79 29.907 101.744 29.8402 101.702C29.7734 101.656 29.6962 101.633 29.6085 101.633C29.4623 101.633 29.2661 101.679 29.0197 101.771C28.4811 101.968 27.8965 102.066 27.266 102.066C26.7148 102.066 26.1824 101.959 25.6688 101.746C25.1594 101.533 24.7022 101.235 24.2972 100.851C23.8921 100.462 23.5665 99.9716 23.3201 99.3787C23.0779 98.7857 22.9568 98.1364 22.9568 97.4308Z" fill="url(#paint2_linear)"/>
<path d="M32.189 96.5915L32.3393 92.9086H40.5317L40.682 96.5915H40.3563C40.2645 95.5727 40.0348 94.7918 39.6674 94.249C39.2122 93.5726 38.6193 93.2343 37.8886 93.2343H37.0869V101.565H38.2894V101.89H34.5816V101.565H35.7841V93.2343H34.9824C34.2517 93.2343 33.6588 93.5726 33.2036 94.249C32.8362 94.7918 32.6065 95.5727 32.5147 96.5915H32.189Z" fill="url(#paint3_linear)"/>
<path d="M40.8449 101.89V101.565H42.2103L45.1039 92.7333H45.4797L48.7617 101.565H49.9017V101.89H45.6927V101.565H47.2585L46.1938 98.6834H43.5757L42.6362 101.565H43.9515V101.89H40.8449ZM43.6759 98.3577H46.0685L44.8033 94.9442L43.6759 98.3577Z" fill="url(#paint4_linear)"/>
<path d="M49.814 96.5915L49.9643 92.9086H58.1567L58.307 96.5915H57.9813C57.8895 95.5727 57.6598 94.7918 57.2924 94.249C56.8372 93.5726 56.2443 93.2343 55.5136 93.2343H54.7119V101.565H55.9144V101.89H52.2066V101.565H53.4091V93.2343H52.6074C51.8767 93.2343 51.2838 93.5726 50.8286 94.249C50.4612 94.7918 50.2315 95.5727 50.1397 96.5915H49.814Z" fill="url(#paint5_linear)"/>
<path d="M59.685 97.4308C59.685 96.8629 59.7643 96.3284 59.923 95.8274C60.0816 95.3221 60.2988 94.8837 60.5744 94.5121C60.8499 94.1404 61.1694 93.8189 61.5327 93.5475C61.8959 93.2761 62.2884 93.0736 62.7102 92.94C63.1319 92.8022 63.5599 92.7333 63.9941 92.7333C64.4284 92.7333 64.8564 92.8022 65.2781 92.94C65.6998 93.0736 66.0924 93.2761 66.4556 93.5475C66.8189 93.8189 67.1383 94.1404 67.4139 94.5121C67.6895 94.8837 67.9066 95.3221 68.0653 95.8274C68.224 96.3284 68.3033 96.8629 68.3033 97.4308C68.3033 98.1364 68.1801 98.7857 67.9338 99.3787C67.6916 99.9716 67.368 100.462 66.963 100.851C66.5579 101.235 66.0986 101.533 65.585 101.746C65.0756 101.959 64.5453 102.066 63.9941 102.066C63.443 102.066 62.9106 101.959 62.397 101.746C61.8876 101.533 61.4303 101.235 61.0253 100.851C60.6203 100.462 60.2946 99.9716 60.0482 99.3787C59.8061 98.7857 59.685 98.1364 59.685 97.4308ZM61.1506 97.4308C61.1506 98.8505 61.3969 99.9236 61.8897 100.65C62.3824 101.377 63.0839 101.74 63.9941 101.74C64.9044 101.74 65.6059 101.377 66.0986 100.65C66.5913 99.9236 66.8377 98.8505 66.8377 97.4308C66.8377 96.0069 66.5892 94.9234 66.0924 94.1801C65.5996 93.4327 64.9002 93.059 63.9941 93.059C63.088 93.059 62.3866 93.4327 61.8897 94.1801C61.3969 94.9234 61.1506 96.0069 61.1506 97.4308Z" fill="url(#paint6_linear)"/>
<path d="M69.6687 101.89V101.565H70.8713V93.2343H69.6687V92.9086H73.4518C73.9278 92.9086 74.3495 92.9713 74.717 93.0965C75.0844 93.2218 75.3725 93.393 75.5813 93.6101C75.7901 93.8231 75.9467 94.0569 76.051 94.3116C76.1554 94.5622 76.2076 94.8273 76.2076 95.1071C76.2076 95.6499 76.049 96.0862 75.7316 96.4161C75.4143 96.7418 74.98 96.9673 74.4288 97.0926V97.1677C75.0677 97.2679 75.5542 97.4913 75.8882 97.8379C76.2264 98.1845 76.3955 98.5874 76.3955 99.0467V100.412C76.3955 100.851 76.4665 101.162 76.6085 101.345C76.7546 101.525 76.9989 101.615 77.3413 101.615C77.5793 101.615 77.8277 101.567 78.0866 101.471L78.1618 101.784C77.7442 101.922 77.3079 101.99 76.8527 101.99C76.6481 101.99 76.4519 101.965 76.264 101.915C76.0761 101.869 75.8882 101.792 75.7003 101.684C75.5166 101.575 75.3683 101.412 75.2556 101.195C75.147 100.978 75.0928 100.719 75.0928 100.418V98.9528C75.0928 98.4809 74.9654 98.0842 74.7107 97.7627C74.4602 97.4412 74.0823 97.2805 73.577 97.2805H72.174V101.565H73.3766V101.89H69.6687ZM72.174 96.9548H73.7775C74.0029 96.9548 74.1908 96.9109 74.3412 96.8232C74.4956 96.7355 74.6126 96.6103 74.6919 96.4474C74.7712 96.2804 74.8255 96.1009 74.8547 95.9088C74.8881 95.7125 74.9049 95.4829 74.9049 95.2198C74.9049 94.9735 74.8756 94.7375 74.8172 94.5121C74.7629 94.2866 74.6773 94.0757 74.5604 93.8795C74.4476 93.6832 74.2869 93.5266 74.0781 93.4097C73.8693 93.2928 73.6271 93.2343 73.3515 93.2343H72.174V96.9548Z" fill="url(#paint7_linear)"/>
<path d="M8 101.89V101.565H9.20256V93.2343H8V92.9086H12.5033C12.8791 92.9086 13.2528 92.9692 13.6245 93.0903C13.9961 93.2072 14.3531 93.3909 14.6955 93.6415C15.0379 93.8878 15.3385 94.1864 15.5974 94.5371C15.8605 94.8879 16.0693 95.3138 16.2237 95.8148C16.3782 96.3117 16.4555 96.8504 16.4555 97.4308C16.4555 98.0112 16.3782 98.5498 16.2237 99.0467C16.0693 99.5394 15.8605 99.9591 15.5974 100.306C15.3385 100.648 15.0379 100.94 14.6955 101.183C14.3531 101.425 13.9961 101.604 13.6245 101.721C13.2528 101.834 12.8791 101.89 12.5033 101.89H8ZM10.5053 101.565H12.2152C12.6328 101.565 13.0044 101.489 13.3301 101.339C13.6558 101.189 13.9209 100.988 14.1255 100.738C14.3301 100.487 14.4992 100.182 14.6329 99.8234C14.7665 99.4643 14.8583 99.0906 14.9084 98.7022C14.9627 98.3139 14.9899 97.8901 14.9899 97.4308C14.9899 96.9715 14.9627 96.5456 14.9084 96.1531C14.8583 95.7606 14.7665 95.3827 14.6329 95.0194C14.4992 94.6519 14.3301 94.3409 14.1255 94.0862C13.9209 93.8273 13.6558 93.6206 13.3301 93.4661C13.0044 93.3116 12.6328 93.2343 12.2152 93.2343H10.5053V101.565Z" stroke="url(#paint8_linear)" stroke-width="0.712627"/>
<path d="M17.8209 101.89V101.565H19.0235V93.2343H17.8209V92.9086H21.5288V93.2343H20.3262V101.565H21.5288V101.89H17.8209Z" stroke="url(#paint9_linear)" stroke-width="0.712627"/>
<path d="M22.9568 97.4308C22.9568 96.8629 23.0362 96.3284 23.1948 95.8274C23.3535 95.3221 23.5706 94.8837 23.8462 94.5121C24.1218 94.1404 24.4412 93.8189 24.8045 93.5475C25.1678 93.2761 25.5603 93.0736 25.982 92.94C26.4037 92.8022 26.8317 92.7333 27.266 92.7333C27.8965 92.7333 28.4811 92.8314 29.0197 93.0277C29.2661 93.1195 29.4623 93.1654 29.6085 93.1654C29.7337 93.1654 29.8319 93.132 29.9029 93.0652C29.9738 92.9942 30.0469 92.8836 30.1221 92.7333H30.3977V95.6833H30.1221C29.9717 95.0653 29.7358 94.535 29.4143 94.0924C29.3183 93.9588 29.2181 93.8398 29.1137 93.7354C29.0093 93.631 28.8715 93.5245 28.7003 93.416C28.5333 93.3032 28.3266 93.2156 28.0802 93.1529C27.838 93.0903 27.5666 93.059 27.266 93.059C26.3599 93.059 25.6584 93.4327 25.1615 94.1801C24.6688 94.9234 24.4224 96.0069 24.4224 97.4308C24.4224 98.8505 24.6688 99.9236 25.1615 100.65C25.6542 101.377 26.3557 101.74 27.266 101.74C27.5666 101.74 27.838 101.709 28.0802 101.646C28.3266 101.583 28.5333 101.498 28.7003 101.389C28.8715 101.276 29.0093 101.168 29.1137 101.064C29.2181 100.959 29.3183 100.84 29.4143 100.706C29.7358 100.264 29.9717 99.7336 30.1221 99.1156H30.3977V102.066H30.1221C30.072 101.965 30.0281 101.89 29.9905 101.84C29.9571 101.79 29.907 101.744 29.8402 101.702C29.7734 101.656 29.6962 101.633 29.6085 101.633C29.4623 101.633 29.2661 101.679 29.0197 101.771C28.4811 101.968 27.8965 102.066 27.266 102.066C26.7148 102.066 26.1824 101.959 25.6688 101.746C25.1594 101.533 24.7022 101.235 24.2972 100.851C23.8921 100.462 23.5665 99.9716 23.3201 99.3787C23.0779 98.7857 22.9568 98.1364 22.9568 97.4308Z" stroke="url(#paint10_linear)" stroke-width="0.712627"/>
<path d="M32.189 96.5915L32.3393 92.9086H40.5317L40.682 96.5915H40.3563C40.2645 95.5727 40.0348 94.7918 39.6674 94.249C39.2122 93.5726 38.6193 93.2343 37.8886 93.2343H37.0869V101.565H38.2894V101.89H34.5816V101.565H35.7841V93.2343H34.9824C34.2517 93.2343 33.6588 93.5726 33.2036 94.249C32.8362 94.7918 32.6065 95.5727 32.5147 96.5915H32.189Z" stroke="url(#paint11_linear)" stroke-width="0.712627"/>
<path d="M40.8449 101.89V101.565H42.2103L45.1039 92.7333H45.4797L48.7617 101.565H49.9017V101.89H45.6927V101.565H47.2585L46.1938 98.6834H43.5757L42.6362 101.565H43.9515V101.89H40.8449ZM43.6759 98.3577H46.0685L44.8033 94.9442L43.6759 98.3577Z" stroke="url(#paint12_linear)" stroke-width="0.712627"/>
<path d="M49.814 96.5915L49.9643 92.9086H58.1567L58.307 96.5915H57.9813C57.8895 95.5727 57.6598 94.7918 57.2924 94.249C56.8372 93.5726 56.2443 93.2343 55.5136 93.2343H54.7119V101.565H55.9144V101.89H52.2066V101.565H53.4091V93.2343H52.6074C51.8767 93.2343 51.2838 93.5726 50.8286 94.249C50.4612 94.7918 50.2315 95.5727 50.1397 96.5915H49.814Z" stroke="url(#paint13_linear)" stroke-width="0.712627"/>
<path d="M59.685 97.4308C59.685 96.8629 59.7643 96.3284 59.923 95.8274C60.0816 95.3221 60.2988 94.8837 60.5744 94.5121C60.8499 94.1404 61.1694 93.8189 61.5327 93.5475C61.8959 93.2761 62.2884 93.0736 62.7102 92.94C63.1319 92.8022 63.5599 92.7333 63.9941 92.7333C64.4284 92.7333 64.8564 92.8022 65.2781 92.94C65.6998 93.0736 66.0924 93.2761 66.4556 93.5475C66.8189 93.8189 67.1383 94.1404 67.4139 94.5121C67.6895 94.8837 67.9066 95.3221 68.0653 95.8274C68.224 96.3284 68.3033 96.8629 68.3033 97.4308C68.3033 98.1364 68.1801 98.7857 67.9338 99.3787C67.6916 99.9716 67.368 100.462 66.963 100.851C66.5579 101.235 66.0986 101.533 65.585 101.746C65.0756 101.959 64.5453 102.066 63.9941 102.066C63.443 102.066 62.9106 101.959 62.397 101.746C61.8876 101.533 61.4303 101.235 61.0253 100.851C60.6203 100.462 60.2946 99.9716 60.0482 99.3787C59.8061 98.7857 59.685 98.1364 59.685 97.4308ZM61.1506 97.4308C61.1506 98.8505 61.3969 99.9236 61.8897 100.65C62.3824 101.377 63.0839 101.74 63.9941 101.74C64.9044 101.74 65.6059 101.377 66.0986 100.65C66.5913 99.9236 66.8377 98.8505 66.8377 97.4308C66.8377 96.0069 66.5892 94.9234 66.0924 94.1801C65.5996 93.4327 64.9002 93.059 63.9941 93.059C63.088 93.059 62.3866 93.4327 61.8897 94.1801C61.3969 94.9234 61.1506 96.0069 61.1506 97.4308Z" stroke="url(#paint14_linear)" stroke-width="0.712627"/>
<path d="M69.6687 101.89V101.565H70.8713V93.2343H69.6687V92.9086H73.4518C73.9278 92.9086 74.3495 92.9713 74.717 93.0965C75.0844 93.2218 75.3725 93.393 75.5813 93.6101C75.7901 93.8231 75.9467 94.0569 76.051 94.3116C76.1554 94.5622 76.2076 94.8273 76.2076 95.1071C76.2076 95.6499 76.049 96.0862 75.7316 96.4161C75.4143 96.7418 74.98 96.9673 74.4288 97.0926V97.1677C75.0677 97.2679 75.5542 97.4913 75.8882 97.8379C76.2264 98.1845 76.3955 98.5874 76.3955 99.0467V100.412C76.3955 100.851 76.4665 101.162 76.6085 101.345C76.7546 101.525 76.9989 101.615 77.3413 101.615C77.5793 101.615 77.8277 101.567 78.0866 101.471L78.1618 101.784C77.7442 101.922 77.3079 101.99 76.8527 101.99C76.6481 101.99 76.4519 101.965 76.264 101.915C76.0761 101.869 75.8882 101.792 75.7003 101.684C75.5166 101.575 75.3683 101.412 75.2556 101.195C75.147 100.978 75.0928 100.719 75.0928 100.418V98.9528C75.0928 98.4809 74.9654 98.0842 74.7107 97.7627C74.4602 97.4412 74.0823 97.2805 73.577 97.2805H72.174V101.565H73.3766V101.89H69.6687ZM72.174 96.9548H73.7775C74.0029 96.9548 74.1908 96.9109 74.3412 96.8232C74.4956 96.7355 74.6126 96.6103 74.6919 96.4474C74.7712 96.2804 74.8255 96.1009 74.8547 95.9088C74.8881 95.7125 74.9049 95.4829 74.9049 95.2198C74.9049 94.9735 74.8756 94.7375 74.8172 94.5121C74.7629 94.2866 74.6773 94.0757 74.5604 93.8795C74.4476 93.6832 74.2869 93.5266 74.0781 93.4097C73.8693 93.2928 73.6271 93.2343 73.3515 93.2343H72.174V96.9548Z" stroke="url(#paint15_linear)" stroke-width="0.712627"/>
<path d="M22.3945 109.957V109.791H23.0453V105.548H22.3945V105.382H23.9354L25.0455 108.891L26.2099 105.382H27.5944V105.548H26.9819V109.791H27.5944V109.957H25.7059V109.791H26.3184V105.708H26.3056L24.8605 110.046H24.6691L23.3133 105.762C23.2878 105.685 23.275 105.614 23.275 105.548H23.2495V109.791H23.9003V109.957H22.3945Z" fill="#FBFBFF"/>
<path d="M28.2452 109.957V109.791H28.8577V105.548H28.2452V105.382H31.8181L31.85 106.582H31.6841C31.6671 106.497 31.6512 106.428 31.6363 106.374C31.6214 106.321 31.5927 106.247 31.5501 106.151C31.5097 106.055 31.4587 105.965 31.397 105.88C31.2396 105.659 30.9972 105.548 30.6697 105.548H29.5212V107.481H30.1146C30.3251 107.481 30.5059 107.367 30.6569 107.137C30.7037 107.065 30.7441 106.964 30.7781 106.834C30.8122 106.704 30.8292 106.609 30.8292 106.55H30.9823V108.572H30.8292C30.8292 108.513 30.8122 108.418 30.7781 108.288C30.7441 108.159 30.7037 108.058 30.6569 107.985C30.508 107.76 30.3273 107.647 30.1146 107.647H29.5212V109.791H30.5963C31.0706 109.791 31.4119 109.647 31.6203 109.36C31.7224 109.222 31.7936 109.096 31.834 108.981C31.8745 108.866 31.9117 108.716 31.9457 108.531H32.1116L32.0924 109.957H28.2452Z" fill="#FBFBFF"/>
<path d="M32.7305 109.957V109.791H33.3813V105.548H32.7305V105.382H34.3191L36.2651 108.582V105.548H35.6143V105.382H37.1201V105.548H36.4693V110.046H36.2779L33.6588 105.74C33.6226 105.68 33.6046 105.616 33.6046 105.548H33.5854V109.791H34.2362V109.957H32.7305Z" fill="#FBFBFF"/>
<path d="M37.8155 105.452C37.8155 105.355 37.8421 105.274 37.8952 105.21C37.9484 105.146 38.0218 105.114 38.1154 105.114C38.2089 105.114 38.2823 105.146 38.3355 105.21C38.3887 105.274 38.4152 105.355 38.4152 105.452C38.4152 105.518 38.4046 105.639 38.3833 105.813L38.2047 107.233H38.026L37.8474 105.813C37.8261 105.636 37.8155 105.516 37.8155 105.452Z" fill="#FBFBFF"/>
<path d="M39.5573 108.438H39.6977C39.7593 108.764 39.8795 109.049 40.0581 109.293C40.1921 109.478 40.3527 109.623 40.5398 109.727C40.7291 109.829 40.9354 109.88 41.1587 109.88C41.4841 109.88 41.7383 109.798 41.9212 109.635C42.1062 109.471 42.1987 109.247 42.1987 108.962C42.1987 108.696 42.1051 108.476 41.918 108.301C41.7308 108.125 41.4373 107.985 41.0375 107.883C40.8844 107.845 40.7483 107.805 40.6292 107.762C40.5101 107.717 40.3899 107.66 40.2687 107.59C40.1475 107.52 40.0464 107.441 39.9656 107.354C39.8869 107.267 39.8221 107.16 39.771 107.035C39.7221 106.907 39.6977 106.766 39.6977 106.61C39.6977 106.217 39.8199 105.899 40.0645 105.657C40.3091 105.414 40.6462 105.293 41.0758 105.293C41.2672 105.293 41.4416 105.326 41.599 105.392C41.7542 105.456 41.8616 105.488 41.9212 105.488C42.0105 105.488 42.069 105.423 42.0966 105.293H42.237L42.2497 106.476H42.1094C42.0371 106.268 41.936 106.068 41.8063 105.877C41.7276 105.758 41.6149 105.659 41.4682 105.58C41.3235 105.499 41.1789 105.459 41.0343 105.459C40.7642 105.459 40.5462 105.536 40.3803 105.692C40.2145 105.847 40.1315 106.034 40.1315 106.253C40.1315 106.362 40.1549 106.461 40.2017 106.55C40.2485 106.637 40.3048 106.709 40.3708 106.767C40.4367 106.824 40.526 106.88 40.6387 106.933C40.7515 106.984 40.8503 107.023 40.9354 107.051C41.0205 107.076 41.1289 107.107 41.2608 107.143C41.4947 107.207 41.6936 107.278 41.8574 107.357C42.0232 107.434 42.1689 107.529 42.2944 107.644C42.422 107.759 42.5166 107.898 42.5783 108.062C42.64 108.224 42.6708 108.413 42.6708 108.63C42.6708 109.053 42.5241 109.395 42.2306 109.657C41.9371 109.916 41.5766 110.046 41.1492 110.046C40.8918 110.046 40.6249 109.979 40.3484 109.845C40.2272 109.788 40.1432 109.759 40.0964 109.759C40.0007 109.759 39.9284 109.78 39.8795 109.823C39.8306 109.865 39.7806 109.94 39.7296 110.046H39.5892L39.5573 108.438Z" fill="#FBFBFF"/>
<path d="M45.1655 107.686C45.1655 107.396 45.2059 107.124 45.2867 106.869C45.3675 106.612 45.4781 106.388 45.6185 106.199C45.7589 106.01 45.9215 105.846 46.1066 105.708C46.2916 105.569 46.4915 105.466 46.7063 105.398C46.9211 105.328 47.1391 105.293 47.3603 105.293C47.6814 105.293 47.9792 105.343 48.2535 105.443C48.379 105.49 48.4789 105.513 48.5534 105.513C48.6172 105.513 48.6672 105.496 48.7033 105.462C48.7395 105.426 48.7767 105.37 48.815 105.293H48.9553V106.796H48.815C48.7384 106.481 48.6183 106.211 48.4545 105.985C48.4056 105.917 48.3545 105.857 48.3014 105.803C48.2482 105.75 48.178 105.696 48.0908 105.641C48.0058 105.583 47.9005 105.539 47.775 105.507C47.6516 105.475 47.5134 105.459 47.3603 105.459C46.8988 105.459 46.5415 105.649 46.2884 106.03C46.0375 106.408 45.912 106.96 45.912 107.686C45.912 108.409 46.0375 108.955 46.2884 109.325C46.5394 109.695 46.8967 109.88 47.3603 109.88C47.5134 109.88 47.6516 109.864 47.775 109.832C47.9005 109.801 48.0058 109.757 48.0908 109.702C48.178 109.644 48.2482 109.589 48.3014 109.536C48.3545 109.483 48.4056 109.422 48.4545 109.354C48.6183 109.129 48.7384 108.858 48.815 108.544H48.9553V110.046H48.815C48.7895 109.995 48.7671 109.957 48.748 109.931C48.731 109.906 48.7054 109.882 48.6714 109.861C48.6374 109.838 48.598 109.826 48.5534 109.826C48.4789 109.826 48.379 109.849 48.2535 109.896C47.9792 109.996 47.6814 110.046 47.3603 110.046C47.0796 110.046 46.8084 109.992 46.5468 109.884C46.2873 109.775 46.0545 109.623 45.8482 109.427C45.6419 109.23 45.476 108.98 45.3505 108.678C45.2272 108.376 45.1655 108.045 45.1655 107.686Z" fill="#FBFBFF"/>
<path d="M49.8294 109.957V109.791H50.4419V105.548H49.8294V105.382H51.718V105.548H51.1055V109.791H52.0561C52.273 109.791 52.4602 109.758 52.6176 109.692C52.775 109.626 52.9111 109.512 53.0259 109.351C53.1471 109.179 53.2343 109.006 53.2875 108.834C53.3428 108.662 53.3832 108.462 53.4087 108.234H53.6001L53.5299 109.957H49.8294Z" fill="#FBFBFF"/>
<path d="M53.9574 105.548V105.382H55.846V105.548H55.2335V108.923C55.2335 109.106 55.259 109.263 55.31 109.392C55.3632 109.52 55.4376 109.619 55.5333 109.689C55.6312 109.757 55.7375 109.806 55.8523 109.836C55.9672 109.865 56.099 109.88 56.2479 109.88C56.6541 109.88 56.9774 109.774 57.2177 109.561C57.4602 109.349 57.5814 109.04 57.5814 108.636V105.548H56.9306V105.382H58.4363V105.548H57.7855V108.662C57.7855 109.11 57.6473 109.454 57.3708 109.692C57.0965 109.928 56.7222 110.046 56.2479 110.046C55.1293 110.046 54.5699 109.553 54.5699 108.566V105.548H53.9574Z" fill="#FBFBFF"/>
<path d="M58.9786 109.957V109.791H59.5911V105.548H58.9786V105.382H60.982C61.4712 105.382 61.8338 105.48 62.0699 105.676C62.3081 105.869 62.4271 106.139 62.4271 106.486C62.4271 106.739 62.3368 106.953 62.156 107.127C61.9752 107.302 61.7445 107.415 61.4637 107.469V107.507C61.8232 107.552 62.1071 107.68 62.3155 107.893C62.5239 108.106 62.6281 108.375 62.6281 108.7C62.6281 109.093 62.4824 109.402 62.1911 109.625C61.9018 109.846 61.5073 109.957 61.0076 109.957H58.9786ZM60.2547 109.791H60.9438C61.569 109.791 61.8816 109.417 61.8816 108.668C61.8816 108.326 61.8168 108.058 61.687 107.864C61.5573 107.669 61.3563 107.571 61.0841 107.571H60.2547V109.791ZM60.2547 107.405H61.0841C61.3095 107.405 61.4786 107.324 61.5913 107.162C61.7062 106.999 61.7636 106.786 61.7636 106.524C61.7636 106.395 61.7508 106.277 61.7253 106.17C61.6998 106.062 61.6573 105.959 61.5977 105.861C61.5403 105.763 61.4542 105.686 61.3393 105.631C61.2266 105.576 61.0905 105.548 60.931 105.548H60.2547V107.405Z" fill="#FBFBFF"/>
<g clip-path="url(#clip1)">
<path fill-rule="evenodd" clip-rule="evenodd" d="M42.9289 4.66785C63.9943 4.66785 81.0715 21.7239 81.0715 42.7636C81.0715 63.8033 63.9943 80.8594 42.9289 80.8594C21.8634 80.8594 4.78613 63.8033 4.78613 42.7636C4.78613 21.7239 21.8634 4.66785 42.9289 4.66785V4.66785ZM63.2485 22.4688C58.0491 17.2759 50.8648 14.0637 42.9289 14.0637C34.993 14.0637 27.8087 17.2759 22.6093 22.4688C17.4099 27.6621 14.1937 34.8374 14.1937 42.7636C14.1937 50.6899 17.4099 57.8653 22.6093 63.0582C27.8087 68.2513 34.993 71.4636 42.9289 71.4636C50.8648 71.4636 58.0491 68.2513 63.2485 63.0582C68.4479 57.8653 71.6641 50.6899 71.6641 42.7636C71.6641 34.8374 68.4479 27.6621 63.2485 22.4688Z" fill="#171513"/>
<path fill-rule="evenodd" clip-rule="evenodd" d="M42.9288 11.3295C51.6197 11.3295 59.4881 14.848 65.1834 20.5363C70.8788 26.2246 74.4016 34.0833 74.4016 42.7636C74.4016 51.4439 70.8788 59.3026 65.1834 64.9909C59.4881 70.6793 51.6197 74.1978 42.9288 74.1978C34.238 74.1978 26.3696 70.6793 20.6742 64.9909C14.9791 59.3026 11.4561 51.4437 11.4561 42.7636C11.4561 34.0833 14.9791 26.2246 20.6742 20.5363C26.3696 14.848 34.2383 11.3295 42.9288 11.3295V11.3295ZM42.9288 12.3545C59.7442 12.3545 73.3753 25.9692 73.3753 42.7636C73.3753 59.5583 59.7442 73.1728 42.9288 73.1728C26.1137 73.1728 12.4823 59.5583 12.4823 42.7636C12.4823 25.9692 26.1137 12.3545 42.9288 12.3545V12.3545Z" fill="#2B2724"/>
<path fill-rule="evenodd" clip-rule="evenodd" d="M42.9292 1.59326C65.6949 1.59326 84.1502 20.0258 84.1502 42.7635C84.1502 65.5012 65.6949 83.9339 42.9292 83.9339C20.1634 83.9339 1.70801 65.5012 1.70801 42.7635C1.70801 20.0258 20.1634 1.59326 42.9292 1.59326V1.59326ZM69.6583 16.0673C62.8181 9.23575 53.3676 5.00983 42.9292 5.00983C32.4907 5.00983 23.0402 9.23575 16.2 16.0673C9.35979 22.899 5.1289 32.3378 5.1289 42.7635C5.1289 53.1892 9.35998 62.628 16.2 69.4597C23.0402 76.2915 32.4907 80.5174 42.9292 80.5174C53.3676 80.5174 62.8181 76.2915 69.6583 69.4597C76.4983 62.628 80.7294 53.1892 80.7294 42.7635C80.7294 32.3378 76.4985 22.899 69.6583 16.0673V16.0673Z" fill="#E2C391"/>
<mask id="mask0" mask-type="alpha" maskUnits="userSpaceOnUse" x="1" y="1" width="84" height="83">
<path fill-rule="evenodd" clip-rule="evenodd" d="M42.9292 1.59326C65.6949 1.59326 84.1502 20.0258 84.1502 42.7635C84.1502 65.5012 65.6949 83.9339 42.9292 83.9339C20.1634 83.9339 1.70801 65.5012 1.70801 42.7635C1.70801 20.0258 20.1634 1.59326 42.9292 1.59326V1.59326ZM69.6583 16.0673C62.8181 9.23575 53.3676 5.00983 42.9292 5.00983C32.4907 5.00983 23.0402 9.23575 16.2 16.0673C9.35979 22.899 5.1289 32.3378 5.1289 42.7635C5.1289 53.1892 9.35998 62.628 16.2 69.4597C23.0402 76.2915 32.4907 80.5174 42.9292 80.5174C53.3676 80.5174 62.8181 76.2915 69.6583 69.4597C76.4983 62.628 80.7294 53.1892 80.7294 42.7635C80.7294 32.3378 76.4985 22.899 69.6583 16.0673V16.0673Z" fill="#FFD445"/>
</mask>
<g mask="url(#mask0)">
<rect x="45.9219" y="-4.5036" width="33.8804" height="12.1333" transform="rotate(29.6312 45.9219 -4.5036)" fill="url(#paint16_linear)"/>
<rect x="90.5869" y="35.6661" width="50.7966" height="12.1333" transform="rotate(105 90.5869 35.6661)" fill="url(#paint17_linear)"/>
<rect x="80.8369" y="72.6221" width="24.3538" height="12.1333" transform="rotate(150.453 80.8369 72.6221)" fill="url(#paint18_linear)"/>
<rect x="1.38574" y="21.92" width="31.4996" height="12.1333" transform="rotate(-45 1.38574 21.92)" fill="url(#paint19_linear)"/>
<rect x="23.3877" y="86.5671" width="36.1711" height="12.1333" transform="rotate(-135 23.3877 86.5671)" fill="url(#paint20_linear)"/>
<rect x="56" y="86.8" width="29.8667" height="12.1333" transform="rotate(180 56 86.8)" fill="url(#paint21_linear)"/>
</g>
<path fill-rule="evenodd" clip-rule="evenodd" d="M42.9291 0.0551147C54.7366 0.0551147 65.4273 4.83574 73.1655 12.5643C80.9037 20.2929 85.6902 30.9706 85.6902 42.7636C85.6902 54.5568 80.9037 65.2341 73.1655 72.9627C65.4273 80.6916 54.7366 85.4721 42.9291 85.4721C31.1216 85.4721 20.4309 80.6916 12.6926 72.9627C4.95443 65.2341 0.167969 54.5568 0.167969 42.7636C0.167969 30.9706 4.95443 20.2929 12.6926 12.5643C20.4309 4.83574 31.1216 0.0551147 42.9291 0.0551147ZM1.87851 42.7636C1.87851 20.1198 20.2575 1.76354 42.9291 1.76354C65.6006 1.76354 83.9796 20.1198 83.9796 42.7636C83.9796 65.4072 65.6006 83.7637 42.9291 83.7637C20.2575 83.7637 1.87851 65.4072 1.87851 42.7636V42.7636Z" fill="#715B37"/>
<mask id="mask1" mask-type="alpha" maskUnits="userSpaceOnUse" x="0" y="0" width="86" height="86">
<path fill-rule="evenodd" clip-rule="evenodd" d="M42.9291 0.0551147C54.7366 0.0551147 65.4273 4.83574 73.1655 12.5643C80.9037 20.2929 85.6902 30.9706 85.6902 42.7636C85.6902 54.5568 80.9037 65.2341 73.1655 72.9627C65.4273 80.6916 54.7366 85.4721 42.9291 85.4721C31.1216 85.4721 20.4309 80.6916 12.6926 72.9627C4.95443 65.2341 0.167969 54.5568 0.167969 42.7636C0.167969 30.9706 4.95443 20.2929 12.6926 12.5643C20.4309 4.83574 31.1216 0.0551147 42.9291 0.0551147ZM1.87851 42.7636C1.87851 20.1198 20.2575 1.76354 42.9291 1.76354C65.6006 1.76354 83.9796 20.1198 83.9796 42.7636C83.9796 65.4072 65.6006 83.7637 42.9291 83.7637C20.2575 83.7637 1.87851 65.4072 1.87851 42.7636V42.7636Z" fill="#BB7B15"/>
</mask>
<g mask="url(#mask1)">
<rect x="56.4668" y="77.5594" width="36.4294" height="10.7333" transform="rotate(-45 56.4668 77.5594)" fill="url(#paint22_linear)"/>
<rect x="58.0996" y="-4.20001" width="12.0293" height="10.7333" transform="rotate(30 58.0996 -4.20001)" fill="url(#paint23_linear)"/>
<rect x="3.32715" y="16.1591" width="22.8833" height="10.7333" transform="rotate(-45 3.32715 16.1591)" fill="url(#paint24_linear)"/>
<rect x="-3.2666" y="59.2667" width="31.2667" height="10.7333" transform="rotate(-90 -3.2666 59.2667)" fill="url(#paint25_linear)"/>
<rect x="14.6016" y="77.7251" width="11.9818" height="10.7333" transform="rotate(-135 14.6016 77.7251)" fill="url(#paint26_linear)"/>
<rect x="45.2666" y="88.6666" width="7.93333" height="10.7333" transform="rotate(180 45.2666 88.6666)" fill="url(#paint27_linear)"/>
</g>
<path fill-rule="evenodd" clip-rule="evenodd" d="M55.151 12.0139C55.282 11.7641 55.6203 11.4195 55.7358 11.1072C55.8984 10.6663 55.7037 10.3616 55.8812 10.0336C56.2762 9.30271 57.3626 9.07653 57.8621 9.76136C57.4495 9.85988 57.3267 10.1157 57.1358 10.3705C56.8774 10.7154 56.6351 11.3087 56.2823 11.7004C56.0077 12.0046 55.6661 12.1871 55.1978 12.0351C55.6605 11.9003 55.9059 11.7279 56.0915 11.4779C56.1696 11.3723 56.3203 10.9801 56.5316 10.6489C56.7019 10.3818 56.8453 10.1383 56.9964 10.0685C56.8185 10.0884 56.6704 10.1917 56.5459 10.3322C56.3548 10.548 56.2191 10.8513 56.1152 11.0723C55.9532 11.4169 55.813 11.6829 55.151 12.0139V12.0139ZM54.8336 11.8971C54.896 11.6219 54.8626 11.1405 54.9778 10.8281C55.1406 10.3872 55.4864 10.2815 55.5647 9.91731C55.7391 9.10519 55.0596 8.22891 54.2346 8.42586C54.4843 8.76842 54.4113 9.04245 54.3914 9.36005C54.3637 9.79002 54.1627 10.3987 54.1769 10.9251C54.1877 11.3348 54.3289 11.6949 54.784 11.8828C54.5197 11.4804 54.4451 11.1903 54.4665 10.8794C54.4754 10.7486 54.6156 10.3526 54.6702 9.96353C54.7142 9.64983 54.763 9.37191 54.6932 9.2208C54.8158 9.35141 54.8615 9.52615 54.8647 9.71352C54.8701 10.0015 54.7763 10.3202 54.7117 10.5559C54.6112 10.923 54.5451 11.2162 54.8336 11.8971V11.8971ZM53.1536 11.3098C52.8746 10.9353 52.4715 10.6062 52.0241 10.3967C51.4 10.1044 50.6911 10.0438 50.1152 10.4157C50.2316 10.9 50.5738 11.199 51.007 11.3699C51.5671 11.5908 52.2808 11.5985 52.8574 11.5162C52.6382 11.4992 52.4051 11.4738 52.2312 11.447C51.8608 11.3904 51.5601 11.2573 51.6606 10.9848C51.7463 10.7529 51.9641 10.7378 52.2142 10.8188C52.4766 10.9038 52.8712 11.13 53.1536 11.3098ZM52.8689 10.4276C52.5496 9.93449 52.3287 9.85295 52.3811 9.37153C52.3522 9.1107 51.9804 9.09893 51.8991 9.31971C51.8126 9.63085 51.8635 9.83767 51.9929 9.98755C52.1796 10.2041 52.5302 10.3028 52.8689 10.4276V10.4276ZM53.4905 10.7815C53.219 10.1936 53.0752 9.7886 53.0483 9.36508C53.0241 8.99119 53.0912 8.60241 53.2412 8.06043C53.2122 7.79912 52.8405 7.78764 52.759 8.00823C52.6016 8.57498 52.5286 8.94336 52.5534 9.24852C52.5934 9.73658 52.8857 10.0634 53.4905 10.7815ZM53.961 11.2052C53.8289 10.2456 53.7392 9.77873 53.7879 9.20856C53.8184 8.85015 53.9033 8.45111 54.0663 7.86291C54.0373 7.60226 53.6653 7.5903 53.5841 7.81089C53.43 8.36597 53.3328 8.78181 53.313 9.15825C53.2791 9.79002 53.4629 10.3134 53.961 11.2052V11.2052ZM56.8104 12.656C57.2661 12.5517 57.7869 12.5629 58.2633 12.6933C58.928 12.8753 59.5067 13.2889 59.7029 13.945C59.3 14.2382 58.8457 14.2439 58.4049 14.0932C57.8346 13.8979 57.2871 13.441 56.9019 13.0053C57.0796 13.1342 57.2738 13.2657 57.4233 13.3584C57.7416 13.5552 58.0573 13.6489 58.1578 13.3763C58.2435 13.1444 58.0873 12.9917 57.8443 12.8913C57.5894 12.7857 57.1423 12.7022 56.8104 12.656ZM57.6002 12.1691C58.1637 12.001 58.3845 12.0819 58.6579 11.6818C58.8494 11.5022 59.1396 11.7343 59.0585 11.9548C58.9217 12.2478 58.7487 12.3723 58.553 12.4023C58.2701 12.4461 57.9394 12.2938 57.6002 12.1691ZM56.8974 12.0358C57.4861 11.7643 57.8586 11.5494 58.1546 11.2448C58.4158 10.9756 58.6177 10.6365 58.8557 10.127C59.0471 9.94721 59.3375 10.1793 59.2562 10.3998C59.0073 10.9326 58.8239 11.2608 58.6066 11.4766C58.259 11.822 57.8245 11.8813 56.8974 12.0358ZM56.2643 12.0531C56.9883 11.4088 57.3599 11.1114 57.6934 10.6464C57.9031 10.3537 58.0978 9.99504 58.356 9.44215C58.5475 9.26237 58.8379 9.49464 58.7566 9.71513C58.5132 10.2372 58.317 10.6165 58.0876 10.9161C57.7025 11.4183 57.2227 11.6974 56.2643 12.0531V12.0531Z" fill="url(#paint28_linear)"/>
<path fill-rule="evenodd" clip-rule="evenodd" d="M65.4147 18.4805C65.6309 18.2989 66.0747 18.1082 66.3003 17.8628C66.6181 17.5166 66.5538 17.1611 66.8424 16.9248C67.4856 16.3982 68.5765 16.6003 68.7785 17.4232C68.3597 17.3581 68.1486 17.5483 67.8753 17.7115C67.5053 17.9326 67.0554 18.39 66.5805 18.6188C66.211 18.7962 65.8256 18.8357 65.45 18.5176C65.9292 18.5682 66.2217 18.5016 66.4886 18.3405C66.601 18.2724 66.8892 17.9668 67.2104 17.7401C67.4696 17.5578 67.6946 17.387 67.861 17.3794C67.6888 17.3305 67.5127 17.3701 67.3442 17.4526C67.0852 17.5802 66.8446 17.8091 66.6644 17.9744C66.3835 18.2319 66.1529 18.4245 65.4147 18.4805V18.4805ZM65.1654 18.252C65.3276 18.021 65.4798 17.563 65.705 17.3174C66.023 16.9712 66.383 17.0045 66.5937 16.6971C67.0635 16.0117 66.7674 14.9436 65.9295 14.8135C66.0307 15.2249 65.8589 15.4509 65.7195 15.7371C65.5311 16.1243 65.1139 16.6112 64.9268 17.104C64.7815 17.487 64.7753 17.8739 65.125 18.2197C65.0333 17.7476 65.0742 17.4508 65.2122 17.1714C65.2704 17.0537 65.5505 16.7401 65.7484 16.401C65.9082 16.1276 66.0593 15.8889 66.0519 15.7226C66.1159 15.8899 66.0917 16.0685 66.0235 16.2432C65.9191 16.5118 65.7113 16.7715 65.562 16.9649C65.3294 17.2664 65.1571 17.5126 65.1654 18.252V18.252ZM63.8342 17.0721C63.7183 16.6201 63.4702 16.1625 63.1357 15.7995C62.6697 15.2925 62.0369 14.968 61.3627 15.0937C61.2864 15.586 61.4892 15.9922 61.8252 16.3142C62.26 16.7311 62.9171 17.0085 63.4817 17.1508C63.2854 17.0521 63.0795 16.9401 62.9286 16.8495C62.6074 16.6568 62.3797 16.42 62.5763 16.2057C62.7436 16.0237 62.9509 16.0923 63.1517 16.2619C63.3622 16.4401 63.6411 16.7991 63.8342 17.0721ZM63.906 16.1479C63.7977 15.5707 63.6244 15.412 63.8557 14.9862C63.9278 14.7338 63.5886 14.5822 63.4295 14.7553C63.231 15.0108 63.1995 15.2213 63.2621 15.4091C63.3529 15.6801 63.6397 15.9044 63.906 16.1479ZM64.3468 16.7111C64.3185 16.0642 64.3393 15.6353 64.475 15.2329C64.5949 14.8779 64.8048 14.5435 65.1492 14.099C65.2215 13.8462 64.882 13.6948 64.723 13.8679C64.3623 14.3326 64.1545 14.646 64.0617 14.9377C63.9133 15.4043 64.0595 15.8174 64.3468 16.7111V16.7111ZM64.6209 17.2813C64.863 16.3433 64.9572 15.8776 65.2189 15.3681C65.3832 15.0483 65.6135 14.711 65.9874 14.2289C66.0598 13.9763 65.7201 13.8247 65.5611 13.9981C65.208 14.4533 64.9599 14.8012 64.7985 15.1419C64.5274 15.7135 64.4987 16.2676 64.6209 17.2813V17.2813ZM66.7064 19.703C67.1674 19.7792 67.6451 19.9866 68.0363 20.2879C68.5822 20.708 68.9605 21.3101 68.8929 21.9913C68.4088 22.1099 67.9862 21.9431 67.6357 21.6366C67.1823 21.2401 66.8492 20.6099 66.6583 20.0605C66.7737 20.2473 66.9034 20.4424 67.0066 20.5847C67.2262 20.8876 67.4827 21.0939 67.6793 20.8797C67.8466 20.6977 67.7601 20.4972 67.5737 20.3123C67.3777 20.118 66.9957 19.8717 66.7064 19.703V19.703ZM67.6219 19.5516C68.2072 19.6098 68.3807 19.7683 68.7854 19.5014C69.0308 19.4078 69.2112 19.7324 69.0524 19.9056C68.8146 20.1251 68.6074 20.1747 68.4146 20.1283C68.1365 20.0617 67.8882 19.7955 67.6219 19.5516V19.5516ZM67.0224 19.1621C67.6698 19.134 68.0963 19.0763 68.4858 18.9064C68.8297 18.7565 69.145 18.5192 69.5587 18.1378C69.8041 18.044 69.985 18.3688 69.826 18.542C69.3935 18.9407 69.0989 19.175 68.8159 19.2924C68.3631 19.4802 67.9387 19.3702 67.0224 19.1621ZM66.43 18.9382C67.3445 18.6165 67.8012 18.4823 68.2864 18.178C68.5917 17.9869 68.908 17.7288 69.3567 17.3148C69.6021 17.2212 69.7828 17.546 69.624 17.7191C69.2001 18.11 68.8747 18.3866 68.5486 18.5771C68.0017 18.8957 67.4515 18.9721 66.43 18.9382Z" fill="url(#paint29_linear)"/>
<path fill-rule="evenodd" clip-rule="evenodd" d="M72.7013 28.2638C72.9656 28.1645 73.4478 28.1319 73.7421 27.9754C74.157 27.7546 74.2146 27.3977 74.5656 27.2708C75.3472 26.9877 76.3088 27.5406 76.2256 28.3835C75.852 28.1832 75.5898 28.2925 75.2777 28.3557C74.8553 28.4414 74.2789 28.7233 73.7547 28.7812C73.347 28.8262 72.9706 28.7352 72.7223 28.3106C73.1575 28.5176 73.4555 28.5518 73.7607 28.4885C73.8892 28.4615 74.2629 28.269 74.6412 28.162C74.9464 28.0761 75.2154 27.9895 75.3746 28.0378C75.2286 27.9344 75.0494 27.913 74.8632 27.9354C74.5764 27.9695 74.2731 28.1057 74.0482 28.2016C73.6976 28.3511 73.4161 28.4564 72.7013 28.2638V28.2638ZM72.5423 27.9655C72.7722 27.8017 73.068 27.4203 73.3622 27.2637C73.7773 27.0428 74.1055 27.1936 74.4068 26.9736C75.0779 26.4831 75.1542 25.3776 74.4072 24.9765C74.3655 25.3982 74.1286 25.5545 73.902 25.7781C73.5951 26.0807 73.0395 26.4014 72.6993 26.8037C72.4348 27.1169 72.3003 27.4796 72.5148 27.922C72.5853 27.4461 72.7231 27.1798 72.946 26.9621C73.0399 26.8705 73.4083 26.6679 73.7082 26.4137C73.95 26.2089 74.1716 26.034 74.2203 25.8746C74.2248 26.0537 74.1423 26.2141 74.0201 26.3564C73.8322 26.5751 73.5498 26.7507 73.3448 26.8836C73.025 27.0906 72.7805 27.2655 72.5423 27.9655V27.9655ZM71.6795 26.4111C71.7207 25.9462 71.6391 25.4325 71.4445 24.9788C71.1737 24.3459 70.6845 23.8301 70.0069 23.7249C69.7713 24.1635 69.8276 24.6141 70.0371 25.0293C70.3082 25.5669 70.8357 26.0467 71.3209 26.3683C71.1686 26.2099 71.0117 26.0361 70.8995 25.9004C70.6607 25.6122 70.525 25.3131 70.782 25.1765C71.0001 25.0602 71.1728 25.1937 71.3053 25.4206C71.4447 25.6583 71.5884 26.0892 71.6795 26.4111V26.4111ZM72.0547 25.5633C72.145 24.9831 72.0342 24.7757 72.3938 24.4511C72.546 24.237 72.2765 23.9814 72.0688 24.0919C71.7966 24.2667 71.6972 24.4549 71.6936 24.6528C71.689 24.9383 71.8847 25.245 72.0547 25.5633ZM72.2829 26.2406C72.4719 25.6213 72.634 25.2236 72.8963 24.8893C73.1271 24.5941 73.4363 24.3486 73.9092 24.0435C74.0617 23.8296 73.7916 23.574 73.5842 23.6844C73.0892 24.0029 72.789 24.2291 72.6044 24.4734C72.3092 24.8645 72.3098 25.3027 72.2829 26.2406V26.2406ZM72.352 26.8697C72.8924 26.0655 73.1365 25.6574 73.5524 25.2638C73.8141 25.0166 74.1432 24.7751 74.6564 24.4446C74.8086 24.2305 74.5389 23.9747 74.3312 24.0855C73.8466 24.3972 73.4973 24.6431 73.2314 24.9109C72.7856 25.3598 72.5738 25.8727 72.352 26.8697V26.8697ZM73.5126 29.8456C73.9221 30.0706 74.3036 30.4248 74.5723 30.8391C74.9472 31.4162 75.1038 32.1096 74.8131 32.7299C74.3171 32.6809 73.9741 32.3833 73.7455 31.9779C73.45 31.4533 73.3451 30.7485 73.3482 30.167C73.395 30.3813 73.4524 30.6087 73.5021 30.777C73.6086 31.1357 73.7817 31.4151 74.0385 31.2785C74.2566 31.1624 74.2419 30.9444 74.1276 30.7082C74.0076 30.46 73.7294 30.1006 73.5126 29.8456V29.8456ZM74.4264 30.0068C74.9591 30.256 75.0699 30.4632 75.5403 30.346C75.803 30.3391 75.8649 30.7051 75.6577 30.8157C75.3605 30.9437 75.1484 30.9216 74.9821 30.8141C74.7419 30.6587 74.5963 30.3254 74.4264 30.0068V30.0068ZM73.9906 29.4405C74.6108 29.6289 75.032 29.7161 75.4559 29.6852C75.83 29.6579 76.2066 29.5389 76.7236 29.3166C76.9863 29.3097 77.0484 29.6759 76.8411 29.7864C76.3001 30.0189 75.9448 30.142 75.6387 30.1585C75.1492 30.1856 74.7853 29.9412 73.9906 29.4405ZM73.5063 29.0327C74.4763 29.0329 74.9512 29.0577 75.5102 28.9322C75.8615 28.8531 76.2457 28.7147 76.8068 28.4735C77.0696 28.4667 77.1316 28.8329 76.9242 28.9435C76.3946 29.1713 75.9957 29.3242 75.6248 29.3955C75.0028 29.5145 74.4585 29.4039 73.5063 29.0327V29.0327Z" fill="url(#paint30_linear)"/>
<path fill-rule="evenodd" clip-rule="evenodd" d="M75.9147 39.9333C76.1971 39.945 76.6539 40.1028 76.9858 40.0732C77.4541 40.0314 77.6464 39.7253 78.0192 39.745C78.8495 39.7887 79.5192 40.6724 79.1131 41.416C78.8477 41.086 78.5634 41.0848 78.2515 41.0213C77.8289 40.9357 77.1883 40.971 76.6828 40.8201C76.2901 40.7028 75.9788 40.4725 75.9161 39.9848C76.2359 40.3447 76.4967 40.4922 76.8028 40.5528C76.9317 40.578 77.3509 40.5463 77.741 40.5951C78.0556 40.6347 78.3371 40.6601 78.4648 40.7662C78.3707 40.6143 78.2139 40.5249 78.0337 40.4729C77.7566 40.3926 77.424 40.3999 77.1795 40.4006C76.7983 40.4019 76.4979 40.3891 75.9147 39.9333V39.9333ZM75.8849 39.597C76.1607 39.5354 76.5817 39.2994 76.9139 39.2697C77.3824 39.2279 77.6258 39.4949 77.9888 39.4095C78.7984 39.2193 79.3004 38.231 78.7689 37.5708C78.5663 37.9426 78.2869 37.9943 77.9908 38.1122C77.5901 38.2713 76.9535 38.35 76.4832 38.5881C76.1173 38.7735 75.8517 39.055 75.877 39.5462C76.1275 39.1354 76.3579 38.9436 76.6485 38.8302C76.7709 38.7822 77.189 38.7393 77.5644 38.6218C77.867 38.5274 78.1394 38.4525 78.2462 38.3248C78.1803 38.4915 78.042 38.6073 77.8739 38.6904C77.6155 38.8187 77.287 38.8704 77.0463 38.9132C76.6709 38.9791 76.3775 39.0451 75.8849 39.597ZM75.6973 37.8295C75.9167 37.4175 76.0419 36.9126 76.0399 36.4191C76.0376 35.7309 75.7887 35.0652 75.206 34.7049C74.8177 35.017 74.6935 35.4536 74.7242 35.9175C74.764 36.5179 75.0626 37.1653 75.3838 37.6505C75.3054 37.4453 75.2288 37.2241 75.1785 37.0554C75.0711 36.6973 75.0628 36.3688 75.3527 36.343C75.599 36.3211 75.7058 36.5113 75.7394 36.7715C75.7749 37.045 75.7392 37.4976 75.6973 37.8295V37.8295ZM76.3737 37.1949C76.6832 36.6957 76.6624 36.4616 77.1204 36.3028C77.3438 36.165 77.1953 35.8246 76.9612 35.8454C76.6424 35.9006 76.4771 36.0352 76.3967 36.2161C76.2808 36.4772 76.3416 36.8357 76.3737 37.1949V37.1949ZM76.3195 37.9075C76.7349 37.4108 77.04 37.1077 77.4117 36.9021C77.7396 36.7201 78.1202 36.6145 78.6747 36.5177C78.8985 36.3799 78.7497 36.0393 78.5155 36.0603C77.9355 36.161 77.5705 36.2524 77.3054 36.4055C76.881 36.6505 76.7102 37.0543 76.3195 37.9075ZM76.1376 38.5137C76.9491 37.9835 77.3329 37.7028 77.8699 37.5026C78.207 37.3769 78.6046 37.2825 79.2062 37.178C79.4299 37.04 79.2816 36.6996 79.0471 36.7206C78.4789 36.8192 78.0612 36.9094 77.7119 37.0527C77.126 37.2924 76.731 37.6822 76.1376 38.5137V38.5137ZM76.0446 41.7058C76.3337 42.0725 76.5467 42.5473 76.6323 43.0332C76.7523 43.7107 76.6258 44.41 76.1159 44.868C75.6785 44.63 75.4788 44.2224 75.4266 43.7599C75.3591 43.1619 75.538 42.4722 75.7679 41.9379C75.727 42.1534 75.6911 42.3851 75.6713 42.5595C75.6295 42.9312 75.6796 43.256 75.9694 43.2302C76.2158 43.2081 76.287 43.0017 76.2741 42.7398C76.2603 42.4645 76.1444 42.025 76.0446 41.7058ZM76.823 42.2101C77.2161 42.647 77.2373 42.8808 77.7164 42.9563C77.9608 43.0522 77.8749 43.4135 77.641 43.4345C77.3173 43.4365 77.1307 43.3338 77.0196 43.1699C76.859 42.9334 76.8552 42.5697 76.823 42.2101ZM76.6428 41.5189C77.1402 41.9339 77.4939 42.1782 77.8964 42.3148C78.2517 42.4355 78.6448 42.4724 79.2077 42.4692C79.4525 42.5652 79.3667 42.9266 79.1325 42.9476C78.5436 42.9512 78.1685 42.926 77.8799 42.8221C77.4189 42.6563 77.1791 42.2896 76.6428 41.5189V41.5189ZM76.3561 40.9549C77.2491 41.3328 77.6769 41.5409 78.2406 41.6427C78.5949 41.7067 79.0026 41.7289 79.6135 41.7252C79.858 41.8213 79.7725 42.1827 79.5382 42.2037C78.9614 42.2073 78.5345 42.1926 78.165 42.1139C77.5461 41.9813 77.0878 41.6676 76.3561 40.9549Z" fill="url(#paint31_linear)"/>
<path fill-rule="evenodd" clip-rule="evenodd" d="M74.7087 52.0415C74.9695 52.1503 75.3424 52.4572 75.6641 52.5448C76.1178 52.6685 76.4044 52.4483 76.7471 52.5962C77.5102 52.926 77.83 53.9872 77.1904 54.5434C77.0564 54.1416 76.7906 54.0417 76.5198 53.8736C76.1535 53.6467 75.5407 53.4567 75.1196 53.1398C74.7923 52.8932 74.5808 52.5692 74.692 52.0902C74.8663 52.5387 75.0596 52.7679 75.3251 52.9308C75.437 52.9993 75.8414 53.1152 76.1897 53.2968C76.471 53.4431 76.7263 53.5648 76.8089 53.709C76.7737 53.5336 76.6576 53.3952 76.5069 53.2837C76.275 53.1122 75.9608 53.0034 75.7313 52.9192C75.3738 52.7877 75.0966 52.6717 74.7087 52.0415V52.0415ZM74.7978 51.7157C75.0778 51.754 75.555 51.6789 75.8764 51.7667C76.3301 51.8902 76.4654 52.2252 76.8356 52.2714C77.6606 52.3745 78.4758 51.6225 78.2075 50.8188C77.8879 51.0969 77.6081 51.0485 77.2895 51.0557C76.8584 51.0656 76.2339 50.9185 75.7101 50.9781C75.3027 51.0247 74.9556 51.1964 74.8079 51.6655C75.1863 51.3674 75.4691 51.2679 75.7808 51.2623C75.9121 51.2599 76.3192 51.365 76.712 51.3856C77.0287 51.4022 77.3099 51.4265 77.4546 51.3442C77.335 51.4774 77.1647 51.538 76.9782 51.5575C76.6915 51.5878 76.3653 51.522 76.1248 51.4782C75.7499 51.41 75.4517 51.3699 74.7978 51.7157V51.7157ZM75.2378 49.9938C75.5871 49.6837 75.8806 49.2541 76.0505 48.7909C76.2879 48.1448 76.2869 47.4341 75.8661 46.8936C75.3933 47.0512 75.1249 47.4176 74.9919 47.8631C74.82 48.44 74.8744 49.1504 75.0065 49.717C75.0043 49.4974 75.0095 49.2632 75.0212 49.0879C75.0455 48.7146 75.1521 48.4038 75.4328 48.4803C75.6713 48.5453 75.7053 48.7608 75.646 49.0166C75.5841 49.285 75.3926 49.6971 75.2378 49.9938V49.9938ZM76.093 49.634C76.5572 49.2734 76.6192 49.0469 77.1039 49.0572C77.3616 49.0058 77.341 48.6351 77.114 48.5731C76.796 48.514 76.5941 48.5826 76.4557 48.7244C76.2562 48.9289 76.1879 49.2861 76.093 49.634V49.634ZM75.7937 50.2832C76.3566 49.9622 76.7479 49.7837 77.1681 49.7202C77.5388 49.6637 77.9326 49.6968 78.4861 49.7989C78.7438 49.7475 78.7233 49.3768 78.4962 49.3148C77.9174 49.2075 77.5434 49.1666 77.2414 49.2178C76.7584 49.2999 76.4574 49.6189 75.7937 50.2832V50.2832ZM75.4122 50.7877C76.3576 50.573 76.8154 50.4436 77.3885 50.4425C77.7483 50.4417 78.1537 50.4916 78.7544 50.6028C79.0119 50.5513 78.9916 50.1803 78.7644 50.1185C78.1976 50.0134 77.7744 49.9527 77.3972 49.9658C76.7642 49.9867 76.2582 50.2149 75.4122 50.7877V50.7877ZM74.2125 53.7483C74.3558 54.1926 74.3902 54.7116 74.3012 55.1969C74.1774 55.8736 73.815 56.4854 73.1778 56.7374C72.8505 56.3623 72.8054 55.9106 72.9176 55.4589C73.0626 54.875 73.4707 54.2905 73.8721 53.8696C73.759 54.0575 73.6445 54.262 73.5652 54.4188C73.3964 54.7526 73.3303 55.0743 73.6111 55.151C73.8495 55.216 73.9883 55.0476 74.0673 54.7972C74.1508 54.5344 74.195 54.0823 74.2125 53.7483V53.7483ZM74.7665 54.4918C74.9831 55.0377 74.9214 55.2643 75.344 55.5016C75.5398 55.6765 75.3336 55.9854 75.1067 55.9237C74.8026 55.8131 74.6635 55.6518 74.6166 55.4598C74.5483 55.1819 74.6714 54.8397 74.7665 54.4918V54.4918ZM74.8386 53.781C75.1602 54.343 75.4069 54.695 75.7364 54.963C76.0275 55.1994 76.383 55.3708 76.9117 55.5634C77.1079 55.7384 76.9015 56.0473 76.6746 55.9855C76.1216 55.7842 75.7784 55.6305 75.5443 55.4327C75.1697 55.1169 75.0728 54.6898 74.8386 53.781V53.781ZM74.7665 53.1525C75.4718 53.8171 75.8002 54.1607 76.2931 54.4523C76.6032 54.6355 76.9778 54.7981 77.5513 55.0069C77.7473 55.1819 77.5411 55.491 77.3142 55.4293C76.7723 55.2324 76.3771 55.07 76.0584 54.8676C75.5243 54.5284 75.204 54.0752 74.7665 53.1525V53.1525Z" fill="url(#paint32_linear)"/>
<path fill-rule="evenodd" clip-rule="evenodd" d="M69.223 62.8455C69.4222 63.0455 69.6495 63.4712 69.913 63.6752C70.285 63.9625 70.6342 63.8689 70.8941 64.1363C71.473 64.7323 71.3624 65.835 70.5584 66.1047C70.5883 65.6824 70.381 65.4883 70.1954 65.2299C69.9437 64.8802 69.4501 64.4708 69.1822 64.017C68.9744 63.6641 68.903 63.2841 69.1889 62.8839C69.1784 63.3649 69.2693 63.6504 69.4523 63.9024C69.5295 64.0086 69.8584 64.2699 70.1113 64.5707C70.315 64.8135 70.5041 65.0229 70.5253 65.1879C70.5598 65.0126 70.5057 64.8405 70.4091 64.6796C70.2606 64.4329 70.0119 64.2122 69.8319 64.0469C69.5517 63.7886 69.3404 63.5756 69.223 62.8455V62.8455ZM69.4299 62.5782C69.6741 62.7206 70.1438 62.8337 70.4072 63.0373C70.7792 63.3248 70.7762 63.6859 71.1004 63.87C71.8233 64.2801 72.8643 63.8966 72.9241 63.0518C72.5221 63.1866 72.2822 63.0348 71.985 62.9202C71.583 62.7647 71.0624 62.3902 70.5556 62.2451C70.1612 62.1323 69.7748 62.1587 69.4588 62.5354C69.9225 62.4049 70.2218 62.4211 70.512 62.5349C70.6344 62.5829 70.9703 62.8353 71.3253 63.004C71.6113 63.1404 71.862 63.2707 72.0273 63.2495C71.8657 63.3271 71.6855 63.3179 71.5055 63.2649C71.2289 63.1833 70.9526 62.9979 70.7473 62.8658C70.4271 62.6595 70.1671 62.5082 69.4299 62.5782V62.5782ZM70.496 61.1551C70.9373 61.0019 71.3729 60.7173 71.7075 60.3541C72.1741 59.848 72.4451 59.1909 72.2635 58.5307C71.7661 58.4956 71.3778 58.7317 71.0845 59.0929C70.7049 59.56 70.4831 60.2373 70.3881 60.8111C70.4702 60.6076 70.5646 60.3931 70.6426 60.2357C70.8079 59.8998 71.0253 59.6536 71.2553 59.8313C71.4509 59.9824 71.3998 60.1945 71.2471 60.4084C71.0871 60.6327 70.7525 60.9403 70.496 61.1551V61.1551ZM71.4238 61.1496C71.9907 60.9935 72.1348 60.8078 72.5786 61.0024C72.8365 61.0532 72.9594 60.703 72.7733 60.5589C72.5022 60.3832 72.2895 60.3692 72.1073 60.4473C71.8446 60.5601 71.6449 60.8644 71.4238 61.1496ZM70.899 61.635C71.5419 61.5532 71.9717 61.5379 72.3843 61.6396C72.7485 61.7292 73.0996 61.9097 73.5717 62.2157C73.8298 62.2664 73.9527 61.916 73.7665 61.7721C73.2729 61.452 72.9433 61.2715 72.6445 61.2036C72.1664 61.0948 71.7664 61.2747 70.899 61.635V61.635ZM70.353 61.9556C71.3089 62.1182 71.7815 62.173 72.3116 62.391C72.6443 62.5278 72.9998 62.7285 73.512 63.0606C73.7697 63.1115 73.8929 62.7611 73.7067 62.6174C73.2232 62.3038 72.8555 62.0859 72.502 61.954C71.9091 61.7316 71.3542 61.7493 70.353 61.9556V61.9556ZM68.1111 64.2328C68.0736 64.698 67.9067 65.1906 67.6386 65.6052C67.2653 66.1832 66.6962 66.6102 66.0109 66.5997C65.8521 66.128 65.9834 65.6935 66.2598 65.3189C66.6176 64.8346 67.2182 64.4507 67.7503 64.215C67.5738 64.3453 67.3897 64.4906 67.2565 64.6052C66.9728 64.8492 66.7885 65.1214 67.0186 65.2993C67.214 65.4505 67.4069 65.3478 67.5756 65.1465C67.7531 64.9357 67.9673 64.5348 68.1111 64.2328V64.2328ZM68.3386 65.1314C68.3295 65.7186 68.1857 65.9045 68.4856 66.285C68.5996 66.5212 68.2907 66.7281 68.1046 66.5843C67.8661 66.366 67.7992 66.1639 67.8295 65.9683C67.8727 65.6859 68.1174 65.4168 68.3386 65.1314ZM68.6772 64.5021C68.7594 65.1442 68.8524 65.5636 69.0541 65.9371C69.2325 66.2668 69.4958 66.5608 69.9105 66.9407C70.0246 67.1772 69.7156 67.384 69.5297 67.2403C69.0958 66.843 68.8375 66.5698 68.6968 66.2977C68.4717 65.8631 68.5459 65.4313 68.6772 64.5021V64.5021ZM68.8511 63.894C69.2483 64.7773 69.4204 65.2204 69.7642 65.6778C69.9804 65.9658 70.2642 66.2589 70.7146 66.6709C70.8285 66.9074 70.5196 67.114 70.3333 66.9706C69.9085 66.5816 69.6054 66.2807 69.3883 65.972C69.0245 65.4544 68.9025 64.9135 68.8511 63.894Z" fill="url(#paint33_linear)"/>
<path fill-rule="evenodd" clip-rule="evenodd" d="M60.1481 71.0039C60.2697 71.2587 60.3428 71.7358 60.5239 72.0152C60.7794 72.4094 61.14 72.4365 61.2966 72.7749C61.6451 73.5289 61.175 74.5324 60.3269 74.521C60.4954 74.1324 60.364 73.8807 60.2746 73.5755C60.1531 73.1623 59.8233 72.6128 59.721 72.0961C59.6417 71.6944 59.7004 71.3118 60.1032 71.0291C59.9335 71.4795 59.9247 71.7789 60.0137 72.0771C60.0513 72.2029 60.2752 72.5583 60.4137 72.9256C60.5255 73.222 60.6346 73.4825 60.5998 73.6451C60.6905 73.4909 60.6965 73.3108 60.6588 73.1272C60.6004 72.8449 60.4388 72.5547 60.3243 72.3391C60.1454 72.0029 60.0166 71.7317 60.1481 71.0039V71.0039ZM60.432 70.8205C60.6149 71.0356 61.0206 71.2975 61.2017 71.577C61.4574 71.971 61.3345 72.3108 61.5796 72.5918C62.1255 73.2181 63.2349 73.2004 63.5718 72.423C63.1477 72.4175 62.9717 72.1948 62.7293 71.9884C62.4017 71.7085 62.0344 71.1829 61.6042 70.8784C61.2697 70.6418 60.8964 70.5384 60.4733 70.7898C60.9539 70.8197 61.2311 70.9339 61.4673 71.1375C61.5667 71.223 61.8 71.5725 62.0788 71.8493C62.3037 72.0725 62.497 72.2783 62.6598 72.313C62.4816 72.3328 62.3145 72.2644 62.1625 72.1548C61.9287 71.9864 61.7295 71.7202 61.5794 71.5275C61.3456 71.2268 61.1503 70.9983 60.432 70.8205V70.8205ZM61.9097 69.8304C62.377 69.832 62.8825 69.7073 63.3184 69.4753C63.9267 69.152 64.4002 68.6218 64.4475 67.9388C63.9901 67.7413 63.5452 67.8355 63.1489 68.0791C62.6357 68.3942 62.2016 68.96 61.922 69.4701C62.0669 69.3052 62.2273 69.1341 62.3531 69.0113C62.6203 68.7491 62.9071 68.5885 63.065 68.8324C63.1996 69.0399 63.081 69.2231 62.8661 69.3742C62.6408 69.533 62.223 69.7126 61.9097 69.8304V69.8304ZM62.787 70.1321C63.3735 70.1726 63.5711 70.0449 63.9253 70.3754C64.1517 70.5086 64.3838 70.2186 64.2562 70.0215C64.0588 69.7655 63.8627 69.6823 63.6647 69.6956C63.3794 69.715 63.0901 69.9361 62.787 70.1321V70.1321ZM62.1307 70.4163C62.7644 70.5518 63.175 70.6799 63.5305 70.9121C63.8445 71.1171 64.1157 71.4039 64.46 71.8486C64.6865 71.9821 64.9186 71.6919 64.791 71.4946C64.4312 71.0293 64.18 70.7497 63.9206 70.5869C63.5057 70.3262 63.0687 70.3635 62.1307 70.4163ZM61.5093 70.5384C62.3572 71.008 62.7849 71.2162 63.2125 71.5969C63.4812 71.8362 63.7501 72.1434 64.1234 72.6261C64.3497 72.7593 64.5823 72.4694 64.4542 72.2721C64.102 71.8163 63.8271 71.4894 63.5373 71.2476C63.0517 70.8419 62.5223 70.6748 61.5093 70.5384V70.5384ZM58.639 71.9454C58.4491 72.3719 58.1281 72.7815 57.7378 73.084C57.1937 73.5057 56.5154 73.7201 55.8721 73.4837C55.8788 72.9861 56.1466 72.6195 56.5317 72.3576C57.0297 72.019 57.724 71.8554 58.3042 71.8092C58.0946 71.8738 57.8726 71.95 57.7089 72.0138C57.3602 72.1502 57.0961 72.3459 57.2542 72.59C57.3885 72.7972 57.6045 72.7641 57.8305 72.6302C58.0679 72.49 58.4029 72.1825 58.639 71.9454V71.9454ZM58.5554 72.8683C58.3521 73.4193 58.1547 73.547 58.3115 74.0053C58.3406 74.2661 57.9806 74.3589 57.8527 74.1618C57.7002 73.8771 57.7041 73.664 57.7972 73.4898C57.9317 73.2375 58.2521 73.0644 58.5554 72.8683V72.8683ZM59.0836 72.3865C58.9481 73.0196 58.8968 73.4461 58.9635 73.8653C59.0224 74.2353 59.1729 74.5998 59.4386 75.0956C59.4675 75.3565 59.1076 75.4493 58.9798 75.2522C58.702 74.7339 58.5491 74.3906 58.5066 74.0874C58.4384 73.6027 58.6513 73.2199 59.0836 72.3865V72.3865ZM59.4493 71.8703C59.5313 72.8352 59.5467 73.3102 59.7192 73.8558C59.8279 74.1985 59.9984 74.5692 60.2865 75.1069C60.3155 75.3678 59.9556 75.4606 59.8276 75.2637C59.5555 74.7561 59.3693 74.3718 59.2668 74.0087C59.0956 73.4002 59.1596 72.8491 59.4493 71.8703V71.8703Z" fill="url(#paint34_linear)"/>
<path fill-rule="evenodd" clip-rule="evenodd" d="M48.81 75.292C48.8238 75.5736 48.707 76.0418 48.766 76.3694C48.8492 76.8317 49.1714 76.996 49.1849 77.3682C49.2152 78.1981 48.3937 78.9428 47.6157 78.6052C47.9213 78.3117 47.8975 78.0288 47.9328 77.7128C47.9805 77.2847 47.8886 76.6505 47.9938 76.1346C48.076 75.7335 48.2781 75.4034 48.7589 75.2976C48.4284 75.6477 48.3045 75.9205 48.2712 76.23C48.2575 76.3606 48.3266 76.7748 48.3124 77.167C48.3011 77.4836 48.3009 77.7659 48.206 77.9025C48.3492 77.7954 48.4245 77.6314 48.4606 77.4473C48.5159 77.1647 48.4791 76.8345 48.4565 76.5914C48.4215 76.2123 48.4074 75.9124 48.81 75.292V75.292ZM49.1427 75.2318C49.2284 75.5008 49.5016 75.8989 49.5605 76.2264C49.6441 76.6886 49.3995 76.9548 49.5169 77.3085C49.7785 78.0966 50.8086 78.508 51.4197 77.9209C51.0308 77.7522 50.9545 77.479 50.8108 77.1949C50.6164 76.8107 50.4811 76.1843 50.2019 75.7375C49.9847 75.3901 49.6801 75.151 49.1928 75.2196C49.6246 75.4324 49.8363 75.6449 49.9752 75.9235C50.0341 76.0409 50.1143 76.4531 50.2643 76.8159C50.3858 77.1086 50.4845 77.3731 50.6211 77.4677C50.4492 77.4174 50.3215 77.2897 50.2236 77.1299C50.0728 76.8845 49.9921 76.5621 49.9282 76.3264C49.8286 75.9593 49.7369 75.6729 49.1427 75.2318V75.2318ZM50.8886 74.8884C51.3191 75.07 51.8336 75.1499 52.3254 75.1037C53.0114 75.0402 53.6533 74.7337 53.9609 74.122C53.6151 73.7632 53.1684 73.6788 52.7086 73.7505C52.1134 73.8437 51.4945 74.1982 51.0393 74.5608C51.2366 74.4645 51.4508 74.3685 51.6142 74.3037C51.9621 74.1649 52.2888 74.1274 52.3403 74.4133C52.3842 74.6564 52.2037 74.7797 51.9474 74.8364C51.6779 74.8959 51.2231 74.9004 50.8886 74.8884V74.8884ZM51.5813 75.5048C52.107 75.7684 52.3383 75.7268 52.5375 76.1681C52.6947 76.3783 53.0211 76.2006 52.9795 75.9692C52.896 75.657 52.7474 75.5046 52.5597 75.4407C52.289 75.3487 51.9367 75.4409 51.5813 75.5048ZM50.866 75.5141C51.3983 75.8834 51.7276 76.1596 51.9659 76.5111C52.1762 76.8214 52.3159 77.1905 52.4614 77.7332C52.6187 77.9436 52.9452 77.7657 52.9034 77.5343C52.7514 76.9663 52.6278 76.6118 52.4515 76.3614C52.1694 75.9611 51.7518 75.8269 50.866 75.5141V75.5141ZM50.2458 75.387C50.8464 76.1471 51.1605 76.504 51.4078 77.0204C51.5632 77.3446 51.6924 77.7316 51.8502 78.3207C52.0076 78.531 52.3338 78.353 52.2922 78.1218C52.1434 77.5656 52.0163 77.158 51.8423 76.8234C51.5514 76.2617 51.1273 75.9036 50.2458 75.387V75.387ZM47.0538 75.5783C46.7141 75.8987 46.2599 76.1527 45.7827 76.2813C45.1179 76.4607 44.4092 76.3969 43.9072 75.9308C44.1056 75.4744 44.4946 75.2395 44.951 75.1463C45.5412 75.0261 46.2447 75.1429 46.7981 75.3236C46.5795 75.3025 46.3454 75.2872 46.1696 75.2831C45.7953 75.2745 45.4759 75.3531 45.5276 75.6392C45.5712 75.8821 45.7833 75.935 46.0435 75.8985C46.3167 75.8608 46.7446 75.7062 47.0538 75.5783V75.5783ZM46.6203 76.3977C46.2199 76.8277 45.9884 76.8693 45.9561 77.3525C45.882 77.6043 45.5141 77.5513 45.4723 77.32C45.4413 76.9984 45.5274 76.8035 45.6807 76.6786C45.9025 76.4976 46.2648 76.4614 46.6203 76.3977ZM47.2936 76.157C46.9241 76.6886 46.7118 77.0621 46.6115 77.4747C46.5227 77.8388 46.5209 78.233 46.574 78.7927C46.5001 79.0445 46.132 78.9914 46.0904 78.7602C46.0347 78.1751 46.0261 77.7996 46.104 77.5032C46.2286 77.0301 46.5729 76.7589 47.2936 76.157V76.157ZM47.8307 75.8217C47.533 76.7433 47.3638 77.1874 47.3124 77.757C47.2801 78.1153 47.2941 78.5231 47.3519 79.1301C47.2778 79.3821 46.9101 79.3288 46.8681 79.0977C46.8134 78.5245 46.79 78.0985 46.8358 77.7241C46.9128 77.0964 47.185 76.613 47.8307 75.8217V75.8217Z" fill="url(#paint35_linear)"/>
<path fill-rule="evenodd" clip-rule="evenodd" d="M36.6283 75.2157C36.5426 75.4847 36.2695 75.8828 36.2103 76.2104C36.1271 76.6725 36.3718 76.9386 36.2543 77.2923C35.9928 78.0804 34.9627 78.4919 34.3515 77.9045C34.7402 77.736 34.8166 77.4626 34.9606 77.1788C35.1547 76.7945 35.2899 76.1681 35.5693 75.7213C35.7863 75.3739 36.0911 75.1348 36.5784 75.2034C36.1464 75.4164 35.935 75.6288 35.7958 75.9073C35.7372 76.0248 35.657 76.4368 35.5069 76.7998C35.3855 77.0922 35.2867 77.3566 35.1503 77.4516C35.322 77.4013 35.4497 77.2738 35.5475 77.1139C35.6982 76.8682 35.7792 76.5461 35.8428 76.3105C35.9424 75.9428 36.0341 75.6569 36.6283 75.2157V75.2157ZM36.961 75.2757C36.9475 75.5577 37.0643 76.0258 37.0051 76.3535C36.9216 76.8155 36.5999 76.9795 36.5861 77.3518C36.5558 78.1818 37.3776 78.9265 38.1554 78.5891C37.8497 78.2955 37.8737 78.0126 37.8382 77.6966C37.7907 77.2685 37.8825 76.6343 37.7772 76.1186C37.6948 75.7173 37.4929 75.387 37.0123 75.2815C37.3428 75.6315 37.4669 75.9041 37.4996 76.2138C37.5137 76.3444 37.4446 76.7587 37.459 77.1509C37.4701 77.4674 37.4703 77.7497 37.5652 77.8863C37.422 77.779 37.3468 77.6151 37.3107 77.4312C37.2551 77.1485 37.2921 76.8184 37.3145 76.575C37.3497 76.1961 37.3638 75.8962 36.961 75.2757V75.2757ZM38.7171 75.5621C39.057 75.8824 39.5115 76.1364 39.9885 76.2649C40.6533 76.4445 41.3621 76.3807 41.8642 75.9147C41.6652 75.458 41.2765 75.2232 40.8202 75.1304C40.2301 75.0099 39.5263 75.1263 38.9732 75.3075C39.1916 75.2861 39.4254 75.271 39.6015 75.2669C39.976 75.2583 40.2954 75.3372 40.2436 75.6231C40.1996 75.866 39.9877 75.9186 39.7275 75.8824C39.4543 75.8442 39.0265 75.6901 38.7171 75.5621V75.5621ZM39.1511 76.3816C39.5516 76.8113 39.7829 76.8531 39.8152 77.3361C39.8893 77.588 40.2574 77.5348 40.2988 77.3038C40.3299 76.982 40.2436 76.7875 40.0903 76.6622C39.8689 76.4816 39.5063 76.4452 39.1511 76.3816V76.3816ZM38.4774 76.1408C38.8472 76.6723 39.0594 77.046 39.1598 77.4584C39.2487 77.8224 39.2503 78.2168 39.197 78.7765C39.2709 79.0283 39.639 78.9753 39.6806 78.7441C39.7368 78.1589 39.745 77.7832 39.6673 77.4873C39.5428 77.0137 39.198 76.7425 38.4774 76.1408V76.1408ZM37.9404 75.8055C38.2378 76.7272 38.4073 77.1711 38.4588 77.7411C38.4913 78.0992 38.4772 78.507 38.4192 79.1139C38.4931 79.366 38.8612 79.3128 38.9028 79.0814C38.9578 78.5084 38.9812 78.082 38.9352 77.7077C38.8582 77.0802 38.5861 76.5968 37.9404 75.8055ZM34.8825 74.8723C34.4521 75.054 33.9376 75.1338 33.4456 75.088C32.7596 75.0244 32.1178 74.7176 31.8105 74.1057C32.156 73.7472 32.6024 73.6626 33.0626 73.7345C33.6576 73.8275 34.2766 74.182 34.7317 74.5446C34.5344 74.4484 34.3202 74.3525 34.157 74.2874C33.8091 74.1485 33.4822 74.1114 33.4305 74.3973C33.3869 74.6405 33.5673 74.7635 33.8237 74.8202C34.0931 74.8798 34.5478 74.8842 34.8825 74.8723V74.8723ZM34.1899 75.4887C33.6642 75.7524 33.4327 75.7107 33.2335 76.1521C33.0763 76.3626 32.7501 76.1842 32.7915 75.9532C32.8751 75.641 33.0237 75.4885 33.2113 75.4247C33.482 75.3325 33.8341 75.425 34.1899 75.4887V75.4887ZM34.9051 75.498C34.3727 75.8674 34.0434 76.1436 33.8051 76.4949C33.5949 76.8053 33.4553 77.1743 33.3099 77.717C33.1525 77.9277 32.8263 77.7495 32.8677 77.5183C33.0198 76.9505 33.1434 76.5956 33.3198 76.3452C33.6016 75.9449 34.0192 75.8109 34.9051 75.498ZM35.5253 75.3711C34.9247 76.131 34.6107 76.4882 34.3635 77.0042C34.2079 77.3285 34.0786 77.7154 33.9208 78.3046C33.7634 78.5148 33.4372 78.3369 33.479 78.1056C33.6277 77.5493 33.7548 77.1418 33.9285 76.8069C34.2198 76.2459 34.6438 75.8874 35.5253 75.3711V75.3711Z" fill="url(#paint36_linear)"/>
<path fill-rule="evenodd" clip-rule="evenodd" d="M25.3524 70.7716C25.1695 70.9866 24.7637 71.2485 24.5825 71.528C24.327 71.9221 24.4497 72.2618 24.2047 72.5429C23.6589 73.169 22.5493 73.1513 22.2128 72.374C22.6366 72.3684 22.8127 72.1456 23.0552 71.9391C23.3829 71.6595 23.7497 71.1337 24.1802 70.8293C24.5148 70.5927 24.8881 70.4899 25.3111 70.7409C24.8304 70.7709 24.5534 70.8851 24.3173 71.0883C24.2177 71.1743 23.9845 71.5233 23.7057 71.8004C23.4807 72.0233 23.2874 72.2291 23.1247 72.2641C23.3025 72.284 23.4695 72.2154 23.6219 72.1058C23.8558 71.9373 24.055 71.6714 24.2047 71.4785C24.4388 71.1777 24.634 70.9495 25.3524 70.7716V70.7716ZM25.6364 70.9549C25.5148 71.2102 25.4414 71.6868 25.2605 71.9664C25.0049 72.3605 24.6441 72.3875 24.4878 72.7259C24.1391 73.4795 24.6093 74.4833 25.4572 74.4722C25.2889 74.0834 25.4202 73.8318 25.5098 73.5265C25.6311 73.1133 25.9611 72.5639 26.0632 72.0472C26.1425 71.6454 26.0839 71.2631 25.6813 70.9802C25.8507 71.4305 25.8599 71.73 25.7705 72.0282C25.7328 72.154 25.5092 72.5096 25.3705 72.877C25.2587 73.1732 25.1498 73.4337 25.1845 73.5963C25.0938 73.442 25.0877 73.2618 25.1257 73.0782C25.1837 72.7961 25.3455 72.5057 25.4602 72.2901C25.639 71.9541 25.768 71.6827 25.6364 70.9549ZM27.1455 71.8964C27.3354 72.3229 27.6562 72.7326 28.0465 73.0352C28.5905 73.4571 29.269 73.6716 29.9124 73.4353C29.9053 72.9373 29.6374 72.5707 29.2525 72.309C28.7544 71.9705 28.0602 71.8066 27.48 71.7602C27.6898 71.825 27.9116 71.9011 28.0754 71.9652C28.4243 72.1018 28.6883 72.2976 28.5302 72.5412C28.3956 72.7485 28.1799 72.7154 27.9538 72.5816C27.7164 72.441 27.3815 72.1337 27.1455 71.8964V71.8964ZM27.2291 72.8195C27.4324 73.3705 27.6295 73.4983 27.4728 73.9562C27.4437 74.2172 27.8037 74.3104 27.9315 74.113C28.0843 73.8281 28.0801 73.6155 27.987 73.4407C27.8524 73.1887 27.5322 73.0154 27.2291 72.8195ZM26.7006 72.3379C26.8365 72.9708 26.8878 73.3972 26.8209 73.8164C26.7619 74.1865 26.6111 74.5511 26.3457 75.0467C26.3164 75.3078 26.6766 75.4005 26.8043 75.2032C27.0825 74.685 27.235 74.3419 27.2778 74.0386C27.3461 73.5542 27.133 73.171 26.7006 72.3379V72.3379ZM26.335 71.8214C26.2529 72.7864 26.2378 73.2612 26.0649 73.8069C25.9564 74.1498 25.7857 74.5206 25.4976 75.058C25.4687 75.3188 25.8285 75.4118 25.9562 75.2145C26.2285 74.707 26.415 74.3229 26.5172 73.9599C26.6888 73.3513 26.6247 72.8003 26.335 71.8214V71.8214ZM23.8748 69.7815C23.4078 69.7831 22.9023 69.6584 22.4661 69.4263C21.8578 69.1031 21.3843 68.5726 21.3374 67.8897C21.7946 67.6922 22.2392 67.7863 22.636 68.0301C23.1489 68.3455 23.5826 68.911 23.8625 69.4209C23.7176 69.256 23.5573 69.0852 23.4315 68.9622C23.1645 68.7002 22.8775 68.5396 22.7192 68.7835C22.5849 68.9909 22.7036 69.1739 22.9182 69.3252C23.1437 69.4838 23.5614 69.6634 23.8748 69.7815V69.7815ZM22.9976 70.0831C22.4108 70.1237 22.2136 69.9957 21.8591 70.3262C21.6328 70.4596 21.4006 70.1692 21.5283 69.9724C21.7259 69.7165 21.9219 69.6331 22.1197 69.6467C22.4053 69.6661 22.6941 69.8867 22.9976 70.0831V70.0831ZM23.6536 70.3674C23.02 70.5028 22.6094 70.6307 22.2538 70.8627C21.9399 71.0681 21.6685 71.3545 21.3245 71.7993C21.098 71.9327 20.8657 71.6425 20.9934 71.4455C21.3532 70.9804 21.6043 70.7005 21.8641 70.5375C22.2787 70.2769 22.7156 70.3145 23.6536 70.3674V70.3674ZM24.275 70.4895C23.4272 70.9587 22.9997 71.1672 22.5719 71.5479C22.3031 71.787 22.0342 72.0942 21.6608 72.5768C21.4345 72.7102 21.2025 72.42 21.3301 72.2229C21.6825 71.7671 21.9572 71.4402 22.2469 71.1983C22.7327 70.7929 23.2623 70.6259 24.275 70.4895V70.4895Z" fill="url(#paint37_linear)"/>
<path fill-rule="evenodd" clip-rule="evenodd" d="M16.3754 62.5067C16.1311 62.6492 15.6615 62.762 15.3978 62.9658C15.0259 63.2531 15.0291 63.6145 14.7048 63.7985C13.9821 64.2089 12.9411 63.8251 12.8815 62.9803C13.283 63.1153 13.5233 62.9632 13.8204 62.8487C14.2222 62.6932 14.7429 62.3185 15.2498 62.1737C15.6439 62.0608 16.0306 62.0873 16.3465 62.4644C15.8829 62.3334 15.5834 62.3496 15.2934 62.4634C15.1707 62.5114 14.8349 62.7638 14.4803 62.9327C14.1939 63.0689 13.943 63.1991 13.7782 63.1783C13.9394 63.2557 14.1198 63.2466 14.2996 63.1934C14.5764 63.1118 14.8525 62.9267 15.0578 62.7945C15.3783 62.5881 15.6382 62.437 16.3754 62.5067V62.5067ZM16.5823 62.7741C16.3829 62.9743 16.1558 63.4 15.8919 63.6038C15.5202 63.8911 15.1712 63.7975 14.9113 64.0648C14.3321 64.6606 14.443 65.7634 15.2471 66.0333C15.2168 65.611 15.4243 65.4169 15.61 65.1585C15.8616 64.8088 16.3552 64.3994 16.6228 63.9456C16.8308 63.5929 16.9024 63.2124 16.6162 62.8127C16.6269 63.2934 16.5362 63.5789 16.3529 63.8309C16.2758 63.9373 15.9467 64.1986 15.694 64.4994C15.4901 64.742 15.3013 64.9518 15.28 65.1167C15.2455 64.9411 15.2997 64.769 15.3964 64.6084C15.5445 64.3614 15.7934 64.1409 15.9734 63.9754C16.2535 63.7174 16.4649 63.5041 16.5823 62.7741V62.7741ZM17.694 64.1614C17.7315 64.6265 17.8986 65.1194 18.1667 65.5339C18.5403 66.112 19.1092 66.5387 19.7944 66.5284C19.953 66.0565 19.8218 65.6218 19.5455 65.2478C19.1878 64.7636 18.5871 64.3792 18.0547 64.1435C18.2313 64.2738 18.4154 64.4193 18.5487 64.534C18.8326 64.7781 19.0168 65.0501 18.7865 65.2278C18.5911 65.3789 18.3982 65.2762 18.2295 65.0753C18.0522 64.8642 17.8381 64.4634 17.694 64.1614V64.1614ZM17.4669 65.0601C17.4756 65.6473 17.6194 65.8331 17.3196 66.2135C17.2057 66.4497 17.5146 66.6567 17.7005 66.5129C17.9395 66.2948 18.0057 66.0926 17.9758 65.8969C17.9323 65.6146 17.6879 65.3453 17.4669 65.0601V65.0601ZM17.128 64.4308C17.0463 65.0728 16.9532 65.4924 16.751 65.8656C16.5728 66.1953 16.3095 66.4893 15.8948 66.8694C15.7805 67.1059 16.0897 67.3125 16.2756 67.1686C16.7095 66.7718 16.9677 66.4984 17.1083 66.2266C17.3333 65.7917 17.2594 65.3598 17.128 64.4308V64.4308ZM16.9539 63.8225C16.5568 64.7059 16.3849 65.149 16.0408 65.6066C15.8249 65.8943 15.5409 66.1876 15.0908 66.5995C14.9768 66.8361 15.2857 67.0428 15.4716 66.8989C15.897 66.5103 16.1998 66.2093 16.417 65.9005C16.7806 65.3832 16.9031 64.8421 16.9539 63.8225V63.8225ZM15.3092 61.0838C14.8677 60.9309 14.4322 60.6461 14.0976 60.2826C13.6309 59.7766 13.36 59.1196 13.5421 58.4594C14.039 58.4243 14.4275 58.6602 14.7208 59.0214C15.1003 59.4886 15.3223 60.166 15.417 60.7397C15.335 60.5362 15.2403 60.3215 15.1626 60.164C14.9976 59.8284 14.7798 59.5821 14.5497 59.7598C14.3542 59.9112 14.4055 60.1233 14.558 60.3369C14.718 60.5613 15.0528 60.8687 15.3092 61.0838V61.0838ZM14.3814 61.0782C13.8144 60.9225 13.6706 60.7366 13.2267 60.9311C12.9687 60.9822 12.8459 60.6315 13.0316 60.4877C13.3031 60.3119 13.5156 60.298 13.6978 60.3758C13.9608 60.4889 14.1602 60.7929 14.3814 61.0782V61.0782ZM14.9063 61.5636C14.2635 61.4817 13.8336 61.4666 13.421 61.5681C13.0568 61.6579 12.7057 61.8383 12.2335 62.1442C11.9756 62.195 11.8527 61.8448 12.0386 61.7009C12.5323 61.3809 12.862 61.2001 13.1611 61.1321C13.6388 61.0236 14.0386 61.2031 14.9063 61.5636ZM15.4519 61.8843C14.4964 62.0468 14.0239 62.102 13.494 62.3198C13.1613 62.4565 12.8056 62.6573 12.2933 62.9892C12.0354 63.0398 11.9123 62.6896 12.0984 62.5459C12.582 62.2321 12.9497 62.0147 13.3033 61.8823C13.896 61.6605 14.4512 61.6779 15.4519 61.8843Z" fill="url(#paint38_linear)"/>
<path fill-rule="evenodd" clip-rule="evenodd" d="M11.038 51.6287C10.758 51.6671 10.2809 51.592 9.95906 51.6794C9.50555 51.8031 9.37013 52.1381 8.99987 52.1844C8.17496 52.2876 7.36004 51.5355 7.62813 50.7319C7.94773 51.01 8.2279 50.9613 8.54608 50.969C8.97725 50.9786 9.60164 50.8313 10.1258 50.8908C10.533 50.9375 10.8801 51.1096 11.0277 51.5783C10.6493 51.2805 10.3665 51.181 10.0548 51.1754C9.92333 51.1729 9.51639 51.2779 9.12389 51.2986C8.80714 51.3148 8.52574 51.3396 8.38129 51.2575C8.50065 51.3905 8.67057 51.451 8.85722 51.4706C9.14414 51.5008 9.4702 51.435 9.71055 51.3913C10.0859 51.3231 10.3837 51.2828 11.038 51.6287V51.6287ZM11.1271 51.9546C10.8661 52.0636 10.4932 52.37 10.1716 52.4578C9.71805 52.5813 9.43114 52.3614 9.08873 52.5093C8.3255 52.8387 8.0059 53.9001 8.64529 54.4565C8.7792 54.0546 9.0453 53.9546 9.31558 53.7867C9.68204 53.5595 10.2948 53.3698 10.7158 53.0529C11.0433 52.8063 11.255 52.482 11.1437 52.0035C10.9694 52.4518 10.7762 52.6808 10.5104 52.8436C10.3984 52.9126 9.99423 53.0284 9.64592 53.2101C9.36471 53.3561 9.10935 53.4775 9.02696 53.622C9.06212 53.4467 9.17806 53.3085 9.32879 53.1969C9.5603 53.0252 9.87477 52.9165 10.1043 52.8321C10.4621 52.7009 10.7392 52.5846 11.1271 51.9546V51.9546ZM11.6231 53.6614C11.4798 54.1055 11.4455 54.6246 11.5346 55.1101C11.6582 55.7868 12.0207 56.3982 12.6576 56.6506C12.9849 56.2751 13.0301 55.8235 12.9178 55.372C12.773 54.7881 12.3649 54.2036 11.9633 53.7826C12.0766 53.9705 12.191 54.1751 12.2703 54.3319C12.4393 54.6658 12.5053 54.9876 12.2245 55.0639C11.9859 55.1288 11.8471 54.9603 11.7682 54.71C11.6851 54.4473 11.6406 53.9953 11.6231 53.6614ZM11.0692 54.4049C10.8526 54.9509 10.9144 55.1775 10.4915 55.4141C10.2961 55.5895 10.5021 55.8986 10.7289 55.8366C11.0332 55.7263 11.1718 55.5649 11.2192 55.3728C11.2871 55.0951 11.1641 54.7528 11.0692 54.4049ZM10.9969 53.694C10.6756 54.256 10.4289 54.6081 10.0994 54.8759C9.80834 55.1123 9.45262 55.2838 8.92394 55.4763C8.72769 55.6513 8.93439 55.9604 9.16105 55.8984C9.71416 55.6975 10.0572 55.5433 10.2914 55.3458C10.6659 55.03 10.7629 54.6029 10.9969 53.694ZM11.0692 53.0656C10.3639 53.7302 10.0356 54.0738 9.54252 54.3654C9.23261 54.5488 8.85779 54.7114 8.28454 54.92C8.08858 55.0951 8.29461 55.4039 8.52165 55.3421C9.06326 55.1452 9.45861 54.9829 9.77726 54.7806C10.3114 54.4414 10.6315 53.988 11.0692 53.0656V53.0656ZM10.5976 49.9068C10.2484 49.5969 9.95498 49.1671 9.78486 48.7037C9.54737 48.0578 9.54851 47.3472 9.96952 46.8068C10.4423 46.9642 10.711 47.3305 10.8437 47.7763C11.0154 48.353 10.961 49.0635 10.8291 49.6298C10.8314 49.4105 10.8257 49.1761 10.8146 49.0011C10.7903 48.6276 10.6835 48.3169 10.4029 48.3934C10.1643 48.4583 10.1303 48.674 10.1893 48.9295C10.2516 49.198 10.4431 49.6102 10.5976 49.9068V49.9068ZM9.74267 49.5473C9.27823 49.1865 9.21646 48.9599 8.73178 48.9702C8.47404 48.9187 8.49476 48.5479 8.72151 48.4862C9.03969 48.4273 9.24126 48.4957 9.37963 48.6373C9.57949 48.8419 9.64735 49.199 9.74267 49.5473ZM10.0418 50.1961C9.47904 49.8749 9.08778 49.6968 8.66753 49.633C8.2968 49.577 7.90307 49.6098 7.34977 49.7122C7.09194 49.6605 7.11256 49.2896 7.33941 49.2279C7.91827 49.1207 8.29195 49.0796 8.59435 49.1309C9.07723 49.213 9.37783 49.5317 10.0418 50.1961V50.1961ZM10.4233 50.7008C9.47799 50.4859 9.02002 50.3566 8.44734 50.3554C8.08734 50.3548 7.68183 50.4044 7.08149 50.5155C6.82366 50.4639 6.84428 50.0933 7.07113 50.0316C7.6382 49.9264 8.06102 49.8656 8.43859 49.8784C9.07115 49.9 9.5774 50.1282 10.4233 50.7008V50.7008Z" fill="url(#paint39_linear)"/>
<path fill-rule="evenodd" clip-rule="evenodd" d="M9.98271 39.5066C9.70673 39.4455 9.28572 39.2089 8.95376 39.1791C8.48533 39.1374 8.24166 39.4044 7.87844 39.3191C7.06912 39.1288 6.56714 38.1406 7.09858 37.4804C7.30129 37.8523 7.58088 37.9041 7.87682 38.0218C8.2774 38.1808 8.91413 38.2598 9.38446 38.4977C9.75016 38.683 10.0156 38.9648 9.99079 39.4557C9.7398 39.0449 9.50934 38.8535 9.21901 38.7398C9.09679 38.6918 8.67863 38.6488 8.30325 38.5316C8.00084 38.437 7.72828 38.3622 7.62146 38.2348C7.68694 38.4011 7.8255 38.5169 7.99353 38.6002C8.25193 38.7284 8.58046 38.7802 8.82128 38.8226C9.19658 38.889 9.48976 38.9547 9.98271 39.5066V39.5066ZM9.95277 39.8429C9.67014 39.8546 9.21359 40.0124 8.88163 39.9828C8.41339 39.941 8.22104 39.6349 7.84831 39.6547C7.01818 39.698 6.34856 40.582 6.75417 41.3258C7.01979 40.9957 7.30404 40.9944 7.61624 40.9311C8.03867 40.8455 8.6794 40.8804 9.1847 40.7297C9.57757 40.6125 9.88872 40.382 9.95135 39.8946C9.63155 40.2543 9.37078 40.4018 9.06486 40.4621C8.9358 40.4877 8.5166 40.4561 8.12648 40.5049C7.81191 40.5445 7.53032 40.5697 7.40288 40.6761C7.49678 40.5239 7.65377 40.4347 7.83396 40.3825C8.1107 40.3022 8.44371 40.3094 8.68795 40.3104C9.06913 40.3114 9.36954 40.2988 9.95277 39.8429V39.8429ZM9.82305 41.6155C9.53395 41.9823 9.32088 42.4568 9.23516 42.9427C9.11523 43.6202 9.24162 44.3198 9.75139 44.7778C10.1889 44.5395 10.3885 44.1317 10.4407 43.6695C10.5084 43.0717 10.3295 42.3818 10.0996 41.8475C10.1405 42.0628 10.1766 42.2946 10.196 42.4692C10.2378 42.841 10.1879 43.1657 9.89822 43.1397C9.6518 43.1176 9.58043 42.9113 9.59335 42.6493C9.60732 42.3741 9.72307 41.9347 9.82305 41.6155V41.6155ZM9.04452 42.1199C8.65136 42.5568 8.63036 42.7905 8.15157 42.8656C7.90666 42.9619 7.99239 43.3232 8.22674 43.344C8.55034 43.3463 8.73661 43.2434 8.84789 43.0795C9.00831 42.843 9.01259 42.479 9.04452 42.1199V42.1199ZM9.22471 41.4285C8.72729 41.8435 8.37376 42.0881 7.97138 42.2246C7.61595 42.3451 7.22288 42.3822 6.65999 42.3788C6.41537 42.4748 6.50081 42.8362 6.73535 42.857C7.3241 42.861 7.69901 42.8355 7.98754 42.7319C8.44855 42.566 8.68852 42.1992 9.22471 41.4285V41.4285ZM9.51133 40.8645C8.61867 41.2422 8.19072 41.4504 7.62688 41.5523C7.27278 41.6165 6.8647 41.6387 6.25419 41.6348C6.00976 41.7309 6.09538 42.0922 6.32955 42.113C6.90613 42.1171 7.33312 42.1024 7.70224 42.0232C8.32168 41.8909 8.77966 41.5771 9.51133 40.8645ZM10.1701 37.739C9.95078 37.3271 9.82552 36.8224 9.82733 36.3286C9.8297 35.6407 10.0788 34.9748 10.6615 34.6146C11.05 34.9264 11.1738 35.3632 11.1433 35.8273C11.1035 36.4277 10.8047 37.0748 10.4836 37.5601C10.562 37.3551 10.6386 37.1335 10.6889 36.9653C10.7964 36.6071 10.8047 36.2786 10.5146 36.2526C10.2685 36.2304 10.1617 36.4209 10.1281 36.6812C10.0926 36.9546 10.1283 37.4074 10.1701 37.739ZM9.49375 37.1047C9.18403 36.6053 9.20513 36.3715 8.74716 36.2127C8.52344 36.0748 8.67217 35.7343 8.90634 35.7551C9.22509 35.8103 9.39036 35.9447 9.47057 36.1257C9.5867 36.387 9.52588 36.7453 9.49375 37.1047V37.1047ZM9.54792 37.8171C9.13233 37.3206 8.82756 37.0174 8.45597 36.8115C8.12791 36.6301 7.74748 36.5238 7.19295 36.4276C6.96933 36.2895 7.11777 35.9492 7.35194 35.9699C7.93194 36.0708 8.29678 36.1621 8.56222 36.3154C8.98655 36.5601 9.15723 36.9636 9.54792 37.8171V37.8171ZM9.72973 38.4233C8.9186 37.893 8.53456 37.6126 7.9978 37.4124C7.66062 37.2865 7.26289 37.1921 6.66141 37.0875C6.4378 36.9497 6.58634 36.6093 6.8206 36.6303C7.38853 36.7288 7.80631 36.819 8.15556 36.9622C8.74145 37.2022 9.13642 37.592 9.72973 38.4233V38.4233Z" fill="url(#paint40_linear)"/>
<path fill-rule="evenodd" clip-rule="evenodd" d="M13.3596 27.8849C13.1294 27.7211 12.8338 27.3396 12.5397 27.1828C12.1246 26.9619 11.796 27.1128 11.4948 26.893C10.8237 26.4026 10.7473 25.2969 11.4947 24.896C11.5358 25.3174 11.7732 25.474 11.9997 25.6976C12.3067 26.0001 12.8621 26.3207 13.2025 26.7231C13.4667 27.0362 13.6013 27.3991 13.3865 27.8412C13.316 27.3654 13.1785 27.0995 12.9556 26.8816C12.8615 26.7898 12.4932 26.5872 12.1934 26.3331C11.9518 26.1282 11.7302 25.9533 11.6815 25.7943C11.6768 25.973 11.7592 26.1336 11.8814 26.2759C12.0693 26.4944 12.3516 26.6701 12.5569 26.8027C12.8767 27.0103 13.1211 27.185 13.3596 27.8849V27.8849ZM13.2006 28.1832C12.9359 28.0837 12.4536 28.0514 12.1594 27.8949C11.7447 27.6739 11.6871 27.3172 11.3362 27.1903C10.5548 26.907 9.59299 27.4601 9.67606 28.303C10.0495 28.1025 10.3117 28.212 10.6239 28.2752C11.0464 28.3609 11.6229 28.6427 12.147 28.7006C12.5544 28.7455 12.9312 28.6547 13.1791 28.2301C12.7441 28.4368 12.4463 28.4713 12.1411 28.4075C12.0122 28.381 11.6384 28.1885 11.2603 28.0815C10.955 27.9955 10.6859 27.9089 10.5271 27.9574C10.673 27.8539 10.8524 27.8327 11.0389 27.8549C11.3249 27.8888 11.6286 28.0252 11.8534 28.1211C12.2041 28.2706 12.4855 28.3758 13.2006 28.1832V28.1832ZM12.3889 29.7651C11.9794 29.99 11.5981 30.3442 11.3296 30.7584C10.9546 31.3357 10.798 32.0289 11.0882 32.6491C11.5843 32.6002 11.9275 32.3023 12.156 31.8972C12.4516 31.3728 12.5562 30.6678 12.5532 30.0863C12.5068 30.3006 12.4494 30.5282 12.3993 30.6965C12.2928 31.0552 12.1199 31.3346 11.8631 31.1978C11.6449 31.0817 11.6596 30.8639 11.774 30.6277C11.8942 30.3795 12.1724 30.0201 12.3889 29.7651V29.7651ZM11.4752 29.9265C10.9425 30.1755 10.8318 30.3825 10.3615 30.2653C10.0987 30.2584 10.0364 30.6246 10.2439 30.7352C10.5413 30.8634 10.753 30.841 10.9195 30.7334C11.1597 30.5782 11.3053 30.2447 11.4752 29.9265ZM11.911 29.3598C11.2912 29.5484 10.8698 29.6358 10.4459 29.6048C10.0718 29.5772 9.69525 29.4584 9.17826 29.236C8.91539 29.2292 8.85295 29.5953 9.06089 29.7057C9.60145 29.9386 9.95679 30.0615 10.2629 30.0782C10.7521 30.1051 11.1164 29.8607 11.911 29.3598V29.3598ZM12.3952 28.9522C11.4258 28.9524 10.9504 28.9773 10.3914 28.8515C10.04 28.7728 9.65562 28.6341 9.09501 28.393C8.83214 28.3862 8.76999 28.7522 8.97764 28.8628C9.50718 29.0908 9.90614 29.2437 10.2771 29.3145C10.8989 29.434 11.4431 29.3232 12.3952 28.9522V28.9522ZM14.2221 26.3304C14.1809 25.8655 14.2623 25.352 14.457 24.8982C14.7278 24.2654 15.217 23.7493 15.8944 23.6444C16.1304 24.0828 16.074 24.5334 15.8645 24.949C15.5936 25.4862 15.0657 25.9657 14.5806 26.2876C14.733 26.1296 14.89 25.9553 15.0021 25.8199C15.2409 25.5317 15.3767 25.2326 15.1197 25.0957C14.9017 24.9795 14.729 25.1132 14.5962 25.3398C14.4568 25.5776 14.3132 26.0087 14.2221 26.3304V26.3304ZM13.8468 25.4829C13.7566 24.9024 13.8673 24.6952 13.5075 24.3705C13.3554 24.1565 13.6252 23.9007 13.8328 24.0112C14.1049 24.1861 14.2045 24.3744 14.2079 24.5721C14.2126 24.858 14.0166 25.1645 13.8468 25.4829ZM13.6187 26.1601C13.4298 25.5408 13.2675 25.1429 13.0057 24.8086C12.7742 24.5136 12.4655 24.2678 11.9926 23.9631C11.8403 23.7491 12.11 23.4933 12.3177 23.6039C12.8122 23.9224 13.1126 24.1486 13.2973 24.3931C13.5922 24.7838 13.592 25.222 13.6187 26.1601ZM13.5496 26.7889C13.0095 25.9847 12.7653 25.5767 12.3491 25.1835C12.0878 24.9361 11.7585 24.6946 11.2453 24.3641C11.0932 24.15 11.3629 23.8944 11.5704 24.0047C12.055 24.3169 12.4045 24.5624 12.6703 24.8306C13.1159 25.2793 13.3275 25.7924 13.5496 26.7889V26.7889Z" fill="url(#paint41_linear)"/>
<path fill-rule="evenodd" clip-rule="evenodd" d="M20.7606 18.1898C20.598 17.9584 20.446 17.5005 20.2208 17.2551C19.903 16.9088 19.543 16.9423 19.3319 16.6349C18.8621 15.9497 19.1581 14.8813 19.9961 14.7512C19.8951 15.1625 20.0668 15.3887 20.206 15.675C20.3949 16.0621 20.8121 16.5489 20.9989 17.0416C21.1446 17.4244 21.1502 17.8114 20.8006 18.1572C20.8925 17.6849 20.8512 17.3883 20.7137 17.109C20.6553 16.9912 20.3753 16.6778 20.1773 16.3387C20.0175 16.0653 19.8666 15.8264 19.8737 15.6605C19.8098 15.8276 19.8339 16.0064 19.9021 16.1809C20.0066 16.4494 20.2145 16.7089 20.3636 16.9024C20.5961 17.204 20.7687 17.4501 20.7606 18.1898V18.1898ZM20.5113 18.4181C20.2947 18.2361 19.8506 18.0457 19.6256 17.8003C19.3079 17.4542 19.3721 17.099 19.0834 16.8624C18.4406 16.3358 17.3495 16.5385 17.147 17.361C17.5662 17.2961 17.7773 17.4861 18.0506 17.6494C18.4205 17.8707 18.8704 18.3278 19.3452 18.5563C19.7151 18.7339 20.1004 18.7734 20.4757 18.4551C19.9965 18.5056 19.7042 18.4393 19.4375 18.2781C19.3246 18.2101 19.0365 17.9044 18.7151 17.6781C18.4561 17.4954 18.2308 17.3248 18.0648 17.3175C18.2371 17.2684 18.4133 17.308 18.5818 17.3907C18.8406 17.5176 19.0814 17.7473 19.2614 17.9121C19.5424 18.1695 19.7731 18.3622 20.5113 18.4181V18.4181ZM19.2196 19.6407C18.7584 19.7169 18.2807 19.9241 17.8895 20.2257C17.344 20.6459 16.9656 21.2479 17.0331 21.9291C17.5171 22.0476 17.9399 21.8805 18.2904 21.5742C18.7435 21.178 19.0769 20.5478 19.2677 19.9982C19.1523 20.1848 19.0226 20.3804 18.9194 20.5226C18.6995 20.8254 18.4434 21.0314 18.2468 20.8172C18.0795 20.6354 18.166 20.4347 18.3525 20.2502C18.5482 20.0559 18.9303 19.8091 19.2196 19.6407V19.6407ZM18.304 19.4896C17.7185 19.5475 17.5451 19.7061 17.1408 19.4394C16.8953 19.3457 16.7144 19.6705 16.8737 19.8436C17.1112 20.0632 17.3185 20.1122 17.5112 20.066C17.7894 19.9994 18.0379 19.7332 18.304 19.4896V19.4896ZM18.9036 19.0997C18.2561 19.0718 17.8297 19.0143 17.4401 18.8442C17.0963 18.6943 16.7808 18.4572 16.367 18.076C16.1215 17.9819 15.941 18.3068 16.1001 18.4801C16.5325 18.879 16.8268 19.1128 17.1099 19.2302C17.5625 19.4179 17.9874 19.3084 18.9036 19.0997ZM19.4959 18.8757C18.5813 18.5541 18.1248 18.4199 17.6395 18.1159C17.3343 17.9247 17.0177 17.6666 16.5692 17.2529C16.3238 17.1595 16.143 17.4839 16.3022 17.6571C16.7256 18.048 17.0512 18.3245 17.3773 18.5146C17.9241 18.8336 18.4743 18.91 19.4959 18.8757ZM22.0915 17.0096C22.2072 16.5572 22.4551 16.1 22.7899 15.7364C23.2557 15.2297 23.8889 14.9053 24.5628 15.0312C24.6393 15.5229 24.4364 15.9293 24.1003 16.2517C23.666 16.6686 23.0086 16.9458 22.444 17.0882C22.6402 16.9896 22.8464 16.8772 22.9971 16.787C23.3182 16.5943 23.5458 16.3573 23.3491 16.1428C23.182 15.961 22.9745 16.0298 22.7741 16.1994C22.5634 16.3774 22.2844 16.7364 22.0915 17.0096ZM22.0195 16.0854C22.1277 15.5081 22.301 15.3494 22.0701 14.9236C21.9976 14.6713 22.3371 14.5197 22.4961 14.6926C22.6943 14.948 22.7258 15.1587 22.6632 15.3464C22.5727 15.6176 22.2858 15.8415 22.0195 16.0854ZM21.5791 16.6486C21.6068 16.0017 21.5862 15.5726 21.4504 15.1704C21.3304 14.8155 21.121 14.4809 20.7764 14.0366C20.704 13.7841 21.0434 13.6326 21.2026 13.8054C21.5631 14.2703 21.7711 14.5831 21.8637 14.8752C22.0121 15.3418 21.8662 15.7547 21.5791 16.6486V16.6486ZM21.3046 17.2186C21.0628 16.281 20.968 15.8151 20.7066 15.306C20.5422 14.986 20.3121 14.6489 19.9383 14.1666C19.866 13.914 20.2052 13.7627 20.3644 13.9358C20.7175 14.3908 20.9656 14.7386 21.127 15.0796C21.3979 15.6511 21.4268 16.2051 21.3046 17.2186V17.2186Z" fill="url(#paint42_linear)"/>
<path fill-rule="evenodd" clip-rule="evenodd" d="M31.1109 11.8643C31.0483 11.5888 31.0818 11.1074 30.9665 10.7948C30.8039 10.3542 30.458 10.2487 30.3796 9.88428C30.2052 9.07217 30.8846 8.19588 31.7097 8.39293C31.46 8.73521 31.533 9.00961 31.5527 9.32721C31.5807 9.7569 31.7819 10.3657 31.7677 10.8923C31.7568 11.3015 31.6152 11.6621 31.1602 11.8495C31.4246 11.4472 31.4992 11.1572 31.478 10.8465C31.4687 10.7154 31.3287 10.3195 31.274 9.93051C31.2303 9.61671 31.1814 9.33888 31.2509 9.18797C31.1283 9.3181 31.0829 9.49284 31.0797 9.6803C31.0741 9.96819 31.1679 10.2872 31.2326 10.5227C31.3331 10.8901 31.3993 11.183 31.1109 11.8643V11.8643ZM30.7936 11.9813C30.6623 11.7309 30.3238 11.3863 30.2085 11.0739C30.0459 10.6335 30.2406 10.3288 30.0633 10.0008C29.6683 9.26988 28.5816 9.04388 28.082 9.72852C28.4946 9.82676 28.6176 10.0828 28.8085 10.3376C29.0669 10.6824 29.3095 11.2757 29.662 11.6673C29.9366 11.9716 30.2784 12.1543 30.7463 12.0018C30.2838 11.8673 30.0386 11.6951 29.8531 11.4447C29.7743 11.339 29.6239 10.947 29.4125 10.6159C29.2422 10.3487 29.0988 10.1054 28.9477 10.0358C29.1259 10.0555 29.2738 10.1591 29.3982 10.2993C29.5895 10.5148 29.7253 10.8185 29.8291 11.0396C29.9913 11.3842 30.1313 11.6498 30.7936 11.9813V11.9813ZM29.134 12.6228C28.6782 12.519 28.1574 12.5296 27.6808 12.6604C27.0164 12.8422 26.4378 13.2559 26.2412 13.912C26.6443 14.2049 27.0988 14.2108 27.5394 14.0599C28.1095 13.8649 28.6572 13.4082 29.0425 12.972C28.8649 13.101 28.6705 13.2326 28.521 13.3251C28.2025 13.5222 27.8873 13.6158 27.7867 13.3432C27.7012 13.1114 27.8574 12.9587 28.1 12.8582C28.3552 12.7528 28.8022 12.6693 29.134 12.6228ZM28.3441 12.136C27.7804 11.9679 27.5598 12.0493 27.2869 11.6489C27.095 11.4694 26.8047 11.7014 26.8858 11.9217C27.0224 12.2149 27.1956 12.3389 27.3913 12.3694C27.6742 12.4131 28.0053 12.2609 28.3441 12.136V12.136ZM29.0471 12.0027C28.4584 11.7317 28.0857 11.5168 27.7897 11.2119C27.5288 10.9427 27.3269 10.6038 27.0889 10.0943C26.8974 9.91428 26.6067 10.1465 26.6883 10.3671C26.937 10.9 27.1202 11.228 27.3378 11.444C27.6853 11.789 28.1201 11.8485 29.0471 12.0027V12.0027ZM29.6801 12.0198C28.956 11.3759 28.5845 11.0787 28.2509 10.6132C28.041 10.3209 27.8463 9.96211 27.5883 9.4095C27.3966 9.22973 27.1065 9.46171 27.1879 9.6823C27.4313 10.2042 27.6275 10.5836 27.857 10.883C28.2418 11.3852 28.7218 11.6645 29.6801 12.0198ZM32.7908 11.2764C33.0697 10.902 33.4725 10.5727 33.9205 10.3632C34.5439 10.0709 35.2531 10.0103 35.829 10.3824C35.7127 10.8665 35.3705 11.1655 34.9374 11.3366C34.3772 11.5576 33.6635 11.565 33.0869 11.4827C33.3059 11.4659 33.5395 11.4401 33.713 11.4137C34.0834 11.3572 34.384 11.224 34.2835 10.9511C34.1981 10.7196 33.98 10.7045 33.7301 10.7855C33.4677 10.8705 33.0731 11.0969 32.7908 11.2764V11.2764ZM33.0752 10.3944C33.3946 9.90099 33.6154 9.81993 33.563 9.3385C33.5917 9.07739 33.9639 9.0659 34.045 9.28601C34.1315 9.59753 34.0807 9.80436 33.9513 9.95424C33.7645 10.1707 33.4142 10.2695 33.0752 10.3944V10.3944ZM32.4538 10.7482C32.7251 10.1607 32.8691 9.75557 32.8962 9.33205C32.92 8.95817 32.8532 8.56929 32.7029 8.02741C32.7321 7.76629 33.1039 7.75461 33.1851 7.97511C33.3423 8.54167 33.4158 8.91014 33.3907 9.21559C33.3509 9.70327 33.0589 10.0302 32.4538 10.7482ZM31.9831 11.1719C32.1155 10.2125 32.2051 9.7458 32.1562 9.17544C32.1259 8.81731 32.041 8.41799 31.878 7.83026C31.9073 7.56914 32.2788 7.55747 32.3601 7.77777C32.5139 8.33304 32.6113 8.7485 32.6313 9.12541C32.6648 9.75652 32.4812 10.2806 31.9831 11.1719Z" fill="url(#paint43_linear)"/>
<path fill-rule="evenodd" clip-rule="evenodd" d="M43.099 9.68285C43.1355 9.40284 43.3337 8.96252 43.3337 8.62964C43.3337 8.1599 43.0456 7.94139 43.0983 7.57235C43.2159 6.75018 44.1571 6.16254 44.863 6.63248C44.51 6.8674 44.4833 7.15007 44.3923 7.45494C44.2694 7.86774 44.2472 8.50834 44.0519 8.99764C43.8997 9.37798 43.6422 9.66738 43.1503 9.68608C43.5377 9.4 43.7082 9.15359 43.7957 8.8546C43.8324 8.72855 43.8383 8.30863 43.9218 7.92488C43.9893 7.61535 44.0395 7.33753 44.1571 7.21983C43.9969 7.29994 43.8938 7.44811 43.8258 7.62276C43.721 7.89118 43.6985 8.22283 43.6777 8.4662C43.6447 8.84549 43.6054 9.14334 43.099 9.68285V9.68285ZM42.7605 9.68285C42.724 9.40284 42.5258 8.96252 42.5258 8.62964C42.5258 8.1599 42.8139 7.94139 42.7611 7.57235C42.6436 6.75018 41.7023 6.16254 40.9965 6.63248C41.3495 6.8674 41.3761 7.15007 41.4672 7.45494C41.5901 7.86774 41.6122 8.50834 41.8076 8.99764C41.9598 9.37798 42.2173 9.66738 42.7092 9.68608C42.3218 9.4 42.1513 9.15359 42.0637 8.8546C42.0268 8.72855 42.0212 8.30863 41.9377 7.92488C41.8702 7.61535 41.82 7.33753 41.7023 7.21983C41.8625 7.29994 41.9656 7.44811 42.0337 7.62276C42.1385 7.89118 42.1608 8.22283 42.1818 8.4662C42.2147 8.84549 42.2541 9.14334 42.7605 9.68285V9.68285ZM40.9809 9.71171C40.5895 9.45666 40.0971 9.28705 39.6046 9.245C38.9182 9.18615 38.2318 9.37437 37.8203 9.92214C38.0969 10.3365 38.5216 10.4989 38.9873 10.5095C39.5896 10.5234 40.2618 10.284 40.7743 10.0078C40.5629 10.0675 40.335 10.1239 40.1627 10.1591C39.7957 10.2339 39.4674 10.213 39.4674 9.92214C39.4674 9.67516 39.6668 9.58585 39.9294 9.5755C40.2052 9.56468 40.6537 9.64071 40.9809 9.71171ZM40.4084 8.98217C39.9377 8.62964 39.7026 8.62964 39.585 8.1599C39.4674 7.92507 39.1145 8.04248 39.1145 8.27731C39.1411 8.59955 39.2606 8.77591 39.4336 8.87197C39.684 9.01055 40.0472 8.98217 40.4084 8.98217V8.98217ZM41.1142 9.09977C40.6559 8.64198 40.3806 8.31167 40.2085 7.92346C40.0565 7.5808 39.9846 7.19278 39.9377 6.63248C39.8203 6.39765 39.4674 6.51506 39.4674 6.75018C39.5161 7.3361 39.5747 7.70714 39.704 7.98496C39.9104 8.42889 40.2977 8.63486 41.1142 9.09977ZM41.7023 9.3346C41.246 8.48015 41.0004 8.07295 40.8484 7.5211C40.7528 7.17427 40.6943 6.7703 40.6435 6.16254C40.526 5.92771 40.1733 6.04513 40.1733 6.28005C40.2209 6.85402 40.2737 7.27773 40.3854 7.63813C40.5724 8.24219 40.9262 8.67017 41.7023 9.3346V9.3346ZM44.8785 9.71171C45.27 9.45666 45.7623 9.28705 46.2549 9.245C46.9413 9.18615 47.6276 9.37437 48.0392 9.92214C47.7625 10.3365 47.3379 10.4989 46.8722 10.5095C46.2698 10.5234 45.5977 10.284 45.0852 10.0078C45.2965 10.0675 45.5244 10.1239 45.6968 10.1591C46.0638 10.2339 46.392 10.213 46.392 9.92214C46.392 9.67516 46.1926 9.58585 45.9301 9.5755C45.6543 9.56468 45.2058 9.64071 44.8785 9.71171V9.71171ZM45.4511 8.98217C45.9216 8.62964 46.1569 8.62964 46.2745 8.1599C46.392 7.92507 46.745 8.04248 46.745 8.27731C46.7183 8.59955 46.5989 8.77591 46.4258 8.87197C46.1755 9.01055 45.8122 8.98217 45.4511 8.98217ZM44.7452 9.09977C45.2036 8.64198 45.4789 8.31167 45.651 7.92346C45.803 7.5808 45.8749 7.19278 45.9216 6.63248C46.0392 6.39765 46.392 6.51506 46.392 6.75018C46.3434 7.3361 46.2848 7.70714 46.1555 7.98496C45.9491 8.42889 45.5618 8.63486 44.7452 9.09977ZM44.1571 9.3346C44.6134 8.48015 44.8591 8.07295 45.0111 7.5211C45.1064 7.17427 45.1652 6.7703 45.2159 6.16254C45.3334 5.92771 45.6862 6.04513 45.6862 6.28005C45.6385 6.85402 45.5858 7.27773 45.4741 7.63813C45.2871 8.24219 44.9332 8.67017 44.1571 9.3346V9.3346Z" fill="url(#paint44_linear)"/>
<path d="M27.0074 61.6V62.3934H27.8008H47.024C48.7088 62.3934 50.3816 62.1405 52.0401 61.6373L52.0401 61.6374L52.0479 61.6349C53.7186 61.1093 55.3161 60.3043 56.8398 59.2265C58.3694 58.1446 59.7112 56.8395 60.8642 55.3146C62.0515 53.7503 62.9805 51.8735 63.6623 49.6992L63.6629 49.6974C64.3486 47.4918 64.6879 45.1122 64.6879 42.5639C64.6879 40.0157 64.3487 37.6363 63.663 35.4308C62.9821 33.2231 62.0544 31.3206 60.8684 29.7385C59.717 28.179 58.3766 26.847 56.8477 25.7465C55.3243 24.6322 53.7255 23.8073 52.0518 23.2802C50.3905 22.7394 48.7137 22.4671 47.024 22.4671H27.8008H27.0074V23.2604V24.6507V25.444H27.8008H32.1408V59.4164H27.8008H27.0074V60.2097V61.6ZM56.505 47.8815L56.505 47.8815L56.5039 47.8898C56.2976 49.4889 55.9197 51.0253 55.3708 52.5004C54.8253 53.9664 54.1434 55.1879 53.3342 56.1788C52.545 57.1451 51.5137 57.9302 50.2208 58.5269C48.9505 59.1132 47.4805 59.4164 45.7942 59.4164H39.2886V25.444H45.7942C47.4775 25.444 48.9448 25.755 50.2132 26.3567C51.5037 26.9689 52.5353 27.7779 53.3263 28.7787L53.3263 28.7788L53.3302 28.7837C54.1396 29.7913 54.8224 31.0392 55.3687 32.5416L55.3698 32.5444C55.9191 34.0378 56.2973 35.5926 56.5038 37.2102L56.5037 37.2102L56.5049 37.2184C56.7309 38.8527 56.8449 40.634 56.8449 42.5639C56.8449 44.4939 56.7309 46.2658 56.505 47.8815Z" fill="url(#paint45_linear)" stroke="url(#paint46_linear)" stroke-width="1.58667"/>
</g>
</g>
<defs>
<linearGradient id="paint0_linear" x1="43.0809" y1="92.7333" x2="43.0809" y2="102.066" gradientUnits="userSpaceOnUse">
<stop stop-color="#E2C391"/>
<stop offset="1" stop-color="#715B37"/>
</linearGradient>
<linearGradient id="paint1_linear" x1="43.0809" y1="92.7333" x2="43.0809" y2="102.066" gradientUnits="userSpaceOnUse">
<stop stop-color="#E2C391"/>
<stop offset="1" stop-color="#715B37"/>
</linearGradient>
<linearGradient id="paint2_linear" x1="43.0809" y1="92.7333" x2="43.0809" y2="102.066" gradientUnits="userSpaceOnUse">
<stop stop-color="#E2C391"/>
<stop offset="1" stop-color="#715B37"/>
</linearGradient>
<linearGradient id="paint3_linear" x1="43.0809" y1="92.7333" x2="43.0809" y2="102.066" gradientUnits="userSpaceOnUse">
<stop stop-color="#E2C391"/>
<stop offset="1" stop-color="#715B37"/>
</linearGradient>
<linearGradient id="paint4_linear" x1="43.0809" y1="92.7333" x2="43.0809" y2="102.066" gradientUnits="userSpaceOnUse">
<stop stop-color="#E2C391"/>
<stop offset="1" stop-color="#715B37"/>
</linearGradient>
<linearGradient id="paint5_linear" x1="43.0809" y1="92.7333" x2="43.0809" y2="102.066" gradientUnits="userSpaceOnUse">
<stop stop-color="#E2C391"/>
<stop offset="1" stop-color="#715B37"/>
</linearGradient>
<linearGradient id="paint6_linear" x1="43.0809" y1="92.7333" x2="43.0809" y2="102.066" gradientUnits="userSpaceOnUse">
<stop stop-color="#E2C391"/>
<stop offset="1" stop-color="#715B37"/>
</linearGradient>
<linearGradient id="paint7_linear" x1="43.0809" y1="92.7333" x2="43.0809" y2="102.066" gradientUnits="userSpaceOnUse">
<stop stop-color="#E2C391"/>
<stop offset="1" stop-color="#715B37"/>
</linearGradient>
<linearGradient id="paint8_linear" x1="43.0809" y1="92.7333" x2="43.0809" y2="102.066" gradientUnits="userSpaceOnUse">
<stop stop-color="#E2C391"/>
<stop offset="1" stop-color="#715B37"/>
</linearGradient>
<linearGradient id="paint9_linear" x1="43.0809" y1="92.7333" x2="43.0809" y2="102.066" gradientUnits="userSpaceOnUse">
<stop stop-color="#E2C391"/>
<stop offset="1" stop-color="#715B37"/>
</linearGradient>
<linearGradient id="paint10_linear" x1="43.0809" y1="92.7333" x2="43.0809" y2="102.066" gradientUnits="userSpaceOnUse">
<stop stop-color="#E2C391"/>
<stop offset="1" stop-color="#715B37"/>
</linearGradient>
<linearGradient id="paint11_linear" x1="43.0809" y1="92.7333" x2="43.0809" y2="102.066" gradientUnits="userSpaceOnUse">
<stop stop-color="#E2C391"/>
<stop offset="1" stop-color="#715B37"/>
</linearGradient>
<linearGradient id="paint12_linear" x1="43.0809" y1="92.7333" x2="43.0809" y2="102.066" gradientUnits="userSpaceOnUse">
<stop stop-color="#E2C391"/>
<stop offset="1" stop-color="#715B37"/>
</linearGradient>
<linearGradient id="paint13_linear" x1="43.0809" y1="92.7333" x2="43.0809" y2="102.066" gradientUnits="userSpaceOnUse">
<stop stop-color="#E2C391"/>
<stop offset="1" stop-color="#715B37"/>
</linearGradient>
<linearGradient id="paint14_linear" x1="43.0809" y1="92.7333" x2="43.0809" y2="102.066" gradientUnits="userSpaceOnUse">
<stop stop-color="#E2C391"/>
<stop offset="1" stop-color="#715B37"/>
</linearGradient>
<linearGradient id="paint15_linear" x1="43.0809" y1="92.7333" x2="43.0809" y2="102.066" gradientUnits="userSpaceOnUse">
<stop stop-color="#E2C391"/>
<stop offset="1" stop-color="#715B37"/>
</linearGradient>
<linearGradient id="paint16_linear" x1="79.0376" y1="3.17571" x2="46.9348" y2="1.95471" gradientUnits="userSpaceOnUse">
<stop stop-color="#E2C391"/>
<stop offset="0.505208" stop-color="#715B37"/>
<stop offset="1" stop-color="#E2C391"/>
</linearGradient>
<linearGradient id="paint17_linear" x1="140.237" y1="43.3454" x2="92.1922" y2="40.6057" gradientUnits="userSpaceOnUse">
<stop stop-color="#715B37"/>
<stop offset="0.505208" stop-color="#715B37"/>
<stop offset="1" stop-color="#E2C391"/>
</linearGradient>
<linearGradient id="paint18_linear" x1="104.641" y1="80.3014" x2="81.5489" y2="79.67" gradientUnits="userSpaceOnUse">
<stop stop-color="#E2C391"/>
<stop offset="0.505208" stop-color="#715B37"/>
<stop offset="1" stop-color="#715B37"/>
</linearGradient>
<linearGradient id="paint19_linear" x1="32.1744" y1="29.5994" x2="2.32168" y2="28.5437" gradientUnits="userSpaceOnUse">
<stop stop-color="#E2C391"/>
<stop offset="0.505208" stop-color="#715B37"/>
<stop offset="1" stop-color="#E2C391"/>
</linearGradient>
<linearGradient id="paint20_linear" x1="58.7425" y1="94.2464" x2="24.4761" y2="92.855" gradientUnits="userSpaceOnUse">
<stop stop-color="#E2C391"/>
<stop offset="0.505208" stop-color="#715B37"/>
<stop offset="1" stop-color="#E2C391"/>
</linearGradient>
<linearGradient id="paint21_linear" x1="85.1926" y1="94.4793" x2="56.8838" y2="93.5302" gradientUnits="userSpaceOnUse">
<stop stop-color="#CFB282"/>
<stop offset="0.505208" stop-color="#715B37"/>
<stop offset="1" stop-color="#E2C391"/>
</linearGradient>
<linearGradient id="paint22_linear" x1="56.7935" y1="82.7611" x2="92.8121" y2="79.4522" gradientUnits="userSpaceOnUse">
<stop stop-color="#715B37"/>
<stop offset="0.494792" stop-color="#E2C391"/>
<stop offset="1" stop-color="#715B37"/>
</linearGradient>
<linearGradient id="paint23_linear" x1="58.2075" y1="1.00163" x2="70.1905" y2="0.63813" gradientUnits="userSpaceOnUse">
<stop stop-color="#715B37"/>
<stop offset="0.494792" stop-color="#E2C391"/>
<stop offset="1" stop-color="#715B37"/>
</linearGradient>
<linearGradient id="paint24_linear" x1="3.53236" y1="21.3607" x2="26.2728" y2="20.0484" gradientUnits="userSpaceOnUse">
<stop stop-color="#715B37"/>
<stop offset="0.494792" stop-color="#E2C391"/>
<stop offset="1" stop-color="#715B37"/>
</linearGradient>
<linearGradient id="paint25_linear" x1="-2.98621" y1="64.4683" x2="27.9961" y2="62.0254" gradientUnits="userSpaceOnUse">
<stop stop-color="#715B37"/>
<stop offset="0.494792" stop-color="#E2C391"/>
<stop offset="1" stop-color="#715B37"/>
</linearGradient>
<linearGradient id="paint26_linear" x1="14.709" y1="82.9267" x2="26.6448" y2="82.5661" gradientUnits="userSpaceOnUse">
<stop stop-color="#715B37"/>
<stop offset="0.494792" stop-color="#E2C391"/>
<stop offset="1" stop-color="#715B37"/>
</linearGradient>
<linearGradient id="paint27_linear" x1="45.3377" y1="93.8683" x2="53.2446" y2="93.7101" gradientUnits="userSpaceOnUse">
<stop stop-color="#715B37"/>
<stop offset="0.494792" stop-color="#E2C391"/>
<stop offset="1" stop-color="#715B37"/>
</linearGradient>
<linearGradient id="paint28_linear" x1="50.1152" y1="10.9232" x2="59.7029" y2="10.9232" gradientUnits="userSpaceOnUse">
<stop stop-color="#E2C391"/>
<stop offset="0.50636" stop-color="#715B37"/>
<stop offset="1" stop-color="#E2C391"/>
</linearGradient>
<linearGradient id="paint29_linear" x1="61.3467" y1="17.9117" x2="69.8859" y2="17.9117" gradientUnits="userSpaceOnUse">
<stop stop-color="#E2C391"/>
<stop offset="0.50636" stop-color="#715B37"/>
<stop offset="1" stop-color="#E2C391"/>
</linearGradient>
<linearGradient id="paint30_linear" x1="69.8535" y1="28.1938" x2="77.0482" y2="28.1938" gradientUnits="userSpaceOnUse">
<stop stop-color="#E2C391"/>
<stop offset="0.50636" stop-color="#715B37"/>
<stop offset="1" stop-color="#E2C391"/>
</linearGradient>
<linearGradient id="paint31_linear" x1="74.7197" y1="39.7865" x2="79.7603" y2="39.7865" gradientUnits="userSpaceOnUse">
<stop stop-color="#E2C391"/>
<stop offset="0.50636" stop-color="#715B37"/>
<stop offset="1" stop-color="#E2C391"/>
</linearGradient>
<linearGradient id="paint32_linear" x1="72.8623" y1="51.8155" x2="78.9412" y2="51.8155" gradientUnits="userSpaceOnUse">
<stop stop-color="#E2C391"/>
<stop offset="0.50636" stop-color="#715B37"/>
<stop offset="1" stop-color="#E2C391"/>
</linearGradient>
<linearGradient id="paint33_linear" x1="65.9424" y1="62.9075" x2="73.8561" y2="62.9075" gradientUnits="userSpaceOnUse">
<stop stop-color="#E2C391"/>
<stop offset="0.50636" stop-color="#715B37"/>
<stop offset="1" stop-color="#E2C391"/>
</linearGradient>
<linearGradient id="paint34_linear" x1="55.8721" y1="71.6008" x2="64.8273" y2="71.6008" gradientUnits="userSpaceOnUse">
<stop stop-color="#E2C391"/>
<stop offset="0.50636" stop-color="#715B37"/>
<stop offset="1" stop-color="#E2C391"/>
</linearGradient>
<linearGradient id="paint35_linear" x1="43.9072" y1="76.5118" x2="53.9609" y2="76.5118" gradientUnits="userSpaceOnUse">
<stop stop-color="#E2C391"/>
<stop offset="0.50636" stop-color="#715B37"/>
<stop offset="1" stop-color="#E2C391"/>
</linearGradient>
<linearGradient id="paint36_linear" x1="31.8105" y1="76.4957" x2="41.8642" y2="76.4957" gradientUnits="userSpaceOnUse">
<stop stop-color="#E2C391"/>
<stop offset="0.50636" stop-color="#715B37"/>
<stop offset="1" stop-color="#E2C391"/>
</linearGradient>
<linearGradient id="paint37_linear" x1="20.957" y1="71.5517" x2="29.9124" y2="71.5517" gradientUnits="userSpaceOnUse">
<stop stop-color="#E2C391"/>
<stop offset="0.50636" stop-color="#715B37"/>
<stop offset="1" stop-color="#E2C391"/>
</linearGradient>
<linearGradient id="paint38_linear" x1="11.9492" y1="62.8361" x2="19.8628" y2="62.8361" gradientUnits="userSpaceOnUse">
<stop stop-color="#E2C391"/>
<stop offset="0.50636" stop-color="#715B37"/>
<stop offset="1" stop-color="#E2C391"/>
</linearGradient>
<linearGradient id="paint39_linear" x1="6.89453" y1="51.7287" x2="12.9732" y2="51.7287" gradientUnits="userSpaceOnUse">
<stop stop-color="#E2C391"/>
<stop offset="0.50636" stop-color="#715B37"/>
<stop offset="1" stop-color="#E2C391"/>
</linearGradient>
<linearGradient id="paint40_linear" x1="6.10742" y1="39.6962" x2="11.1477" y2="39.6962" gradientUnits="userSpaceOnUse">
<stop stop-color="#E2C391"/>
<stop offset="0.50636" stop-color="#715B37"/>
<stop offset="1" stop-color="#E2C391"/>
</linearGradient>
<linearGradient id="paint41_linear" x1="8.85352" y1="28.1132" x2="16.0481" y2="28.1132" gradientUnits="userSpaceOnUse">
<stop stop-color="#E2C391"/>
<stop offset="0.50636" stop-color="#715B37"/>
<stop offset="1" stop-color="#E2C391"/>
</linearGradient>
<linearGradient id="paint42_linear" x1="16.04" y1="17.8494" x2="24.5789" y2="17.8494" gradientUnits="userSpaceOnUse">
<stop stop-color="#E2C391"/>
<stop offset="0.50636" stop-color="#715B37"/>
<stop offset="1" stop-color="#E2C391"/>
</linearGradient>
<linearGradient id="paint43_linear" x1="26.2412" y1="10.8901" x2="35.829" y2="10.8901" gradientUnits="userSpaceOnUse">
<stop stop-color="#E2C391"/>
<stop offset="0.50636" stop-color="#715B37"/>
<stop offset="1" stop-color="#E2C391"/>
</linearGradient>
<linearGradient id="paint44_linear" x1="37.8203" y1="8.27231" x2="48.0392" y2="8.27231" gradientUnits="userSpaceOnUse">
<stop stop-color="#E2C391"/>
<stop offset="0.50636" stop-color="#715B37"/>
<stop offset="1" stop-color="#E2C391"/>
</linearGradient>
<linearGradient id="paint45_linear" x1="45.8477" y1="23.2604" x2="45.8477" y2="61.6" gradientUnits="userSpaceOnUse">
<stop stop-color="#E2C391"/>
<stop offset="1" stop-color="#715B37"/>
</linearGradient>
<linearGradient id="paint46_linear" x1="45.8477" y1="23.2604" x2="45.8477" y2="61.6" gradientUnits="userSpaceOnUse">
<stop stop-color="#E2C391"/>
<stop offset="1" stop-color="#715B37"/>
</linearGradient>
<clipPath id="clip0">
<path d="M0 0H85.8667V110.133H0V0Z" fill="white"/>
</clipPath>
<clipPath id="clip1">
<rect width="85.8667" height="85.8667" fill="white"/>
</clipPath>
</defs>
</svg>
