<svg width="80" height="80" viewBox="0 0 80 80" fill="none" xmlns="http://www.w3.org/2000/svg">
<path d="M44.0354 76.9556C43.3513 76.8208 41.6033 76.4409 42.1295 73.4266C42.6541 70.4156 42.5653 69.1133 42.4387 67.1416C42.3104 65.1682 42.0128 33.1361 42.0851 31.6429C42.1591 30.1514 41.6428 28.1781 45.9084 22.2499C47.6565 19.8128 47.1664 18.7867 47.4246 16.0816C47.5907 14.3746 47.645 9.21107 47.6302 7.69324H47.5907C47.2947 7.33147 47.2191 5.92382 47.6252 5.44529H47.6795C47.7058 4.79738 47.6532 4.18071 47.6532 3.90938C47.6548 3.58378 47.9985 3 48.51 3H53.8725C54.3856 3 54.7292 3.58378 54.7292 3.90938C54.7292 4.18071 54.6816 4.79902 54.7029 5.44529H54.7572C55.165 5.92382 55.0894 7.32982 54.7917 7.69324H54.7539C54.7424 9.21107 54.7967 14.3746 54.9611 16.0816C55.2176 18.7867 54.7227 19.8128 56.4773 22.2499C60.743 28.1764 60.2283 30.1514 60.3023 31.6429C60.373 33.1377 60.077 65.1682 59.9487 67.1416C59.8237 69.1133 59.73 70.4156 60.2579 73.4266C60.7841 76.436 59.0377 76.8191 58.3503 76.9556H44.0354Z" fill="#E2C391"/>
<path d="M30.6925 64.3526C34.8974 63.7524 38.1567 59.3519 38.1567 49.2188H21.1729C21.1729 59.3519 24.4321 63.7524 28.637 64.3526V75.7174H24.3812V77.0001H34.9451V75.7174H30.6893L30.6925 64.3526Z" fill="#E2C391"/>
</svg>
