<svg width="66" height="66" viewBox="0 0 66 66" fill="none" xmlns="http://www.w3.org/2000/svg">
<path d="M36.3046 63.2653C35.7444 63.1549 34.3128 62.8438 34.7437 60.3752C35.1733 57.9093 35.1006 56.8427 34.9969 55.228C34.8919 53.6119 34.6481 27.3787 34.7074 26.1558C34.768 24.9343 34.3451 23.3182 37.8386 18.4632C39.2701 16.4673 38.8688 15.627 39.0802 13.4116C39.2163 12.0137 39.2607 7.78489 39.2486 6.54185H39.2163C38.9739 6.24556 38.9119 5.09275 39.2446 4.70085H39.289C39.3105 4.17023 39.2674 3.6652 39.2674 3.44299C39.2688 3.17634 39.5503 2.69824 39.9691 2.69824H44.3608C44.781 2.69824 45.0625 3.17634 45.0625 3.44299C45.0625 3.6652 45.0234 4.17158 45.0409 4.70085H45.0854C45.4194 5.09275 45.3574 6.24422 45.1137 6.54185H45.0827C45.0733 7.78489 45.1177 12.0137 45.2524 13.4116C45.4625 15.627 45.0571 16.4673 46.4941 18.4632C49.9875 23.3169 49.566 24.9343 49.6266 26.1558C49.6845 27.38 49.4421 53.6119 49.337 55.228C49.2347 56.8427 49.1579 57.9093 49.5902 60.3752C50.0212 62.8398 48.591 63.1536 48.028 63.2653H36.3046Z" fill="url(#paint0_linear)"/>
<path d="M25.3774 52.9439C28.821 52.4523 31.4902 48.8484 31.4902 40.5498H17.5811C17.5811 48.8484 20.2503 52.4523 23.6939 52.9439V62.2512H20.2085V63.3017H28.86V62.2512H25.3747L25.3774 52.9439Z" fill="url(#paint1_linear)"/>
<defs>
<linearGradient id="paint0_linear" x1="34.6641" y1="32.9818" x2="49.67" y2="32.9818" gradientUnits="userSpaceOnUse">
<stop stop-color="#FFD445"/>
<stop offset="0.5" stop-color="#BB7B15"/>
<stop offset="1" stop-color="#FFD445"/>
</linearGradient>
<linearGradient id="paint1_linear" x1="17.5811" y1="51.9257" x2="31.4902" y2="51.9257" gradientUnits="userSpaceOnUse">
<stop stop-color="#FFD445"/>
<stop offset="0.5" stop-color="#BB7B15"/>
<stop offset="1" stop-color="#FFD445"/>
</linearGradient>
</defs>
</svg>
