<svg width="758" height="121" viewBox="0 0 758 121" fill="none" xmlns="http://www.w3.org/2000/svg">
<circle opacity="0.01" r="10.5" transform="matrix(-1 8.74225e-08 8.74231e-08 1 728.5 10.5)" fill="#FFD445"/>
<circle opacity="0.01" r="6.5" transform="matrix(-1 8.74225e-08 8.74231e-08 1 717.5 35.5)" fill="#FFD445"/>
<circle opacity="0.01" r="2.5" transform="matrix(-1 8.74225e-08 8.74231e-08 1 739.5 51.5)" fill="#FFD445"/>
<circle opacity="0.02" r="3" transform="matrix(-1 8.74225e-08 8.74231e-08 1 728 69)" fill="#FFD445"/>
<circle opacity="0.02" r="3" transform="matrix(-1 8.74225e-08 8.74231e-08 1 689 60)" fill="#FFD445"/>
<circle opacity="0.03" r="5" transform="matrix(-1 8.74225e-08 8.74231e-08 1 660 47)" fill="#FFD445"/>
<circle opacity="0.02" r="3.5" transform="matrix(-1 8.74225e-08 8.74231e-08 1 653.5 72.5)" fill="#FFD445"/>
<circle opacity="0.01" r="2" transform="matrix(-1 8.74225e-08 8.74231e-08 1 624 107)" fill="#FFD445"/>
<circle opacity="0.01" r="2" transform="matrix(-1 8.74225e-08 8.74231e-08 1 622 106)" fill="#FFD445"/>
<circle opacity="0.01" r="1" transform="matrix(-1 8.74225e-08 8.74231e-08 1 597 107)" fill="#FFD445"/>
<circle opacity="0.01" r="1" transform="matrix(-1 8.74225e-08 8.74231e-08 1 582 99)" fill="#FFD445"/>
<circle opacity="0.05" r="3.5" transform="matrix(-1 8.74225e-08 8.74231e-08 1 648.5 97.5)" fill="#FFD445"/>
<circle opacity="0.01" r="4.5" transform="matrix(-1 8.74225e-08 8.74231e-08 1 620.5 58.5)" fill="#FFD445"/>
<circle opacity="0.01" r="13.5" transform="matrix(-1 8.74225e-08 8.74231e-08 1 608.5 86.5)" fill="#FFD445"/>
<circle opacity="0.06" r="4.5" transform="matrix(-1 8.74225e-08 8.74231e-08 1 532.5 42.5)" fill="#FFD445"/>
<circle opacity="0.04" r="2.5" transform="matrix(-1 8.74225e-08 8.74231e-08 1 522.5 48.5)" fill="#FFD445"/>
<circle opacity="0.02" r="2.5" transform="matrix(-1 8.74225e-08 8.74231e-08 1 545.5 62.5)" fill="#FFD445"/>
<ellipse opacity="0.04" rx="3.5" ry="3.5" transform="matrix(-1 8.74225e-08 8.74231e-08 1 554.5 74.5)" fill="#FFD445"/>
<circle opacity="0.04" r="1.5" transform="matrix(-1 8.74225e-08 8.74231e-08 1 574.5 72.5)" fill="#FFD445"/>
<circle opacity="0.1" r="1.5" transform="matrix(-1 8.74225e-08 8.74231e-08 1 507.5 92.5)" fill="#FFD445"/>
<circle opacity="0.03" r="1.5" transform="matrix(-1 8.74225e-08 8.74231e-08 1 510.5 46.5)" fill="#FFD445"/>
<circle opacity="0.02" r="4.5" transform="matrix(-1 8.74225e-08 8.74231e-08 1 570.5 56.5)" fill="#FFD445"/>
<circle opacity="0.03" r="4.5" transform="matrix(-1 8.74225e-08 8.74231e-08 1 603.5 73.5)" fill="#FFD445"/>
<circle opacity="0.02" r="4.5" transform="matrix(-1 8.74225e-08 8.74231e-08 1 563.5 99.5)" fill="#FFD445"/>
<circle opacity="0.02" r="3" transform="matrix(-1 8.74225e-08 8.74231e-08 1 529 81)" fill="#FFD445"/>
<circle opacity="0.02" r="2.5" transform="matrix(-1 8.74225e-08 8.74231e-08 1 512.5 63.5)" fill="#FFD445"/>
<circle opacity="0.02" r="2.5" transform="matrix(-1 8.74225e-08 8.74231e-08 1 443.5 63.5)" fill="#FFD445"/>
<circle opacity="0.02" r="2.5" transform="matrix(-1 8.74225e-08 8.74231e-08 1 428.5 92.5)" fill="#FFD445"/>
<circle opacity="0.06" r="2.5" transform="matrix(-1 8.74225e-08 8.74231e-08 1 399.5 80.5)" fill="#FFD445"/>
<circle opacity="0.02" r="4.5" transform="matrix(-1 8.74225e-08 8.74231e-08 1 418.5 60.5)" fill="#FFD445"/>
<circle opacity="0.02" r="16.5" transform="matrix(-1 8.74225e-08 8.74231e-08 1 393.5 99.5)" fill="#FFD445"/>
<ellipse opacity="0.02" rx="11" ry="11" transform="matrix(-1 8.74225e-08 8.74231e-08 1 34 87)" fill="#FFD445"/>
<ellipse opacity="0.01" rx="19" ry="19" transform="matrix(-1 8.74225e-08 8.74231e-08 1 248 77)" fill="#FFD445"/>
<circle opacity="0.02" r="6" transform="matrix(-1 8.74225e-08 8.74231e-08 1 360 82)" fill="#FFD445"/>
<circle opacity="0.02" r="6" transform="matrix(-1 8.74225e-08 8.74231e-08 1 272 113)" fill="#FFD445"/>
<circle opacity="0.01" r="4" transform="matrix(-1 8.74225e-08 8.74231e-08 1 378 66)" fill="#FFD445"/>
<circle opacity="0.01" r="2.5" transform="matrix(-1 8.74225e-08 8.74231e-08 1 348.5 102.5)" fill="#FFD445"/>
<circle opacity="0.01" r="2" transform="matrix(-1 8.74225e-08 8.74231e-08 1 327 82)" fill="#FFD445"/>
<circle opacity="0.03" r="3" transform="matrix(-1 8.74225e-08 8.74231e-08 1 315 73)" fill="#FFD445"/>
<circle opacity="0.01" r="2.5" transform="matrix(-1 8.74225e-08 8.74231e-08 1 298.5 71.5)" fill="#FFD445"/>
<circle opacity="0.01" r="4" transform="matrix(-1 8.74225e-08 8.74231e-08 1 282 61)" fill="#FFD445"/>
<circle opacity="0.01" r="4" transform="matrix(-1 8.74225e-08 8.74231e-08 1 425 115)" fill="#FFD445"/>
<ellipse opacity="0.1" rx="2" ry="2" transform="matrix(-1 8.74225e-08 8.74231e-08 1 453 112)" fill="#FFD445"/>
<circle opacity="0.05" r="2.5" transform="matrix(-1 8.74225e-08 8.74231e-08 1 278.5 78.5)" fill="#FFD445"/>
<circle opacity="0.01" r="2.5" transform="matrix(-1 8.74225e-08 8.74231e-08 1 170.5 75.5)" fill="#FFD445"/>
<circle opacity="0.05" r="2.5" transform="matrix(-1 8.74225e-08 8.74231e-08 1 308.5 110.5)" fill="#FFD445"/>
<circle opacity="0.03" r="4" transform="matrix(-1 8.74225e-08 8.74231e-08 1 259 95)" fill="#FFD445"/>
<circle opacity="0.01" r="4" transform="matrix(-1 8.74225e-08 8.74231e-08 1 434 74)" fill="#FFD445"/>
<circle opacity="0.01" r="3" transform="matrix(-1 8.74225e-08 8.74231e-08 1 251 98)" fill="#FFD445"/>
<circle opacity="0.02" r="2" transform="matrix(-1 8.74225e-08 8.74231e-08 1 246 104)" fill="#FFD445"/>
<circle opacity="0.03" r="1.5" transform="matrix(-1 8.74225e-08 8.74231e-08 1 231.5 84.5)" fill="#FFD445"/>
<circle opacity="0.02" r="1.5" transform="matrix(-1 8.74225e-08 8.74231e-08 1 257.5 52.5)" fill="#FFD445"/>
<circle opacity="0.06" r="2.5" transform="matrix(-1 8.74225e-08 8.74231e-08 1 242.5 71.5)" fill="#FFD445"/>
<circle opacity="0.01" r="2" transform="matrix(-1 8.74225e-08 8.74231e-08 1 200 43)" fill="#FFD445"/>
<circle opacity="0.01" r="2" transform="matrix(-1 8.74225e-08 8.74231e-08 1 212 78)" fill="#FFD445"/>
<circle opacity="0.02" r="1.5" transform="matrix(-1 8.74225e-08 8.74231e-08 1 220.5 65.5)" fill="#FFD445"/>
<circle opacity="0.02" r="4" transform="matrix(-1 8.74225e-08 8.74231e-08 1 228 77)" fill="#FFD445"/>
<circle opacity="0.01" r="3" transform="matrix(-1 8.74225e-08 8.74231e-08 1 242 111)" fill="#FFD445"/>
<circle opacity="0.03" r="2.5" transform="matrix(-1 8.74225e-08 8.74231e-08 1 220.5 108.5)" fill="#FFD445"/>
<circle opacity="0.04" r="2.5" transform="matrix(-1 8.74225e-08 8.74231e-08 1 198.5 93.5)" fill="#FFD445"/>
<circle opacity="0.05" r="1.5" transform="matrix(-1 8.74225e-08 8.74231e-08 1 167.5 65.5)" fill="#FFD445"/>
<circle opacity="0.03" r="3.5" transform="matrix(-1 8.74225e-08 8.74231e-08 1 150.5 90.5)" fill="#FFD445"/>
<circle opacity="0.02" r="3.5" transform="matrix(-1 8.74225e-08 8.74231e-08 1 153.5 110.5)" fill="#FFD445"/>
<circle opacity="0.02" r="9" transform="matrix(-1 8.74225e-08 8.74231e-08 1 120 73)" fill="#FFD445"/>
<circle opacity="0.03" r="4.5" transform="matrix(-1 8.74225e-08 8.74231e-08 1 86.5 96.5)" fill="#FFD445"/>
<circle opacity="0.01" r="2.5" transform="matrix(-1 8.74225e-08 8.74231e-08 1 50.5 102.5)" fill="#FFD445"/>
<circle opacity="0.01" r="4" transform="matrix(-1 8.74225e-08 8.74231e-08 1 23 84)" fill="#FFD445"/>
<circle opacity="0.04" r="3.5" transform="matrix(-1 8.74225e-08 8.74231e-08 1 44.5 60.5)" fill="#FFD445"/>
<circle opacity="0.01" r="2" transform="matrix(-1 8.74225e-08 8.74231e-08 1 10 62)" fill="#FFD445"/>
<circle opacity="0.1" r="2" transform="matrix(-1 8.74225e-08 8.74231e-08 1 2 99)" fill="#FFD445"/>
<circle opacity="0.01" r="2.5" transform="matrix(-1 8.74225e-08 8.74231e-08 1 72.5 75.5)" fill="#FFD445"/>
<ellipse opacity="0.01" rx="5.5" ry="5.5" transform="matrix(-1 8.74225e-08 8.74231e-08 1 93.5 60.5)" fill="#FFD445"/>
<circle opacity="0.01" r="3.5" transform="matrix(-1 8.74225e-08 8.74231e-08 1 123.5 99.5)" fill="#FFD445"/>
<circle opacity="0.04" r="3.5" transform="matrix(-1 8.74225e-08 8.74231e-08 1 136.5 60.5)" fill="#FFD445"/>
<circle opacity="0.01" r="2" transform="matrix(-1 8.74225e-08 8.74231e-08 1 211 36)" fill="#FFD445"/>
<circle opacity="0.01" r="2" transform="matrix(-1 8.74225e-08 8.74231e-08 1 193 103)" fill="#FFD445"/>
<circle opacity="0.02" r="2" transform="matrix(-1 8.74225e-08 8.74231e-08 1 190 102)" fill="#FFD445"/>
<circle opacity="0.01" r="2.5" transform="matrix(-1 8.74225e-08 8.74231e-08 1 283.5 92.5)" fill="#FFD445"/>
<circle opacity="0.01" r="4.5" transform="matrix(-1 8.74225e-08 8.74231e-08 1 190.5 53.5)" fill="#FFD445"/>
<circle opacity="0.01" r="3" transform="matrix(-1 8.74225e-08 8.74231e-08 1 326 103)" fill="#FFD445"/>
<circle opacity="0.02" r="2" transform="matrix(-1 8.74225e-08 8.74231e-08 1 301 96)" fill="#FFD445"/>
<circle opacity="0.01" r="1.5" transform="matrix(-1 8.74225e-08 8.74231e-08 1 368.5 53.5)" fill="#FFD445"/>
<circle opacity="0.02" r="1.5" transform="matrix(-1 8.74225e-08 8.74231e-08 1 309.5 83.5)" fill="#FFD445"/>
<circle opacity="0.03" r="2" transform="matrix(-1 8.74225e-08 8.74231e-08 1 341 90)" fill="#FFD445"/>
<circle opacity="0.02" r="4.5" transform="matrix(-1 8.74225e-08 8.74231e-08 1 185.5 48.5)" fill="#FFD445"/>
<circle opacity="0.01" r="2" transform="matrix(-1 8.74225e-08 8.74231e-08 1 346 64)" fill="#FFD445"/>
<circle opacity="0.01" r="1.5" transform="matrix(-1 8.74225e-08 8.74231e-08 1 328.5 56.5)" fill="#FFD445"/>
<circle opacity="0.01" r="1.5" transform="matrix(-1 8.74225e-08 8.74231e-08 1 310.5 62.5)" fill="#FFD445"/>
<circle opacity="0.03" r="1.5" transform="matrix(-1 8.74225e-08 8.74231e-08 1 409.5 59.5)" fill="#FFD445"/>
<circle opacity="0.01" r="1.5" transform="matrix(-1 8.74225e-08 8.74231e-08 1 363.5 96.5)" fill="#FFD445"/>
<circle opacity="0.01" r="1.5" transform="matrix(-1 8.74225e-08 8.74231e-08 1 366.5 110.5)" fill="#FFD445"/>
<circle opacity="0.01" r="1" transform="matrix(-1 8.74225e-08 8.74231e-08 1 427 97)" fill="#FFD445"/>
<circle opacity="0.06" r="1" transform="matrix(-1 8.74225e-08 8.74231e-08 1 419 87)" fill="#FFD445"/>
<circle opacity="0.02" r="1.5" transform="matrix(-1 8.74225e-08 8.74231e-08 1 460.5 69.5)" fill="#FFD445"/>
<ellipse opacity="0.03" rx="3.5" ry="3.5" transform="matrix(-1 8.74225e-08 8.74231e-08 1 464.5 70.5)" fill="#FFD445"/>
<circle opacity="0.01" r="3" transform="matrix(-1 8.74225e-08 8.74231e-08 1 529 112)" fill="#FFD445"/>
<circle opacity="0.03" r="5" transform="matrix(-1 8.74225e-08 8.74231e-08 1 516 97)" fill="#FFD445"/>
<circle opacity="0.05" r="3" transform="matrix(-1 8.74225e-08 8.74231e-08 1 498 73)" fill="#FFD445"/>
<circle opacity="0.02" r="2" transform="matrix(-1 8.74225e-08 8.74231e-08 1 481 96)" fill="#FFD445"/>
<circle opacity="0.01" r="2" transform="matrix(-1 8.74225e-08 8.74231e-08 1 455 82)" fill="#FFD445"/>
<circle opacity="0.03" r="3" transform="matrix(-1 8.74225e-08 8.74231e-08 1 457 99)" fill="#FFD445"/>
<circle opacity="0.03" r="3" transform="matrix(-1 8.74225e-08 8.74231e-08 1 474 81)" fill="#FFD445"/>
<circle opacity="0.1" r="3" transform="matrix(-1 8.74225e-08 8.74231e-08 1 487 101)" fill="#FFD445"/>
<circle opacity="0.02" r="3" transform="matrix(-1 8.74225e-08 8.74231e-08 1 473 58)" fill="#FFD445"/>
<circle opacity="0.03" r="2" transform="matrix(-1 8.74225e-08 8.74231e-08 1 597 36)" fill="#FFD445"/>
<circle opacity="0.01" r="2.5" transform="matrix(-1 8.74225e-08 8.74231e-08 1 627.5 75.5)" fill="#FFD445"/>
<circle opacity="0.01" r="2.5" transform="matrix(-1 8.74225e-08 8.74231e-08 1 625.5 26.5)" fill="#FFD445"/>
<circle opacity="0.03" r="2.5" transform="matrix(-1 8.74225e-08 8.74231e-08 1 678.5 35.5)" fill="#FFD445"/>
<circle opacity="0.02" r="5" transform="matrix(-1 8.74225e-08 8.74231e-08 1 653 44)" fill="#FFD445"/>
<circle opacity="0.04" r="5.5" transform="matrix(-1 8.74225e-08 8.74231e-08 1 683.5 81.5)" fill="#FFD445"/>
<circle opacity="0.02" r="5" transform="matrix(-1 8.74225e-08 8.74231e-08 1 753 37)" fill="#FFD445"/>
<circle opacity="0.07" r="3" transform="matrix(-1 8.74225e-08 8.74231e-08 1 755 81)" fill="#FFD445"/>
<circle opacity="0.05" r="5" transform="matrix(-1 8.74225e-08 8.74231e-08 1 725 98)" fill="#FFD445"/>
<circle opacity="0.02" r="2.5" transform="matrix(-1 8.74225e-08 8.74231e-08 1 745.5 97.5)" fill="#FFD445"/>
<ellipse opacity="0.02" rx="1.5" ry="1.5" transform="matrix(-1 8.74225e-08 8.74231e-08 1 725.5 112.5)" fill="#FFD445"/>
<circle opacity="0.01" r="6.5" transform="matrix(-1 8.74225e-08 8.74231e-08 1 727.5 90.5)" fill="#FFD445"/>
<circle opacity="0.02" r="10.5" transform="matrix(-1 8.74225e-08 8.74231e-08 1 691.5 110.5)" fill="#FFD445"/>
<circle opacity="0.11" r="2.5" transform="matrix(-1 8.74225e-08 8.74231e-08 1 710.5 65.5)" fill="#FFD445"/>
<circle opacity="0.02" r="4.5" transform="matrix(-1 8.74225e-08 8.74231e-08 1 691.5 18.5)" fill="#FFD445"/>
</svg>
