<svg width="1540" height="123" viewBox="0 0 1540 123" fill="none" xmlns="http://www.w3.org/2000/svg">
<circle opacity="0.01" cx="728.5" cy="112.5" r="10.5" transform="rotate(-180 728.5 112.5)" fill="#FFD445"/>
<circle opacity="0.01" cx="717.5" cy="87.5001" r="6.5" transform="rotate(-180 717.5 87.5001)" fill="#FFD445"/>
<circle opacity="0.01" cx="739.5" cy="71.5001" r="2.5" transform="rotate(-180 739.5 71.5001)" fill="#FFD445"/>
<circle opacity="0.02" cx="728" cy="54.0001" r="3" transform="rotate(-180 728 54.0001)" fill="#FFD445"/>
<circle opacity="0.02" cx="689" cy="63" r="3" transform="rotate(-180 689 63)" fill="#FFD445"/>
<circle opacity="0.03" cx="660" cy="76" r="5" transform="rotate(-180 660 76)" fill="#FFD445"/>
<circle opacity="0.02" cx="653.5" cy="50.5" r="3.5" transform="rotate(-180 653.5 50.5)" fill="#FFD445"/>
<circle opacity="0.01" cx="624" cy="16" r="2" transform="rotate(-180 624 16)" fill="#FFD445"/>
<circle opacity="0.01" cx="622" cy="17" r="2" transform="rotate(-180 622 17)" fill="#FFD445"/>
<circle opacity="0.01" cx="597" cy="16" r="1" transform="rotate(-180 597 16)" fill="#FFD445"/>
<circle opacity="0.01" cx="582" cy="24" r="1" transform="rotate(-180 582 24)" fill="#FFD445"/>
<circle opacity="0.05" cx="648.5" cy="25.5" r="3.5" transform="rotate(-180 648.5 25.5)" fill="#FFD445"/>
<circle opacity="0.01" cx="620.5" cy="64.5" r="4.5" transform="rotate(-180 620.5 64.5)" fill="#FFD445"/>
<circle opacity="0.01" cx="608.5" cy="36.5" r="13.5" transform="rotate(-180 608.5 36.5)" fill="#FFD445"/>
<circle opacity="0.06" cx="532.5" cy="80.5" r="4.5" transform="rotate(-180 532.5 80.5)" fill="#FFD445"/>
<circle opacity="0.04" cx="522.5" cy="74.5" r="2.5" transform="rotate(-180 522.5 74.5)" fill="#FFD445"/>
<circle opacity="0.02" cx="545.5" cy="60.5" r="2.5" transform="rotate(-180 545.5 60.5)" fill="#FFD445"/>
<ellipse opacity="0.04" cx="554.5" cy="48.5" rx="3.5" ry="3.5" transform="rotate(-180 554.5 48.5)" fill="#FFD445"/>
<circle opacity="0.04" cx="574.5" cy="50.5" r="1.5" transform="rotate(-180 574.5 50.5)" fill="#FFD445"/>
<circle opacity="0.1" cx="507.5" cy="30.5" r="1.5" transform="rotate(-180 507.5 30.5)" fill="#FFD445"/>
<circle opacity="0.03" cx="510.5" cy="76.5" r="1.5" transform="rotate(-180 510.5 76.5)" fill="#FFD445"/>
<circle opacity="0.02" cx="570.5" cy="66.5" r="4.5" transform="rotate(-180 570.5 66.5)" fill="#FFD445"/>
<circle opacity="0.03" cx="603.5" cy="49.5" r="4.5" transform="rotate(-180 603.5 49.5)" fill="#FFD445"/>
<circle opacity="0.02" cx="563.5" cy="23.5" r="4.5" transform="rotate(-180 563.5 23.5)" fill="#FFD445"/>
<circle opacity="0.02" cx="529" cy="42" r="3" transform="rotate(-180 529 42)" fill="#FFD445"/>
<circle opacity="0.02" cx="512.5" cy="59.5" r="2.5" transform="rotate(-180 512.5 59.5)" fill="#FFD445"/>
<circle opacity="0.02" cx="443.5" cy="59.5" r="2.5" transform="rotate(-180 443.5 59.5)" fill="#FFD445"/>
<circle opacity="0.02" cx="428.5" cy="30.5" r="2.5" transform="rotate(-180 428.5 30.5)" fill="#FFD445"/>
<circle opacity="0.06" cx="399.5" cy="42.5" r="2.5" transform="rotate(-180 399.5 42.5)" fill="#FFD445"/>
<circle opacity="0.02" cx="418.5" cy="62.5" r="4.5" transform="rotate(-180 418.5 62.5)" fill="#FFD445"/>
<circle opacity="0.02" cx="393.5" cy="23.5" r="16.5" transform="rotate(-180 393.5 23.5)" fill="#FFD445"/>
<ellipse opacity="0.02" cx="34" cy="36" rx="11" ry="11" transform="rotate(-180 34 36)" fill="#FFD445"/>
<ellipse opacity="0.01" cx="248" cy="46" rx="19" ry="19" transform="rotate(-180 248 46)" fill="#FFD445"/>
<circle opacity="0.02" cx="360" cy="41" r="6" transform="rotate(-180 360 41)" fill="#FFD445"/>
<circle opacity="0.02" cx="272" cy="10" r="6" transform="rotate(-180 272 10)" fill="#FFD445"/>
<circle opacity="0.01" cx="378" cy="57" r="4" transform="rotate(-180 378 57)" fill="#FFD445"/>
<circle opacity="0.01" cx="348.5" cy="20.5" r="2.5" transform="rotate(-180 348.5 20.5)" fill="#FFD445"/>
<circle opacity="0.01" cx="327" cy="41" r="2" transform="rotate(-180 327 41)" fill="#FFD445"/>
<circle opacity="0.03" cx="315" cy="50" r="3" transform="rotate(-180 315 50)" fill="#FFD445"/>
<circle opacity="0.01" cx="298.5" cy="51.5" r="2.5" transform="rotate(-180 298.5 51.5)" fill="#FFD445"/>
<circle opacity="0.01" cx="282" cy="62" r="4" transform="rotate(-180 282 62)" fill="#FFD445"/>
<circle opacity="0.01" cx="425" cy="8" r="4" transform="rotate(-180 425 8)" fill="#FFD445"/>
<ellipse opacity="0.1" cx="453" cy="11" rx="2" ry="2" transform="rotate(-180 453 11)" fill="#FFD445"/>
<circle opacity="0.05" cx="278.5" cy="44.5" r="2.5" transform="rotate(-180 278.5 44.5)" fill="#FFD445"/>
<circle opacity="0.01" cx="170.5" cy="47.5" r="2.5" transform="rotate(-180 170.5 47.5)" fill="#FFD445"/>
<circle opacity="0.05" cx="308.5" cy="12.5" r="2.5" transform="rotate(-180 308.5 12.5)" fill="#FFD445"/>
<circle opacity="0.03" cx="259" cy="28" r="4" transform="rotate(-180 259 28)" fill="#FFD445"/>
<circle opacity="0.01" cx="434" cy="49" r="4" transform="rotate(-180 434 49)" fill="#FFD445"/>
<circle opacity="0.01" cx="251" cy="25" r="3" transform="rotate(-180 251 25)" fill="#FFD445"/>
<circle opacity="0.02" cx="246" cy="19" r="2" transform="rotate(-180 246 19)" fill="#FFD445"/>
<circle opacity="0.03" cx="231.5" cy="38.5" r="1.5" transform="rotate(-180 231.5 38.5)" fill="#FFD445"/>
<circle opacity="0.02" cx="257.5" cy="70.5" r="1.5" transform="rotate(-180 257.5 70.5)" fill="#FFD445"/>
<circle opacity="0.06" cx="242.5" cy="51.5" r="2.5" transform="rotate(-180 242.5 51.5)" fill="#FFD445"/>
<circle opacity="0.01" cx="200" cy="80" r="2" transform="rotate(-180 200 80)" fill="#FFD445"/>
<circle opacity="0.01" cx="212" cy="45" r="2" transform="rotate(-180 212 45)" fill="#FFD445"/>
<circle opacity="0.02" cx="220.5" cy="57.5" r="1.5" transform="rotate(-180 220.5 57.5)" fill="#FFD445"/>
<circle opacity="0.02" cx="228" cy="46" r="4" transform="rotate(-180 228 46)" fill="#FFD445"/>
<circle opacity="0.01" cx="242" cy="12" r="3" transform="rotate(-180 242 12)" fill="#FFD445"/>
<circle opacity="0.03" cx="220.5" cy="14.5" r="2.5" transform="rotate(-180 220.5 14.5)" fill="#FFD445"/>
<circle opacity="0.04" cx="198.5" cy="29.5" r="2.5" transform="rotate(-180 198.5 29.5)" fill="#FFD445"/>
<circle opacity="0.05" cx="167.5" cy="57.5" r="1.5" transform="rotate(-180 167.5 57.5)" fill="#FFD445"/>
<circle opacity="0.03" cx="150.5" cy="32.5" r="3.5" transform="rotate(-180 150.5 32.5)" fill="#FFD445"/>
<circle opacity="0.02" cx="153.5" cy="12.5" r="3.5" transform="rotate(-180 153.5 12.5)" fill="#FFD445"/>
<circle opacity="0.02" cx="120" cy="50" r="9" transform="rotate(-180 120 50)" fill="#FFD445"/>
<circle opacity="0.03" cx="86.5" cy="26.5" r="4.5" transform="rotate(-180 86.5 26.5)" fill="#FFD445"/>
<circle opacity="0.01" cx="50.5" cy="20.5" r="2.5" transform="rotate(-180 50.5 20.5)" fill="#FFD445"/>
<circle opacity="0.01" cx="23" cy="39" r="4" transform="rotate(-180 23 39)" fill="#FFD445"/>
<circle opacity="0.04" cx="44.5" cy="62.5" r="3.5" transform="rotate(-180 44.5 62.5)" fill="#FFD445"/>
<circle opacity="0.01" cx="10" cy="61" r="2" transform="rotate(-180 10 61)" fill="#FFD445"/>
<circle opacity="0.1" cx="2" cy="24" r="2" transform="rotate(-180 2 24)" fill="#FFD445"/>
<circle opacity="0.01" cx="72.5" cy="47.5" r="2.5" transform="rotate(-180 72.5 47.5)" fill="#FFD445"/>
<ellipse opacity="0.01" cx="93.5" cy="62.5" rx="5.5" ry="5.5" transform="rotate(-180 93.5 62.5)" fill="#FFD445"/>
<circle opacity="0.01" cx="123.5" cy="23.5" r="3.5" transform="rotate(-180 123.5 23.5)" fill="#FFD445"/>
<circle opacity="0.04" cx="136.5" cy="62.5" r="3.5" transform="rotate(-180 136.5 62.5)" fill="#FFD445"/>
<circle opacity="0.01" cx="211" cy="87" r="2" transform="rotate(-180 211 87)" fill="#FFD445"/>
<circle opacity="0.01" cx="193" cy="20" r="2" transform="rotate(-180 193 20)" fill="#FFD445"/>
<circle opacity="0.02" cx="190" cy="21" r="2" transform="rotate(-180 190 21)" fill="#FFD445"/>
<circle opacity="0.01" cx="283.5" cy="30.5" r="2.5" transform="rotate(-180 283.5 30.5)" fill="#FFD445"/>
<circle opacity="0.01" cx="190.5" cy="69.5" r="4.5" transform="rotate(-180 190.5 69.5)" fill="#FFD445"/>
<circle opacity="0.01" cx="326" cy="20" r="3" transform="rotate(-180 326 20)" fill="#FFD445"/>
<circle opacity="0.02" cx="301" cy="27" r="2" transform="rotate(-180 301 27)" fill="#FFD445"/>
<circle opacity="0.01" cx="368.5" cy="69.5" r="1.5" transform="rotate(-180 368.5 69.5)" fill="#FFD445"/>
<circle opacity="0.02" cx="309.5" cy="39.5" r="1.5" transform="rotate(-180 309.5 39.5)" fill="#FFD445"/>
<circle opacity="0.03" cx="341" cy="33" r="2" transform="rotate(-180 341 33)" fill="#FFD445"/>
<circle opacity="0.02" cx="185.5" cy="74.5" r="4.5" transform="rotate(-180 185.5 74.5)" fill="#FFD445"/>
<circle opacity="0.01" cx="346" cy="59" r="2" transform="rotate(-180 346 59)" fill="#FFD445"/>
<circle opacity="0.01" cx="328.5" cy="66.5" r="1.5" transform="rotate(-180 328.5 66.5)" fill="#FFD445"/>
<circle opacity="0.01" cx="310.5" cy="60.5" r="1.5" transform="rotate(-180 310.5 60.5)" fill="#FFD445"/>
<circle opacity="0.03" cx="409.5" cy="63.5" r="1.5" transform="rotate(-180 409.5 63.5)" fill="#FFD445"/>
<circle opacity="0.01" cx="363.5" cy="26.5" r="1.5" transform="rotate(-180 363.5 26.5)" fill="#FFD445"/>
<circle opacity="0.01" cx="366.5" cy="12.5" r="1.5" transform="rotate(-180 366.5 12.5)" fill="#FFD445"/>
<circle opacity="0.01" cx="427" cy="26" r="1" transform="rotate(-180 427 26)" fill="#FFD445"/>
<circle opacity="0.06" cx="419" cy="36" r="1" transform="rotate(-180 419 36)" fill="#FFD445"/>
<circle opacity="0.02" cx="460.5" cy="53.5" r="1.5" transform="rotate(-180 460.5 53.5)" fill="#FFD445"/>
<ellipse opacity="0.03" cx="464.5" cy="52.5" rx="3.5" ry="3.5" transform="rotate(-180 464.5 52.5)" fill="#FFD445"/>
<circle opacity="0.01" cx="529" cy="11" r="3" transform="rotate(-180 529 11)" fill="#FFD445"/>
<circle opacity="0.03" cx="516" cy="26" r="5" transform="rotate(-180 516 26)" fill="#FFD445"/>
<circle opacity="0.05" cx="498" cy="50" r="3" transform="rotate(-180 498 50)" fill="#FFD445"/>
<circle opacity="0.02" cx="481" cy="27" r="2" transform="rotate(-180 481 27)" fill="#FFD445"/>
<circle opacity="0.01" cx="455" cy="41" r="2" transform="rotate(-180 455 41)" fill="#FFD445"/>
<circle opacity="0.03" cx="457" cy="24" r="3" transform="rotate(-180 457 24)" fill="#FFD445"/>
<circle opacity="0.03" cx="474" cy="42" r="3" transform="rotate(-180 474 42)" fill="#FFD445"/>
<circle opacity="0.1" cx="487" cy="22" r="3" transform="rotate(-180 487 22)" fill="#FFD445"/>
<circle opacity="0.02" cx="473" cy="65" r="3" transform="rotate(-180 473 65)" fill="#FFD445"/>
<circle opacity="0.03" cx="597" cy="87" r="2" transform="rotate(-180 597 87)" fill="#FFD445"/>
<circle opacity="0.01" cx="627.5" cy="47.5" r="2.5" transform="rotate(-180 627.5 47.5)" fill="#FFD445"/>
<circle opacity="0.01" cx="625.5" cy="96.5" r="2.5" transform="rotate(-180 625.5 96.5)" fill="#FFD445"/>
<circle opacity="0.03" cx="678.5" cy="87.5" r="2.5" transform="rotate(-180 678.5 87.5)" fill="#FFD445"/>
<circle opacity="0.02" cx="653" cy="79" r="5" transform="rotate(-180 653 79)" fill="#FFD445"/>
<circle opacity="0.04" cx="683.5" cy="41.5" r="5.5" transform="rotate(-180 683.5 41.5)" fill="#FFD445"/>
<circle opacity="0.02" cx="753" cy="86.0001" r="5" transform="rotate(-180 753 86.0001)" fill="#FFD445"/>
<circle opacity="0.07" cx="755" cy="42.0001" r="3" transform="rotate(-180 755 42.0001)" fill="#FFD445"/>
<circle opacity="0.05" cx="725" cy="25" r="5" transform="rotate(-180 725 25)" fill="#FFD445"/>
<circle opacity="0.02" cx="745.5" cy="25.5" r="2.5" transform="rotate(-180 745.5 25.5)" fill="#FFD445"/>
<ellipse opacity="0.02" cx="725.5" cy="10.5" rx="1.5" ry="1.5" transform="rotate(-180 725.5 10.5)" fill="#FFD445"/>
<circle opacity="0.01" cx="727.5" cy="32.5" r="6.5" transform="rotate(-180 727.5 32.5)" fill="#FFD445"/>
<circle opacity="0.02" cx="691.5" cy="12.5" r="10.5" transform="rotate(-180 691.5 12.5)" fill="#FFD445"/>
<circle opacity="0.11" cx="710.5" cy="57.5" r="2.5" transform="rotate(-180 710.5 57.5)" fill="#FFD445"/>
<circle opacity="0.02" cx="691.5" cy="104.5" r="4.5" transform="rotate(-180 691.5 104.5)" fill="#FFD445"/>
<circle opacity="0.01" r="10.5" transform="matrix(1 8.74228e-08 8.74228e-08 -1 811.5 110.5)" fill="#FFD445"/>
<circle opacity="0.01" r="6.5" transform="matrix(1 8.74228e-08 8.74228e-08 -1 822.5 85.5001)" fill="#FFD445"/>
<circle opacity="0.01" r="2.5" transform="matrix(1 8.74228e-08 8.74228e-08 -1 800.5 69.5001)" fill="#FFD445"/>
<circle opacity="0.02" r="3" transform="matrix(1 8.74228e-08 8.74228e-08 -1 812 52.0001)" fill="#FFD445"/>
<circle opacity="0.02" r="3" transform="matrix(1 8.74228e-08 8.74228e-08 -1 851 61.0001)" fill="#FFD445"/>
<circle opacity="0.03" r="5" transform="matrix(1 8.74228e-08 8.74228e-08 -1 880 74.0001)" fill="#FFD445"/>
<circle opacity="0.02" r="3.5" transform="matrix(1 8.74228e-08 8.74228e-08 -1 886.5 48.5001)" fill="#FFD445"/>
<circle opacity="0.01" r="2" transform="matrix(1 8.74228e-08 8.74228e-08 -1 916 14.0001)" fill="#FFD445"/>
<circle opacity="0.01" r="2" transform="matrix(1 8.74228e-08 8.74228e-08 -1 918 15.0001)" fill="#FFD445"/>
<circle opacity="0.01" r="1" transform="matrix(1 8.74228e-08 8.74228e-08 -1 943 14.0001)" fill="#FFD445"/>
<circle opacity="0.01" r="1" transform="matrix(1 8.74228e-08 8.74228e-08 -1 958 22.0001)" fill="#FFD445"/>
<circle opacity="0.05" r="3.5" transform="matrix(1 8.74228e-08 8.74228e-08 -1 891.5 23.5001)" fill="#FFD445"/>
<circle opacity="0.01" r="4.5" transform="matrix(1 8.74228e-08 8.74228e-08 -1 919.5 62.5001)" fill="#FFD445"/>
<circle opacity="0.01" r="13.5" transform="matrix(1 8.74228e-08 8.74228e-08 -1 931.5 34.5001)" fill="#FFD445"/>
<circle opacity="0.06" r="4.5" transform="matrix(1 8.74228e-08 8.74228e-08 -1 1007.5 78.5001)" fill="#FFD445"/>
<circle opacity="0.04" r="2.5" transform="matrix(1 8.74228e-08 8.74228e-08 -1 1017.5 72.5001)" fill="#FFD445"/>
<circle opacity="0.02" r="2.5" transform="matrix(1 8.74228e-08 8.74228e-08 -1 994.5 58.5001)" fill="#FFD445"/>
<ellipse opacity="0.04" rx="3.5" ry="3.5" transform="matrix(1 8.74228e-08 8.74228e-08 -1 985.5 46.5)" fill="#FFD445"/>
<circle opacity="0.04" r="1.5" transform="matrix(1 8.74228e-08 8.74228e-08 -1 965.5 48.5001)" fill="#FFD445"/>
<circle opacity="0.1" r="1.5" transform="matrix(1 8.74228e-08 8.74228e-08 -1 1032.5 28.5)" fill="#FFD445"/>
<circle opacity="0.03" r="1.5" transform="matrix(1 8.74228e-08 8.74228e-08 -1 1029.5 74.5001)" fill="#FFD445"/>
<circle opacity="0.02" r="4.5" transform="matrix(1 8.74228e-08 8.74228e-08 -1 969.5 64.5001)" fill="#FFD445"/>
<circle opacity="0.03" r="4.5" transform="matrix(1 8.74228e-08 8.74228e-08 -1 936.5 47.5)" fill="#FFD445"/>
<circle opacity="0.02" r="4.5" transform="matrix(1 8.74228e-08 8.74228e-08 -1 976.5 21.5001)" fill="#FFD445"/>
<circle opacity="0.02" r="3" transform="matrix(1 8.74228e-08 8.74228e-08 -1 1011 40.0001)" fill="#FFD445"/>
<circle opacity="0.02" r="2.5" transform="matrix(1 8.74228e-08 8.74228e-08 -1 1027.5 57.5001)" fill="#FFD445"/>
<circle opacity="0.02" r="2.5" transform="matrix(1 8.74228e-08 8.74228e-08 -1 1096.5 57.5001)" fill="#FFD445"/>
<circle opacity="0.02" r="2.5" transform="matrix(1 8.74228e-08 8.74228e-08 -1 1111.5 28.5001)" fill="#FFD445"/>
<circle opacity="0.06" r="2.5" transform="matrix(1 8.74228e-08 8.74228e-08 -1 1140.5 40.5001)" fill="#FFD445"/>
<circle opacity="0.02" r="4.5" transform="matrix(1 8.74228e-08 8.74228e-08 -1 1121.5 60.5001)" fill="#FFD445"/>
<circle opacity="0.02" r="16.5" transform="matrix(1 8.74228e-08 8.74228e-08 -1 1146.5 21.5001)" fill="#FFD445"/>
<ellipse opacity="0.02" rx="11" ry="11" transform="matrix(1 8.74228e-08 8.74228e-08 -1 1506 34.0001)" fill="#FFD445"/>
<ellipse opacity="0.01" rx="19" ry="19" transform="matrix(1 8.74228e-08 8.74228e-08 -1 1292 44.0001)" fill="#FFD445"/>
<circle opacity="0.02" r="6" transform="matrix(1 8.74228e-08 8.74228e-08 -1 1180 39.0001)" fill="#FFD445"/>
<circle opacity="0.02" r="6" transform="matrix(1 8.74228e-08 8.74228e-08 -1 1268 8.00008)" fill="#FFD445"/>
<circle opacity="0.01" r="4" transform="matrix(1 8.74228e-08 8.74228e-08 -1 1162 55.0001)" fill="#FFD445"/>
<circle opacity="0.01" r="2.5" transform="matrix(1 8.74228e-08 8.74228e-08 -1 1191.5 18.5001)" fill="#FFD445"/>
<circle opacity="0.01" r="2" transform="matrix(1 8.74228e-08 8.74228e-08 -1 1213 39.0001)" fill="#FFD445"/>
<circle opacity="0.03" r="3" transform="matrix(1 8.74228e-08 8.74228e-08 -1 1225 48.0001)" fill="#FFD445"/>
<circle opacity="0.01" r="2.5" transform="matrix(1 8.74228e-08 8.74228e-08 -1 1241.5 49.5001)" fill="#FFD445"/>
<circle opacity="0.01" r="4" transform="matrix(1 8.74228e-08 8.74228e-08 -1 1258 60.0001)" fill="#FFD445"/>
<circle opacity="0.01" r="4" transform="matrix(1 8.74228e-08 8.74228e-08 -1 1115 6.00005)" fill="#FFD445"/>
<ellipse opacity="0.1" rx="2" ry="2" transform="matrix(1 8.74228e-08 8.74228e-08 -1 1087 9.00005)" fill="#FFD445"/>
<circle opacity="0.05" r="2.5" transform="matrix(1 8.74228e-08 8.74228e-08 -1 1261.5 42.5001)" fill="#FFD445"/>
<circle opacity="0.01" r="2.5" transform="matrix(1 8.74228e-08 8.74228e-08 -1 1369.5 45.5001)" fill="#FFD445"/>
<circle opacity="0.05" r="2.5" transform="matrix(1 8.74228e-08 8.74228e-08 -1 1231.5 10.5001)" fill="#FFD445"/>
<circle opacity="0.03" r="4" transform="matrix(1 8.74228e-08 8.74228e-08 -1 1281 26.0001)" fill="#FFD445"/>
<circle opacity="0.01" r="4" transform="matrix(1 8.74228e-08 8.74228e-08 -1 1106 47.0001)" fill="#FFD445"/>
<circle opacity="0.01" r="3" transform="matrix(1 8.74228e-08 8.74228e-08 -1 1289 23.0001)" fill="#FFD445"/>
<circle opacity="0.02" r="2" transform="matrix(1 8.74228e-08 8.74228e-08 -1 1294 17.0001)" fill="#FFD445"/>
<circle opacity="0.03" r="1.5" transform="matrix(1 8.74228e-08 8.74228e-08 -1 1308.5 36.5001)" fill="#FFD445"/>
<circle opacity="0.02" r="1.5" transform="matrix(1 8.74228e-08 8.74228e-08 -1 1282.5 68.5001)" fill="#FFD445"/>
<circle opacity="0.06" r="2.5" transform="matrix(1 8.74228e-08 8.74228e-08 -1 1297.5 49.5001)" fill="#FFD445"/>
<circle opacity="0.01" r="2" transform="matrix(1 8.74228e-08 8.74228e-08 -1 1340 78.0001)" fill="#FFD445"/>
<circle opacity="0.01" r="2" transform="matrix(1 8.74228e-08 8.74228e-08 -1 1328 43.0001)" fill="#FFD445"/>
<circle opacity="0.02" r="1.5" transform="matrix(1 8.74228e-08 8.74228e-08 -1 1319.5 55.5001)" fill="#FFD445"/>
<circle opacity="0.02" r="4" transform="matrix(1 8.74228e-08 8.74228e-08 -1 1312 44.0001)" fill="#FFD445"/>
<circle opacity="0.01" r="3" transform="matrix(1 8.74228e-08 8.74228e-08 -1 1298 10.0001)" fill="#FFD445"/>
<circle opacity="0.03" r="2.5" transform="matrix(1 8.74228e-08 8.74228e-08 -1 1319.5 12.5001)" fill="#FFD445"/>
<circle opacity="0.04" r="2.5" transform="matrix(1 8.74228e-08 8.74228e-08 -1 1341.5 27.5001)" fill="#FFD445"/>
<circle opacity="0.05" r="1.5" transform="matrix(1 8.74228e-08 8.74228e-08 -1 1372.5 55.5001)" fill="#FFD445"/>
<circle opacity="0.03" r="3.5" transform="matrix(1 8.74228e-08 8.74228e-08 -1 1389.5 30.5001)" fill="#FFD445"/>
<circle opacity="0.02" r="3.5" transform="matrix(1 8.74228e-08 8.74228e-08 -1 1386.5 10.5001)" fill="#FFD445"/>
<circle opacity="0.02" r="9" transform="matrix(1 8.74228e-08 8.74228e-08 -1 1420 48.0001)" fill="#FFD445"/>
<circle opacity="0.03" r="4.5" transform="matrix(1 8.74228e-08 8.74228e-08 -1 1453.5 24.5001)" fill="#FFD445"/>
<circle opacity="0.01" r="2.5" transform="matrix(1 8.74228e-08 8.74228e-08 -1 1489.5 18.5001)" fill="#FFD445"/>
<circle opacity="0.01" r="4" transform="matrix(1 8.74228e-08 8.74228e-08 -1 1517 37.0001)" fill="#FFD445"/>
<circle opacity="0.04" r="3.5" transform="matrix(1 8.74228e-08 8.74228e-08 -1 1495.5 60.5001)" fill="#FFD445"/>
<circle opacity="0.01" r="2" transform="matrix(1 8.74228e-08 8.74228e-08 -1 1530 59.0001)" fill="#FFD445"/>
<circle opacity="0.1" r="2" transform="matrix(1 8.74228e-08 8.74228e-08 -1 1538 22.0001)" fill="#FFD445"/>
<circle opacity="0.01" r="2.5" transform="matrix(1 8.74228e-08 8.74228e-08 -1 1467.5 45.5001)" fill="#FFD445"/>
<ellipse opacity="0.01" rx="5.5" ry="5.5" transform="matrix(1 8.74228e-08 8.74228e-08 -1 1446.5 60.5001)" fill="#FFD445"/>
<circle opacity="0.01" r="3.5" transform="matrix(1 8.74228e-08 8.74228e-08 -1 1416.5 21.5001)" fill="#FFD445"/>
<circle opacity="0.04" r="3.5" transform="matrix(1 8.74228e-08 8.74228e-08 -1 1403.5 60.5001)" fill="#FFD445"/>
<circle opacity="0.01" r="2" transform="matrix(1 8.74228e-08 8.74228e-08 -1 1329 85.0001)" fill="#FFD445"/>
<circle opacity="0.01" r="2" transform="matrix(1 8.74228e-08 8.74228e-08 -1 1347 18.0001)" fill="#FFD445"/>
<circle opacity="0.02" r="2" transform="matrix(1 8.74228e-08 8.74228e-08 -1 1350 19.0001)" fill="#FFD445"/>
<circle opacity="0.01" r="2.5" transform="matrix(1 8.74228e-08 8.74228e-08 -1 1256.5 28.5001)" fill="#FFD445"/>
<circle opacity="0.01" r="4.5" transform="matrix(1 8.74228e-08 8.74228e-08 -1 1349.5 67.5001)" fill="#FFD445"/>
<circle opacity="0.01" r="3" transform="matrix(1 8.74228e-08 8.74228e-08 -1 1214 18.0001)" fill="#FFD445"/>
<circle opacity="0.02" r="2" transform="matrix(1 8.74228e-08 8.74228e-08 -1 1239 25.0001)" fill="#FFD445"/>
<circle opacity="0.01" r="1.5" transform="matrix(1 8.74228e-08 8.74228e-08 -1 1171.5 67.5001)" fill="#FFD445"/>
<circle opacity="0.02" r="1.5" transform="matrix(1 8.74228e-08 8.74228e-08 -1 1230.5 37.5001)" fill="#FFD445"/>
<circle opacity="0.03" r="2" transform="matrix(1 8.74228e-08 8.74228e-08 -1 1199 31.0001)" fill="#FFD445"/>
<circle opacity="0.02" r="4.5" transform="matrix(1 8.74228e-08 8.74228e-08 -1 1354.5 72.5001)" fill="#FFD445"/>
<circle opacity="0.01" r="2" transform="matrix(1 8.74228e-08 8.74228e-08 -1 1194 57.0001)" fill="#FFD445"/>
<circle opacity="0.01" r="1.5" transform="matrix(1 8.74228e-08 8.74228e-08 -1 1211.5 64.5001)" fill="#FFD445"/>
<circle opacity="0.01" r="1.5" transform="matrix(1 8.74228e-08 8.74228e-08 -1 1229.5 58.5001)" fill="#FFD445"/>
<circle opacity="0.03" r="1.5" transform="matrix(1 8.74228e-08 8.74228e-08 -1 1130.5 61.5001)" fill="#FFD445"/>
<circle opacity="0.01" r="1.5" transform="matrix(1 8.74228e-08 8.74228e-08 -1 1176.5 24.5001)" fill="#FFD445"/>
<circle opacity="0.01" r="1.5" transform="matrix(1 8.74228e-08 8.74228e-08 -1 1173.5 10.5001)" fill="#FFD445"/>
<circle opacity="0.01" r="1" transform="matrix(1 8.74228e-08 8.74228e-08 -1 1113 24.0001)" fill="#FFD445"/>
<circle opacity="0.06" r="1" transform="matrix(1 8.74228e-08 8.74228e-08 -1 1121 34.0001)" fill="#FFD445"/>
<circle opacity="0.02" r="1.5" transform="matrix(1 8.74228e-08 8.74228e-08 -1 1079.5 51.5001)" fill="#FFD445"/>
<ellipse opacity="0.03" rx="3.5" ry="3.5" transform="matrix(1 8.74228e-08 8.74228e-08 -1 1075.5 50.5)" fill="#FFD445"/>
<circle opacity="0.01" r="3" transform="matrix(1 8.74228e-08 8.74228e-08 -1 1011 9.00008)" fill="#FFD445"/>
<circle opacity="0.03" r="5" transform="matrix(1 8.74228e-08 8.74228e-08 -1 1024 24.0001)" fill="#FFD445"/>
<circle opacity="0.05" r="3" transform="matrix(1 8.74228e-08 8.74228e-08 -1 1042 48.0001)" fill="#FFD445"/>
<circle opacity="0.02" r="2" transform="matrix(1 8.74228e-08 8.74228e-08 -1 1059 25.0001)" fill="#FFD445"/>
<circle opacity="0.01" r="2" transform="matrix(1 8.74228e-08 8.74228e-08 -1 1085 39.0001)" fill="#FFD445"/>
<circle opacity="0.03" r="3" transform="matrix(1 8.74228e-08 8.74228e-08 -1 1083 22.0001)" fill="#FFD445"/>
<circle opacity="0.03" r="3" transform="matrix(1 8.74228e-08 8.74228e-08 -1 1066 40.0001)" fill="#FFD445"/>
<circle opacity="0.1" r="3" transform="matrix(1 8.74228e-08 8.74228e-08 -1 1053 20.0001)" fill="#FFD445"/>
<circle opacity="0.02" r="3" transform="matrix(1 8.74228e-08 8.74228e-08 -1 1067 63.0001)" fill="#FFD445"/>
<circle opacity="0.03" r="2" transform="matrix(1 8.74228e-08 8.74228e-08 -1 943 85.0001)" fill="#FFD445"/>
<circle opacity="0.01" r="2.5" transform="matrix(1 8.74228e-08 8.74228e-08 -1 912.5 45.5001)" fill="#FFD445"/>
<circle opacity="0.01" r="2.5" transform="matrix(1 8.74228e-08 8.74228e-08 -1 914.5 94.5001)" fill="#FFD445"/>
<circle opacity="0.03" r="2.5" transform="matrix(1 8.74228e-08 8.74228e-08 -1 861.5 85.5001)" fill="#FFD445"/>
<circle opacity="0.02" r="5" transform="matrix(1 8.74228e-08 8.74228e-08 -1 887 77.0001)" fill="#FFD445"/>
<circle opacity="0.04" r="5.5" transform="matrix(1 8.74228e-08 8.74228e-08 -1 856.5 39.5001)" fill="#FFD445"/>
<circle opacity="0.02" r="5" transform="matrix(1 8.74228e-08 8.74228e-08 -1 787 84.0001)" fill="#FFD445"/>
<circle opacity="0.07" r="3" transform="matrix(1 8.74228e-08 8.74228e-08 -1 785 40.0001)" fill="#FFD445"/>
<circle opacity="0.05" r="5" transform="matrix(1 8.74228e-08 8.74228e-08 -1 815 23)" fill="#FFD445"/>
<circle opacity="0.02" r="2.5" transform="matrix(1 8.74228e-08 8.74228e-08 -1 794.5 23.5001)" fill="#FFD445"/>
<ellipse opacity="0.02" rx="1.5" ry="1.5" transform="matrix(1 8.74228e-08 8.74228e-08 -1 814.5 8.5)" fill="#FFD445"/>
<circle opacity="0.01" r="6.5" transform="matrix(1 8.74228e-08 8.74228e-08 -1 812.5 30.5001)" fill="#FFD445"/>
<circle opacity="0.02" r="10.5" transform="matrix(1 8.74228e-08 8.74228e-08 -1 848.5 10.5001)" fill="#FFD445"/>
<circle opacity="0.11" r="2.5" transform="matrix(1 8.74228e-08 8.74228e-08 -1 829.5 55.5001)" fill="#FFD445"/>
<circle opacity="0.02" r="4.5" transform="matrix(1 8.74228e-08 8.74228e-08 -1 848.5 102.5)" fill="#FFD445"/>
</svg>
