<svg width="573" height="686" viewBox="0 0 573 686" fill="none" xmlns="http://www.w3.org/2000/svg">
<g opacity="0.05">
<path fill-rule="evenodd" clip-rule="evenodd" d="M394.313 685.4H396.31V569.434H395.311V569.433H274.521V388.927V388.927H274.521L228.561 342.9H225.738L272.524 389.755V569.434H272.526V571.433L394.313 571.433V685.4ZM221.505 342.9H224.328L271.545 390.185L271.528 390.202L271.528 572.432H393.315L393.315 574.432L393.316 574.432V685.4H391.319V574.432L269.532 574.432V572.433H269.532L269.532 390.997L221.505 342.9ZM217.268 342.9H220.093L268.527 391.405L268.526 391.406H268.532V575.432H390.32V577.432L390.32 577.432V685.4H388.324V577.432L266.538 577.432V575.432H266.535L266.535 392.239L217.268 342.9ZM213.035 342.9H215.857L265.546 392.661L265.538 392.67L265.538 578.431H387.325V580.431L387.326 580.431V685.4H385.329V580.431H263.542V578.431H263.541V393.48L213.035 342.9ZM208.796 342.9H211.622L262.543 393.896L262.542 393.897V581.429H384.331V583.429L260.548 583.429V581.43H260.546L260.546 394.725L208.796 342.9ZM204.563 342.9H207.386L259.544 395.135H259.549V584.429H381.336L381.336 586.429V685.4H379.34V586.429L257.553 586.429V585.429H257.552L257.552 395.967L204.563 342.9ZM384.332 685.4H382.335V583.43H384.332V685.4Z" fill="#FFD445"/>
<path fill-rule="evenodd" clip-rule="evenodd" d="M218.398 478.46L220.118 480.46V475.461L218.399 477.46H214.851L213.132 475.461V480.46L214.852 478.46H218.398Z" fill="#FFD445"/>
<path d="M219.619 474.462L218.122 472.462H215.127L213.63 474.462L215.127 476.461H218.122L219.619 474.462Z" fill="#FFD445"/>
<path fill-rule="evenodd" clip-rule="evenodd" d="M218.398 485.458L220.118 487.458V482.459L218.399 484.458H214.851L213.132 482.459V487.458L214.852 485.458H218.398Z" fill="#FFD445"/>
<path d="M219.619 481.46L218.122 479.46H215.127L213.63 481.46L215.127 483.459H218.122L219.619 481.46Z" fill="#FFD445"/>
<path fill-rule="evenodd" clip-rule="evenodd" d="M218.398 492.456L220.118 494.456V489.457L218.399 491.456H214.851L213.132 489.457V494.456L214.852 492.456H218.398Z" fill="#FFD445"/>
<path d="M219.619 488.458L218.122 486.458H215.127L213.63 488.458L215.127 490.457H218.122L219.619 488.458Z" fill="#FFD445"/>
<path fill-rule="evenodd" clip-rule="evenodd" d="M218.398 499.454L220.118 501.454V496.455L218.399 498.454H214.851L213.132 496.455V501.454L214.852 499.454H218.398Z" fill="#FFD445"/>
<path d="M219.619 495.456L218.122 493.456H215.127L213.63 495.456L215.127 497.455H218.122L219.619 495.456Z" fill="#FFD445"/>
<path fill-rule="evenodd" clip-rule="evenodd" d="M218.398 506.452L220.118 508.452V503.453L218.399 505.452H214.851L213.132 503.453V508.452L214.852 506.452H218.398Z" fill="#FFD445"/>
<path d="M219.619 502.454L218.122 500.454H215.127L213.63 502.454L215.127 504.453H218.122L219.619 502.454Z" fill="#FFD445"/>
<path fill-rule="evenodd" clip-rule="evenodd" d="M218.398 513.449L220.118 515.449V510.451L218.399 512.449H214.851L213.132 510.451V515.449L214.852 513.449H218.398Z" fill="#FFD445"/>
<path d="M219.619 509.452L218.122 507.452H215.127L213.63 509.452L215.127 511.451H218.122L219.619 509.452Z" fill="#FFD445"/>
<path d="M219.619 516.449L218.122 514.449H215.127L213.63 516.449H215.127H218.122H219.619Z" fill="#FFD445"/>
<path fill-rule="evenodd" clip-rule="evenodd" d="M218.398 471.462L220.118 473.462V468.463L218.399 470.462H214.851L213.132 468.463V473.462L214.852 471.462H218.398Z" fill="#FFD445"/>
<path d="M219.619 467.464L218.122 465.464H215.127L213.63 467.464L215.127 469.463H218.122L219.619 467.464Z" fill="#FFD445"/>
<path fill-rule="evenodd" clip-rule="evenodd" d="M218.398 464.464L220.118 466.464V461.466L218.399 463.464H214.851L213.132 461.466V466.464L214.852 464.464H218.398Z" fill="#FFD445"/>
<path d="M219.619 460.466L218.122 458.466H215.127L213.63 460.466L215.127 462.465H218.122L219.619 460.466Z" fill="#FFD445"/>
<path fill-rule="evenodd" clip-rule="evenodd" d="M218.398 457.466L220.118 459.466V454.468L218.399 456.466H214.851L213.132 454.468V459.466L214.852 457.466H218.398Z" fill="#FFD445"/>
<path d="M219.619 453.468L218.122 451.468H215.127L213.63 453.468L215.127 455.467H218.122L219.619 453.468Z" fill="#FFD445"/>
<path fill-rule="evenodd" clip-rule="evenodd" d="M218.398 450.468L220.118 452.468V447.47L218.399 449.468H214.851L213.132 447.47V452.468L214.852 450.468H218.398Z" fill="#FFD445"/>
<path d="M219.619 446.47L218.122 444.47H215.127L213.63 446.47L215.127 448.469H218.122L219.619 446.47Z" fill="#FFD445"/>
<path fill-rule="evenodd" clip-rule="evenodd" d="M218.398 443.47L220.118 445.47V440.472L218.399 442.47H214.851L213.132 440.472V445.47L214.852 443.47H218.398Z" fill="#FFD445"/>
<path d="M219.619 439.472L218.122 437.473H215.127L213.63 439.472L215.127 441.471H218.122L219.619 439.472Z" fill="#FFD445"/>
<path fill-rule="evenodd" clip-rule="evenodd" d="M218.398 436.472L220.118 438.472V433.474L218.399 435.472H214.851L213.132 433.474V438.472L214.852 436.472H218.398Z" fill="#FFD445"/>
<path d="M219.619 432.474L218.122 430.475H215.127L213.63 432.474L215.127 434.473H218.122L219.619 432.474Z" fill="#FFD445"/>
<path fill-rule="evenodd" clip-rule="evenodd" d="M218.398 429.474L220.118 431.474V426.476L218.399 428.474H214.851L213.132 426.476V431.474L214.852 429.474H218.398Z" fill="#FFD445"/>
<path d="M219.619 425.476L218.122 423.477H215.127L213.63 425.476L215.127 427.475H218.122L219.619 425.476Z" fill="#FFD445"/>
<path fill-rule="evenodd" clip-rule="evenodd" d="M218.398 422.476L220.118 424.476V419.478L218.399 421.476H214.851L213.132 419.478V424.476L214.852 422.476H218.398Z" fill="#FFD445"/>
<path d="M219.619 418.478L218.122 416.479H215.127L213.63 418.478L215.127 420.478H218.122L219.619 418.478Z" fill="#FFD445"/>
<path fill-rule="evenodd" clip-rule="evenodd" d="M218.398 415.478L220.118 417.478V412.48L218.399 414.478H214.851L213.132 412.48V417.478L214.852 415.478H218.398Z" fill="#FFD445"/>
<path d="M219.619 411.48L218.122 409.481H215.127L213.63 411.48L215.127 413.479H218.122L219.619 411.48Z" fill="#FFD445"/>
<path fill-rule="evenodd" clip-rule="evenodd" d="M218.398 408.48L220.118 410.48V405.482L218.399 407.48H214.851L213.132 405.482V410.48L214.852 408.48H218.398Z" fill="#FFD445"/>
<path d="M219.619 404.482L218.122 402.483H215.127L213.63 404.482L215.127 406.481H218.122L219.619 404.482Z" fill="#FFD445"/>
<path fill-rule="evenodd" clip-rule="evenodd" d="M218.398 401.482L220.118 403.482V398.484L218.399 400.482H214.851L213.132 398.484V403.482L214.852 401.482H218.398Z" fill="#FFD445"/>
<path d="M219.619 397.484L218.122 395.485H215.127L213.63 397.484L215.127 399.484H218.122L219.619 397.484Z" fill="#FFD445"/>
<path fill-rule="evenodd" clip-rule="evenodd" d="M218.398 394.484L220.118 396.484V391.486L218.399 393.484H214.851L213.132 391.486V396.484L214.852 394.484H218.398Z" fill="#FFD445"/>
<path d="M219.619 390.486L218.122 388.487H215.127L213.63 390.486L215.127 392.486H218.122L219.619 390.486Z" fill="#FFD445"/>
<path fill-rule="evenodd" clip-rule="evenodd" d="M218.398 387.487L220.118 389.487V384.488L218.399 386.487H214.851L213.132 384.488V389.487L214.852 387.487H218.398Z" fill="#FFD445"/>
<path d="M219.619 383.488L218.122 381.489H215.127L213.63 383.488L215.127 385.488H218.122L219.619 383.488Z" fill="#FFD445"/>
<path fill-rule="evenodd" clip-rule="evenodd" d="M218.398 380.489L220.118 382.489V377.49L218.399 379.489H214.851L213.132 377.49V382.489L214.852 380.489H218.398Z" fill="#FFD445"/>
<path d="M219.619 376.49L218.122 374.491H215.127L213.63 376.49L215.127 378.49H218.122L219.619 376.49Z" fill="#FFD445"/>
<path fill-rule="evenodd" clip-rule="evenodd" d="M218.398 373.491L220.118 375.491V370.492L218.399 372.491H214.851L213.132 370.492V375.491L214.852 373.491H218.398Z" fill="#FFD445"/>
<path d="M219.619 369.492L218.122 367.493H215.127L213.63 369.492L215.127 371.492H218.122L219.619 369.492Z" fill="#FFD445"/>
<path fill-rule="evenodd" clip-rule="evenodd" d="M218.398 366.493L220.118 368.493V363.494L218.399 365.493H214.851L213.132 363.494V368.493L214.852 366.493H218.398Z" fill="#FFD445"/>
<path d="M219.619 362.494L218.122 360.495H215.127L213.63 362.494L215.127 364.494H218.122L219.619 362.494Z" fill="#FFD445"/>
<path fill-rule="evenodd" clip-rule="evenodd" d="M218.398 359.495L220.118 361.495V356.496L218.399 358.495H214.851L213.132 356.496V361.495L214.852 359.495H218.398Z" fill="#FFD445"/>
<path d="M219.619 355.496L218.122 353.497H215.127L213.63 355.496L215.127 357.496H218.122L219.619 355.496Z" fill="#FFD445"/>
<path fill-rule="evenodd" clip-rule="evenodd" d="M218.398 352.497L220.118 354.497V349.498L218.399 351.497H214.851L213.132 349.498V354.497L214.852 352.497H218.398Z" fill="#FFD445"/>
<path d="M219.619 348.498L218.122 346.499H215.127L213.63 348.498L215.127 350.498H218.122L219.619 348.498Z" fill="#FFD445"/>
<path fill-rule="evenodd" clip-rule="evenodd" d="M234.594 518.172L236.59 516.449L231.599 516.449L233.595 518.173L233.595 521.725L231.599 523.448L236.59 523.448L234.594 521.725L234.594 518.172Z" fill="#FFD445"/>
<path d="M230.601 516.95L228.605 518.45L228.605 521.449L230.601 522.949L232.598 521.449L232.598 518.45L230.601 516.95Z" fill="#FFD445"/>
<path d="M237.589 516.95L235.592 518.45L235.592 521.449L237.589 522.949L237.589 521.449L237.589 518.45L237.589 516.95Z" fill="#FFD445"/>
<path fill-rule="evenodd" clip-rule="evenodd" d="M227.606 518.173L229.603 516.449L224.611 516.449L226.607 518.172L226.607 521.725L224.611 523.448L229.603 523.448L227.606 521.725L227.606 518.173Z" fill="#FFD445"/>
<path d="M223.613 516.95L221.616 518.45L221.616 521.449L223.613 522.949L225.609 521.449L225.609 518.45L223.613 516.95Z" fill="#FFD445"/>
<path fill-rule="evenodd" clip-rule="evenodd" d="M220.619 518.172L222.614 516.449L217.623 516.449L219.62 518.173L219.62 521.724L217.623 523.448L222.614 523.448L220.619 521.726L220.619 518.172Z" fill="#FFD445"/>
<path d="M216.626 516.95L214.629 518.45L214.629 521.449L216.626 522.949L218.622 521.449L218.622 518.45L216.626 516.95Z" fill="#FFD445"/>
<path fill-rule="evenodd" clip-rule="evenodd" d="M213.631 518.172L215.627 516.449L210.636 516.449L212.632 518.173L212.632 521.725L210.636 523.448L215.627 523.448L213.631 521.725L213.631 518.172Z" fill="#FFD445"/>
<path d="M209.637 516.95L207.641 518.45L207.641 521.449L209.637 522.949L211.634 521.449L211.634 518.45L209.637 516.95Z" fill="#FFD445"/>
<path fill-rule="evenodd" clip-rule="evenodd" d="M206.643 518.173L208.64 516.449L203.648 516.449L205.644 518.172L205.644 521.725L203.648 523.448L208.64 523.448L206.643 521.725L206.643 518.173Z" fill="#FFD445"/>
<path d="M202.65 516.95L200.653 518.45L200.653 521.449L202.65 522.949L204.646 521.449L204.646 518.45L202.65 516.95Z" fill="#FFD445"/>
<path fill-rule="evenodd" clip-rule="evenodd" d="M199.656 518.172L201.651 516.449L196.66 516.449L198.657 518.173L198.657 521.724L196.66 523.448L201.651 523.448L199.656 521.726L199.656 518.172Z" fill="#FFD445"/>
<path d="M195.662 516.95L195.662 518.45L195.662 521.449L195.662 522.949L197.658 521.449L197.658 518.45L195.662 516.95Z" fill="#FFD445"/>
<path fill-rule="evenodd" clip-rule="evenodd" d="M359.375 685.4H354.384V606.423H359.375V685.4ZM242.58 685.4H237.588V375.528L242.58 380.537V606.423H354.384V611.422L242.58 611.422V685.4ZM195.662 685.4H190.671V380.212L195.385 375.49H195.662V685.4Z" fill="#FFD445"/>
<rect width="4.99124" height="200.941" transform="matrix(-1 0 0 1 299.479 141.959)" fill="#FFD445"/>
<path fill-rule="evenodd" clip-rule="evenodd" d="M418.271 16.3953V11.3968L568.009 11.3968V16.3953L520.322 16.3953L568.009 64.1662V11.3968H573V119.365H568.009V68.813L515.683 16.3953L423.263 16.3953V142.359H418.272V16.3953L418.271 16.3953ZM418.271 142.359H302.76L360.659 200.342H477.168V205.34L365.65 205.34L443.228 283.032L439.699 286.566L362.369 209.124V342.9H357.378V205.34H357.378V204.125L296.604 143.262L297.506 142.359H294.488V137.36L418.271 137.36V142.359ZM482.159 205.34V119.365L568.008 119.365V114.367L477.168 114.367V119.365L477.168 119.365V205.34H482.159Z" fill="#FFD445"/>
<path fill-rule="evenodd" clip-rule="evenodd" d="M218.398 207.34L220.118 205.34V210.339L218.399 208.34H214.851L213.132 210.339V205.34L214.852 207.34H218.398Z" fill="#FFD445"/>
<path d="M219.619 211.338L218.122 213.338H215.127L213.63 211.338L215.127 209.339H218.122L219.619 211.338Z" fill="#FFD445"/>
<path fill-rule="evenodd" clip-rule="evenodd" d="M218.398 200.342L220.118 198.342V203.341L218.399 201.342H214.851L213.132 203.341V198.342L214.852 200.342H218.398Z" fill="#FFD445"/>
<path d="M219.619 204.34L218.122 206.34H215.127L213.63 204.34L215.127 202.341H218.122L219.619 204.34Z" fill="#FFD445"/>
<path fill-rule="evenodd" clip-rule="evenodd" d="M218.398 193.344L220.118 191.344V196.343L218.399 194.344H214.851L213.132 196.343V191.344L214.852 193.344H218.398Z" fill="#FFD445"/>
<path d="M219.619 197.342L218.122 199.342H215.127L213.63 197.342L215.127 195.343H218.122L219.619 197.342Z" fill="#FFD445"/>
<path fill-rule="evenodd" clip-rule="evenodd" d="M218.398 186.346L220.118 184.346V189.345L218.399 187.346H214.851L213.132 189.345V184.346L214.852 186.346H218.398Z" fill="#FFD445"/>
<path d="M219.619 190.345L218.122 192.344H215.127L213.63 190.345L215.127 188.345H218.122L219.619 190.345Z" fill="#FFD445"/>
<path fill-rule="evenodd" clip-rule="evenodd" d="M218.398 179.348L220.118 177.348V182.347L218.399 180.348H214.851L213.132 182.347V177.348L214.852 179.348H218.398Z" fill="#FFD445"/>
<path d="M219.619 183.347L218.122 185.346H215.127L213.63 183.347L215.127 181.347H218.122L219.619 183.347Z" fill="#FFD445"/>
<path fill-rule="evenodd" clip-rule="evenodd" d="M218.398 172.351L220.118 170.351V175.349L218.399 173.351H214.851L213.132 175.349V170.351L214.852 172.351H218.398Z" fill="#FFD445"/>
<path d="M219.619 176.349L218.122 178.348H215.127L213.63 176.349L215.127 174.349H218.122L219.619 176.349Z" fill="#FFD445"/>
<path d="M219.619 169.351L218.122 171.351H215.127L213.63 169.351H215.127H218.122H219.619Z" fill="#FFD445"/>
<path fill-rule="evenodd" clip-rule="evenodd" d="M218.398 214.338L220.118 212.338V217.337L218.399 215.338H214.851L213.132 217.337V212.338L214.852 214.338H218.398Z" fill="#FFD445"/>
<path d="M219.619 218.336L218.122 220.336H215.127L213.63 218.336L215.127 216.337H218.122L219.619 218.336Z" fill="#FFD445"/>
<path fill-rule="evenodd" clip-rule="evenodd" d="M218.398 221.336L220.118 219.336V224.335L218.399 222.336H214.851L213.132 224.335V219.336L214.852 221.336H218.398Z" fill="#FFD445"/>
<path d="M219.619 225.334L218.122 227.334H215.127L213.63 225.334L215.127 223.335H218.122L219.619 225.334Z" fill="#FFD445"/>
<path fill-rule="evenodd" clip-rule="evenodd" d="M218.398 228.334L220.118 226.334V231.333L218.399 229.334H214.851L213.132 231.333V226.334L214.852 228.334H218.398Z" fill="#FFD445"/>
<path d="M219.619 232.332L218.122 234.332H215.127L213.63 232.332L215.127 230.333H218.122L219.619 232.332Z" fill="#FFD445"/>
<path fill-rule="evenodd" clip-rule="evenodd" d="M218.398 235.332L220.118 233.332V238.331L218.399 236.332H214.851L213.132 238.331V233.332L214.852 235.332H218.398Z" fill="#FFD445"/>
<path d="M219.619 239.33L218.122 241.33H215.127L213.63 239.33L215.127 237.331H218.122L219.619 239.33Z" fill="#FFD445"/>
<path fill-rule="evenodd" clip-rule="evenodd" d="M218.398 242.33L220.118 240.33V245.328L218.399 243.33H214.851L213.132 245.328V240.33L214.852 242.33H218.398Z" fill="#FFD445"/>
<path d="M219.619 246.328L218.122 248.328H215.127L213.63 246.328L215.127 244.329H218.122L219.619 246.328Z" fill="#FFD445"/>
<path fill-rule="evenodd" clip-rule="evenodd" d="M218.398 249.328L220.118 247.328V252.327L218.399 250.328H214.851L213.132 252.327V247.328L214.852 249.328H218.398Z" fill="#FFD445"/>
<path d="M219.619 253.326L218.122 255.326H215.127L213.63 253.326L215.127 251.327H218.122L219.619 253.326Z" fill="#FFD445"/>
<path fill-rule="evenodd" clip-rule="evenodd" d="M218.398 256.326L220.118 254.326V259.324L218.399 257.326H214.851L213.132 259.324V254.326L214.852 256.326H218.398Z" fill="#FFD445"/>
<path d="M219.619 260.324L218.122 262.324H215.127L213.63 260.324L215.127 258.325H218.122L219.619 260.324Z" fill="#FFD445"/>
<path fill-rule="evenodd" clip-rule="evenodd" d="M218.398 263.324L220.118 261.324V266.322L218.399 264.324H214.851L213.132 266.322V261.324L214.852 263.324H218.398Z" fill="#FFD445"/>
<path d="M219.619 267.322L218.122 269.322H215.127L213.63 267.322L215.127 265.323H218.122L219.619 267.322Z" fill="#FFD445"/>
<path fill-rule="evenodd" clip-rule="evenodd" d="M218.398 270.322L220.118 268.322V273.32L218.399 271.322H214.851L213.132 273.32V268.322L214.852 270.322H218.398Z" fill="#FFD445"/>
<path d="M219.619 274.32L218.122 276.319H215.127L213.63 274.32L215.127 272.321H218.122L219.619 274.32Z" fill="#FFD445"/>
<path fill-rule="evenodd" clip-rule="evenodd" d="M218.398 277.32L220.118 275.32V280.318L218.399 278.32H214.851L213.132 280.318V275.32L214.852 277.32H218.398Z" fill="#FFD445"/>
<path d="M219.619 281.318L218.122 283.317H215.127L213.63 281.318L215.127 279.319H218.122L219.619 281.318Z" fill="#FFD445"/>
<path fill-rule="evenodd" clip-rule="evenodd" d="M218.398 284.318L220.118 282.318V287.316L218.399 285.318H214.851L213.132 287.316V282.318L214.852 284.318H218.398Z" fill="#FFD445"/>
<path d="M219.619 288.316L218.122 290.315H215.127L213.63 288.316L215.127 286.317H218.122L219.619 288.316Z" fill="#FFD445"/>
<path fill-rule="evenodd" clip-rule="evenodd" d="M218.398 291.316L220.118 289.316V294.314L218.399 292.316H214.851L213.132 294.314V289.316L214.852 291.316H218.398Z" fill="#FFD445"/>
<path d="M219.619 295.314L218.122 297.313H215.127L213.63 295.314L215.127 293.314H218.122L219.619 295.314Z" fill="#FFD445"/>
<path fill-rule="evenodd" clip-rule="evenodd" d="M218.398 298.314L220.118 296.314V301.312L218.399 299.314H214.851L213.132 301.312V296.314L214.852 298.314H218.398Z" fill="#FFD445"/>
<path d="M219.619 302.312L218.122 304.311H215.127L213.63 302.312L215.127 300.312H218.122L219.619 302.312Z" fill="#FFD445"/>
<path fill-rule="evenodd" clip-rule="evenodd" d="M218.398 305.312L220.118 303.312V308.31L218.399 306.312H214.851L213.132 308.31V303.312L214.852 305.312H218.398Z" fill="#FFD445"/>
<path d="M219.619 309.31L218.122 311.309H215.127L213.63 309.31L215.127 307.311H218.122L219.619 309.31Z" fill="#FFD445"/>
<path fill-rule="evenodd" clip-rule="evenodd" d="M218.398 312.31L220.118 310.31V315.308L218.399 313.31H214.851L213.132 315.308V310.31L214.852 312.31H218.398Z" fill="#FFD445"/>
<path d="M219.619 316.308L218.122 318.307H215.127L213.63 316.308L215.127 314.308H218.122L219.619 316.308Z" fill="#FFD445"/>
<path fill-rule="evenodd" clip-rule="evenodd" d="M218.398 319.307L220.118 317.307V322.306L218.399 320.307H214.851L213.132 322.306V317.307L214.852 319.307H218.398Z" fill="#FFD445"/>
<path d="M219.619 323.306L218.122 325.305H215.127L213.63 323.306L215.127 321.306H218.122L219.619 323.306Z" fill="#FFD445"/>
<path fill-rule="evenodd" clip-rule="evenodd" d="M218.398 326.305L220.118 324.305V329.304L218.399 327.305H214.851L213.132 329.304V324.305L214.852 326.305H218.398Z" fill="#FFD445"/>
<path d="M219.619 330.304L218.122 332.303H215.127L213.63 330.304L215.127 328.304H218.122L219.619 330.304Z" fill="#FFD445"/>
<path fill-rule="evenodd" clip-rule="evenodd" d="M218.398 333.303L220.118 331.303V336.302L218.399 334.303H214.851L213.132 336.302V331.303L214.852 333.303H218.398Z" fill="#FFD445"/>
<path d="M219.619 337.302L218.122 339.301H215.127L213.63 337.302L215.127 335.302H218.122L219.619 337.302Z" fill="#FFD445"/>
<path fill-rule="evenodd" clip-rule="evenodd" d="M234.594 167.628L236.59 169.351L231.599 169.351L233.595 167.627L233.595 164.075L231.599 162.352L236.59 162.352L234.594 164.075L234.594 167.628Z" fill="#FFD445"/>
<path d="M230.601 168.851L228.605 167.351L228.605 164.352L230.601 162.852L232.598 164.352L232.598 167.351L230.601 168.851Z" fill="#FFD445"/>
<path d="M237.589 168.851L235.592 167.351L235.592 164.352L237.589 162.852L237.589 164.352L237.589 167.351L237.589 168.851Z" fill="#FFD445"/>
<path fill-rule="evenodd" clip-rule="evenodd" d="M227.606 167.627L229.603 169.351L224.611 169.351L226.607 167.628L226.607 164.075L224.611 162.352L229.603 162.352L227.606 164.076L227.606 167.627Z" fill="#FFD445"/>
<path d="M223.613 168.851L221.616 167.351L221.616 164.352L223.613 162.852L225.609 164.352L225.609 167.351L223.613 168.851Z" fill="#FFD445"/>
<path fill-rule="evenodd" clip-rule="evenodd" d="M220.619 167.628L222.614 169.351L217.623 169.351L219.62 167.627L219.62 164.076L217.623 162.352L222.614 162.352L220.619 164.075L220.619 167.628Z" fill="#FFD445"/>
<path d="M216.626 168.851L214.629 167.351L214.629 164.352L216.626 162.852L218.622 164.352L218.622 167.351L216.626 168.851Z" fill="#FFD445"/>
<path fill-rule="evenodd" clip-rule="evenodd" d="M213.631 167.628L215.627 169.351L210.636 169.351L212.632 167.628L212.632 164.075L210.636 162.352L215.627 162.352L213.631 164.075L213.631 167.628Z" fill="#FFD445"/>
<path d="M209.637 168.851L207.641 167.351L207.641 164.352L209.637 162.852L211.634 164.352L211.634 167.351L209.637 168.851Z" fill="#FFD445"/>
<path fill-rule="evenodd" clip-rule="evenodd" d="M206.643 167.627L208.64 169.351L203.648 169.351L205.644 167.628L205.644 164.075L203.648 162.352L208.64 162.352L206.643 164.076L206.643 167.627Z" fill="#FFD445"/>
<path d="M202.65 168.851L200.653 167.351L200.653 164.352L202.65 162.852L204.646 164.352L204.646 167.351L202.65 168.851Z" fill="#FFD445"/>
<path fill-rule="evenodd" clip-rule="evenodd" d="M199.656 167.628L201.651 169.351L196.66 169.351L198.657 167.627L198.657 164.076L196.66 162.352L201.651 162.352L199.656 164.075L199.656 167.628Z" fill="#FFD445"/>
<path d="M195.662 168.851L195.662 167.351L195.662 164.352L195.662 162.852L197.658 164.352L197.658 167.351L195.662 168.851Z" fill="#FFD445"/>
<rect width="1.9965" height="189.945" transform="matrix(-1 0 0 1 175.697 100.371)" fill="#FFD445"/>
<rect width="1.9965" height="182.947" transform="matrix(-1 0 0 1 172.702 104.37)" fill="#FFD445"/>
<rect width="1.9965" height="176.948" transform="matrix(-1 0 0 1 169.708 107.369)" fill="#FFD445"/>
<rect width="1.9965" height="170.95" transform="matrix(-1 0 0 1 166.713 110.368)" fill="#FFD445"/>
<rect width="1.9965" height="164.952" transform="matrix(-1 0 0 1 163.718 113.367)" fill="#FFD445"/>
<rect width="1.9965" height="160.953" transform="matrix(-1 0 0 1 160.724 114.367)" fill="#FFD445"/>
<rect width="21.3173" height="16.8514" transform="matrix(4.36476e-08 1 1 -4.37753e-08 158.779 269.921)" fill="url(#paint0_linear)"/>
<path fill-rule="evenodd" clip-rule="evenodd" d="M359.375 0.400024H354.384V79.377H359.375V0.400024ZM242.58 0.400024H237.588V310.254L242.58 305.254V79.377H354.384V74.3784L242.58 74.3784V0.400024ZM195.662 0.400024H190.671V305.59L195.384 310.31H195.662V0.400024Z" fill="#FFD445"/>
<path fill-rule="evenodd" clip-rule="evenodd" d="M175.339 395.9L216.488 354.691L257.637 395.9L175.339 395.9Z" fill="url(#paint1_linear)"/>
<path fill-rule="evenodd" clip-rule="evenodd" d="M257.623 290L216.474 331.209L175.325 290H257.623Z" fill="url(#paint2_linear)"/>
<path fill-rule="evenodd" clip-rule="evenodd" d="M54.4058 168.485L52.9943 169.899L225.693 342.9H228.516L54.4058 168.485ZM204.568 342.9L53.0181 191.129L54.4298 189.715L207.391 342.9H204.568ZM208.802 342.9L53.0123 186.883L54.4241 185.469L211.625 342.9H208.802ZM213.039 342.9L53.0085 182.636L54.4202 181.222L215.862 342.9H213.039ZM217.274 342.9L53.1496 178.535L54.5613 177.122L220.098 342.9H217.274ZM221.508 342.9L53.1428 174.289L54.5546 172.875L224.331 342.9H221.508Z" fill="#FFD445"/>
<rect width="21.3018" height="16.8637" transform="matrix(-0.70659 -0.707623 -0.70659 0.707623 70.0557 184.158)" fill="url(#paint3_linear)"/>
<rect width="57.976" height="16.8637" transform="matrix(-0.70659 -0.707623 -0.70659 0.707623 241.588 355.981)" fill="url(#paint4_linear)"/>
<path fill-rule="evenodd" clip-rule="evenodd" d="M37.9379 98.9712H39.9344V99.3712L175.696 99.3712L175.696 101.371L39.9344 101.371V342.9H37.9379V98.9712ZM40.9329 103.97H40.9324V342.9H42.9289V104.371L172.702 104.371V102.371L40.9329 102.371V103.97ZM43.9273 107.369H43.9278V342.9H45.9243V107.369L169.707 107.369V105.369L43.9273 105.369V107.369ZM46.9227 109.968H46.9222V342.9H48.9187V110.368L166.713 110.368L166.713 108.368L46.9227 108.368V109.968ZM49.9166 112.967H49.9172V111.368L163.718 111.368V113.368L51.9131 113.368V342.9H49.9166V112.967ZM54.9084 116.367L158.726 116.367V114.367L52.9116 114.367V116.367H52.9119V342.9H54.9084V116.367Z" fill="#FFD445"/>
<path fill-rule="evenodd" clip-rule="evenodd" d="M394.313 0.400024H396.31V116.366H395.313V116.367L274.525 116.367V296.873V296.873H274.524L228.565 342.9H225.741L272.528 296.045V116.366H272.528V114.367L394.313 114.367V0.400024ZM221.506 342.9H224.329L271.546 295.615L271.529 295.598L271.529 113.368L393.316 113.368V111.368L393.316 111.368V0.400024H391.319V111.368H269.533V113.367H269.533L269.533 294.803L221.506 342.9ZM217.271 342.9H220.096L268.53 294.395L268.529 294.394H268.535V110.369L390.321 110.369V108.368L390.32 108.369V0.400024H388.324V108.369H266.539V110.368H266.538L266.538 293.561L217.271 342.9ZM213.039 342.9H215.861L265.55 293.139L265.541 293.13V107.369H387.326V105.369L387.326 105.369V0.400024H385.329V105.369H263.543V107.369H263.545L263.545 292.32L213.039 342.9ZM208.799 342.9H211.624L262.546 291.904L262.545 291.903L262.545 104.371L384.332 104.371V102.371L260.549 102.371V104.37H260.549L260.548 291.075L208.799 342.9ZM204.565 342.9H207.389L259.547 290.665H259.552V101.371H381.337V99.3711L381.336 99.3711V0.400024H379.34V99.3711H257.554V101.371H257.555V289.833L204.565 342.9ZM384.332 0.400024H382.335V102.37H384.332V0.400024Z" fill="#FFD445"/>
<rect x="299.479" y="543.841" width="4.99124" height="200.941" transform="rotate(180 299.479 543.841)" fill="#FFD445"/>
<path fill-rule="evenodd" clip-rule="evenodd" d="M418.271 669.405V674.403L568.009 674.403V669.405L520.322 669.405L568.009 621.634V674.403H573V566.435H568.009V616.987L515.683 669.405L418.271 669.405ZM418.272 543.441V669.405H423.263V543.441H418.272ZM418.271 543.442L302.76 543.442L360.659 485.458H477.168V480.46L365.65 480.46L443.228 402.768L439.699 399.234L362.369 476.676V342.9H357.378V480.46H357.378V481.675L296.604 542.538L297.506 543.442H294.488V548.44L418.271 548.44V543.442ZM482.159 480.46V566.435L568.008 566.435V571.433L477.168 571.433V566.435L477.168 566.435V480.46H482.159Z" fill="#FFD445"/>
<rect x="175.697" y="585.429" width="1.9965" height="189.945" transform="rotate(180 175.697 585.429)" fill="#FFD445"/>
<rect x="172.702" y="581.43" width="1.9965" height="182.947" transform="rotate(180 172.702 581.43)" fill="#FFD445"/>
<rect x="169.708" y="578.431" width="1.9965" height="176.948" transform="rotate(180 169.708 578.431)" fill="#FFD445"/>
<rect x="166.713" y="575.432" width="1.9965" height="170.95" transform="rotate(180 166.713 575.432)" fill="#FFD445"/>
<rect x="163.718" y="572.433" width="1.9965" height="164.952" transform="rotate(180 163.718 572.433)" fill="#FFD445"/>
<rect x="160.724" y="571.433" width="1.9965" height="160.953" transform="rotate(180 160.724 571.433)" fill="#FFD445"/>
<rect x="158.779" y="415.879" width="21.3173" height="16.8514" transform="rotate(-90 158.779 415.879)" fill="url(#paint5_linear)"/>
<path fill-rule="evenodd" clip-rule="evenodd" d="M54.4052 517.315L52.9949 515.9L225.39 342.9H228.211L54.4052 517.315ZM204.568 342.9L53.0184 494.671L54.4301 496.085L207.391 342.9H204.568ZM208.802 342.9L53.0126 498.917L54.4243 500.331L211.625 342.9H208.802ZM213.039 342.9L53.0088 503.164L54.4205 504.578L215.862 342.9H213.039ZM217.273 342.9L53.1479 507.265L54.5597 508.678L220.096 342.9H217.273ZM221.508 342.9L53.1431 511.511L54.5549 512.925L224.331 342.9H221.508Z" fill="#FFD445"/>
<rect width="21.3018" height="16.8637" transform="matrix(-0.70659 0.707623 -0.70659 -0.707623 70.0557 501.642)" fill="url(#paint6_linear)"/>
<path fill-rule="evenodd" clip-rule="evenodd" d="M37.9379 586.829H39.9344V586.428L175.696 586.428L175.696 584.428L39.9344 584.428V342.9H37.9379V586.829ZM40.9329 581.83H40.9324V342.9H42.9289V581.429L172.702 581.429V583.429L40.9329 583.429V581.83ZM43.9273 578.431H43.9278V342.9H45.9243V578.431L169.707 578.431V580.431L43.9273 580.431V578.431ZM46.9227 575.832H46.9222V342.9H48.9187V575.432L166.713 575.432L166.713 577.432L46.9227 577.432V575.832ZM49.9166 572.833H49.9172V574.432L163.718 574.432V572.432L51.9131 572.432V342.9H49.9166V572.833ZM54.9084 569.433L158.726 569.433V571.433L52.9116 571.433V569.433H52.9119V342.9H54.9084V569.433Z" fill="#FFD445"/>
<rect width="571" height="685" transform="matrix(-1 0 0 1 573 0)" fill="url(#paint7_linear)"/>
<rect width="571" height="685" transform="matrix(-1 0 0 1 573 0)" fill="url(#paint8_linear)"/>
<rect width="571" height="685" transform="matrix(-1 0 0 1 573 0)" fill="url(#paint9_linear)"/>
<rect y="431" width="573" height="254" fill="url(#paint10_linear)"/>
<rect x="413" y="254" width="413" height="254" transform="rotate(180 413 254)" fill="url(#paint11_linear)"/>
</g>
<defs>
<linearGradient id="paint0_linear" x1="22.9933" y1="-0.551767" x2="5.08413" y2="11.5538" gradientUnits="userSpaceOnUse">
<stop stop-color="#262626"/>
<stop offset="1" stop-color="#262626" stop-opacity="0"/>
</linearGradient>
<linearGradient id="paint1_linear" x1="216.009" y1="354.55" x2="216.01" y2="395.9" gradientUnits="userSpaceOnUse">
<stop stop-color="#191D20"/>
<stop offset="1" stop-color="#1B1F22" stop-opacity="0"/>
</linearGradient>
<linearGradient id="paint2_linear" x1="216.953" y1="331.35" x2="216.952" y2="290" gradientUnits="userSpaceOnUse">
<stop stop-color="#191D20"/>
<stop offset="1" stop-color="#1B1F22" stop-opacity="0"/>
</linearGradient>
<linearGradient id="paint3_linear" x1="17.225" y1="15.5129" x2="7.9898" y2="6.38269" gradientUnits="userSpaceOnUse">
<stop stop-color="#262626"/>
<stop offset="1" stop-color="#262626" stop-opacity="0"/>
</linearGradient>
<linearGradient id="paint4_linear" x1="50.3048" y1="8.06813" x2="30.2878" y2="-13.1834" gradientUnits="userSpaceOnUse">
<stop stop-color="#262626" stop-opacity="0"/>
<stop offset="0.520833" stop-color="#262626"/>
<stop offset="1" stop-color="#262626" stop-opacity="0"/>
</linearGradient>
<linearGradient id="paint5_linear" x1="181.773" y1="415.327" x2="163.863" y2="427.433" gradientUnits="userSpaceOnUse">
<stop stop-color="#262626"/>
<stop offset="1" stop-color="#262626" stop-opacity="0"/>
</linearGradient>
<linearGradient id="paint6_linear" x1="17.225" y1="15.5129" x2="7.9898" y2="6.38269" gradientUnits="userSpaceOnUse">
<stop stop-color="#262626"/>
<stop offset="1" stop-color="#262626" stop-opacity="0"/>
</linearGradient>
<linearGradient id="paint7_linear" x1="571" y1="-5.9021e-05" x2="299.044" y2="129.893" gradientUnits="userSpaceOnUse">
<stop stop-color="#0A0908"/>
<stop offset="1" stop-color="#0A0908" stop-opacity="0"/>
</linearGradient>
<linearGradient id="paint8_linear" x1="571" y1="685" x2="374.5" y2="521" gradientUnits="userSpaceOnUse">
<stop stop-color="#0A0908"/>
<stop offset="1" stop-color="#262626" stop-opacity="0"/>
<stop offset="1" stop-color="#0A0908" stop-opacity="0"/>
</linearGradient>
<linearGradient id="paint9_linear" x1="285.5" y1="0" x2="285.5" y2="685" gradientUnits="userSpaceOnUse">
<stop stop-color="#0A0908" stop-opacity="0.5"/>
<stop offset="0.499283" stop-color="#0A0908" stop-opacity="0"/>
<stop offset="1" stop-color="#0A0908" stop-opacity="0.5"/>
</linearGradient>
<linearGradient id="paint10_linear" x1="342.5" y1="614.243" x2="339.414" y2="682.179" gradientUnits="userSpaceOnUse">
<stop stop-color="#0A0908" stop-opacity="0"/>
<stop offset="1" stop-color="#0A0908"/>
</linearGradient>
<linearGradient id="paint11_linear" x1="612.5" y1="463" x2="611.637" y2="507.42" gradientUnits="userSpaceOnUse">
<stop stop-color="#0A0908" stop-opacity="0"/>
<stop offset="1" stop-color="#0A0908"/>
</linearGradient>
</defs>
</svg>
