<svg width="66" height="66" viewBox="0 0 66 66" fill="none" xmlns="http://www.w3.org/2000/svg">
<g clip-path="url(#clip0)">
<path d="M59.4922 56.5808L59.5122 56.5728C59.5122 56.5728 45.2482 42.0969 43.8486 40.6974C42.981 40.4415 37.9065 38.21 37.8185 34.0152C39.9839 31.534 43.1329 29.1506 47.7836 29.1037C47.7915 29.0997 47.8156 29.0976 47.8276 29.0976C49.9311 29.1546 52.0545 28.4568 53.744 26.9803C53.8619 26.8763 54.1398 26.5934 54.1398 26.5934L65.7586 11.9507L64.363 10.5501L50.1491 25.5988L48.4716 23.9163L63.1014 9.28747L61.8717 8.06479L47.1558 22.7836L45.7641 21.3909L60.4819 6.67208L59.1284 5.32137L44.4107 20.0383L42.7611 18.3917L57.9527 4.13982L56.6771 2.86414L42.6771 13.771C42.6771 13.771 42.1694 14.1988 41.9934 14.3769C40.0718 16.2974 39.246 18.9037 39.522 21.4139C39.3281 24.5981 38.2985 26.9624 36.9629 28.7598C10.8631 3.22603 1.02094 5.95723 1.02094 5.95723L0.241211 6.74797C0.241211 6.74797 17.7912 24.346 28.6351 35.2109C24.8302 39.0198 6.48746 57.3626 6.48746 57.3626L6.48936 57.3666C6.47335 57.3824 6.45339 57.3884 6.43446 57.4084C5.12384 58.7201 5.12883 60.8434 6.43652 62.153C7.74508 63.4626 9.87466 63.4626 11.1801 62.157C11.2011 62.137 11.2071 62.115 11.2192 62.1029L11.2231 62.1069C11.2231 62.1069 29.589 43.7464 33.3718 39.9653C35.3551 41.9508 36.6788 43.2764 36.9388 43.5363C38.5463 45.152 54.7297 61.3353 54.7297 61.3353H54.7497C54.7497 61.3552 54.7676 61.3733 54.7857 61.3814C56.0933 62.6989 58.2407 62.6989 59.5463 61.3814C60.8719 60.0756 60.8719 57.9362 59.5463 56.6208C59.5303 56.6006 59.5122 56.5927 59.4922 56.5808Z" fill="url(#paint0_linear)"/>
</g>
<defs>
<linearGradient id="paint0_linear" x1="0.241211" y1="32.9999" x2="65.7586" y2="32.9999" gradientUnits="userSpaceOnUse">
<stop stop-color="#FFD445"/>
<stop offset="0.5" stop-color="#BB7B15"/>
<stop offset="1" stop-color="#FFD445"/>
</linearGradient>
<clipPath id="clip0">
<path d="M0.241211 0.241333H65.7585V65.7586H0.241211V0.241333Z" fill="white"/>
</clipPath>
</defs>
</svg>
