<svg width="1455" height="319" viewBox="0 0 1455 319" fill="none" xmlns="http://www.w3.org/2000/svg">
<g opacity="0.07">
<path d="M0.828125 313V301.872H44.4848V17.2477H0.828125V6.11957H104.192L178.665 241.523L256.776 6.11957H349.653V17.2477H308.565V301.872H349.653V313H222.963V301.872H264.052V27.9479H263.196L166.253 318.992H153.412L62.461 31.5859C60.749 26.4499 59.893 21.6705 59.893 17.2477H58.181V301.872H101.838V313H0.828125Z" fill="#828A95"/>
<path d="M393.31 313V301.872H434.398V17.2477H393.31V6.11957H632.993L635.133 86.5847H624.005C622.864 80.878 621.794 76.2412 620.795 72.6745C619.796 69.1078 617.87 64.1144 615.017 57.6943C612.306 51.2742 608.882 45.2108 604.745 39.5041C594.187 24.6665 577.923 17.2477 555.952 17.2477H478.911V146.934H518.716C532.84 146.934 544.967 139.229 555.096 123.821C558.235 118.971 560.946 112.194 563.228 103.491C565.511 94.7882 566.652 88.4394 566.652 84.4447H576.924V220.123H566.652C566.652 216.128 565.511 209.779 563.228 201.076C560.946 192.374 558.235 185.597 555.096 180.746C545.109 165.623 532.982 158.062 518.716 158.062H478.911V301.872H551.03C582.845 301.872 605.744 292.242 619.725 272.981C626.573 263.708 631.353 255.219 634.063 247.515C636.774 239.811 639.271 229.753 641.553 217.341H652.682L651.398 313H393.31Z" fill="#828A95"/>
<path d="M698.478 313V301.872H739.567V17.2477H698.478V6.11957H825.168V17.2477H784.079V146.506H907.345V17.2477H866.257V6.11957H992.946V17.2477H951.858V301.872H992.946V313H866.257V301.872H907.345V157.634H784.079V301.872H825.168V313H698.478Z" fill="#828A95"/>
<path d="M1036.6 313V301.872H1077.69V17.2477H1036.6V6.11957H1163.29V17.2477H1122.2V146.934H1184.05C1185.48 124.677 1190.26 104.204 1198.39 85.5147C1206.52 66.8251 1216.79 51.3456 1229.21 39.076C1241.76 26.8065 1255.81 17.2477 1271.36 10.3996C1286.92 3.55154 1302.89 0.127487 1319.3 0.127487C1336.56 0.127487 1353.26 3.90821 1369.38 11.4697C1385.5 18.8884 1399.91 29.3032 1412.61 42.7141C1425.3 56.125 1435.5 73.1025 1443.21 93.6468C1450.91 114.191 1454.77 136.519 1454.77 160.63C1454.77 184.741 1450.91 206.926 1443.21 227.185C1435.65 247.444 1425.45 264.207 1412.61 277.475C1399.91 290.601 1385.5 300.802 1369.38 308.078C1353.26 315.354 1336.56 318.992 1319.3 318.992C1302.04 318.992 1285.35 315.354 1269.22 308.078C1253.1 300.802 1238.62 290.601 1225.78 277.475C1213.08 264.35 1202.88 247.658 1195.18 227.399C1187.48 206.997 1183.62 184.741 1183.62 160.63V158.062H1122.2V301.872H1163.29V313H1036.6ZM1233.7 160.63C1233.7 209.137 1241.12 245.803 1255.96 270.627C1270.79 295.452 1291.91 307.864 1319.3 307.864C1346.69 307.864 1367.74 295.452 1382.43 270.627C1397.27 245.803 1404.69 209.137 1404.69 160.63C1404.69 111.837 1397.27 74.7432 1382.43 49.3482C1367.59 23.9532 1346.55 11.2556 1319.3 11.2556C1292.05 11.2556 1270.94 24.0245 1255.96 49.5622C1241.12 74.9572 1233.7 111.98 1233.7 160.63Z" fill="#828A95"/>
</g>
</svg>
