<svg width="80" height="80" viewBox="0 0 80 80" fill="none" xmlns="http://www.w3.org/2000/svg">
<g clip-path="url(#clip0)">
<path d="M72.3486 68.7934L72.373 68.7836C72.373 68.7836 54.9559 51.1078 53.247 49.3989C52.1875 49.0864 45.9913 46.3617 45.8839 41.2396C48.5279 38.21 52.3731 35.2997 58.0518 35.2424C58.0614 35.2375 58.0908 35.235 58.1055 35.235C60.6739 35.3046 63.2667 34.4525 65.3297 32.6496C65.4737 32.5227 65.813 32.1772 65.813 32.1772L80.0002 14.2977L78.2961 12.5875L60.9402 30.9627L58.8918 28.9083L76.7556 11.0458L75.2541 9.5528L57.2852 27.5252L55.5859 25.8247L73.5571 7.85223L71.9044 6.20294L53.9332 24.1731L51.919 22.1626L70.4688 4.76021L68.9111 3.20253L51.8164 16.5204C51.8164 16.5204 51.1965 17.0428 50.9816 17.2603C48.6353 19.6053 47.6269 22.7877 47.9639 25.8528C47.7271 29.7408 46.4699 32.6278 44.8391 34.8225C12.9699 3.64443 0.952088 6.97936 0.952088 6.97936L0 7.9449C0 7.9449 21.4294 29.433 34.6704 42.6996C30.0245 47.3506 7.627 69.7481 7.627 69.7481L7.62931 69.7529C7.60977 69.7722 7.5854 69.7796 7.56228 69.8039C5.96195 71.4055 5.96804 73.9983 7.5648 75.5974C9.16261 77.1965 11.7629 77.1964 13.357 75.6022C13.3826 75.5778 13.39 75.5509 13.4047 75.5362L13.4095 75.5411C13.4095 75.5411 35.8352 53.1219 40.4542 48.505C42.8759 50.9294 44.4922 52.5481 44.8097 52.8654C46.7725 54.8382 66.5333 74.5989 66.5333 74.5989H66.5577C66.5577 74.6232 66.5796 74.6453 66.6016 74.6552C68.1984 76.2639 70.8204 76.2639 72.4146 74.6552C74.0332 73.0607 74.0332 70.4484 72.4146 68.8422C72.3951 68.8176 72.373 68.8079 72.3486 68.7934Z" fill="#E2C391"/>
</g>
<defs>
<clipPath id="clip0">
<path d="M0 0H80V80H0V0Z" fill="white"/>
</clipPath>
</defs>
</svg>
