<svg width="32" height="32" viewBox="0 0 32 32" fill="none" xmlns="http://www.w3.org/2000/svg">
<g clip-path="url(#clip0)">
<path d="M15.8157 10.594C12.9404 10.594 10.594 12.9405 10.594 15.8157C10.594 18.691 12.9404 21.0375 15.8157 21.0375C18.691 21.0375 21.0374 18.691 21.0374 15.8157C21.0374 12.9405 18.691 10.594 15.8157 10.594ZM31.477 15.8157C31.477 13.6534 31.4966 11.5106 31.3751 9.35223C31.2537 6.84518 30.6818 4.62017 28.8485 2.78688C27.0113 0.949681 24.7902 0.381676 22.2831 0.260241C20.1208 0.138805 17.9781 0.158392 15.8196 0.158392C13.6573 0.158392 11.5146 0.138805 9.35614 0.260241C6.84908 0.381676 4.62407 0.953598 2.79079 2.78688C0.953587 4.62408 0.385582 6.84518 0.264147 9.35223C0.142712 11.5146 0.162298 13.6573 0.162298 15.8157C0.162298 17.9742 0.142712 20.1208 0.264147 22.2792C0.385582 24.7863 0.957505 27.0113 2.79079 28.8446C4.62799 30.6818 6.84908 31.2498 9.35614 31.3712C11.5185 31.4927 13.6612 31.4731 15.8196 31.4731C17.982 31.4731 20.1247 31.4927 22.2831 31.3712C24.7902 31.2498 27.0152 30.6779 28.8485 28.8446C30.6857 27.0074 31.2537 24.7863 31.3751 22.2792C31.5005 20.1208 31.477 17.9781 31.477 15.8157V15.8157ZM15.8157 23.8501C11.3696 23.8501 7.78139 20.2618 7.78139 15.8157C7.78139 11.3696 11.3696 7.78141 15.8157 7.78141C20.2618 7.78141 23.85 11.3696 23.85 15.8157C23.85 20.2618 20.2618 23.8501 15.8157 23.8501ZM24.1791 9.32873C23.141 9.32873 22.3027 8.49043 22.3027 7.45235C22.3027 6.41428 23.141 5.57598 24.1791 5.57598C25.2172 5.57598 26.0555 6.41428 26.0555 7.45235C26.0558 7.69885 26.0075 7.94299 25.9133 8.17078C25.8191 8.39857 25.6809 8.60554 25.5066 8.77984C25.3323 8.95414 25.1253 9.09234 24.8975 9.18653C24.6697 9.28072 24.4256 9.32904 24.1791 9.32873V9.32873Z" fill="#FBFBFF"/>
</g>
<defs>
<clipPath id="clip0">
<path d="M0.0957031 0.0957031H31.5355V31.5355H0.0957031V0.0957031Z" fill="white"/>
</clipPath>
</defs>
</svg>
