<svg width="579" height="562" viewBox="0 0 579 562" fill="none" xmlns="http://www.w3.org/2000/svg">
<g clip-path="url(#clip0)">
<path d="M24.4298 376.222L26.2175 374.677L31.9205 381.331L77.7625 341.657L72.0596 335.003L73.8473 333.455L95.1909 358.362C96.9746 360.443 98.4064 362.784 99.5227 365.402C100.627 368.028 101.31 370.877 101.565 373.95C101.82 377.022 101.614 380.128 100.918 383.237C100.214 386.359 98.8675 389.525 96.8452 392.756C94.835 395.979 92.2302 398.991 89.0431 401.751C85.8437 404.519 82.515 406.641 79.069 408.141C75.6108 409.649 72.3225 410.498 69.1919 410.697C66.0654 410.892 62.9996 410.62 60.051 409.876C57.1025 409.136 54.4209 408.019 52.0345 406.503C49.636 404.995 47.5571 403.21 45.7734 401.129L24.4298 376.222ZM38.0886 388.529L46.1941 397.987C48.1678 400.292 50.356 401.983 52.7302 403.08C55.0923 404.165 57.4544 404.674 59.8043 404.617C62.1421 404.548 64.6255 404.027 67.2384 403.06C69.8431 402.084 72.3468 400.82 74.721 399.264C77.1154 397.707 79.5664 395.833 82.0944 393.642C84.6223 391.456 86.8428 389.285 88.7559 387.119C90.665 384.969 92.299 382.648 93.6823 380.172C95.0574 377.689 95.9756 375.271 96.4245 372.925C96.8614 370.568 96.736 368.125 96.0443 365.593C95.3527 363.04 94.0139 360.618 92.0361 358.313L83.9306 348.855L38.0886 388.529ZM83.8133 437.938L85.1764 436.003L92.3071 441.084L127.289 391.48L120.154 386.399L121.522 384.465L143.496 400.113L142.133 402.048L135.002 396.971L100.02 446.575L107.151 451.656L105.788 453.59L83.8133 437.938ZM139.86 437.852C141.579 434.081 143.715 430.772 146.279 427.919C148.847 425.049 151.602 422.818 154.546 421.188C157.491 419.554 160.565 418.395 163.784 417.696C167.004 416.997 170.223 416.827 173.41 417.213C176.606 417.583 179.627 418.44 182.495 419.757C186.661 421.671 190.232 424.102 193.201 427.029C194.548 428.386 195.704 429.293 196.663 429.736C197.496 430.118 198.249 430.191 198.924 429.951C199.599 429.695 200.412 429.191 201.355 428.427L203.179 429.264L194.269 448.843L192.449 448.006C193.326 443.449 193.371 439.218 192.578 435.3C192.347 434.117 192.048 433.016 191.68 432.024C191.304 431.012 190.73 429.874 189.945 428.634C189.164 427.386 188.06 426.175 186.636 425.025C185.201 423.866 183.506 422.83 181.512 421.915C175.542 419.168 169.786 419.509 164.257 422.956C158.744 426.411 153.834 432.849 149.531 442.299C145.247 451.721 143.642 459.594 144.693 465.91C145.745 472.226 149.292 476.775 155.294 479.53C157.284 480.445 159.173 481.055 160.985 481.392C162.789 481.705 164.415 481.766 165.867 481.542C167.319 481.315 168.545 481.022 169.552 480.644C170.547 480.262 171.566 479.786 172.605 479.185C176.076 477.226 179.231 474.421 182.086 470.775L183.906 471.613L174.996 491.191L173.172 490.354C173.152 489.541 173.095 488.911 173.006 488.476C172.933 488.033 172.735 487.566 172.415 487.074C172.112 486.574 171.667 486.2 171.089 485.932C170.13 485.489 168.694 485.192 166.793 485.054C162.644 484.725 158.478 483.603 154.312 481.689C150.683 480.018 147.492 477.693 144.758 474.738C142.012 471.763 139.896 468.389 138.396 464.593C136.875 460.809 136.208 456.574 136.394 451.887C136.572 447.217 137.733 442.535 139.86 437.852ZM208.101 460.346L213.679 434.052L272.318 444.136L268.88 470.8L266.555 470.397C267.141 462.967 266.462 457.074 264.496 452.712C262.065 447.278 258.227 444.116 253.005 443.222L247.27 442.234L237.065 502.158L245.664 503.637L245.268 505.974L218.735 501.414L219.131 499.077L227.73 500.552L237.935 440.629L232.195 439.641C226.961 438.743 222.31 440.442 218.221 444.758C214.925 448.209 212.332 453.542 210.427 460.748L208.101 460.346ZM277.774 509.409L277.592 507.043L287.482 506.279L303.519 440.405L306.245 440.198L334.909 502.625L343.16 501.987L343.342 504.353L312.878 506.702L312.7 504.336L324.029 503.462L314.718 483.087L295.757 484.55L290.564 506.043L300.085 505.308L300.263 507.673L277.774 509.409ZM296.307 482.132L313.626 480.794L302.58 456.659L296.307 482.132ZM344.944 464.365L337.744 438.47L394.345 420.062L403.611 445.282L401.367 446.014C398.455 439.157 395.13 434.251 391.372 431.309C386.713 427.626 381.851 426.618 376.816 428.256L371.275 430.057L389.908 487.899L398.208 485.2L398.936 487.456L373.325 495.784L372.597 493.529L380.897 490.83L362.267 432.987L356.726 434.788C351.674 436.434 348.341 440.108 346.711 445.839C345.385 450.432 345.547 456.366 347.189 463.638L344.944 464.365ZM419.636 443.079C417.396 439.592 415.77 436.003 414.754 432.3C413.727 428.581 413.339 425.045 413.553 421.671C413.772 418.298 414.447 415.071 415.596 411.969C416.74 408.864 418.33 406.047 420.368 403.556C422.395 401.048 424.741 398.947 427.39 397.227C430.047 395.5 432.915 394.211 436.025 393.382C439.123 392.537 442.331 392.236 445.619 392.46C448.903 392.683 452.111 393.39 455.262 394.573C458.408 395.764 461.446 397.581 464.411 400.036C467.359 402.487 469.948 405.45 472.188 408.933C474.971 413.258 476.791 417.725 477.641 422.318C478.482 426.935 478.429 431.223 477.483 435.182C476.545 439.153 474.923 442.807 472.65 446.144C470.368 449.465 467.545 452.229 464.18 454.415C460.831 456.59 457.163 458.045 453.211 458.773C449.239 459.496 445.271 459.476 441.279 458.704C437.287 457.956 433.376 456.24 429.546 453.566C425.724 450.904 422.419 447.4 419.636 443.079ZM428.567 437.275C434.165 445.977 439.908 451.57 445.773 454.078C451.638 456.582 457.357 456.021 462.898 452.424C468.451 448.815 471.295 443.807 471.44 437.397C471.574 430.996 468.844 423.444 463.246 414.745C457.632 406.019 451.86 400.353 445.894 397.743C439.94 395.13 434.197 395.626 428.668 399.219C423.155 402.804 420.344 407.86 420.263 414.396C420.19 420.928 422.953 428.553 428.567 437.275ZM507.219 418.363L505.448 416.802L511.211 410.201L465.749 370.088L459.982 376.689L458.21 375.124L476.338 354.375C478.623 351.757 480.982 349.749 483.429 348.339C485.867 346.92 488.173 346.173 490.345 346.051C492.525 345.941 494.547 346.209 496.436 346.859C498.313 347.502 500.008 348.493 501.536 349.843C504.497 352.456 506.119 355.423 506.378 358.744C506.649 362.057 505.803 365.528 503.85 369.158L504.258 369.519C507.87 366.499 511.417 364.894 514.916 364.723C518.427 364.561 521.428 365.569 523.936 367.78L531.39 374.356C533.784 376.47 535.823 377.563 537.501 377.652C539.18 377.742 540.834 376.835 542.476 374.962C543.621 373.649 544.555 372.06 545.267 370.182L547.33 371.271C546.092 374.226 544.373 376.949 542.193 379.445C541.21 380.571 540.139 381.538 538.97 382.331C537.821 383.123 536.49 383.774 535.002 384.27C533.53 384.778 531.924 384.794 530.213 384.363C528.49 383.924 526.824 382.969 525.177 381.518L517.185 374.466C514.609 372.194 511.834 370.991 508.865 370.82C505.905 370.661 503.219 371.962 500.8 374.73L494.07 382.432L517.452 403.06L523.216 396.459L524.991 398.024L507.219 418.363ZM492.286 380.859L499.967 372.064C501.055 370.824 501.722 369.584 501.973 368.332C502.232 367.064 502.095 365.825 501.577 364.597C501.043 363.361 500.343 362.203 499.433 361.089C498.515 359.988 497.35 358.793 495.914 357.529C494.576 356.342 493.144 355.354 491.643 354.59C490.143 353.802 488.589 353.265 486.964 352.952C485.334 352.635 483.716 352.765 482.07 353.346C480.423 353.932 478.951 354.976 477.633 356.488L471.986 362.947L492.286 380.859Z" fill="#FE5700"/>
<path d="M24.4298 376.222L26.2175 374.677L31.9205 381.331L77.7625 341.657L72.0596 335.003L73.8473 333.455L95.1909 358.362C96.9746 360.443 98.4064 362.784 99.5227 365.402C100.627 368.028 101.31 370.877 101.565 373.95C101.82 377.022 101.614 380.128 100.918 383.237C100.214 386.359 98.8675 389.525 96.8452 392.756C94.835 395.979 92.2302 398.991 89.0431 401.751C85.8437 404.519 82.515 406.641 79.069 408.141C75.6108 409.649 72.3225 410.498 69.1919 410.697C66.0654 410.892 62.9996 410.62 60.051 409.876C57.1025 409.136 54.4209 408.019 52.0345 406.503C49.636 404.995 47.5571 403.21 45.7734 401.129L24.4298 376.222V376.222ZM38.0886 388.529L46.1941 397.987C48.1678 400.292 50.356 401.983 52.7302 403.08C55.0923 404.165 57.4544 404.674 59.8043 404.617C62.1421 404.548 64.6255 404.027 67.2384 403.06C69.8431 402.084 72.3468 400.82 74.721 399.264C77.1154 397.707 79.5664 395.833 82.0944 393.642C84.6223 391.456 86.8428 389.285 88.7559 387.119C90.665 384.969 92.299 382.648 93.6823 380.172C95.0574 377.689 95.9756 375.271 96.4245 372.925C96.8614 370.568 96.736 368.125 96.0443 365.593C95.3527 363.04 94.0139 360.618 92.0361 358.313L83.9306 348.855L38.0886 388.529V388.529ZM83.8133 437.938L85.1764 436.003L92.3071 441.084L127.289 391.48L120.154 386.399L121.522 384.465L143.496 400.113L142.133 402.048L135.002 396.971L100.02 446.575L107.151 451.656L105.788 453.59L83.8133 437.938V437.938ZM139.86 437.852C141.579 434.081 143.715 430.772 146.279 427.919C148.847 425.049 151.602 422.818 154.546 421.188C157.491 419.554 160.565 418.395 163.784 417.696C167.004 416.997 170.223 416.827 173.41 417.213C176.606 417.583 179.627 418.44 182.495 419.757C186.661 421.671 190.232 424.102 193.201 427.029C194.548 428.386 195.704 429.293 196.663 429.736C197.496 430.118 198.249 430.191 198.924 429.951C199.599 429.695 200.412 429.191 201.355 428.427L203.179 429.264L194.269 448.843L192.449 448.006C193.326 443.449 193.371 439.218 192.578 435.3C192.347 434.117 192.048 433.016 191.68 432.024C191.304 431.012 190.73 429.874 189.945 428.634C189.164 427.386 188.06 426.175 186.636 425.025C185.201 423.866 183.506 422.83 181.512 421.915C175.542 419.168 169.786 419.509 164.257 422.956C158.744 426.411 153.834 432.849 149.531 442.299C145.247 451.721 143.642 459.594 144.693 465.91C145.745 472.226 149.292 476.775 155.294 479.53C157.284 480.445 159.173 481.055 160.985 481.392C162.789 481.705 164.415 481.766 165.867 481.542C167.319 481.315 168.545 481.022 169.552 480.644C170.547 480.262 171.566 479.786 172.605 479.185C176.076 477.226 179.231 474.421 182.086 470.775L183.906 471.613L174.996 491.192L173.172 490.354C173.151 489.541 173.095 488.911 173.006 488.476C172.933 488.033 172.735 487.566 172.415 487.074C172.112 486.574 171.667 486.2 171.089 485.932C170.13 485.489 168.694 485.192 166.793 485.054C162.644 484.725 158.478 483.603 154.312 481.689C150.683 480.018 147.492 477.693 144.758 474.738C142.012 471.763 139.896 468.389 138.396 464.593C136.875 460.809 136.208 456.574 136.394 451.887C136.572 447.217 137.733 442.535 139.86 437.852ZM208.101 460.346L213.679 434.052L272.318 444.136L268.88 470.8L266.555 470.397C267.141 462.967 266.462 457.074 264.496 452.712C262.065 447.278 258.227 444.116 253.005 443.222L247.27 442.234L237.065 502.158L245.664 503.637L245.268 505.974L218.735 501.414L219.131 499.077L227.73 500.552L237.935 440.629L232.195 439.641C226.961 438.743 222.31 440.442 218.221 444.758C214.925 448.209 212.332 453.542 210.427 460.748L208.101 460.346V460.346ZM277.774 509.409L277.592 507.043L287.482 506.279L303.519 440.405L306.245 440.198L334.909 502.625L343.16 501.987L343.342 504.353L312.878 506.702L312.7 504.336L324.029 503.462L314.718 483.087L295.757 484.55L290.564 506.043L300.085 505.308L300.263 507.673L277.774 509.409V509.409ZM296.307 482.132L313.626 480.794L302.58 456.659L296.307 482.132V482.132ZM344.944 464.365L337.744 438.47L394.345 420.062L403.611 445.282L401.367 446.014C398.455 439.157 395.13 434.251 391.372 431.309C386.713 427.626 381.851 426.618 376.816 428.256L371.275 430.057L389.908 487.899L398.208 485.2L398.936 487.456L373.325 495.784L372.597 493.529L380.897 490.83L362.267 432.987L356.726 434.788C351.674 436.434 348.341 440.108 346.711 445.839C345.385 450.432 345.547 456.366 347.189 463.638L344.944 464.365V464.365ZM419.636 443.079C417.396 439.592 415.77 436.003 414.754 432.3C413.727 428.581 413.339 425.045 413.553 421.671C413.772 418.298 414.447 415.071 415.596 411.969C416.74 408.864 418.33 406.047 420.368 403.556C422.395 401.048 424.741 398.947 427.39 397.227C430.047 395.5 432.915 394.211 436.025 393.382C439.123 392.537 442.331 392.236 445.619 392.46C448.903 392.683 452.111 393.39 455.262 394.573C458.408 395.764 461.446 397.581 464.411 400.036C467.359 402.487 469.948 405.45 472.188 408.933C474.971 413.258 476.791 417.725 477.641 422.318C478.482 426.935 478.429 431.223 477.483 435.182C476.545 439.153 474.923 442.807 472.65 446.144C470.368 449.465 467.545 452.229 464.18 454.415C460.831 456.59 457.163 458.045 453.211 458.773C449.239 459.496 445.271 459.476 441.279 458.704C437.287 457.956 433.376 456.24 429.546 453.566C425.724 450.904 422.419 447.4 419.636 443.079V443.079ZM428.567 437.275C434.165 445.977 439.908 451.57 445.773 454.078C451.638 456.582 457.357 456.021 462.898 452.424C468.451 448.815 471.295 443.807 471.44 437.397C471.574 430.996 468.844 423.444 463.246 414.745C457.632 406.019 451.86 400.353 445.894 397.743C439.941 395.13 434.197 395.626 428.668 399.219C423.155 402.804 420.344 407.86 420.263 414.396C420.19 420.928 422.953 428.553 428.567 437.275V437.275ZM507.219 418.363L505.448 416.802L511.211 410.201L465.749 370.088L459.982 376.689L458.21 375.124L476.338 354.375C478.623 351.757 480.982 349.749 483.429 348.339C485.867 346.92 488.173 346.173 490.345 346.051C492.525 345.941 494.547 346.209 496.436 346.859C498.313 347.502 500.008 348.493 501.536 349.843C504.497 352.456 506.119 355.423 506.378 358.744C506.649 362.057 505.804 365.528 503.85 369.158L504.258 369.519C507.87 366.499 511.417 364.894 514.916 364.723C518.427 364.561 521.428 365.569 523.936 367.78L531.39 374.356C533.784 376.47 535.823 377.563 537.501 377.652C539.18 377.742 540.834 376.835 542.476 374.962C543.621 373.649 544.555 372.06 545.267 370.182L547.33 371.271C546.092 374.226 544.373 376.949 542.193 379.445C541.21 380.571 540.139 381.538 538.97 382.331C537.821 383.123 536.49 383.774 535.002 384.27C533.53 384.778 531.924 384.794 530.213 384.363C528.49 383.924 526.824 382.969 525.177 381.518L517.185 374.466C514.609 372.194 511.834 370.991 508.865 370.82C505.905 370.661 503.219 371.962 500.8 374.73L494.07 382.432L517.452 403.06L523.216 396.459L524.991 398.024L507.219 418.363V418.363ZM492.286 380.859L499.967 372.064C501.055 370.824 501.722 369.584 501.973 368.332C502.232 367.064 502.095 365.825 501.577 364.597C501.043 363.361 500.343 362.203 499.433 361.089C498.515 359.988 497.35 358.793 495.914 357.529C494.576 356.342 493.144 355.354 491.643 354.59C490.143 353.802 488.589 353.265 486.964 352.952C485.334 352.635 483.716 352.765 482.07 353.346C480.423 353.932 478.951 354.976 477.633 356.488L471.986 362.947L492.286 380.859V380.859Z" stroke="#FE5700" stroke-width="3.74345" stroke-miterlimit="22.9256"/>
<path d="M164.496 541.893L164.755 540.978L168.326 541.995L174.919 518.599L171.347 517.583L171.602 516.668L180.06 519.075L180.695 540.153L192.541 522.627L200.133 524.789L199.878 525.7L196.517 524.745L189.925 548.144L193.282 549.099L193.027 550.01L182.664 547.063L182.923 546.148L186.28 547.108L192.626 524.59L192.562 524.57L177.892 546.238L176.84 545.937L176.059 520.192C176.031 519.733 176.072 519.323 176.173 518.957L176.035 518.916L169.442 542.316L173.018 543.332L172.759 544.242L164.496 541.893V541.893ZM198.77 551.676L198.94 550.741L202.843 551.445L215.653 527.569L216.728 527.765L221.57 554.83L224.83 555.42L224.66 556.355L212.635 554.18L212.801 553.245L217.274 554.054L215.713 545.226L208.227 543.872L204.061 551.668L207.818 552.347L207.652 553.278L198.77 551.676V551.676ZM208.68 542.99L215.519 544.226L213.663 533.764L208.68 542.99V542.99ZM229.954 557.342L230.072 556.403L233.756 556.867L236.778 532.74L233.093 532.272L233.21 531.333L242.202 532.467L250.93 552.054L253.094 534.804L249.409 534.337L249.526 533.394L258.049 534.475L257.927 535.414L254.243 534.947L251.039 560.525L249.963 560.391L238.205 534.028C238.044 533.662 237.991 533.288 238.04 532.898L237.93 532.886L234.909 557.013L238.594 557.48L238.472 558.419L229.954 557.342V557.342ZM262.704 551.867L263.505 551.888C263.804 553.765 264.447 555.416 265.43 556.846C266.166 557.928 267.064 558.777 268.12 559.399C269.171 560.013 270.34 560.342 271.618 560.378C273.467 560.427 274.931 559.992 276.007 559.082C277.079 558.176 277.641 556.903 277.685 555.269C277.726 553.749 277.224 552.469 276.181 551.432C275.141 550.4 273.487 549.559 271.222 548.916C270.36 548.677 269.592 548.417 268.912 548.152C268.245 547.884 267.562 547.539 266.886 547.116C266.207 546.697 265.648 546.23 265.203 545.718C264.763 545.206 264.407 544.584 264.144 543.852C263.877 543.125 263.755 542.307 263.78 541.421C263.84 539.162 264.585 537.361 266.016 536.012C267.444 534.658 269.386 534.016 271.833 534.081C272.925 534.113 273.912 534.325 274.801 534.731C275.675 535.113 276.286 535.321 276.626 535.329C277.135 535.341 277.475 534.975 277.653 534.239L278.454 534.26L278.345 541.043L277.552 541.019C277.168 539.812 276.617 538.653 275.91 537.536C275.481 536.845 274.854 536.255 274.037 535.776C273.216 535.3 272.395 535.048 271.57 535.024C270.033 534.983 268.779 535.394 267.812 536.259C266.838 537.125 266.34 538.182 266.304 539.442C266.287 540.06 266.409 540.629 266.664 541.141C266.918 541.653 267.222 542.08 267.594 542.417C267.958 542.755 268.459 543.084 269.094 543.397C269.725 543.714 270.284 543.954 270.765 544.124C271.254 544.287 271.861 544.482 272.609 544.71C273.932 545.112 275.056 545.547 275.991 546.014C276.917 546.486 277.734 547.055 278.438 547.738C279.137 548.412 279.659 549.221 279.983 550.16C280.31 551.107 280.456 552.197 280.423 553.436C280.359 555.867 279.469 557.802 277.758 559.249C276.043 560.696 273.968 561.387 271.537 561.326C270.065 561.285 268.552 560.858 266.999 560.049C266.316 559.704 265.843 559.525 265.576 559.517C265.03 559.501 264.617 559.614 264.334 559.85C264.047 560.09 263.747 560.504 263.44 561.106L262.639 561.086L262.704 551.867V551.867ZM296.655 548.421C296.529 546.766 296.638 545.193 296.986 543.694C297.334 542.19 297.868 540.873 298.588 539.731C299.304 538.584 300.157 537.585 301.148 536.711C302.143 535.841 303.235 535.158 304.424 534.67C305.618 534.178 306.839 533.894 308.097 533.796C309.921 533.658 311.64 533.817 313.246 534.264C313.978 534.475 314.556 534.569 314.977 534.536C315.341 534.508 315.62 534.386 315.81 534.174C315.996 533.951 316.186 533.618 316.368 533.166L317.169 533.105L317.816 541.694L317.019 541.755C316.449 539.987 315.652 538.495 314.617 537.28C314.31 536.91 313.994 536.585 313.675 536.308C313.347 536.024 312.926 535.739 312.413 535.459C311.899 535.17 311.28 534.963 310.56 534.837C309.832 534.711 309.039 534.678 308.17 534.743C305.549 534.943 303.599 536.182 302.325 538.462C301.059 540.743 300.582 543.954 300.893 548.095C301.205 552.229 302.159 555.298 303.745 557.306C305.33 559.31 307.446 560.212 310.079 560.013C310.948 559.948 311.729 559.793 312.429 559.557C313.12 559.318 313.703 559.021 314.168 558.663C314.633 558.302 315.005 557.96 315.284 557.631C315.559 557.306 315.822 556.94 316.073 556.525C316.91 555.168 317.476 553.57 317.772 551.741L318.573 551.68L319.22 560.265L318.423 560.326C318.257 560.045 318.116 559.838 318.002 559.704C317.889 559.562 317.731 559.436 317.525 559.326C317.323 559.208 317.096 559.163 316.841 559.184C316.421 559.216 315.859 559.391 315.167 559.712C313.65 560.403 311.976 560.817 310.148 560.96C308.558 561.082 306.993 560.887 305.468 560.383C303.931 559.874 302.544 559.106 301.286 558.066C300.024 557.037 298.976 555.684 298.139 554.009C297.302 552.339 296.808 550.473 296.655 548.421ZM327.398 558.704L327.281 557.761L330.751 557.322L327.73 533.195L324.259 533.634L324.142 532.691L334.832 531.341L334.949 532.28L331.479 532.719L334.5 556.85L339.88 556.168C341.113 556.013 342.141 555.688 342.99 555.204C343.835 554.713 344.527 553.973 345.057 552.965C345.619 551.9 345.995 550.859 346.181 549.843C346.359 548.827 346.444 547.656 346.432 546.348L347.508 546.209L348.341 556.054L327.398 558.704V558.704ZM348.074 530.256L347.864 529.329L358.356 526.899L358.566 527.821L355.169 528.61L359.496 547.461C359.731 548.482 360.075 549.319 360.524 549.969C360.981 550.62 361.523 551.075 362.15 551.335C362.772 551.599 363.428 551.737 364.103 551.758C364.783 551.774 365.535 551.688 366.356 551.497C368.613 550.973 370.279 549.961 371.343 548.465C372.415 546.961 372.69 545.084 372.172 542.828L368.213 525.586L364.593 526.423L364.382 525.501L372.751 523.558L372.961 524.484L369.345 525.322L373.337 542.706C373.911 545.218 373.592 547.311 372.362 548.986C371.137 550.664 369.208 551.81 366.57 552.424C360.354 553.863 356.612 551.831 355.347 546.323L351.476 529.468L348.074 530.256V530.256ZM384.755 547.518L384.496 546.604L387.861 545.649L381.269 522.249L377.904 523.204L377.645 522.294L388.638 519.164C391.328 518.4 393.467 518.367 395.073 519.07C396.679 519.774 397.747 521.078 398.284 522.989C398.677 524.391 398.511 525.708 397.791 526.948C397.071 528.199 395.983 529.183 394.527 529.915L394.588 530.126C396.63 529.809 398.39 530.073 399.858 530.923C401.334 531.772 402.325 533.093 402.831 534.89C403.441 537.056 403.126 538.979 401.876 540.661C400.626 542.34 398.632 543.568 395.89 544.348L384.755 547.518ZM391.502 544.612L395.283 543.535C398.713 542.56 399.846 540.007 398.681 535.873C398.147 533.987 397.378 532.605 396.367 531.74C395.352 530.866 394.094 530.646 392.602 531.073L388.052 532.37L391.502 544.612V544.612ZM387.793 531.451L392.343 530.155C393.581 529.801 394.389 529.094 394.753 528.017C395.13 526.944 395.109 525.684 394.705 524.241C394.503 523.525 394.248 522.891 393.941 522.338C393.633 521.786 393.245 521.286 392.772 520.835C392.294 520.387 391.704 520.103 390.996 519.973C390.284 519.851 389.495 519.908 388.618 520.156L384.905 521.213L387.793 531.451V531.451Z" fill="white" stroke="white" stroke-width="1.44747"/>
<path fill-rule="evenodd" clip-rule="evenodd" d="M116.243 515.014C96.6751 506.877 77.2204 495.508 57.8182 480.217C42.7924 468.377 30.7312 453.058 22.0474 439.836C37.7649 453.989 53.6603 465.841 70.3769 476.811C81.9809 484.428 93.9855 491.618 106.597 498.857C113.638 502.898 119.192 505.292 120.191 507.417C120.676 511.844 119.078 514.417 116.243 515.014Z" fill="#FE5700"/>
<path fill-rule="evenodd" clip-rule="evenodd" d="M455.791 513.449C475.23 505.007 494.507 493.33 513.666 477.738C528.502 465.662 540.324 450.152 548.798 436.796C533.307 451.196 517.598 463.297 501.055 474.527C489.568 482.327 477.681 489.708 465.183 497.146C458.206 501.296 452.689 503.775 451.726 505.917C451.31 510.352 452.948 512.9 455.791 513.449Z" fill="#FE5700"/>
<path fill-rule="evenodd" clip-rule="evenodd" d="M548.126 334.593C548.952 330.919 549.372 326.098 548.774 321.574C548.195 317.18 546.658 313.059 543.609 310.539C544.567 307.999 546.234 305.442 548.353 303.45C550.116 301.8 552.195 300.54 554.448 300.016C555.933 302.093 556.932 304.548 557.453 307.117C558.129 310.425 558.012 313.925 557.13 317.042C560.256 315.307 562.97 313.587 565.733 312.299C569.62 310.486 573.604 309.523 578.979 310.567C579.068 313.555 578.247 316.424 576.844 318.993C575.363 321.696 573.236 324.07 570.825 325.915C568.111 327.996 564.985 329.585 561.826 330.748C563.193 328.419 563.686 327.13 564.058 325.671C564.337 324.574 564.552 323.383 565.021 321.582C563.067 321.964 560.883 323.167 558.707 324.744C554.638 327.691 550.594 331.943 548.126 334.593Z" fill="white"/>
<path fill-rule="evenodd" clip-rule="evenodd" d="M30.8607 342.336C30.0316 338.662 29.615 333.845 30.2136 329.317C30.792 324.923 32.3289 320.806 35.3786 318.282C34.42 315.746 32.7536 313.185 30.6342 311.197C28.8708 309.543 26.7918 308.283 24.5389 307.759C23.0546 309.836 22.0555 312.291 21.5338 314.86C20.8583 318.168 20.9756 321.668 21.8573 324.785C18.7308 323.054 16.0169 321.334 13.2544 320.042C9.36747 318.229 5.38349 317.266 0.00815108 318.31C-0.0808312 321.302 0.740232 324.167 2.14373 326.74C3.62407 329.439 5.75155 331.813 8.16216 333.662C10.8761 335.743 14.0026 337.332 17.1615 338.491C15.7944 336.166 15.301 334.873 14.9289 333.418C14.6498 332.317 14.4354 331.126 13.9662 329.325C15.9198 329.711 18.1039 330.91 20.2799 332.487C24.3488 335.434 28.3935 339.69 30.8607 342.336Z" fill="white"/>
<path fill-rule="evenodd" clip-rule="evenodd" d="M240.965 162.842C228.261 154.526 219.585 147.007 211.447 138.573C204.777 131.663 198.468 124.131 190.605 115.047C183.693 107.06 176.25 99.3865 165.633 91.4647C173.54 91.0094 182.362 92.4808 190.908 95.1837C199.924 98.033 209.38 102.398 217.498 108.345C227.484 115.657 235.44 125.363 238.057 137.569C233.725 133.476 230.898 129.517 226.59 126.253C221.736 122.575 218.436 120.376 213.348 117.986C218.873 125.627 225.543 133.96 231.116 142.625C235.363 149.222 238.979 156.014 240.965 162.842Z" fill="white"/>
<path fill-rule="evenodd" clip-rule="evenodd" d="M201.432 78.6449C197.428 68.325 190.479 61.456 182.362 56.4525C171.558 49.7988 158.68 46.4456 147.905 42.6777C137.543 39.0522 127.124 34.2804 115.536 23.3711C108.385 16.6443 101.638 8.86478 92.4126 0C88.2102 11.1978 88.7037 27.2772 93.6665 39.7269C95.6322 44.6491 98.2936 49.0022 101.643 52.262C103.932 54.4934 106.557 56.3631 109.558 58.123C107.236 53.6154 104.607 47.0065 103.204 40.5317C102.245 36.1013 101.853 31.736 102.532 28.147C108.357 35.0648 113.113 38.7758 117.841 41.7063C123.645 45.3034 129.409 47.73 137.07 53.4691C132.62 54.6235 128.693 54.1682 123.407 53.0423C127.197 58.7368 134.728 64.0735 143.238 68.577C156.913 75.8201 176.986 82.0876 200.724 93.5903C198.532 88.7291 195.515 84.5141 192.012 80.9089C186.188 74.9218 179.009 70.6134 171.987 67.7845C176.8 67.3821 181.358 68.7518 185.779 70.7434C191.13 73.1497 196.279 76.4623 201.432 78.6449Z" fill="white"/>
<path fill-rule="evenodd" clip-rule="evenodd" d="M108.28 91.2977C102.265 90.4604 98.3988 88.668 95.6768 85.3107C93.8607 83.067 92.5502 80.1284 91.4541 76.3118C90.8272 74.1332 90.4106 71.8895 90.172 69.65C93.068 67.4429 97.7274 65.9675 102.282 65.8293C106.909 65.6911 111.431 66.9389 113.898 70.2068C108.466 70.1377 104.094 72.2635 101.63 75.3403C102.136 81.5591 103.584 85.8594 108.28 91.2977Z" fill="white"/>
<path fill-rule="evenodd" clip-rule="evenodd" d="M116.984 122.306C113.655 121.965 111.147 120.803 109.17 119.006C107.01 117.047 105.485 114.34 104.227 111.125C103.086 108.215 102.282 105.191 101.958 103.016C104.781 102.37 108.506 102.077 112.195 102.317C116.304 102.585 120.369 103.512 123.099 105.345C125.097 106.686 126.521 108.698 126.873 111.832C123.37 112.653 118.282 112.946 114.5 112.312C116.292 115.425 116.814 119.164 116.984 122.306Z" fill="white"/>
<path fill-rule="evenodd" clip-rule="evenodd" d="M136.544 101.008C133.611 100.581 131.29 99.0489 129.514 96.9557C127.233 94.265 125.854 90.6516 125.251 87.2577C124.883 85.1807 124.653 83.0712 124.361 81.0715C127.54 80.5675 131.322 80.7382 134.906 81.5877C138.307 82.3965 141.531 83.815 143.893 85.8432C145.863 87.5382 147.117 89.8062 146.817 93.0172C144.338 92.3668 142.554 91.4198 140.601 90.7979C138.938 90.2695 137.146 89.9728 134.691 90.2939C134.489 91.7043 134.675 93.3423 135.011 95.0047C135.44 97.1224 136.111 99.2725 136.544 101.008Z" fill="white"/>
<path fill-rule="evenodd" clip-rule="evenodd" d="M178.677 149.644C169.928 149.514 161.596 150.632 155.598 153.116C163.344 160.704 164.116 181.141 172.638 192.038C186.714 214.002 214.331 208.064 229.187 190.286C222.408 197.488 213.243 201.667 204.304 202.768C195.062 203.906 186.576 200.943 180.299 195.432C173.71 189.652 169.233 179.429 169.132 169.829C169.091 165.854 169.912 161.594 171.672 157.851C173.241 154.506 175.559 151.579 178.677 149.644Z" fill="white"/>
<path fill-rule="evenodd" clip-rule="evenodd" d="M178.944 134.549C175.486 133.691 172.028 131.492 168.796 128.623C164.824 125.204 161.584 121.697 158.207 117.14C155.736 113.632 153.766 110.531 153.709 106.828C155.016 104.78 157.067 105.199 159.311 106.702C163.303 109.369 166.139 112.868 169.427 116.258C170.806 117.677 174.212 120.81 177.298 123.054C180.938 125.7 182.309 129.208 181.99 131.651C181.759 133.394 180.675 134.593 178.944 134.549Z" fill="white"/>
<path fill-rule="evenodd" clip-rule="evenodd" d="M287.166 197.622C285.411 197.724 283.955 198.289 282.907 200.691C280.824 205.459 280.436 212.836 279.482 218.278C277.977 226.855 276.218 235.089 272.97 243.158C272.881 243.56 274.292 247.702 275.922 252.25C277.775 257.424 279.902 263.119 280.412 264.411C281.702 267.695 283.045 270.951 284.347 274.024C285.577 276.918 286.73 279.369 287.166 279.543V197.622Z" fill="white"/>
<path fill-rule="evenodd" clip-rule="evenodd" d="M161.144 185.392C161.467 190.729 162.539 195.81 164.63 200.325C167.118 205.686 171.045 210.251 176.877 213.507C182.823 216.823 189.901 217.34 197.634 213.527C191.175 213.397 185.092 212.869 179.276 209.975C173.172 206.934 169.269 203.191 166.446 198.525C164.181 194.777 162.608 190.436 161.144 185.392Z" fill="white"/>
<path fill-rule="evenodd" clip-rule="evenodd" d="M231.151 170.291C229.676 168.603 228.066 167.031 226.347 165.57C226.401 166.142 226.429 166.722 226.429 167.309C226.429 177.316 218.356 185.425 208.402 185.425C198.448 185.425 190.375 177.316 190.375 167.309C190.375 161.104 193.481 155.625 198.215 152.362C196.808 152.047 195.382 151.764 193.944 151.514C188.396 155.436 184.821 161.614 184.821 168.565C184.821 169.691 184.914 170.796 185.096 171.878C184.404 169.638 184.032 167.268 184.032 164.813C184.032 159.594 185.713 154.753 188.581 150.749C188.157 150.702 187.733 150.657 187.309 150.616C186.719 150.559 186.128 150.506 185.538 150.462L184.268 151.25C183.398 151.791 182.391 152.904 181.412 154.213C179.972 156.14 178.694 158.4 177.905 160.082C177.198 161.594 176.668 163.22 176.316 164.883C175.94 166.663 175.762 168.439 175.778 170.13C175.826 174.731 176.769 179.015 178.435 182.787C180.118 186.587 182.553 189.859 185.566 192.391C188.51 194.863 191.863 196.497 195.427 197.391C199.318 198.366 203.488 198.472 207.674 197.834C214.728 196.757 221.757 193.578 227.574 188.88C231.198 185.949 234.336 182.437 236.698 178.491C235.959 177.02 235.13 175.613 234.221 174.268C230.608 182.678 222.322 188.786 212.446 189.628C222.55 187.825 230.318 179.96 231.151 170.291Z" fill="#FE5700"/>
<path fill-rule="evenodd" clip-rule="evenodd" d="M147.788 143.909C144.318 141.796 139.707 138.601 135.52 134.996C132.062 132.017 128.293 127.602 126.266 123.046C125.385 121.067 124.863 119.616 124.644 117.262C129.316 115.974 133.907 115.941 138.271 116.961C142.667 117.994 146.837 120.103 150.639 123.091C154.025 125.749 156.783 129.053 157.924 132.708C158.486 134.528 158.664 136.5 158.296 138.674C154.555 136.378 151.493 133.529 148.083 131.179C145.96 129.716 143.691 128.35 141.062 127.44C143.205 129.984 144.916 132.325 146.534 135.516C147.505 137.865 148.378 140.658 147.788 143.909Z" fill="white"/>
<path fill-rule="evenodd" clip-rule="evenodd" d="M260.168 146.299C256.767 146.474 253.875 145.222 251.432 143.157C246.635 139.097 243.205 132.082 241.28 125.123C240.467 122.176 240.204 118.843 239.605 115.718C238.991 112.531 238.028 109.56 235.763 107.422C241.446 105.04 247.65 106.743 252.658 110.365C256.945 113.47 260.359 117.986 261.807 122.558C262.903 126.029 262.624 129.769 259.837 133.683C259.109 130.041 257.398 127.062 255.602 124.428C254.275 122.489 252.395 121.095 250.486 120.351C251.432 124.286 252.342 128.228 253.523 132.065C255.056 137.065 257.05 141.889 260.168 146.299Z" fill="white"/>
<path fill-rule="evenodd" clip-rule="evenodd" d="M225.251 100.423C222.193 98.7724 219.152 96.6914 216.964 94.1632C213.546 89.4768 210.872 83.2906 209.651 76.9255C208.571 71.2676 208.632 65.4675 210.347 60.4559C216.875 63.0735 222.42 67.3372 227.019 72.5195C230.61 76.5719 235.027 82.8353 237.478 89.1923C238.938 92.9723 239.707 96.7889 239.193 100.191C236.879 99.6382 234.259 97.423 231.71 94.6632C227.888 90.5214 224.228 85.144 222.023 82.2988C222.715 85.1968 223.831 88.6436 224.596 92.0253C225.267 95.0168 225.664 97.9554 225.251 100.423Z" fill="white"/>
<path fill-rule="evenodd" clip-rule="evenodd" d="M242.049 86.7214C239.982 85.0061 238.566 82.1244 237.644 78.9743C236.548 75.2309 236.143 71.1013 236.164 68.0976C236.192 64.468 236.944 60.8871 238.615 58.0013C242.999 59.619 245.786 62.9722 248.196 66.041C250.724 69.256 252.269 73.1539 252.443 78.5476C252.524 81.1001 252.302 84.1038 251.57 86.1401C250.207 85.5142 248.86 83.8193 247.622 81.7951C245.766 78.763 244.164 74.987 243.153 72.9507C243.226 74.8285 243.141 76.5722 243.197 78.7589C243.246 80.6896 242.607 85.2459 242.049 86.7214Z" fill="white"/>
<path fill-rule="evenodd" clip-rule="evenodd" d="M270.163 105.788C270.749 103.499 271.117 101.024 270.871 98.7724C270.118 94.9152 268.286 90.7409 265.694 87.2088C263.392 84.071 260.492 81.4412 257.228 79.9983C255.525 84.4612 255.092 89.1882 255.545 93.8665C255.905 97.5205 256.977 102.601 258.996 106.743C260.197 109.206 261.734 111.34 263.651 112.645C264.44 111.238 264.549 108.909 264.351 106.369C264.055 102.561 263.077 98.2644 262.676 95.8541C263.793 97.5327 264.986 99.6707 266.312 101.605C267.481 103.313 268.755 104.861 270.163 105.788Z" fill="white"/>
<path fill-rule="evenodd" clip-rule="evenodd" d="M286.56 147.925C288.437 145.088 289.096 141.08 289.063 136.926C289.023 131.992 288 126.846 286.879 123.221C285.524 118.835 283.308 114.783 280.23 111.909C275.514 115.482 273.37 120.562 271.57 125.168C269.686 129.988 269.241 135.28 271 141.865C271.833 144.982 273.196 148.535 274.83 150.734C276.246 149.474 277.261 146.925 278.018 144.019C279.154 139.666 279.716 134.504 280.198 131.671C280.796 133.967 281.532 136.048 282.264 138.711C282.908 141.068 285.346 146.348 286.56 147.925Z" fill="white"/>
<path fill-rule="evenodd" clip-rule="evenodd" d="M281.423 174.544C279.939 170.589 277.476 167 274.353 164.183C270.891 161.062 266.583 159.16 262.025 158.241C257.179 157.261 252.051 157.391 247.347 158.343C247.484 164.362 249.923 170.114 253.693 174.893C256.504 178.458 261.985 182.864 267.724 185.347C272.476 187.4 277.411 188.14 281.156 185.99C281.156 185.965 275.623 180.974 271.085 176.056C267.821 172.516 265.232 169.459 264.521 167.971C266.773 168.102 269.204 168.927 271.514 169.951C275.935 171.91 279.927 174.597 281.423 174.544Z" fill="white"/>
<path fill-rule="evenodd" clip-rule="evenodd" d="M274.717 92.7286C273.439 89.1843 271.198 84.9044 268.266 81.421C265.41 78.0353 261.904 75.4055 257.98 74.9421C257.426 72.2839 257.446 69.2233 258.162 66.3985C258.757 64.0532 259.829 61.8665 261.447 60.2C263.809 61.1389 265.969 62.6631 267.793 64.541C270.139 66.9594 271.922 69.9671 272.857 73.0684C274.555 69.9102 275.914 66.9919 277.544 64.4068C279.838 60.7691 282.673 57.7938 287.757 55.7534C289.44 58.2206 290.293 61.078 290.491 64.0044C290.702 67.0813 290.188 70.2354 289.152 73.0968C287.988 76.3241 286.212 79.3562 284.178 82.051C284.076 79.3481 283.797 77.9946 283.324 76.568C282.972 75.4909 282.511 74.3731 281.937 72.601C280.501 73.987 279.308 76.1859 278.325 78.6897C276.489 83.3801 275.372 89.1559 274.717 92.7286Z" fill="white"/>
<path fill-rule="evenodd" clip-rule="evenodd" d="M109.267 169.374C110.448 165.447 113.279 162.619 116.749 160.623C121.793 157.721 128.204 156.566 132.904 156.327C137.114 156.111 143.63 156.847 146.87 160.509C143.072 161.334 138.489 161.562 135.149 163.866C136.799 164.586 136.936 165 138.68 166.167C141.919 168.329 145.547 170.439 150.437 169.443C149.208 171.788 144.941 173.804 141.636 174.239C135.763 175.019 130.222 174.304 124.806 173.134C119.573 172 114.452 170.439 109.267 169.374Z" fill="white"/>
<path fill-rule="evenodd" clip-rule="evenodd" d="M96.692 197.622C99.8752 192.582 106.961 187.693 111.795 184.856C116.203 182.275 122.788 180.092 129.268 179.58C135.561 179.088 141.757 180.169 145.77 183.994C140.568 185.266 134.364 185.441 130.279 188.469C132.257 190.253 134.975 191.2 137.454 191.501C142.028 192.058 145.665 192.31 149.77 191.436C148.213 194.513 144.281 196.773 139.95 198.114C134.526 199.793 126.881 200.301 119.148 200.102C110.917 199.891 102.581 198.874 96.692 197.622Z" fill="white"/>
<path fill-rule="evenodd" clip-rule="evenodd" d="M101.918 231.907C104.385 226.188 108.454 221.237 113.465 217.234C119.083 212.742 125.894 209.438 132.96 207.568C139.217 205.914 145.745 205.089 151.986 205.662C146.866 208.597 140.006 211.263 136.414 215.941C139.015 216.295 142.849 216.031 146.72 215.437C151.096 214.767 155.517 213.665 158.235 212.551C157.192 215.937 153.248 218.88 148.443 221.302C141.648 224.737 133.126 227.139 128.641 228.318C119.892 230.614 110.682 231.533 101.918 231.907Z" fill="white"/>
<path fill-rule="evenodd" clip-rule="evenodd" d="M122.861 149.34C118.695 148.657 113.012 147.429 107.604 145.742C103.135 144.344 97.8488 141.865 94.2207 138.747C92.6433 137.394 91.6119 136.361 90.5522 134.504C94.6859 132.045 99.1835 130.63 103.843 130.155C108.539 129.671 113.396 130.143 118.205 131.439C122.485 132.598 126.384 134.471 128.815 137.122C130.02 138.438 130.898 139.999 131.318 141.889C126.817 141.137 122.784 139.727 118.59 138.833C115.973 138.276 113.255 137.841 110.347 137.89C113.368 139.325 115.884 140.727 118.622 142.849C120.418 144.478 122.274 146.503 122.861 149.34Z" fill="white"/>
<path fill-rule="evenodd" clip-rule="evenodd" d="M103.697 161.358C98.4635 155.4 88.817 159.854 85.0878 162.435C80.8774 165.354 75.9833 172.503 75.7285 179.929C79.1301 180.226 83.4255 180.169 85.6177 179.848C90.2892 179.169 94.2085 175.361 102.092 177.442C103.171 177.669 102.059 173.865 99.1187 171.975C96.522 170.434 94.0872 170.154 91.078 169.39C92.5785 167.671 93.9213 166.126 95.4017 164.854C97.5696 162.988 100.029 161.712 103.697 161.358Z" fill="white"/>
<path fill-rule="evenodd" clip-rule="evenodd" d="M95.4409 187.908C90.8745 184.197 81.131 188.119 74.4573 195.566C68.9202 201.744 65.64 210.491 67.8564 217.986C71.3186 215.368 76.1318 213.653 78.235 212.974C82.7286 211.519 92.9494 209.8 101.649 209.304C102.75 209.344 96.4238 205.195 93.0384 204.061C90.2233 202.975 86.0897 202.902 82.9915 202.654C83.0805 200.472 84.2656 197.988 85.5113 196.492C87.3395 194.285 91.8816 188.875 95.4409 187.908Z" fill="white"/>
<path fill-rule="evenodd" clip-rule="evenodd" d="M67.2187 255.465C65.9163 249.75 66.7131 243.804 68.7314 238.15C71.1379 232.569 73.775 228.631 77.3465 225.278C82.2 221.806 90.6614 222.664 92.251 226.798C93.1812 233.077 84.914 238.069 80.3759 242.011C75.405 246.454 71.6031 249.73 67.2187 255.465Z" fill="white"/>
<path fill-rule="evenodd" clip-rule="evenodd" d="M124.382 251.567C121.372 260.18 112.515 267.699 106.884 273.178C102.233 277.706 90.6088 284.738 84.4366 287.095C81.755 288.124 79.8257 288.697 76.8732 288.753C76.5981 280.734 77.0511 274.483 79.1543 268.65C81.3587 262.541 85.1364 257.018 89.7675 252.673C94.3703 248.356 99.8225 245.206 105.412 243.804C107.803 243.206 110.274 243.17 112.834 243.913C106.577 247.819 102.265 251.75 99.3129 256.257C97.2865 259.351 95.5149 261.919 94.0912 266.85C96.4614 265.573 100.866 262.826 105.627 260.005C113.255 255.489 121.797 250.778 124.382 251.567Z" fill="white"/>
<path fill-rule="evenodd" clip-rule="evenodd" d="M148.059 275.914C147.808 276.271 137.381 285.62 126.97 296.557C120.62 303.223 113.251 312.031 111.18 315.254C108.943 318.73 106.714 322.363 104.733 326.773C101.582 319.644 101.703 309.771 102.269 302.577C102.836 295.33 105.157 288.176 108.955 281.409C112.337 275.377 116.879 270.191 122.371 267.5C125.101 266.163 128.171 265.411 131.686 265.472C128.56 269.341 124.013 275.084 120.948 281.019C118.327 286.087 116.879 289.298 117.748 293.96C119.435 290.034 123.006 285.628 127.399 282.071C133.652 277.011 141.567 273.678 148.059 275.914Z" fill="white"/>
<path fill-rule="evenodd" clip-rule="evenodd" d="M188.829 285.274C189.213 294.391 169.556 316.08 164.723 322.274C160.246 328.009 152.82 335.333 147.958 339.825C145.851 341.772 141.531 345.718 138.813 346.873C135.597 339.528 134.238 331.094 134.036 324.896C133.83 318.4 135.298 311.861 137.996 306.101C140.678 300.378 144.577 295.42 149.252 292.038C151.254 290.587 153.536 289.636 156.189 289.371C151.817 295.33 149.264 300.586 148.184 305.874C147.444 309.503 146.749 312.548 147.242 317.657C148.973 315.588 152.051 311.397 155.432 306.999C158.381 303.167 166.042 296.428 173.447 291.904C179.624 288.128 185.593 286.282 188.829 285.274Z" fill="white"/>
<path fill-rule="evenodd" clip-rule="evenodd" d="M219.026 298.96C220.62 310.369 214.096 325.778 206.411 338.719C201.634 346.759 197.845 352.063 193.149 357.152C190.354 360.184 187.235 363.143 183.397 366.561C179.437 359.59 177.387 349.299 176.55 343.153C175.668 336.715 176.452 330.057 178.544 324.046C179.846 320.299 182.188 314.958 185.152 310.56C187.761 306.69 190.855 303.553 194.148 302.874C192.267 306.093 191.284 313.149 191.082 319.758C190.948 324.27 191.175 328.57 191.729 331.297C195.013 328.688 205 316.169 207.62 312.178C211.532 306.219 215.952 300.285 219.026 298.96Z" fill="white"/>
<path fill-rule="evenodd" clip-rule="evenodd" d="M251.206 307.267C256.476 312.068 254.915 329.98 251.493 345.255C249.434 354.437 246.433 362.513 244.378 366.52C242.574 370.028 240.095 373.589 236.01 377.808C230.784 371.333 226.958 361.127 225.069 354.965C223.087 348.514 222.776 341.556 223.912 335.041C224.62 330.976 226.129 325.103 228.43 320.095C230.461 315.689 233.102 311.946 236.366 310.694C234.974 314.311 235.148 321.713 236.05 328.525C236.669 333.171 237.62 337.54 238.647 340.243C241.575 337.016 243.897 327.757 245.915 323.217C248.928 316.445 249.26 310.531 251.206 307.267Z" fill="white"/>
<path fill-rule="evenodd" clip-rule="evenodd" d="M284.028 319.937C291.858 324.4 294.083 336.057 293.654 347.072C293.371 354.38 291.919 361.407 290.168 365.866C288.772 369.414 286.851 372.796 284.19 376.178C278.45 373.194 273.281 365.943 269.957 358.294C267.518 352.677 266.07 346.84 266.118 342.324C266.159 338.577 266.086 333.935 266.664 329.578C267.182 325.704 268.217 322.05 270.313 319.445C270.09 320.38 272.594 326.757 275.259 332.903C277.524 338.138 279.915 343.206 280.841 344.613C282.827 341.906 283.623 335.87 283.919 330.118C284.117 326.22 284.081 322.449 284.028 319.937Z" fill="white"/>
<path fill-rule="evenodd" clip-rule="evenodd" d="M263.95 194.814C261.196 192.001 256.912 192.16 254.546 193.062C251.206 194.33 248.613 196.72 246.659 199.626C245.046 202.028 243.873 204.788 243.084 207.556C245.11 208.552 249.883 208.828 254.445 208.483C256.646 208.32 260.512 207.613 263.708 206.158C266.717 204.788 269.135 202.756 269.014 199.882C265.758 200.215 263.509 200.276 261.159 200.232C259.388 200.199 257.552 200.114 255.181 200.045C255.691 199.179 256.605 198.439 257.657 197.805C260.261 196.236 263.708 195.326 263.95 194.814Z" fill="white"/>
<path fill-rule="evenodd" clip-rule="evenodd" d="M239.792 213.328C236.576 212.259 232.944 212.694 229.996 214.319C227.488 215.697 225.854 217.758 224.859 220.14C223.678 222.981 223.403 226.281 223.65 229.456C225.838 229.984 231.375 229.029 235.751 227.696C237.862 227.054 241.482 225.517 244.285 223.4C246.926 221.404 250.708 217.721 249.968 214.941C247.015 215.929 243.76 217.266 240.495 218.201C238.526 218.766 236.552 219.189 234.639 219.298C234.865 218.014 235.415 217.23 236.305 216.356C237.705 214.978 239.157 213.811 239.792 213.328Z" fill="white"/>
<path fill-rule="evenodd" clip-rule="evenodd" d="M201.938 225.725C197.497 224.253 193.363 225.144 189.294 227.383C185.363 229.55 182.948 232.33 181.375 235.581C179.571 239.321 178.875 243.678 178.268 248.446C181.589 248.555 190.326 247.389 196.364 245.552C199.272 244.662 204.267 242.544 208.138 239.622C211.778 236.87 216.996 231.785 215.977 227.952C211.904 229.318 207.41 231.159 202.908 232.452C200.19 233.232 197.464 233.813 194.831 233.964C195.139 232.192 195.899 231.11 197.129 229.903C199.062 228.005 201.056 226.395 201.938 225.725Z" fill="white"/>
<path fill-rule="evenodd" clip-rule="evenodd" d="M157.079 231.22C152.29 229.793 147.897 230.879 143.622 233.407C139.493 235.85 137.001 238.902 135.428 242.426C133.62 246.478 132.435 252.27 131.941 257.388C138.91 257.249 145.491 255.924 151.606 253.372C156.043 251.518 160.234 249.023 164.157 245.865C167.959 242.808 175.175 232.289 173.957 228.224C166.337 232.005 164.254 235.52 158.211 238.227C156.019 239.207 153.342 239.943 149.754 240.256C150.025 238.353 150.801 237.175 152.076 235.841C154.078 233.752 156.161 231.964 157.079 231.22Z" fill="white"/>
<path fill-rule="evenodd" clip-rule="evenodd" d="M200.417 250.929C200.033 254.644 189.852 264.521 179.433 272.024C173.617 276.215 166.482 279.67 163.926 280.901C161.418 282.108 158.951 283.076 156.763 283.637C155.38 279.251 155.25 274.382 155.655 270.858C156.075 267.167 157.552 263.57 159.728 260.505C161.892 257.457 164.751 254.925 167.959 253.343C169.33 252.669 170.838 252.291 172.517 252.327C170.935 253.823 169.123 256.936 167.829 260.046C166.854 262.383 166.175 264.72 166.106 266.37C169.601 263.456 170.122 262.944 172.133 261.489C175.029 259.396 177.726 258.091 184.072 255.518C188.255 253.823 198.31 251.27 200.417 250.929Z" fill="white"/>
<path fill-rule="evenodd" clip-rule="evenodd" d="M255.477 266.923C257.002 269.975 257.167 274.044 256.63 278.169C255.99 283.075 254.348 288.062 252.791 291.534C250.906 295.732 248.209 299.488 244.799 301.971C240.544 297.838 239.027 292.517 237.798 287.717C236.511 282.689 236.71 277.373 239.262 271.036C240.471 268.036 242.259 264.671 244.152 262.683C245.41 264.114 246.105 266.772 246.506 269.756C247.108 274.227 247.036 279.429 247.173 282.307C248.047 280.096 249.03 278.117 250.085 275.556C251.012 273.296 254.081 268.341 255.477 266.923Z" fill="white"/>
<path fill-rule="evenodd" clip-rule="evenodd" d="M232.026 255.534C231.727 260.908 229.627 266.647 226.849 271.922C223.552 278.194 219.293 283.815 215.952 287.408C211.912 291.749 207.374 294.867 202.888 295.676C201.299 286.717 202.864 278.223 204.401 270.662C206.015 262.745 209.137 255.571 214.97 248.791C217.736 245.58 221.227 242.308 224.05 241.02C224.406 243.954 223.573 248.153 222.282 252.571C220.357 259.196 217.408 266.313 215.94 270.386C217.963 268.004 219.957 266.033 222.331 263.31C224.43 260.899 229.967 256.42 232.026 255.534Z" fill="white"/>
<path fill-rule="evenodd" clip-rule="evenodd" d="M279.478 286.579C281.455 289.193 282.313 292.465 282.499 295.708C282.721 299.561 281.997 303.374 281.096 305.975C280.008 309.125 278.058 311.832 275.211 313.442C270.426 309.662 268.064 305.235 266.066 301.26C263.975 297.094 263.259 292.859 264.626 288.075C265.273 285.807 266.417 283.311 267.89 281.933C269.342 283.218 270.466 285.421 271.356 287.851C272.695 291.497 273.512 295.651 274.135 297.972C274.596 296.297 275.202 294.822 275.777 292.891C276.282 291.184 278.378 287.559 279.478 286.579Z" fill="white"/>
<path fill-rule="evenodd" clip-rule="evenodd" d="M257.641 235.817C259.093 238.3 259.436 241.235 259.174 244.076C258.862 247.45 257.697 250.685 256.528 252.851C255.121 255.473 252.989 257.619 250.186 258.708C246.34 254.912 244.783 250.807 243.501 247.137C242.154 243.292 242.065 239.532 243.945 235.52C244.835 233.618 246.206 231.573 247.731 230.533C248.876 231.805 249.604 233.842 250.093 236.049C250.821 239.361 251.015 243.064 251.27 245.145C251.909 243.739 252.662 242.523 253.438 240.906C254.122 239.475 256.512 236.553 257.641 235.817Z" fill="white"/>
<path fill-rule="evenodd" clip-rule="evenodd" d="M335.06 162.724C349.649 157.111 358.515 148.608 366.187 139.109C372.57 131.207 378.127 122.615 385.472 114.425C391.851 107.312 398.362 97.1992 408.155 90.1472C404.154 89.9237 394.504 93.8663 385.12 98.4267C376.307 102.711 367.724 107.539 364.278 109.978C355.069 116.49 334.918 137.068 332.507 147.937C337.312 146.982 347.744 138.536 352.047 134.935C355.797 131.797 355.756 132.504 360.096 129.435C357.273 134.605 358.486 132.675 353.345 140.389C349.426 146.262 336.896 156.643 335.06 162.724Z" fill="white"/>
<path fill-rule="evenodd" clip-rule="evenodd" d="M372.938 78.6448C376.942 68.3249 383.891 61.4558 392.012 56.4523C402.812 49.7987 415.694 46.4454 426.465 42.6776C434.91 39.7227 448.217 35.7435 459.469 28.3826C465.665 24.3262 471.219 18.522 475.203 13.5754C476.918 18.1359 474.956 23.2165 471.607 27.8623C467.247 33.9063 460.541 39.2187 456.529 41.7062C450.724 45.3033 444.961 47.7298 437.304 53.469C441.749 54.6233 445.681 54.1681 450.963 53.0422C447.173 58.7366 439.646 64.0734 431.136 68.5769C417.457 75.8199 397.388 82.0874 373.646 93.5901C375.842 88.7289 378.855 84.514 382.362 80.9087C388.182 74.9216 395.361 70.6132 402.383 67.7843C397.574 67.3819 393.015 68.7517 388.591 70.7433C383.244 73.1495 378.091 76.4621 372.938 78.6448Z" fill="white"/>
<path fill-rule="evenodd" clip-rule="evenodd" d="M413.227 185.392C412.903 190.729 411.831 195.809 409.74 200.325C407.253 205.686 403.325 210.251 397.497 213.506C391.547 216.823 384.469 217.339 376.736 213.527C383.195 213.397 389.278 212.868 395.094 209.974C401.202 206.934 405.101 203.19 407.924 198.524C410.193 194.777 411.762 190.436 413.227 185.392Z" fill="white"/>
<path fill-rule="evenodd" clip-rule="evenodd" d="M343.223 170.287C344.698 168.6 346.307 167.029 348.026 165.569C347.97 166.141 347.942 166.721 347.942 167.309C347.942 177.316 356.015 185.425 365.969 185.425C375.927 185.425 383.996 177.316 383.996 167.309C383.996 161.104 380.89 155.625 376.155 152.362C377.564 152.047 378.991 151.763 380.431 151.514C385.975 155.435 389.554 161.614 389.554 168.565C389.554 169.69 389.457 170.796 389.279 171.877C389.966 169.638 390.342 167.268 390.342 164.813C390.342 159.594 388.662 154.752 385.79 150.749C386.215 150.702 386.64 150.657 387.065 150.616C387.656 150.559 388.246 150.506 388.837 150.461L390.103 151.25C390.972 151.79 391.98 152.904 392.958 154.213C394.402 156.139 395.676 158.399 396.465 160.082C397.177 161.594 397.707 163.22 398.059 164.882C398.435 166.663 398.609 168.439 398.593 170.13C398.544 174.731 397.606 179.015 395.935 182.787C394.253 186.587 391.822 189.859 388.805 192.391C385.864 194.862 382.507 196.496 378.944 197.391C375.053 198.366 370.883 198.472 366.696 197.834C359.643 196.756 352.613 193.578 346.801 188.879C343.177 185.949 340.038 182.437 337.676 178.49C338.415 177.019 339.244 175.611 340.153 174.266C343.761 182.676 352.052 188.786 361.925 189.627C351.82 187.824 344.055 179.958 343.223 170.287Z" fill="#FE5700"/>
<path fill-rule="evenodd" clip-rule="evenodd" d="M292.947 174.544C294.431 170.589 296.894 167 300.021 164.183C303.479 161.062 307.787 159.159 312.345 158.241C317.191 157.261 322.323 157.391 327.023 158.342C326.89 164.362 324.451 170.113 320.681 174.893C317.87 178.458 312.39 182.864 306.646 185.347C301.894 187.4 296.959 188.14 293.214 185.99C293.218 185.965 298.751 180.974 303.285 176.056C306.553 172.516 309.138 169.459 309.849 167.971C307.597 168.101 305.17 168.927 302.856 169.951C298.435 171.91 294.443 174.597 292.947 174.544Z" fill="white"/>
<path fill-rule="evenodd" clip-rule="evenodd" d="M355.344 298.959C353.75 310.369 360.274 325.777 367.963 338.719C372.736 346.759 376.525 352.063 381.221 357.152C384.016 360.184 387.135 363.143 390.973 366.561C394.933 359.59 396.983 349.299 397.82 343.153C398.702 336.715 397.918 330.057 395.831 324.046C394.524 320.298 392.182 314.958 389.218 310.56C386.609 306.69 383.515 303.552 380.226 302.874C382.107 306.093 383.09 313.149 383.288 319.758C383.426 324.269 383.195 328.57 382.641 331.297C379.361 328.688 369.374 316.169 366.75 312.177C362.838 306.219 358.418 300.285 355.344 298.959Z" fill="white"/>
<path fill-rule="evenodd" clip-rule="evenodd" d="M324.802 323.712C322.133 328.846 325.983 339.462 332.843 350.116C336.965 356.521 342.898 361.354 345.58 363.825C347.926 365.988 350.805 368 355.089 370.056C357.261 363.663 357.325 354.822 357.05 349.603C356.872 346.275 354.955 339.958 352.597 334.122C350.458 328.834 347.954 323.94 346.053 322.03C343.282 319.249 339.529 314.571 336.698 314.534C338.764 316.896 340.111 327.143 341.325 332.577C342.15 336.284 342.643 339.877 342.615 342.222C340.431 341.084 336.706 336.682 332.932 332.301C330.024 328.923 327.088 325.558 324.802 323.712Z" fill="white"/>
<path fill-rule="evenodd" clip-rule="evenodd" d="M362.361 220.668C366.798 219.197 370.936 220.083 375.005 222.326C378.936 224.493 381.351 227.273 382.92 230.525C384.728 234.26 385.424 238.621 386.03 243.389C382.71 243.499 373.973 242.332 367.935 240.491C365.022 239.605 360.031 237.487 356.161 234.565C352.516 231.809 347.299 226.728 348.322 222.895C352.395 224.257 356.889 226.102 361.386 227.395C364.108 228.175 366.834 228.757 369.467 228.907C369.16 227.135 368.4 226.054 367.17 224.846C365.237 222.948 363.239 221.339 362.361 220.668Z" fill="white"/>
<path fill-rule="evenodd" clip-rule="evenodd" d="M415.504 236.191C418.303 234.996 421.037 235.345 423.795 236.581C426.461 237.768 428.18 239.442 429.377 241.466C430.748 243.791 431.864 247.214 432.515 250.27C428.293 250.673 424.22 250.331 420.341 249.213C417.53 248.4 414.824 247.181 412.232 245.547C409.724 243.958 404.632 238.101 405.085 235.556C409.954 237.312 411.459 239.296 415.301 240.511C416.697 240.95 418.367 241.21 420.559 241.149C420.264 240.019 419.71 239.357 418.849 238.642C417.494 237.516 416.11 236.581 415.504 236.191Z" fill="white"/>
<path fill-rule="evenodd" clip-rule="evenodd" d="M373.953 250.929C374.341 254.644 384.518 264.521 394.941 272.024C400.757 276.214 407.892 279.669 410.444 280.901C412.952 282.108 415.419 283.075 417.611 283.636C418.994 279.25 419.124 274.381 418.719 270.857C418.295 267.167 416.822 263.569 414.642 260.505C412.478 257.456 409.623 254.924 406.411 253.343C405.04 252.668 403.532 252.29 401.853 252.327C403.439 253.823 405.251 256.936 406.545 260.045C407.516 262.383 408.195 264.72 408.268 266.37C404.773 263.456 404.252 262.943 402.237 261.488C399.345 259.395 396.644 258.09 390.302 255.518C386.119 253.823 376.06 251.27 373.953 250.929Z" fill="white"/>
<path fill-rule="evenodd" clip-rule="evenodd" d="M326.465 276.308C329.239 277.019 331.909 279.153 334.222 281.775C336.977 284.888 339.234 288.688 340.572 291.599C342.19 295.114 343.084 298.915 342.773 302.463C337.81 302.906 333.604 300.943 329.887 299.081C325.992 297.134 322.736 294.074 320.131 288.948C318.897 286.522 317.753 283.522 317.538 281.218C319.136 281.201 321.203 282.222 323.314 283.608C326.477 285.689 329.733 288.603 331.63 290.103C330.708 288.327 330 286.603 328.96 284.518C328.038 282.677 326.594 277.986 326.465 276.308Z" fill="white"/>
<path fill-rule="evenodd" clip-rule="evenodd" d="M337.252 254.067C338.166 258.257 340.536 262.5 343.384 266.297C346.769 270.808 350.822 274.69 353.9 277.092C357.621 279.994 361.585 281.864 365.209 281.933C365.334 274.69 363.037 268.207 360.877 262.46C358.616 256.436 355.255 251.189 349.819 246.6C347.242 244.425 344.083 242.3 341.701 241.645C341.79 243.995 342.975 247.193 344.54 250.502C346.89 255.465 350.102 260.688 351.768 263.704C349.879 262.086 348.067 260.789 345.855 258.948C343.901 257.322 338.983 254.505 337.252 254.067Z" fill="white"/>
<path fill-rule="evenodd" clip-rule="evenodd" d="M295.443 297.256C294.747 302.134 295.143 310.385 296.211 315.014C297.481 320.518 300.248 323.956 302.339 326.793C304.203 329.326 308.648 333.394 311.674 333.849C314.311 325.59 314.638 317.953 314.833 311.165C315.031 304.056 314.04 297.716 311.067 291.911C309.655 289.16 307.742 286.404 305.967 285.408C305.222 288.103 305.101 291.875 305.263 295.818C305.506 301.727 306.383 308.023 306.735 311.641C305.708 309.596 304.636 307.93 303.419 305.597C302.343 303.536 296.745 297.935 295.443 297.256Z" fill="white"/>
<path fill-rule="evenodd" clip-rule="evenodd" d="M317.142 245.169C319.241 246.844 320.596 249.388 321.413 252.087C322.392 255.298 322.614 258.729 322.444 261.184C322.242 264.155 321.276 266.988 319.367 269.13C314.82 267.236 312.046 264.126 309.647 261.297C307.14 258.338 305.696 254.945 305.777 250.506C305.817 248.405 306.193 245.978 307.067 244.401C308.474 245.092 309.817 246.657 311.022 248.474C312.83 251.201 314.339 254.502 315.31 256.298C315.322 254.754 315.496 253.335 315.544 251.538C315.585 249.953 316.483 246.303 317.142 245.169Z" fill="white"/>
<path fill-rule="evenodd" clip-rule="evenodd" d="M312.482 221.867C312.385 226.131 314.509 231.151 317.425 235.382C319.346 238.17 321.801 240.954 324.75 242.938C327.436 244.743 330.526 245.885 334.008 245.763C335.63 241.036 334.938 236.906 334.218 233.248C333.462 229.415 331.569 226.135 327.682 223.371C325.842 222.062 322.833 220.339 320.847 220.014C321.599 222.184 322.744 224.172 323.856 226.078C325.373 228.692 325.745 231.317 325.846 234.443C324.891 233.049 322.966 230.647 320.79 228.314C317.874 225.18 314.517 222.164 312.482 221.867Z" fill="white"/>
<path fill-rule="evenodd" clip-rule="evenodd" d="M279.231 161.964C279.583 159.55 282.483 156.469 285.424 154.481C288.146 152.644 291.608 151.238 295.766 150.262C295.802 153.855 295.22 157.331 293.82 160.371C292.397 163.456 290.152 166.354 286.799 167.931C284.336 169.146 278.523 164.48 279.231 161.964Z" fill="white"/>
<path fill-rule="evenodd" clip-rule="evenodd" d="M306.977 350.872C306.403 355.03 306.245 359.436 306.848 363.688C307.632 369.26 309.719 374.556 313.865 378.641C315.79 380.539 318.153 381.901 321.069 382.348C322.901 380.718 324.22 377.503 324.867 374.02C325.643 369.862 325.461 365.322 324.062 362.647C322.492 359.643 319.665 357.213 315.928 354.758C313.639 353.258 311.022 352.031 306.977 350.872Z" fill="white"/>
<path fill-rule="evenodd" clip-rule="evenodd" d="M288.935 113.348C283.592 111.836 280.416 108.877 279.417 105.073C278.617 102.012 279.223 98.4027 281.242 94.5617C284.307 88.7291 289.614 83.5468 293.125 78.8319C296.676 82.7217 299.443 86.4082 301.857 91.115C303.05 93.6919 303.75 96.2932 304.304 99.1912C300.81 102.971 297.489 107.223 294.698 112.763C294.213 109.133 294.273 106.67 294.091 103.817C293.954 101.614 293.675 99.1831 292.89 95.7973C292.037 98.1426 290.706 100.463 289.885 103.199C288.825 106.731 288.635 110.637 288.935 113.348Z" fill="white"/>
<path fill-rule="evenodd" clip-rule="evenodd" d="M304.98 83.4817C302.626 80.8194 299.948 78.3766 298.31 75.507C297.121 73.4219 296.482 71.1133 296.915 68.329C297.432 66.122 299.313 63.1915 301.368 60.3219C303.16 57.8141 305.085 55.355 306.347 53.4691C308.669 55.3875 310.169 57.2735 311.37 59.3179C312.701 61.5738 313.66 64.0247 314.962 66.9268C310.679 71.9018 307.585 77.8279 304.98 83.4817Z" fill="white"/>
<path fill-rule="evenodd" clip-rule="evenodd" d="M298.196 143.535C297.108 137.491 296.315 128.988 297.613 122.765C299.049 116.567 301.824 111.242 305.416 105.918C307.782 102.544 310.209 99.9877 313.913 97.7278C314.172 102.536 313.881 106.467 313.913 110.454C313.942 114.514 314.306 118.632 315.924 123.79C314.362 125.964 311.778 129.984 310.653 132.598C310.569 132.467 309.897 129.899 309.177 127.305C308.603 125.241 307.996 123.164 307.628 122.298C305.436 125.342 304.239 127.858 302.799 130.785C300.724 134.996 299.45 139.556 298.196 143.535Z" fill="white"/>
<path fill-rule="evenodd" clip-rule="evenodd" d="M309.262 94.3624C309.052 89.5297 309.942 85.0424 311.944 80.5592C314.484 75.0762 317.028 70.3003 321.142 66.3984C323.758 63.5329 327.111 60.9722 330.222 58.3262C330.784 60.33 331.399 63.5938 331.613 66.7804C331.807 69.7313 331.662 72.609 330.804 74.3567C329.251 74.0031 327.698 73.6536 326.149 73.304C322.286 76.2264 319.936 79.5025 316.834 83.25C314.31 86.526 311.73 89.2736 309.262 94.3624Z" fill="white"/>
<path fill-rule="evenodd" clip-rule="evenodd" d="M320.212 112.003C319.84 109.076 318.97 102.662 319.807 97.9028C320.794 92.5823 322.194 90.2981 324.989 85.7945C328.346 81.0919 331.294 77.1533 335.581 73.2757C340.338 69.199 349.341 63.5411 355.724 67.0732C355.582 67.4594 349.895 74.1618 345.293 82.0673C342.025 87.6805 339.703 94.6593 338.494 97.0249C336.241 102.508 334.283 106.524 331.739 109.779C330.376 108.056 329.919 105.837 329.907 103.463C329.891 99.8375 330.918 95.8462 331.391 92.6961C329.992 93.6716 328.758 95.3869 327.666 97.3094C326.218 99.8579 325.017 102.772 324.022 104.817C322.756 107.418 321.458 109.975 320.212 112.003Z" fill="white"/>
<path fill-rule="evenodd" clip-rule="evenodd" d="M347.391 96.6104C347.068 93.5091 347.929 90.1478 349.28 86.9449C350.607 83.7908 352.467 80.5351 354.635 77.5029C356.876 74.3692 359.444 71.4752 362.11 69.1747C365.701 66.236 371.331 63.0006 376.557 63.403C376.444 63.6876 372.699 70.077 369.155 75.8527C367.404 78.7101 365.572 82.543 363.841 86.6766C360.848 93.818 358.162 101.85 356.726 107.272C354.942 102.98 354.518 98.6061 355.112 94.3017C355.622 90.6192 356.88 86.9815 358.676 83.4941C357.434 84.3192 356.156 85.124 354.963 86.0507C353.321 87.327 352.087 88.8918 350.995 90.5745C349.737 92.5255 348.669 94.6269 347.391 96.6104Z" fill="white"/>
<path fill-rule="evenodd" clip-rule="evenodd" d="M303.038 154.684C304.765 148.25 308.296 142.808 312.588 137.134C315.374 132.98 317.668 129.801 320.066 126.822C322.78 123.448 326.194 119.79 329.895 116.262C335.46 110.954 341.681 105.938 347.165 102.618C347.817 106.471 347.38 109.999 346.348 113.376C345.01 117.754 342.664 121.875 340.37 126.111C337.547 131.334 334.437 136.402 332.378 138.304C332.722 133.65 332.075 129.614 331.213 127.188C328.888 130.618 326.558 134.053 324.228 137.483C321.894 140.609 317.765 144.905 313.388 148.466C309.821 151.368 306.092 153.782 303.038 154.684Z" fill="white"/>
<path fill-rule="evenodd" clip-rule="evenodd" d="M386.754 132.252C389.646 127.005 394.799 121.225 400.607 115.689C408.085 108.568 416.648 101.845 422.848 97.1914C427.989 93.3341 433.239 89.4932 438.918 84.9815C439.674 87.3633 438.19 90.7532 435.601 94.46C429.619 103.012 417.74 113.234 413.885 116.514C404.724 123.221 394.75 128.818 386.754 132.252Z" fill="#FE5700"/>
<path fill-rule="evenodd" clip-rule="evenodd" d="M459.526 74.1007C459.837 71.1946 461.399 67.3089 463.393 63.3012C466.272 57.5133 470.054 51.4774 472.275 47.8031C475.243 42.885 478.269 37.9628 480.833 33.3821C482.406 35.0485 483.074 38.1782 483.28 41.4543C482.868 47.4779 482.038 51.9164 480.4 55.9728C478.661 60.2813 476.012 64.167 471.983 69.0688C467.89 72.5603 464.493 74.7023 459.526 74.1007Z" fill="#FE5700"/>
<path fill-rule="evenodd" clip-rule="evenodd" d="M425.647 144.304C426.857 141.869 427.463 140.089 428.45 138.825C429.648 137.288 431.407 136.512 435.484 136.239C438.356 136.044 441.013 136.662 441.422 138.451C441.138 141.686 440.131 143.552 438.493 144.625C436.782 145.751 434.38 146.007 431.411 146.055C429.041 145.726 427.197 145.393 425.647 144.304Z" fill="white"/>
<path fill-rule="evenodd" clip-rule="evenodd" d="M438.631 165.833C439.484 163.155 441.672 161.118 444.314 159.757C447.61 158.062 450.838 157.399 453.584 157.972C457.078 158.7 459.792 161.423 460.872 166.532C459.61 169.39 454.935 170.186 450.106 169.756C445.442 169.341 440.637 167.784 438.631 165.833Z" fill="white"/>
<path fill-rule="evenodd" clip-rule="evenodd" d="M434.383 186.542C436.895 189.513 438.667 191.725 440.564 193.55C443.613 196.492 447.229 198.581 451.132 199.805C454.372 200.821 457.806 201.24 461.28 201.053C461.207 197.984 460.779 194.533 459.505 191.595C458.069 188.27 455.153 186.307 451.686 185.319C446.064 183.713 438.982 184.673 434.383 186.542Z" fill="white"/>
<path fill-rule="evenodd" clip-rule="evenodd" d="M430.015 215.62C431.775 217.965 434.375 221.672 437.227 225.408C438.416 226.968 443.666 233.703 448.192 236.63C451.302 238.642 454.073 238.857 454.959 234.382C455.723 230.529 454.651 227.135 452.625 224.286C450.772 221.68 447.266 218.847 443.375 216.905C438.756 214.596 433.595 213.543 430.015 215.62Z" fill="white"/>
<path fill-rule="evenodd" clip-rule="evenodd" d="M401.719 297.232C404.008 301.317 407.086 305.963 410.039 310.605C413.173 315.539 416.171 320.477 417.942 324.757C421.453 333.252 423.734 343.568 424.66 343.682C426.319 342.345 429.267 337.683 429.486 331.801C429.757 324.42 429.34 319.018 426.889 313.198C422.998 303.939 415.151 297.606 401.719 297.232Z" fill="white"/>
<path fill-rule="evenodd" clip-rule="evenodd" d="M455.917 105.857C456.119 102.081 457.276 98.5694 459.1 95.3991C463.036 88.5544 470.069 83.3111 477.228 80.4659C477.649 85.1158 477.451 90.0339 475.93 94.3667C474.64 98.0329 472.403 101.285 468.779 103.593C465.503 105.682 461.41 106.345 455.917 105.857Z" fill="#FE5700"/>
<path fill-rule="evenodd" clip-rule="evenodd" d="M459.876 122.473C462.174 123.363 464.718 124.404 467.173 125.652C470.376 127.285 473.43 129.269 475.594 131.728C476.621 132.895 477.798 134.728 480.019 138.504C481.358 137.821 482.288 136.906 482.466 133.821C482.078 129.944 480.116 127.058 477.107 124.111C472.12 119.937 464.338 119.043 459.876 122.473Z" fill="#FE5700"/>
<path fill-rule="evenodd" clip-rule="evenodd" d="M470.009 154.709C474.345 158.2 477.233 161.586 479.854 165C481.54 167.191 485.164 172.187 488.667 176.068C490.956 178.6 493.193 180.657 494.807 181.153C496.809 180.608 498.168 179.535 498.536 177.409C498.414 172.589 496.42 167.968 493.298 164.147C487.712 157.302 478.515 153.01 470.009 154.709Z" fill="#FE5700"/>
<path fill-rule="evenodd" clip-rule="evenodd" d="M474.548 192.021C479.806 196.257 483.304 200.358 486.487 204.495C488.53 207.154 492.922 213.21 497.169 217.912C499.944 220.985 502.658 223.481 504.615 224.078C507.038 223.416 508.684 222.115 509.129 219.538C508.988 213.698 506.569 208.097 502.783 203.459C496.008 195.163 484.857 189.961 474.548 192.021Z" fill="#FE5700"/>
<path fill-rule="evenodd" clip-rule="evenodd" d="M467.445 247.547C469.155 252.595 471.562 258.375 473.851 264.143C476.278 270.272 478.575 276.389 479.765 281.612C482.127 291.977 483.081 304.37 483.963 304.597C485.722 303.183 489.124 297.98 490.042 291.066C491.195 282.388 491.437 275.983 489.779 268.874C487.142 257.57 480.343 249.319 467.445 247.547Z" fill="#FE5700"/>
<path fill-rule="evenodd" clip-rule="evenodd" d="M493.872 233.695C496.869 238.609 498.669 243.056 500.246 247.466C501.262 250.303 503.389 256.709 505.618 261.854C507.074 265.212 508.574 268.028 509.832 268.967C511.6 268.845 512.926 267.98 513.614 265.716C514.382 260.346 513.545 254.746 511.624 249.758C508.19 240.824 501.282 233.858 493.872 233.695Z" fill="#FE5700"/>
<path fill-rule="evenodd" clip-rule="evenodd" d="M449.142 280.864C449.882 286.567 450.372 290.725 451.047 294.554C452.131 300.719 453.814 306.426 455.917 311.405C457.664 315.535 459.703 319.164 461.935 322.131C462.756 318.555 463.46 314.202 463.488 309.674C463.525 304.548 462.251 299.63 460.354 295.322C457.272 288.327 452.56 282.933 449.142 280.864Z" fill="#FE5700"/>
</g>
<defs>
<clipPath id="clip0">
<path d="M0 0H578.987V561.618H0V0Z" fill="white"/>
</clipPath>
</defs>
</svg>
