<svg width="579" height="562" viewBox="0 0 579 562" fill="none" xmlns="http://www.w3.org/2000/svg">
<g clip-path="url(#clip0)">
<path fill-rule="evenodd" clip-rule="evenodd" d="M240.965 162.886C228.261 154.57 219.585 147.051 211.447 138.617C204.777 131.707 198.468 124.175 190.605 115.091C183.693 107.104 176.251 99.4305 165.633 91.5087C173.541 91.0535 182.362 92.5249 190.908 95.2278C199.924 98.077 209.38 102.442 217.498 108.389C227.484 115.701 235.44 125.407 238.057 137.613C233.725 133.52 230.898 129.561 226.59 126.297C221.737 122.619 218.436 120.42 213.348 118.03C218.873 125.671 225.543 134.004 231.116 142.669C235.363 149.266 238.979 156.058 240.965 162.886Z" fill="white"/>
<path fill-rule="evenodd" clip-rule="evenodd" d="M201.432 78.6891C197.428 68.3692 190.479 61.5001 182.362 56.4967C171.559 49.843 158.68 46.4898 147.905 42.7219C137.543 39.0964 127.124 34.3246 115.536 23.4153C108.385 16.6885 101.639 8.90897 92.4129 0.0441895C88.2105 11.242 88.7039 27.3214 93.6667 39.7711C95.6324 44.6932 98.2938 49.0464 101.643 52.3061C103.932 54.5376 106.557 56.4073 109.558 58.1672C107.237 53.6596 104.607 47.0507 103.204 40.5759C102.245 36.1455 101.853 31.7802 102.533 28.1912C108.357 35.109 113.113 38.82 117.842 41.7505C123.646 45.3476 129.409 47.7742 137.07 53.5133C132.621 54.6676 128.693 54.2124 123.407 53.0865C127.197 58.781 134.728 64.1177 143.238 68.6212C156.913 75.8643 176.986 82.1318 200.725 93.6345C198.532 88.7733 195.515 84.5583 192.012 80.9531C186.188 74.966 179.009 70.6576 171.987 67.8287C176.8 67.4263 181.359 68.796 185.78 70.7876C191.131 73.1938 196.279 76.5065 201.432 78.6891Z" fill="white"/>
<path fill-rule="evenodd" clip-rule="evenodd" d="M108.28 91.3419C102.266 90.5046 98.3991 88.7121 95.677 85.3548C93.861 83.1112 92.5505 80.1725 91.4544 76.3559C90.8275 74.1773 90.4109 71.9337 90.1722 69.6941C93.0682 67.487 97.7276 66.0116 102.282 65.8734C106.909 65.7352 111.431 66.983 113.898 70.2509C108.466 70.1818 104.094 72.3076 101.631 75.3845C102.136 81.6032 103.584 85.9035 108.28 91.3419Z" fill="white"/>
<path fill-rule="evenodd" clip-rule="evenodd" d="M116.984 122.351C113.655 122.009 111.148 120.847 109.17 119.05C107.01 117.091 105.485 114.384 104.227 111.169C103.087 108.259 102.282 105.235 101.958 103.06C104.781 102.414 108.507 102.121 112.195 102.361C116.305 102.629 120.369 103.556 123.1 105.389C125.098 106.731 126.521 108.742 126.873 111.876C123.371 112.697 118.282 112.99 114.501 112.356C116.292 115.469 116.814 119.209 116.984 122.351Z" fill="white"/>
<path fill-rule="evenodd" clip-rule="evenodd" d="M136.544 101.052C133.612 100.625 131.29 99.0931 129.514 96.9999C127.233 94.3092 125.854 90.6958 125.251 87.3019C124.883 85.2249 124.653 83.1154 124.362 81.1156C127.541 80.6116 131.322 80.7824 134.906 81.6318C138.308 82.4407 141.531 83.8592 143.893 85.8874C145.863 87.5823 147.117 89.8504 146.817 93.0614C144.338 92.411 142.554 91.464 140.601 90.8421C138.938 90.3137 137.147 90.017 134.692 90.3381C134.489 91.7485 134.675 93.3865 135.011 95.0489C135.44 97.1665 136.111 99.3167 136.544 101.052Z" fill="white"/>
<path fill-rule="evenodd" clip-rule="evenodd" d="M178.677 149.689C169.929 149.559 161.597 150.676 155.599 153.16C163.344 160.748 164.117 181.185 172.639 192.082C186.714 214.047 214.331 208.108 229.187 190.33C222.408 197.532 213.243 201.711 204.304 202.812C195.062 203.95 186.577 200.987 180.299 195.476C173.711 189.696 169.233 179.474 169.132 169.873C169.092 165.898 169.913 161.638 171.672 157.895C173.241 154.55 175.559 151.623 178.677 149.689Z" fill="white"/>
<path fill-rule="evenodd" clip-rule="evenodd" d="M178.944 134.593C175.486 133.735 172.028 131.536 168.796 128.667C164.824 125.248 161.585 121.741 158.207 117.184C155.736 113.677 153.766 110.575 153.71 106.873C155.016 104.824 157.067 105.243 159.312 106.747C163.304 109.413 166.139 112.913 169.427 116.302C170.806 117.721 174.212 120.855 177.298 123.098C180.938 125.744 182.309 129.252 181.99 131.695C181.759 133.439 180.675 134.638 178.944 134.593Z" fill="white"/>
<path fill-rule="evenodd" clip-rule="evenodd" d="M287.167 197.667C285.411 197.768 283.955 198.333 282.908 200.735C280.825 205.503 280.436 212.88 279.482 218.323C277.977 226.899 276.218 235.134 272.97 243.202C272.881 243.604 274.293 247.746 275.923 252.294C277.775 257.468 279.902 263.163 280.412 264.455C281.702 267.74 283.045 270.995 284.348 274.068C285.577 276.962 286.73 279.413 287.167 279.588V197.667Z" fill="white"/>
<path fill-rule="evenodd" clip-rule="evenodd" d="M161.144 185.436C161.467 190.773 162.539 195.854 164.63 200.369C167.118 205.731 171.045 210.295 176.877 213.551C182.823 216.867 189.901 217.384 197.635 213.571C191.175 213.441 185.092 212.913 179.276 210.019C173.173 206.978 169.27 203.235 166.446 198.569C164.181 194.821 162.608 190.48 161.144 185.436Z" fill="white"/>
<path fill-rule="evenodd" clip-rule="evenodd" d="M231.152 170.335C229.676 168.647 228.066 167.075 226.347 165.614C226.401 166.186 226.429 166.766 226.429 167.353C226.429 177.36 218.356 185.469 208.402 185.469C198.448 185.469 190.375 177.36 190.375 167.353C190.375 161.148 193.481 155.669 198.216 152.406C196.808 152.091 195.382 151.808 193.944 151.559C188.396 155.48 184.821 161.658 184.821 168.609C184.821 169.735 184.914 170.841 185.096 171.922C184.405 169.682 184.032 167.313 184.032 164.858C184.032 159.638 185.713 154.797 188.581 150.793C188.157 150.746 187.733 150.701 187.309 150.66C186.719 150.603 186.128 150.55 185.538 150.506L184.268 151.294C183.398 151.835 182.391 152.949 181.412 154.257C179.972 156.184 178.694 158.444 177.905 160.127C177.198 161.639 176.668 163.264 176.316 164.927C175.94 166.707 175.762 168.483 175.778 170.174C175.827 174.775 176.769 179.059 178.435 182.831C180.118 186.631 182.553 189.903 185.566 192.436C188.511 194.907 191.864 196.541 195.427 197.435C199.318 198.41 203.488 198.516 207.674 197.878C214.728 196.801 221.758 193.622 227.574 188.924C231.198 185.993 234.336 182.482 236.698 178.535C235.959 177.064 235.13 175.657 234.221 174.313C230.608 182.722 222.322 188.831 212.446 189.672C222.55 187.869 230.318 180.004 231.152 170.335Z" fill="#FE5700"/>
<path fill-rule="evenodd" clip-rule="evenodd" d="M147.788 143.954C144.318 141.84 139.707 138.645 135.521 135.04C132.063 132.061 128.293 127.647 126.267 123.09C125.385 121.111 124.863 119.66 124.645 117.306C129.316 116.018 133.907 115.986 138.271 117.006C142.668 118.038 146.838 120.148 150.64 123.135C154.025 125.793 156.783 129.098 157.924 132.752C158.486 134.573 158.664 136.544 158.296 138.719C154.555 136.422 151.493 133.573 148.083 131.223C145.96 129.76 143.691 128.395 141.062 127.484C143.206 130.029 144.916 132.37 146.534 135.56C147.505 137.91 148.379 140.702 147.788 143.954Z" fill="white"/>
<path fill-rule="evenodd" clip-rule="evenodd" d="M260.169 146.344C256.767 146.518 253.875 145.266 251.432 143.202C246.635 139.141 243.205 132.126 241.28 125.167C240.467 122.22 240.204 118.888 239.606 115.762C238.991 112.575 238.028 109.604 235.763 107.466C241.446 105.084 247.651 106.787 252.658 110.409C256.945 113.514 260.359 118.03 261.807 122.603C262.903 126.074 262.624 129.813 259.837 133.727C259.109 130.085 257.398 127.106 255.602 124.472C254.276 122.533 252.395 121.139 250.486 120.395C251.432 124.33 252.342 128.273 253.523 132.11C255.056 137.109 257.05 141.934 260.169 146.344Z" fill="white"/>
<path fill-rule="evenodd" clip-rule="evenodd" d="M225.251 100.467C222.194 98.8165 219.152 96.7354 216.964 94.2073C213.546 89.5209 210.873 83.3346 209.651 76.9695C208.571 71.3117 208.632 65.5116 210.347 60.5C216.875 63.1176 222.42 67.3813 227.019 72.5636C230.61 76.6159 235.027 82.8794 237.478 89.2363C238.938 93.0164 239.707 96.833 239.193 100.235C236.88 99.6822 234.259 97.467 231.711 94.7072C227.888 90.5654 224.228 85.1881 222.024 82.3429C222.715 85.2409 223.832 88.6876 224.596 92.0693C225.267 95.0608 225.664 97.9995 225.251 100.467Z" fill="white"/>
<path fill-rule="evenodd" clip-rule="evenodd" d="M242.049 86.7656C239.982 85.0504 238.566 82.1686 237.644 79.0186C236.548 75.2751 236.144 71.1456 236.164 68.1419C236.192 64.5122 236.944 60.9314 238.615 58.0455C242.999 59.6632 245.786 63.0165 248.197 66.0852C250.725 69.3003 252.27 73.1982 252.444 78.5918C252.524 81.1444 252.302 84.148 251.57 86.1844C250.207 85.5584 248.86 83.8635 247.622 81.8394C245.766 78.8072 244.164 75.0313 243.153 72.9949C243.226 74.8728 243.141 76.6164 243.197 78.8032C243.246 80.7338 242.607 85.2902 242.049 86.7656Z" fill="white"/>
<path fill-rule="evenodd" clip-rule="evenodd" d="M270.163 105.832C270.75 103.544 271.118 101.068 270.871 98.8166C270.119 94.9593 268.286 90.785 265.694 87.2529C263.392 84.1151 260.492 81.4853 257.228 80.0424C255.526 84.5053 255.093 89.2324 255.546 93.9107C255.906 97.5647 256.978 102.645 258.996 106.787C260.197 109.25 261.734 111.384 263.651 112.689C264.44 111.283 264.549 108.954 264.351 106.413C264.056 102.605 263.077 98.3085 262.676 95.8982C263.793 97.5769 264.986 99.7148 266.313 101.65C267.482 103.357 268.756 104.905 270.163 105.832Z" fill="white"/>
<path fill-rule="evenodd" clip-rule="evenodd" d="M286.56 147.969C288.437 145.132 289.096 141.124 289.064 136.97C289.023 132.036 288 126.89 286.88 123.265C285.525 118.879 283.308 114.827 280.23 111.953C275.514 115.526 273.37 120.607 271.571 125.212C269.686 130.032 269.241 135.324 271 141.909C271.833 145.026 273.197 148.579 274.831 150.778C276.246 149.518 277.261 146.969 278.018 144.063C279.154 139.71 279.717 134.548 280.198 131.715C280.796 134.011 281.533 136.092 282.265 138.755C282.908 141.112 285.347 146.392 286.56 147.969Z" fill="white"/>
<path fill-rule="evenodd" clip-rule="evenodd" d="M281.423 174.588C279.939 170.633 277.476 167.044 274.353 164.228C270.891 161.106 266.584 159.204 262.025 158.285C257.18 157.306 252.051 157.436 247.347 158.387C247.485 164.406 249.924 170.158 253.693 174.938C256.504 178.502 261.985 182.908 267.724 185.392C272.477 187.444 277.411 188.184 281.156 186.034C281.156 186.009 275.623 181.018 271.085 176.1C267.821 172.56 265.233 169.503 264.521 168.016C266.774 168.146 269.204 168.971 271.514 169.995C275.935 171.954 279.927 174.641 281.423 174.588Z" fill="white"/>
<path fill-rule="evenodd" clip-rule="evenodd" d="M274.717 92.7729C273.439 89.2286 271.199 84.9486 268.266 81.4653C265.411 78.0795 261.904 75.4498 257.981 74.9864C257.426 72.3282 257.447 69.2676 258.163 66.4427C258.757 64.0975 259.829 61.9107 261.447 60.2443C263.809 61.1832 265.969 62.7074 267.793 64.5852C270.139 67.0036 271.922 70.0114 272.857 73.1126C274.556 69.9545 275.915 67.0361 277.545 64.4511C279.838 60.8133 282.673 57.8381 287.757 55.7977C289.44 58.2648 290.293 61.1222 290.491 64.0487C290.702 67.1256 290.188 70.2796 289.153 73.1411C287.988 76.3683 286.212 79.4005 284.178 82.0953C284.077 79.3924 283.798 78.0389 283.324 76.6122C282.972 75.5351 282.511 74.4174 281.937 72.6452C280.501 74.0312 279.308 76.2302 278.325 78.7339C276.489 83.4244 275.373 89.2001 274.717 92.7729Z" fill="white"/>
<path fill-rule="evenodd" clip-rule="evenodd" d="M109.267 169.418C110.448 165.492 113.279 162.663 116.75 160.667C121.793 157.765 128.204 156.611 132.904 156.371C137.114 156.155 143.63 156.891 146.87 160.553C143.072 161.378 138.49 161.606 135.149 163.911C136.799 164.63 136.937 165.045 138.68 166.211C141.92 168.373 145.548 170.483 150.438 169.487C149.208 171.832 144.941 173.848 141.636 174.283C135.764 175.064 130.222 174.348 124.807 173.178C119.573 172.044 114.452 170.483 109.267 169.418Z" fill="white"/>
<path fill-rule="evenodd" clip-rule="evenodd" d="M96.6923 197.667C99.8754 192.627 106.962 187.737 111.795 184.9C116.204 182.319 122.788 180.136 129.268 179.624C135.561 179.132 141.758 180.213 145.77 184.038C140.569 185.31 134.364 185.485 130.279 188.513C132.257 190.298 134.975 191.245 137.454 191.545C142.029 192.102 145.665 192.354 149.77 191.48C148.213 194.557 144.282 196.817 139.95 198.158C134.526 199.837 126.882 200.345 119.148 200.146C110.917 199.935 102.581 198.919 96.6923 197.667Z" fill="white"/>
<path fill-rule="evenodd" clip-rule="evenodd" d="M101.918 231.951C104.385 226.232 108.454 221.282 113.465 217.278C119.083 212.787 125.895 209.482 132.961 207.612C139.218 205.958 145.746 205.133 151.987 205.706C146.866 208.641 140.006 211.307 136.415 215.985C139.015 216.339 142.85 216.075 146.72 215.481C151.097 214.811 155.517 213.709 158.236 212.596C157.192 215.981 153.248 218.924 148.443 221.347C141.648 224.781 133.126 227.183 128.641 228.362C119.892 230.658 110.683 231.577 101.918 231.951Z" fill="white"/>
<path fill-rule="evenodd" clip-rule="evenodd" d="M122.861 149.384C118.695 148.701 113.012 147.473 107.605 145.787C103.135 144.389 97.849 141.909 94.221 138.792C92.6436 137.438 91.6122 136.406 90.5525 134.548C94.6861 132.089 99.1838 130.675 103.843 130.199C108.539 129.715 113.397 130.187 118.206 131.484C122.485 132.642 126.384 134.516 128.815 137.166C130.02 138.483 130.898 140.044 131.318 141.934C126.817 141.182 122.784 139.771 118.59 138.877C115.973 138.32 113.255 137.885 110.347 137.934C113.368 139.369 115.884 140.771 118.622 142.893C120.418 144.523 122.275 146.547 122.861 149.384Z" fill="white"/>
<path fill-rule="evenodd" clip-rule="evenodd" d="M103.697 161.402C98.4637 155.444 88.8172 159.899 85.0881 162.48C80.8776 165.398 75.9836 172.547 75.7288 179.973C79.1303 180.27 83.4257 180.213 85.6179 179.892C90.2895 179.213 94.2088 175.405 102.092 177.486C103.172 177.714 102.059 173.909 99.119 172.019C96.5223 170.479 94.0874 170.198 91.0782 169.434C92.5788 167.715 93.9216 166.17 95.4019 164.898C97.5699 163.032 100.029 161.756 103.697 161.402Z" fill="white"/>
<path fill-rule="evenodd" clip-rule="evenodd" d="M95.4412 187.952C90.8748 184.241 81.1312 188.164 74.4575 195.61C68.9204 201.788 65.6402 210.535 67.8567 218.03C71.3189 215.412 76.132 213.697 78.2352 213.018C82.7288 211.563 92.9497 209.844 101.65 209.348C102.75 209.389 96.424 205.239 93.0387 204.105C90.2236 203.02 86.09 202.946 82.9918 202.698C83.0807 200.516 84.2658 198.032 85.5116 196.537C87.3397 194.329 91.8819 188.92 95.4412 187.952Z" fill="white"/>
<path fill-rule="evenodd" clip-rule="evenodd" d="M67.2189 255.509C65.9165 249.794 66.7133 243.848 68.7316 238.194C71.1382 232.614 73.7753 228.675 77.3467 225.322C82.2003 221.851 90.6617 222.708 92.2512 226.842C93.1815 233.122 84.9142 238.113 80.3761 242.055C75.4053 246.498 71.6033 249.774 67.2189 255.509Z" fill="white"/>
<path fill-rule="evenodd" clip-rule="evenodd" d="M124.382 251.611C121.373 260.224 112.515 267.743 106.885 273.222C102.233 277.75 90.609 284.782 84.4369 287.139C81.7553 288.168 79.826 288.741 76.8734 288.798C76.5984 280.778 77.0514 274.527 79.1546 268.694C81.3589 262.585 85.1366 257.062 89.7677 252.717C94.3705 248.4 99.8227 245.25 105.412 243.848C107.803 243.25 110.274 243.214 112.834 243.958C106.577 247.864 102.266 251.794 99.3131 256.302C97.2867 259.395 95.5152 261.964 94.0915 266.894C96.4616 265.618 100.866 262.87 105.627 260.049C113.255 255.533 121.797 250.823 124.382 251.611Z" fill="white"/>
<path fill-rule="evenodd" clip-rule="evenodd" d="M148.059 275.958C147.808 276.315 137.381 285.664 126.97 296.602C120.62 303.267 113.251 312.075 111.18 315.299C108.943 318.774 106.715 322.407 104.733 326.817C101.582 319.688 101.704 309.815 102.27 302.621C102.836 295.374 105.158 288.22 108.956 281.453C112.337 275.421 116.879 270.235 122.372 267.544C125.102 266.207 128.172 265.455 131.686 265.516C128.56 269.385 124.014 275.129 120.948 281.063C118.327 286.131 116.879 289.342 117.749 294.004C119.435 290.078 123.007 285.672 127.399 282.116C133.652 277.055 141.568 273.722 148.059 275.958Z" fill="white"/>
<path fill-rule="evenodd" clip-rule="evenodd" d="M188.829 285.319C189.214 294.435 169.557 316.124 164.723 322.318C160.246 328.053 152.82 335.378 147.958 339.869C145.851 341.816 141.531 345.762 138.813 346.917C135.598 339.572 134.239 331.138 134.036 324.94C133.83 318.445 135.298 311.905 137.996 306.145C140.678 300.422 144.577 295.464 149.252 292.082C151.255 290.631 153.536 289.68 156.189 289.416C151.817 295.374 149.265 300.63 148.185 305.918C147.445 309.547 146.749 312.592 147.242 317.701C148.973 315.632 152.051 311.441 155.433 307.044C158.381 303.211 166.042 296.472 173.448 291.948C179.624 288.172 185.594 286.327 188.829 285.319Z" fill="white"/>
<path fill-rule="evenodd" clip-rule="evenodd" d="M219.027 299.004C220.62 310.413 214.096 325.822 206.411 338.763C201.635 346.803 197.845 352.107 193.149 357.196C190.354 360.228 187.236 363.187 183.397 366.605C179.438 359.635 177.387 349.343 176.55 343.198C175.668 336.759 176.453 330.102 178.544 324.09C179.846 320.343 182.188 315.002 185.153 310.604C187.762 306.735 190.856 303.597 194.148 302.918C192.267 306.137 191.284 313.193 191.082 319.802C190.949 324.314 191.175 328.614 191.729 331.341C195.014 328.732 205 316.213 207.621 312.222C211.532 306.263 215.953 300.329 219.027 299.004Z" fill="white"/>
<path fill-rule="evenodd" clip-rule="evenodd" d="M251.206 307.312C256.476 312.112 254.915 330.024 251.493 345.299C249.434 354.481 246.433 362.557 244.378 366.565C242.575 370.072 240.095 373.633 236.01 377.852C230.784 371.377 226.958 361.171 225.069 355.009C223.087 348.559 222.776 341.6 223.913 335.085C224.62 331.02 226.129 325.147 228.43 320.139C230.461 315.733 233.102 311.99 236.366 310.738C234.975 314.356 235.149 321.757 236.051 328.569C236.669 333.215 237.62 337.584 238.647 340.287C241.576 337.06 243.897 327.801 245.915 323.261C248.929 316.489 249.26 310.576 251.206 307.312Z" fill="white"/>
<path fill-rule="evenodd" clip-rule="evenodd" d="M284.028 319.981C291.859 324.444 294.083 336.101 293.654 347.116C293.371 354.424 291.919 361.451 290.168 365.91C288.773 369.459 286.851 372.84 284.19 376.222C278.451 373.239 273.282 365.987 269.957 358.338C267.518 352.721 266.07 346.884 266.118 342.368C266.159 338.621 266.086 333.979 266.665 329.622C267.182 325.748 268.218 322.094 270.313 319.489C270.09 320.424 272.594 326.801 275.259 332.947C277.524 338.182 279.915 343.25 280.841 344.657C282.827 341.95 283.624 335.914 283.919 330.163C284.117 326.265 284.081 322.493 284.028 319.981Z" fill="white"/>
<path fill-rule="evenodd" clip-rule="evenodd" d="M263.95 194.858C261.196 192.045 256.913 192.204 254.547 193.106C251.206 194.374 248.613 196.764 246.66 199.67C245.046 202.072 243.873 204.832 243.084 207.6C245.11 208.596 249.883 208.872 254.446 208.527C256.646 208.364 260.512 207.657 263.708 206.202C266.717 204.832 269.136 202.8 269.014 199.926C265.758 200.26 263.51 200.321 261.16 200.276C259.388 200.243 257.552 200.158 255.182 200.089C255.691 199.223 256.605 198.483 257.657 197.849C260.262 196.28 263.708 195.37 263.95 194.858Z" fill="white"/>
<path fill-rule="evenodd" clip-rule="evenodd" d="M239.792 213.372C236.576 212.303 232.944 212.738 229.996 214.364C227.488 215.741 225.854 217.802 224.859 220.184C223.678 223.025 223.403 226.325 223.65 229.5C225.838 230.028 231.375 229.073 235.751 227.74C237.863 227.098 241.483 225.561 244.286 223.444C246.927 221.448 250.708 217.766 249.968 214.985C247.016 215.973 243.76 217.31 240.496 218.245C238.526 218.81 236.552 219.233 234.639 219.343C234.866 218.058 235.416 217.274 236.305 216.4C237.705 215.022 239.157 213.855 239.792 213.372Z" fill="white"/>
<path fill-rule="evenodd" clip-rule="evenodd" d="M201.938 225.769C197.497 224.298 193.363 225.188 189.294 227.427C185.363 229.594 182.948 232.374 181.375 235.626C179.571 239.365 178.875 243.722 178.269 248.49C181.589 248.6 190.326 247.433 196.364 245.596C199.273 244.706 204.268 242.588 208.138 239.666C211.779 236.914 216.996 231.829 215.977 227.996C211.904 229.362 207.41 231.203 202.909 232.496C200.191 233.276 197.465 233.858 194.832 234.008C195.139 232.236 195.899 231.155 197.129 229.947C199.062 228.049 201.056 226.44 201.938 225.769Z" fill="white"/>
<path fill-rule="evenodd" clip-rule="evenodd" d="M157.079 231.264C152.29 229.838 147.898 230.923 143.622 233.451C139.493 235.894 137.001 238.946 135.428 242.47C133.62 246.523 132.435 252.315 131.941 257.432C138.91 257.294 145.491 255.969 151.606 253.416C156.043 251.563 160.234 249.067 164.157 245.909C167.959 242.852 175.175 232.333 173.957 228.269C166.337 232.049 164.254 235.565 158.211 238.272C156.019 239.251 153.342 239.987 149.754 240.3C150.025 238.398 150.802 237.219 152.076 235.886C154.078 233.796 156.161 232.008 157.079 231.264Z" fill="white"/>
<path fill-rule="evenodd" clip-rule="evenodd" d="M200.417 250.973C200.033 254.688 189.852 264.565 179.433 272.068C173.617 276.259 166.483 279.714 163.926 280.945C161.419 282.152 158.951 283.12 156.763 283.681C155.38 279.295 155.251 274.426 155.655 270.902C156.076 267.211 157.552 263.614 159.728 260.549C161.892 257.501 164.751 254.969 167.959 253.387C169.33 252.713 170.839 252.335 172.517 252.371C170.936 253.867 169.124 256.981 167.829 260.09C166.855 262.427 166.175 264.764 166.106 266.414C169.601 263.5 170.123 262.988 172.133 261.533C175.029 259.44 177.727 258.135 184.073 255.562C188.255 253.867 198.31 251.315 200.417 250.973Z" fill="white"/>
<path fill-rule="evenodd" clip-rule="evenodd" d="M255.477 266.967C257.002 270.019 257.168 274.088 256.63 278.214C255.991 283.119 254.349 288.107 252.791 291.578C250.907 295.776 248.209 299.532 244.799 302.016C240.544 297.882 239.027 292.561 237.798 287.761C236.512 282.733 236.71 277.417 239.262 271.08C240.471 268.081 242.259 264.715 244.152 262.728C245.41 264.158 246.106 266.817 246.506 269.8C247.109 274.271 247.036 279.474 247.173 282.351C248.047 280.14 249.03 278.161 250.086 275.6C251.012 273.34 254.082 268.386 255.477 266.967Z" fill="white"/>
<path fill-rule="evenodd" clip-rule="evenodd" d="M232.026 255.578C231.727 260.952 229.628 266.691 226.849 271.967C223.553 278.238 219.294 283.859 215.953 287.453C211.912 291.793 207.374 294.911 202.888 295.72C201.299 286.762 202.864 278.267 204.401 270.707C206.015 262.789 209.137 255.615 214.97 248.835C217.736 245.624 221.227 242.352 224.05 241.064C224.406 243.998 223.573 248.197 222.283 252.615C220.357 259.241 217.409 266.358 215.941 270.43C217.963 268.048 219.957 266.077 222.331 263.354C224.43 260.944 229.967 256.464 232.026 255.578Z" fill="white"/>
<path fill-rule="evenodd" clip-rule="evenodd" d="M279.478 286.623C281.456 289.237 282.313 292.509 282.499 295.752C282.722 299.605 281.998 303.418 281.096 306.019C280.008 309.169 278.058 311.876 275.211 313.486C270.426 309.706 268.064 305.28 266.066 301.304C263.975 297.138 263.259 292.903 264.626 288.119C265.273 285.851 266.418 283.355 267.89 281.977C269.342 283.262 270.466 285.465 271.356 287.895C272.695 291.541 273.512 295.695 274.135 298.016C274.596 296.342 275.203 294.866 275.777 292.935C276.283 291.228 278.378 287.603 279.478 286.623Z" fill="white"/>
<path fill-rule="evenodd" clip-rule="evenodd" d="M257.641 235.861C259.093 238.344 259.437 241.279 259.174 244.12C258.862 247.494 257.697 250.729 256.529 252.896C255.121 255.517 252.989 257.663 250.187 258.753C246.34 254.956 244.783 250.851 243.501 247.181C242.154 243.336 242.065 239.576 243.946 235.564C244.835 233.662 246.207 231.618 247.731 230.577C248.876 231.849 249.604 233.886 250.094 236.093C250.822 239.405 251.016 243.108 251.271 245.189C251.91 243.783 252.662 242.568 253.438 240.95C254.122 239.519 256.512 236.597 257.641 235.861Z" fill="white"/>
<path fill-rule="evenodd" clip-rule="evenodd" d="M335.06 162.768C349.649 157.155 358.515 148.652 366.187 139.153C372.57 131.251 378.127 122.659 385.472 114.469C391.851 107.356 398.363 97.2433 408.155 90.1913C404.155 89.9678 394.504 93.9104 385.12 98.4708C376.307 102.755 367.724 107.584 364.278 110.022C355.069 116.534 334.918 137.112 332.508 147.981C337.313 147.026 347.744 138.58 352.047 134.979C355.797 131.841 355.756 132.548 360.096 129.479C357.273 134.649 358.486 132.719 353.346 140.433C349.426 146.306 336.896 156.687 335.06 162.768Z" fill="white"/>
<path fill-rule="evenodd" clip-rule="evenodd" d="M372.938 78.689C376.942 68.3691 383.891 61.5 392.013 56.4966C402.812 49.8429 415.694 46.4897 426.465 42.7218C434.91 39.7669 448.217 35.7877 459.469 28.4268C465.666 24.3704 471.219 18.5662 475.203 13.6197C476.918 18.1801 474.956 23.2608 471.607 27.9066C467.247 33.9506 460.541 39.2629 456.529 41.7504C450.725 45.3475 444.961 47.7741 437.305 53.5132C441.75 54.6675 445.681 54.2123 450.963 53.0864C447.174 58.7809 439.646 64.1176 431.137 68.6211C417.458 75.8642 397.388 82.1317 373.646 93.6344C375.842 88.7732 378.855 84.5582 382.362 80.953C388.182 74.9659 395.362 70.6575 402.383 67.8285C397.574 67.4262 393.016 68.7959 388.591 70.7875C383.244 73.1937 378.091 76.5064 372.938 78.689Z" fill="white"/>
<path fill-rule="evenodd" clip-rule="evenodd" d="M413.227 185.436C412.903 190.773 411.831 195.853 409.74 200.369C407.253 205.73 403.325 210.295 397.497 213.55C391.547 216.867 384.469 217.383 376.736 213.571C383.195 213.441 389.278 212.912 395.095 210.018C401.202 206.978 405.101 203.235 407.924 198.569C410.193 194.821 411.763 190.48 413.227 185.436Z" fill="white"/>
<path fill-rule="evenodd" clip-rule="evenodd" d="M343.223 170.332C344.698 168.645 346.307 167.073 348.026 165.613C347.971 166.185 347.942 166.765 347.942 167.353C347.942 177.36 356.015 185.469 365.969 185.469C375.927 185.469 383.996 177.36 383.996 167.353C383.996 161.148 380.89 155.669 376.155 152.406C377.564 152.091 378.991 151.808 380.431 151.558C385.975 155.479 389.554 161.658 389.554 168.609C389.554 169.735 389.457 170.84 389.279 171.921C389.966 169.682 390.342 167.312 390.342 164.857C390.342 159.638 388.662 154.797 385.79 150.793C386.215 150.746 386.64 150.701 387.065 150.66C387.656 150.603 388.246 150.55 388.837 150.505L390.103 151.294C390.973 151.835 391.98 152.948 392.958 154.257C394.402 156.184 395.676 158.444 396.465 160.126C397.177 161.638 397.707 163.264 398.059 164.926C398.435 166.707 398.609 168.483 398.593 170.174C398.544 174.775 397.606 179.059 395.935 182.831C394.253 186.631 391.822 189.903 388.805 192.435C385.864 194.907 382.507 196.541 378.944 197.435C375.053 198.41 370.883 198.516 366.697 197.878C359.643 196.801 352.613 193.622 346.801 188.924C343.177 185.993 340.038 182.481 337.676 178.535C338.415 177.063 339.244 175.656 340.153 174.311C343.762 182.721 352.052 188.83 361.925 189.671C351.82 187.868 344.055 180.002 343.223 170.332Z" fill="#FE5700"/>
<path fill-rule="evenodd" clip-rule="evenodd" d="M292.947 174.588C294.432 170.633 296.895 167.044 300.021 164.227C303.479 161.106 307.787 159.204 312.345 158.285C317.191 157.305 322.323 157.435 327.023 158.387C326.89 164.406 324.451 170.158 320.681 174.937C317.87 178.502 312.39 182.908 306.646 185.391C301.894 187.444 296.959 188.184 293.214 186.034C293.218 186.009 298.751 181.018 303.285 176.1C306.553 172.56 309.138 169.503 309.85 168.016C307.597 168.146 305.17 168.971 302.857 169.995C298.436 171.954 294.444 174.641 292.947 174.588Z" fill="white"/>
<path fill-rule="evenodd" clip-rule="evenodd" d="M355.344 299.004C353.75 310.413 360.274 325.821 367.963 338.763C372.736 346.803 376.526 352.107 381.221 357.196C384.016 360.228 387.135 363.187 390.973 366.605C394.933 359.634 396.983 349.343 397.821 343.197C398.702 336.759 397.918 330.101 395.831 324.09C394.524 320.342 392.182 315.002 389.218 310.604C386.609 306.734 383.515 303.597 380.227 302.918C382.107 306.137 383.09 313.193 383.288 319.802C383.426 324.314 383.195 328.614 382.641 331.341C379.361 328.732 369.375 316.213 366.75 312.221C362.839 306.263 358.418 300.329 355.344 299.004Z" fill="white"/>
<path fill-rule="evenodd" clip-rule="evenodd" d="M324.803 323.756C322.133 328.89 325.984 339.507 332.843 350.16C336.965 356.566 342.898 361.398 345.58 363.869C347.926 366.032 350.806 368.044 355.089 370.1C357.261 363.707 357.326 354.867 357.051 349.648C356.873 346.319 354.955 340.002 352.597 334.166C350.458 328.878 347.954 323.984 346.053 322.074C343.283 319.294 339.529 314.615 336.698 314.579C338.765 316.94 340.112 327.187 341.325 332.621C342.15 336.328 342.644 339.921 342.615 342.266C340.431 341.128 336.706 336.726 332.932 332.345C330.024 328.967 327.088 325.602 324.803 323.756Z" fill="white"/>
<path fill-rule="evenodd" clip-rule="evenodd" d="M362.361 220.712C366.798 219.241 370.936 220.127 375.005 222.37C378.936 224.537 381.351 227.317 382.92 230.569C384.728 234.304 385.424 238.665 386.031 243.433C382.71 243.543 373.973 242.376 367.935 240.535C365.023 239.649 360.032 237.531 356.161 234.609C352.517 231.853 347.299 226.772 348.322 222.94C352.395 224.301 356.889 226.146 361.386 227.439C364.109 228.219 366.835 228.801 369.468 228.951C369.16 227.179 368.4 226.098 367.17 224.89C365.237 222.992 363.239 221.383 362.361 220.712Z" fill="white"/>
<path fill-rule="evenodd" clip-rule="evenodd" d="M415.504 236.235C418.303 235.04 421.037 235.389 423.795 236.625C426.461 237.812 428.18 239.486 429.377 241.511C430.748 243.835 431.865 247.258 432.516 250.314C428.293 250.717 424.22 250.375 420.341 249.258C417.53 248.445 414.824 247.225 412.232 245.591C409.724 244.002 404.632 238.145 405.085 235.601C409.955 237.357 411.459 239.34 415.302 240.555C416.697 240.994 418.368 241.254 420.56 241.194C420.264 240.064 419.71 239.401 418.849 238.686C417.494 237.56 416.111 236.625 415.504 236.235Z" fill="white"/>
<path fill-rule="evenodd" clip-rule="evenodd" d="M373.953 250.973C374.342 254.688 384.518 264.565 394.941 272.068C400.757 276.258 407.892 279.713 410.444 280.945C412.952 282.152 415.419 283.119 417.611 283.68C418.995 279.295 419.124 274.425 418.719 270.901C418.295 267.211 416.823 263.614 414.642 260.549C412.479 257.5 409.623 254.968 406.412 253.387C405.041 252.712 403.532 252.334 401.853 252.371C403.439 253.867 405.251 256.98 406.545 260.09C407.516 262.427 408.195 264.764 408.268 266.414C404.774 263.5 404.252 262.988 402.238 261.532C399.346 259.439 396.644 258.135 390.302 255.562C386.12 253.867 376.061 251.314 373.953 250.973Z" fill="white"/>
<path fill-rule="evenodd" clip-rule="evenodd" d="M326.465 276.352C329.24 277.063 331.909 279.197 334.223 281.819C336.977 284.932 339.234 288.733 340.573 291.643C342.191 295.159 343.084 298.959 342.773 302.507C337.81 302.95 333.604 300.987 329.887 299.126C325.992 297.179 322.736 294.118 320.131 288.993C318.897 286.566 317.753 283.567 317.538 281.262C319.136 281.246 321.203 282.266 323.314 283.652C326.477 285.733 329.733 288.647 331.63 290.147C330.708 288.371 330 286.647 328.961 284.562C328.038 282.721 326.594 278.031 326.465 276.352Z" fill="white"/>
<path fill-rule="evenodd" clip-rule="evenodd" d="M337.252 254.111C338.166 258.301 340.536 262.545 343.384 266.341C346.769 270.853 350.822 274.734 353.9 277.136C357.621 280.039 361.585 281.908 365.209 281.977C365.334 274.734 363.037 268.251 360.877 262.504C358.616 256.48 355.255 251.233 349.819 246.644C347.242 244.47 344.083 242.344 341.701 241.69C341.79 244.039 342.975 247.238 344.541 250.546C346.89 255.509 350.102 260.732 351.768 263.748C349.879 262.13 348.067 260.834 345.855 258.992C343.901 257.367 338.983 254.55 337.252 254.111Z" fill="white"/>
<path fill-rule="evenodd" clip-rule="evenodd" d="M295.443 297.301C294.747 302.178 295.143 310.429 296.211 315.059C297.481 320.562 300.248 324.001 302.339 326.838C304.203 329.37 308.648 333.439 311.674 333.894C314.311 325.635 314.639 317.997 314.833 311.21C315.031 304.101 314.04 297.76 311.067 291.956C309.656 289.204 307.742 286.448 305.967 285.453C305.223 288.147 305.101 291.919 305.263 295.862C305.506 301.772 306.384 308.068 306.735 311.685C305.708 309.641 304.636 307.974 303.419 305.641C302.343 303.58 296.745 297.979 295.443 297.301Z" fill="white"/>
<path fill-rule="evenodd" clip-rule="evenodd" d="M317.142 245.213C319.241 246.888 320.596 249.432 321.413 252.131C322.392 255.342 322.615 258.773 322.445 261.228C322.243 264.199 321.276 267.032 319.367 269.174C314.821 267.28 312.046 264.171 309.648 261.342C307.14 258.383 305.696 254.989 305.777 250.55C305.817 248.449 306.193 246.022 307.067 244.445C308.475 245.136 309.817 246.701 311.023 248.518C312.831 251.245 314.339 254.546 315.31 256.342C315.322 254.798 315.496 253.379 315.545 251.583C315.585 249.997 316.483 246.347 317.142 245.213Z" fill="white"/>
<path fill-rule="evenodd" clip-rule="evenodd" d="M312.483 221.911C312.386 226.175 314.509 231.195 317.425 235.426C319.346 238.214 321.802 240.998 324.75 242.982C327.436 244.787 330.526 245.929 334.008 245.807C335.63 241.08 334.939 236.95 334.219 233.292C333.462 229.459 331.569 226.179 327.682 223.415C325.842 222.106 322.833 220.383 320.847 220.058C321.599 222.228 322.744 224.216 323.856 226.122C325.373 228.736 325.745 231.361 325.846 234.487C324.892 233.093 322.966 230.691 320.79 228.358C317.874 225.224 314.517 222.208 312.483 221.911Z" fill="white"/>
<path fill-rule="evenodd" clip-rule="evenodd" d="M279.231 162.008C279.583 159.594 282.483 156.513 285.424 154.525C288.146 152.688 291.608 151.282 295.766 150.306C295.802 153.9 295.22 157.375 293.82 160.415C292.397 163.5 290.152 166.398 286.799 167.975C284.336 169.19 278.524 164.524 279.231 162.008Z" fill="white"/>
<path fill-rule="evenodd" clip-rule="evenodd" d="M306.977 350.916C306.403 355.074 306.245 359.48 306.848 363.732C307.633 369.304 309.72 374.6 313.865 378.685C315.791 380.583 318.153 381.945 321.069 382.392C322.901 380.762 324.22 377.547 324.867 374.064C325.644 369.906 325.461 365.366 324.062 362.691C322.493 359.688 319.665 357.257 315.928 354.802C313.639 353.302 311.022 352.075 306.977 350.916Z" fill="white"/>
<path fill-rule="evenodd" clip-rule="evenodd" d="M288.935 113.392C283.592 111.88 280.417 108.921 279.418 105.117C278.617 102.056 279.224 98.4468 281.242 94.6058C284.308 88.7732 289.614 83.5909 293.125 78.876C296.676 82.7658 299.443 86.4524 301.857 91.1591C303.051 93.736 303.75 96.3373 304.304 99.2354C300.81 103.015 297.489 107.267 294.698 112.807C294.213 109.177 294.274 106.714 294.092 103.861C293.954 101.658 293.675 99.2272 292.89 95.8415C292.037 98.1867 290.706 100.508 289.885 103.243C288.826 106.775 288.635 110.681 288.935 113.392Z" fill="white"/>
<path fill-rule="evenodd" clip-rule="evenodd" d="M304.98 83.5258C302.626 80.8635 299.948 78.4207 298.31 75.5512C297.121 73.466 296.482 71.1574 296.915 68.3732C297.433 66.1661 299.313 63.2356 301.368 60.366C303.16 57.8582 305.085 55.3991 306.347 53.5132C308.669 55.4316 310.169 57.3176 311.371 59.3621C312.701 61.6179 313.66 64.0688 314.962 66.9709C310.679 71.9459 307.585 77.872 304.98 83.5258Z" fill="white"/>
<path fill-rule="evenodd" clip-rule="evenodd" d="M298.196 143.579C297.108 137.535 296.315 129.032 297.614 122.81C299.05 116.611 301.824 111.287 305.416 105.962C307.782 102.588 310.209 100.032 313.914 97.772C314.173 102.58 313.881 106.511 313.914 110.498C313.942 114.559 314.306 118.676 315.924 123.834C314.363 126.008 311.778 130.028 310.654 132.642C310.569 132.512 309.897 129.943 309.177 127.35C308.603 125.285 307.996 123.208 307.628 122.342C305.436 125.387 304.239 127.902 302.799 130.829C300.724 135.04 299.45 139.6 298.196 143.579Z" fill="white"/>
<path fill-rule="evenodd" clip-rule="evenodd" d="M309.263 94.4066C309.052 89.5738 309.942 85.0866 311.944 80.6034C314.484 75.1203 317.028 70.3445 321.142 66.4425C323.759 63.577 327.112 61.0163 330.222 58.3703C330.784 60.3741 331.399 63.638 331.613 66.8246C331.808 69.7754 331.662 72.6531 330.804 74.4009C329.251 74.0473 327.698 73.6977 326.149 73.3482C322.286 76.2706 319.936 79.5466 316.834 83.2941C314.31 86.5701 311.73 89.3178 309.263 94.4066Z" fill="white"/>
<path fill-rule="evenodd" clip-rule="evenodd" d="M320.212 112.047C319.84 109.12 318.97 102.707 319.808 97.947C320.794 92.6265 322.194 90.3422 324.989 85.8387C328.346 81.136 331.294 77.1975 335.582 73.3199C340.338 69.2432 349.342 63.5853 355.724 67.1174C355.582 67.5036 349.896 74.206 345.293 82.1115C342.025 87.7247 339.703 94.7035 338.494 97.0691C336.241 102.552 334.283 106.568 331.739 109.824C330.376 108.1 329.919 105.881 329.907 103.507C329.891 99.8817 330.918 95.8903 331.391 92.7403C329.992 93.7158 328.758 95.4311 327.666 97.3536C326.218 99.9021 325.017 102.816 324.022 104.861C322.756 107.462 321.458 110.019 320.212 112.047Z" fill="white"/>
<path fill-rule="evenodd" clip-rule="evenodd" d="M347.391 96.6546C347.068 93.5533 347.929 90.1919 349.28 86.9891C350.607 83.835 352.467 80.5793 354.635 77.5471C356.876 74.4134 359.444 71.5194 362.11 69.2189C365.702 66.2802 371.332 63.0448 376.557 63.4472C376.444 63.7317 372.699 70.1212 369.156 75.8969C367.404 78.7543 365.572 82.5872 363.841 86.7208C360.848 93.8622 358.162 101.894 356.726 107.316C354.943 103.024 354.518 98.6503 355.113 94.3459C355.622 90.6634 356.88 87.0257 358.676 83.5383C357.434 84.3634 356.156 85.1682 354.963 86.0949C353.321 87.3712 352.087 88.936 350.995 90.6187C349.737 92.5697 348.669 94.6711 347.391 96.6546Z" fill="white"/>
<path fill-rule="evenodd" clip-rule="evenodd" d="M303.038 154.729C304.766 148.294 308.296 142.852 312.588 137.178C315.375 133.024 317.668 129.845 320.066 126.866C322.78 123.493 326.194 119.834 329.895 116.306C335.46 110.998 341.681 105.982 347.166 102.662C347.817 106.515 347.38 110.043 346.349 113.421C345.01 117.798 342.664 121.92 340.371 126.155C337.547 131.378 334.437 136.446 332.378 138.348C332.722 133.695 332.075 129.658 331.213 127.232C328.888 130.662 326.558 134.097 324.228 137.527C321.895 140.653 317.765 144.949 313.389 148.51C309.821 151.412 306.092 153.826 303.038 154.729Z" fill="white"/>
<path fill-rule="evenodd" clip-rule="evenodd" d="M386.754 132.296C389.646 127.049 394.799 121.269 400.607 115.733C408.086 108.612 416.648 101.889 422.849 97.2356C427.989 93.3783 433.239 89.5373 438.918 85.0257C439.674 87.4075 438.19 90.7973 435.601 94.5042C429.619 103.056 417.74 113.278 413.886 116.558C404.725 123.265 394.75 128.862 386.754 132.296Z" fill="#FE5700"/>
<path fill-rule="evenodd" clip-rule="evenodd" d="M459.526 74.1448C459.838 71.2387 461.399 67.353 463.393 63.3453C466.273 57.5574 470.054 51.5216 472.275 47.8472C475.244 42.9291 478.269 38.007 480.833 33.4262C482.407 35.0927 483.074 38.2224 483.28 41.4984C482.868 47.5221 482.039 51.9606 480.401 56.017C478.661 60.3254 476.012 64.2111 471.984 69.1129C467.89 72.6044 464.493 74.7464 459.526 74.1448Z" fill="#FE5700"/>
<path fill-rule="evenodd" clip-rule="evenodd" d="M425.648 144.348C426.857 141.913 427.464 140.133 428.451 138.869C429.648 137.332 431.407 136.556 435.484 136.284C438.356 136.089 441.013 136.706 441.422 138.495C441.139 141.73 440.132 143.596 438.494 144.669C436.783 145.795 434.38 146.051 431.411 146.1C429.041 145.77 427.197 145.437 425.648 144.348Z" fill="white"/>
<path fill-rule="evenodd" clip-rule="evenodd" d="M438.631 165.878C439.485 163.199 441.673 161.163 444.314 159.801C447.61 158.106 450.838 157.444 453.584 158.017C457.079 158.744 459.793 161.467 460.873 166.577C459.611 169.434 454.935 170.231 450.106 169.8C445.442 169.385 440.637 167.828 438.631 165.878Z" fill="white"/>
<path fill-rule="evenodd" clip-rule="evenodd" d="M434.383 186.586C436.895 189.558 438.667 191.769 440.564 193.594C443.613 196.536 447.229 198.626 451.132 199.849C454.372 200.865 457.806 201.284 461.28 201.097C461.207 198.028 460.779 194.577 459.505 191.639C458.069 188.314 455.153 186.351 451.686 185.363C446.064 183.758 438.982 184.717 434.383 186.586Z" fill="white"/>
<path fill-rule="evenodd" clip-rule="evenodd" d="M430.016 215.664C431.775 218.01 434.376 221.716 437.227 225.452C438.416 227.013 443.666 233.747 448.192 236.674C451.303 238.686 454.073 238.901 454.959 234.426C455.723 230.573 454.652 227.179 452.625 224.33C450.773 221.725 447.266 218.892 443.375 216.949C438.756 214.64 433.595 213.587 430.016 215.664Z" fill="white"/>
<path fill-rule="evenodd" clip-rule="evenodd" d="M401.719 297.276C404.009 301.361 407.086 306.007 410.039 310.649C413.174 315.583 416.171 320.522 417.942 324.802C421.453 333.296 423.734 343.612 424.661 343.726C426.319 342.389 429.267 337.727 429.486 331.845C429.757 324.464 429.34 319.062 426.889 313.242C422.998 303.983 415.152 297.65 401.719 297.276Z" fill="white"/>
<path fill-rule="evenodd" clip-rule="evenodd" d="M455.917 105.901C456.119 102.125 457.276 98.6136 459.1 95.4433C463.036 88.5986 470.07 83.3553 477.229 80.5101C477.649 85.16 477.451 90.0781 475.93 94.4109C474.64 98.0771 472.403 101.329 468.779 103.637C465.503 105.727 461.41 106.389 455.917 105.901Z" fill="#FE5700"/>
<path fill-rule="evenodd" clip-rule="evenodd" d="M459.877 122.517C462.174 123.407 464.718 124.448 467.173 125.696C470.377 127.33 473.43 129.313 475.594 131.772C476.622 132.939 477.799 134.772 480.019 138.548C481.358 137.865 482.288 136.95 482.466 133.865C482.078 129.988 480.116 127.102 477.107 124.155C472.12 119.981 464.338 119.087 459.877 122.517Z" fill="#FE5700"/>
<path fill-rule="evenodd" clip-rule="evenodd" d="M470.009 154.753C474.345 158.245 477.233 161.63 479.854 165.045C481.54 167.235 485.164 172.231 488.667 176.112C490.956 178.645 493.193 180.701 494.807 181.197C496.809 180.652 498.168 179.579 498.536 177.454C498.415 172.633 496.421 168.012 493.298 164.191C487.713 157.346 478.515 153.054 470.009 154.753Z" fill="#FE5700"/>
<path fill-rule="evenodd" clip-rule="evenodd" d="M474.548 192.065C479.806 196.301 483.305 200.402 486.488 204.54C488.53 207.198 492.923 213.254 497.17 217.957C499.944 221.029 502.658 223.525 504.616 224.123C507.038 223.46 508.685 222.159 509.13 219.582C508.988 213.742 506.569 208.141 502.783 203.503C496.009 195.207 484.858 190.005 474.548 192.065Z" fill="#FE5700"/>
<path fill-rule="evenodd" clip-rule="evenodd" d="M467.445 247.591C469.156 252.639 471.562 258.419 473.852 264.187C476.278 270.316 478.576 276.433 479.765 281.656C482.127 292.021 483.081 304.414 483.963 304.641C485.723 303.227 489.124 298.024 490.042 291.11C491.195 282.433 491.438 276.027 489.779 268.918C487.142 257.614 480.343 249.363 467.445 247.591Z" fill="#FE5700"/>
<path fill-rule="evenodd" clip-rule="evenodd" d="M493.872 233.739C496.869 238.653 498.669 243.1 500.247 247.51C501.262 250.347 503.389 256.753 505.618 261.899C507.074 265.256 508.575 268.073 509.833 269.012C511.6 268.89 512.927 268.024 513.614 265.76C514.383 260.391 513.545 254.79 511.624 249.803C508.19 240.869 501.282 233.902 493.872 233.739Z" fill="#FE5700"/>
<path fill-rule="evenodd" clip-rule="evenodd" d="M449.142 280.908C449.882 286.611 450.372 290.769 451.047 294.598C452.131 300.764 453.814 306.47 455.917 311.449C457.664 315.579 459.703 319.209 461.935 322.176C462.756 318.599 463.46 314.246 463.488 309.718C463.525 304.592 462.251 299.674 460.354 295.366C457.272 288.371 452.56 282.977 449.142 280.908Z" fill="#FE5700"/>
<path d="M24.4298 376.222L26.2175 374.677L31.9205 381.331L77.7625 341.657L72.0596 335.003L73.8473 333.455L95.1909 358.362C96.9746 360.443 98.4064 362.784 99.5227 365.402C100.627 368.028 101.31 370.877 101.565 373.95C101.82 377.023 101.614 380.128 100.918 383.237C100.214 386.359 98.8675 389.525 96.8452 392.756C94.835 395.98 92.2302 398.991 89.0431 401.751C85.8437 404.519 82.515 406.641 79.069 408.141C75.6108 409.649 72.3225 410.498 69.1919 410.697C66.0654 410.892 62.9996 410.62 60.051 409.876C57.1025 409.137 54.4209 408.019 52.0345 406.503C49.636 404.995 47.5571 403.21 45.7734 401.129L24.4298 376.222ZM38.0886 388.529L46.1941 397.987C48.1678 400.292 50.356 401.983 52.7302 403.08C55.0923 404.166 57.4544 404.674 59.8043 404.617C62.1421 404.548 64.6255 404.027 67.2384 403.06C69.8431 402.085 72.3468 400.82 74.721 399.264C77.1154 397.707 79.5664 395.833 82.0944 393.642C84.6223 391.456 86.8428 389.285 88.7559 387.119C90.665 384.969 92.299 382.648 93.6823 380.173C95.0574 377.689 95.9756 375.271 96.4245 372.925C96.8614 370.568 96.736 368.125 96.0443 365.593C95.3527 363.04 94.0139 360.618 92.0361 358.313L83.9306 348.855L38.0886 388.529ZM83.8133 437.938L85.1764 436.003L92.3071 441.084L127.289 391.48L120.154 386.399L121.522 384.465L143.496 400.113L142.133 402.048L135.002 396.971L100.02 446.575L107.151 451.656L105.788 453.59L83.8133 437.938ZM139.86 437.853C141.579 434.081 143.715 430.772 146.279 427.919C148.847 425.049 151.602 422.818 154.546 421.188C157.491 419.554 160.565 418.396 163.784 417.696C167.004 416.997 170.223 416.827 173.41 417.213C176.606 417.583 179.627 418.44 182.495 419.757C186.661 421.672 190.232 424.102 193.201 427.029C194.548 428.386 195.704 429.293 196.663 429.736C197.496 430.118 198.249 430.191 198.924 429.951C199.599 429.695 200.412 429.191 201.355 428.427L203.179 429.264L194.269 448.843L192.449 448.006C193.326 443.449 193.371 439.218 192.578 435.3C192.347 434.117 192.048 433.016 191.68 432.024C191.304 431.012 190.73 429.874 189.945 428.634C189.164 427.386 188.06 426.175 186.636 425.025C185.201 423.866 183.506 422.83 181.512 421.915C175.542 419.168 169.786 419.509 164.257 422.956C158.744 426.411 153.834 432.849 149.531 442.299C145.247 451.721 143.642 459.594 144.693 465.91C145.745 472.226 149.292 476.775 155.294 479.53C157.284 480.445 159.173 481.055 160.985 481.392C162.789 481.705 164.415 481.766 165.867 481.542C167.319 481.315 168.545 481.022 169.552 480.644C170.547 480.262 171.566 479.786 172.605 479.185C176.076 477.226 179.231 474.421 182.086 470.775L183.906 471.613L174.996 491.192L173.172 490.354C173.152 489.541 173.095 488.911 173.006 488.476C172.933 488.033 172.735 487.566 172.415 487.074C172.112 486.574 171.667 486.2 171.089 485.932C170.13 485.489 168.694 485.192 166.793 485.054C162.644 484.725 158.478 483.603 154.312 481.689C150.683 480.018 147.492 477.693 144.758 474.738C142.012 471.763 139.896 468.39 138.396 464.593C136.875 460.809 136.208 456.574 136.394 451.887C136.572 447.217 137.733 442.535 139.86 437.853ZM208.101 460.346L213.679 434.052L272.318 444.136L268.88 470.8L266.555 470.397C267.141 462.967 266.462 457.074 264.496 452.713C262.065 447.278 258.227 444.116 253.005 443.222L247.27 442.234L237.065 502.158L245.664 503.637L245.268 505.974L218.735 501.414L219.131 499.077L227.73 500.552L237.935 440.629L232.195 439.641C226.961 438.743 222.31 440.442 218.221 444.758C214.925 448.209 212.332 453.542 210.427 460.748L208.101 460.346ZM277.774 509.409L277.592 507.043L287.482 506.279L303.519 440.405L306.245 440.198L334.909 502.625L343.16 501.987L343.342 504.353L312.878 506.702L312.7 504.336L324.029 503.463L314.718 483.087L295.757 484.55L290.564 506.044L300.085 505.308L300.263 507.673L277.774 509.409ZM296.307 482.132L313.626 480.795L302.58 456.659L296.307 482.132ZM344.944 464.366L337.744 438.47L394.345 420.062L403.611 445.283L401.367 446.014C398.455 439.157 395.13 434.251 391.372 431.309C386.713 427.626 381.851 426.618 376.816 428.256L371.275 430.057L389.908 487.899L398.208 485.2L398.936 487.456L373.325 495.785L372.597 493.529L380.897 490.83L362.267 432.987L356.726 434.788C351.674 436.434 348.341 440.108 346.711 445.839C345.385 450.432 345.547 456.367 347.189 463.638L344.944 464.366ZM419.636 443.08C417.396 439.592 415.77 436.003 414.754 432.3C413.727 428.581 413.339 425.045 413.553 421.672C413.772 418.298 414.447 415.071 415.596 411.97C416.74 408.864 418.33 406.047 420.368 403.556C422.395 401.048 424.741 398.947 427.39 397.227C430.047 395.5 432.915 394.212 436.025 393.382C439.123 392.537 442.331 392.236 445.619 392.46C448.903 392.683 452.111 393.39 455.262 394.573C458.408 395.764 461.446 397.581 464.411 400.036C467.359 402.487 469.948 405.45 472.188 408.933C474.971 413.258 476.791 417.725 477.641 422.318C478.482 426.935 478.429 431.223 477.483 435.182C476.545 439.153 474.923 442.807 472.65 446.144C470.368 449.465 467.545 452.229 464.18 454.416C460.831 456.59 457.163 458.045 453.211 458.773C449.239 459.496 445.271 459.476 441.279 458.704C437.287 457.956 433.376 456.241 429.546 453.566C425.724 450.904 422.419 447.4 419.636 443.08ZM428.567 437.275C434.165 445.978 439.908 451.57 445.773 454.078C451.638 456.582 457.357 456.021 462.898 452.424C468.451 448.815 471.295 443.807 471.44 437.397C471.574 430.996 468.844 423.444 463.246 414.746C457.632 406.019 451.86 400.353 445.894 397.744C439.94 395.13 434.197 395.626 428.668 399.219C423.155 402.804 420.344 407.86 420.263 414.396C420.19 420.928 422.953 428.553 428.567 437.275ZM507.219 418.363L505.448 416.802L511.211 410.201L465.749 370.088L459.982 376.689L458.21 375.124L476.338 354.375C478.623 351.757 480.982 349.749 483.429 348.339C485.867 346.92 488.173 346.173 490.345 346.051C492.525 345.941 494.547 346.209 496.436 346.86C498.313 347.502 500.008 348.493 501.536 349.843C504.497 352.456 506.119 355.424 506.378 358.744C506.649 362.057 505.803 365.528 503.85 369.158L504.258 369.519C507.87 366.499 511.417 364.894 514.916 364.723C518.427 364.561 521.428 365.569 523.936 367.78L531.39 374.356C533.784 376.47 535.823 377.563 537.501 377.653C539.18 377.742 540.834 376.836 542.476 374.962C543.621 373.649 544.555 372.06 545.267 370.182L547.33 371.271C546.092 374.226 544.373 376.949 542.193 379.445C541.21 380.571 540.139 381.538 538.97 382.331C537.821 383.123 536.49 383.774 535.002 384.27C533.53 384.778 531.924 384.794 530.213 384.363C528.49 383.924 526.824 382.969 525.177 381.518L517.185 374.466C514.609 372.194 511.834 370.991 508.865 370.82C505.905 370.662 503.219 371.962 500.8 374.73L494.07 382.432L517.452 403.06L523.216 396.459L524.991 398.024L507.219 418.363ZM492.286 380.859L499.967 372.064C501.055 370.824 501.722 369.584 501.973 368.333C502.232 367.064 502.095 365.825 501.577 364.597C501.043 363.362 500.343 362.203 499.433 361.09C498.515 359.988 497.35 358.793 495.914 357.529C494.576 356.342 493.144 355.354 491.643 354.59C490.143 353.802 488.589 353.265 486.964 352.952C485.334 352.635 483.716 352.765 482.07 353.347C480.423 353.932 478.951 354.976 477.633 356.488L471.986 362.947L492.286 380.859Z" fill="#FE5700"/>
<path d="M24.4298 376.222L26.2175 374.677L31.9205 381.331L77.7625 341.657L72.0596 335.003L73.8473 333.455L95.1909 358.362C96.9746 360.443 98.4064 362.784 99.5227 365.402C100.627 368.028 101.31 370.877 101.565 373.95C101.82 377.023 101.614 380.128 100.918 383.237C100.214 386.359 98.8675 389.525 96.8452 392.756C94.835 395.98 92.2302 398.991 89.0431 401.751C85.8437 404.519 82.515 406.641 79.069 408.141C75.6108 409.649 72.3225 410.498 69.1919 410.697C66.0654 410.892 62.9996 410.62 60.051 409.876C57.1025 409.137 54.4209 408.019 52.0345 406.503C49.636 404.995 47.5571 403.21 45.7734 401.129L24.4298 376.222V376.222ZM38.0886 388.529L46.1941 397.987C48.1678 400.292 50.356 401.983 52.7302 403.08C55.0923 404.166 57.4544 404.674 59.8043 404.617C62.1421 404.548 64.6255 404.027 67.2384 403.06C69.8431 402.085 72.3468 400.82 74.721 399.264C77.1154 397.707 79.5664 395.833 82.0944 393.642C84.6223 391.456 86.8428 389.285 88.7559 387.119C90.665 384.969 92.299 382.648 93.6823 380.173C95.0574 377.689 95.9756 375.271 96.4245 372.925C96.8614 370.568 96.736 368.125 96.0443 365.593C95.3527 363.04 94.0139 360.618 92.0361 358.313L83.9306 348.855L38.0886 388.529V388.529ZM83.8133 437.938L85.1764 436.003L92.3071 441.084L127.289 391.48L120.154 386.399L121.522 384.465L143.496 400.113L142.133 402.048L135.002 396.971L100.02 446.575L107.151 451.656L105.788 453.59L83.8133 437.938V437.938ZM139.86 437.853C141.579 434.081 143.715 430.772 146.279 427.919C148.847 425.049 151.602 422.818 154.546 421.188C157.491 419.554 160.565 418.396 163.784 417.696C167.004 416.997 170.223 416.827 173.41 417.213C176.606 417.583 179.627 418.44 182.495 419.757C186.661 421.672 190.232 424.102 193.201 427.029C194.548 428.386 195.704 429.293 196.663 429.736C197.496 430.118 198.249 430.191 198.924 429.951C199.599 429.695 200.412 429.191 201.355 428.427L203.179 429.264L194.269 448.843L192.449 448.006C193.326 443.449 193.371 439.218 192.578 435.3C192.347 434.117 192.048 433.016 191.68 432.024C191.304 431.012 190.73 429.874 189.945 428.634C189.164 427.386 188.06 426.175 186.636 425.025C185.201 423.866 183.506 422.83 181.512 421.915C175.542 419.168 169.786 419.509 164.257 422.956C158.744 426.411 153.834 432.849 149.531 442.299C145.247 451.721 143.642 459.594 144.693 465.91C145.745 472.226 149.292 476.775 155.294 479.53C157.284 480.445 159.173 481.055 160.985 481.392C162.789 481.705 164.415 481.766 165.867 481.542C167.319 481.315 168.545 481.022 169.552 480.644C170.547 480.262 171.566 479.786 172.605 479.185C176.076 477.226 179.231 474.421 182.086 470.775L183.906 471.613L174.996 491.192L173.172 490.354C173.151 489.541 173.095 488.911 173.006 488.476C172.933 488.033 172.735 487.566 172.415 487.074C172.112 486.574 171.667 486.2 171.089 485.932C170.13 485.489 168.694 485.192 166.793 485.054C162.644 484.725 158.478 483.603 154.312 481.689C150.683 480.018 147.492 477.693 144.758 474.738C142.012 471.763 139.896 468.39 138.396 464.593C136.875 460.809 136.208 456.574 136.394 451.887C136.572 447.217 137.733 442.535 139.86 437.853ZM208.101 460.346L213.679 434.052L272.318 444.136L268.88 470.8L266.555 470.397C267.141 462.967 266.462 457.074 264.496 452.713C262.065 447.278 258.227 444.116 253.005 443.222L247.27 442.234L237.065 502.158L245.664 503.637L245.268 505.974L218.735 501.414L219.131 499.077L227.73 500.552L237.935 440.629L232.195 439.641C226.961 438.743 222.31 440.442 218.221 444.758C214.925 448.209 212.332 453.542 210.427 460.748L208.101 460.346V460.346ZM277.774 509.409L277.592 507.043L287.482 506.279L303.519 440.405L306.245 440.198L334.909 502.625L343.16 501.987L343.342 504.353L312.878 506.702L312.7 504.336L324.029 503.463L314.718 483.087L295.757 484.55L290.564 506.043L300.085 505.308L300.263 507.673L277.774 509.409V509.409ZM296.307 482.132L313.626 480.795L302.58 456.659L296.307 482.132V482.132ZM344.944 464.366L337.744 438.47L394.345 420.062L403.611 445.283L401.367 446.014C398.455 439.157 395.13 434.251 391.372 431.309C386.713 427.626 381.851 426.618 376.816 428.256L371.275 430.057L389.908 487.899L398.208 485.2L398.936 487.456L373.325 495.785L372.597 493.529L380.897 490.83L362.267 432.987L356.726 434.788C351.674 436.434 348.341 440.108 346.711 445.839C345.385 450.432 345.547 456.367 347.189 463.638L344.944 464.366V464.366ZM419.636 443.08C417.396 439.592 415.77 436.003 414.754 432.3C413.727 428.581 413.339 425.045 413.553 421.672C413.772 418.298 414.447 415.071 415.596 411.97C416.74 408.864 418.33 406.047 420.368 403.556C422.395 401.048 424.741 398.947 427.39 397.227C430.047 395.5 432.915 394.212 436.025 393.382C439.123 392.537 442.331 392.236 445.619 392.46C448.903 392.683 452.111 393.39 455.262 394.573C458.408 395.764 461.446 397.581 464.411 400.036C467.359 402.487 469.948 405.45 472.188 408.933C474.971 413.258 476.791 417.725 477.641 422.318C478.482 426.935 478.429 431.223 477.483 435.182C476.545 439.153 474.923 442.807 472.65 446.144C470.368 449.465 467.545 452.229 464.18 454.416C460.831 456.59 457.163 458.045 453.211 458.773C449.239 459.496 445.271 459.476 441.279 458.704C437.287 457.956 433.376 456.241 429.546 453.566C425.724 450.904 422.419 447.4 419.636 443.08V443.08ZM428.567 437.275C434.165 445.978 439.908 451.57 445.773 454.078C451.638 456.582 457.357 456.021 462.898 452.424C468.451 448.815 471.295 443.807 471.44 437.397C471.574 430.996 468.844 423.444 463.246 414.746C457.632 406.019 451.86 400.353 445.894 397.744C439.941 395.13 434.197 395.626 428.668 399.219C423.155 402.804 420.344 407.86 420.263 414.396C420.19 420.928 422.953 428.553 428.567 437.275V437.275ZM507.219 418.363L505.448 416.802L511.211 410.201L465.749 370.088L459.982 376.689L458.21 375.124L476.338 354.375C478.623 351.757 480.982 349.749 483.429 348.339C485.867 346.92 488.173 346.173 490.345 346.051C492.525 345.941 494.547 346.209 496.436 346.86C498.313 347.502 500.008 348.493 501.536 349.843C504.497 352.456 506.119 355.424 506.378 358.744C506.649 362.057 505.804 365.528 503.85 369.158L504.258 369.519C507.87 366.499 511.417 364.894 514.916 364.723C518.427 364.561 521.428 365.569 523.936 367.78L531.39 374.356C533.784 376.47 535.823 377.563 537.501 377.653C539.18 377.742 540.834 376.836 542.476 374.962C543.621 373.649 544.555 372.06 545.267 370.182L547.33 371.271C546.092 374.226 544.373 376.949 542.193 379.445C541.21 380.571 540.139 381.538 538.97 382.331C537.821 383.123 536.49 383.774 535.002 384.27C533.53 384.778 531.924 384.794 530.213 384.363C528.49 383.924 526.824 382.969 525.177 381.518L517.185 374.466C514.609 372.194 511.834 370.991 508.865 370.82C505.905 370.662 503.219 371.962 500.8 374.73L494.07 382.432L517.452 403.06L523.216 396.459L524.991 398.024L507.219 418.363V418.363ZM492.286 380.859L499.967 372.064C501.055 370.824 501.722 369.584 501.973 368.333C502.232 367.064 502.095 365.825 501.577 364.597C501.043 363.362 500.343 362.203 499.433 361.09C498.515 359.988 497.35 358.793 495.914 357.529C494.576 356.342 493.144 355.354 491.643 354.59C490.143 353.802 488.589 353.265 486.964 352.952C485.334 352.635 483.716 352.765 482.07 353.347C480.423 353.932 478.951 354.976 477.633 356.488L471.986 362.947L492.286 380.859V380.859Z" stroke="#FE5700" stroke-width="3.74345" stroke-miterlimit="22.9256"/>
<path d="M164.496 541.893L164.755 540.979L168.326 541.995L174.919 518.599L171.347 517.583L171.602 516.669L180.06 519.075L180.695 540.153L192.541 522.627L200.133 524.79L199.878 525.7L196.517 524.745L189.925 548.144L193.282 549.1L193.027 550.01L182.664 547.063L182.923 546.149L186.28 547.108L192.626 524.59L192.562 524.57L177.892 546.238L176.84 545.937L176.059 520.193C176.031 519.733 176.072 519.323 176.173 518.957L176.035 518.916L169.442 542.316L173.018 543.332L172.759 544.242L164.496 541.893ZM198.77 551.677L198.94 550.742L202.843 551.445L215.653 527.57L216.728 527.765L221.57 554.831L224.83 555.42L224.66 556.355L212.635 554.18L212.801 553.245L217.274 554.054L215.713 545.226L208.227 543.873L204.061 551.668L207.818 552.347L207.652 553.278L198.77 551.677ZM208.68 542.991L215.519 544.226L213.663 533.764L208.68 542.991ZM229.954 557.342L230.072 556.404L233.756 556.867L236.778 532.74L233.093 532.272L233.21 531.333L242.202 532.467L250.93 552.055L253.094 534.805L249.409 534.337L249.526 533.394L258.049 534.475L257.927 535.414L254.243 534.947L251.039 560.525L249.963 560.391L238.205 534.028C238.044 533.662 237.991 533.288 238.04 532.898L237.93 532.886L234.909 557.013L238.594 557.481L238.472 558.42L229.954 557.342ZM262.704 551.868L263.505 551.888C263.804 553.766 264.447 555.416 265.43 556.847C266.166 557.928 267.064 558.777 268.12 559.399C269.171 560.013 270.34 560.342 271.618 560.379C273.467 560.427 274.931 559.993 276.007 559.082C277.079 558.176 277.641 556.904 277.685 555.27C277.726 553.749 277.224 552.469 276.181 551.433C275.141 550.4 273.487 549.559 271.222 548.917C270.36 548.677 269.592 548.417 268.912 548.153C268.245 547.884 267.562 547.539 266.886 547.116C266.207 546.697 265.648 546.23 265.203 545.718C264.763 545.206 264.407 544.584 264.144 543.852C263.877 543.125 263.755 542.308 263.78 541.422C263.84 539.162 264.585 537.361 266.016 536.012C267.444 534.658 269.386 534.016 271.833 534.081C272.925 534.114 273.912 534.325 274.801 534.731C275.675 535.113 276.286 535.321 276.626 535.329C277.135 535.341 277.475 534.975 277.653 534.24L278.454 534.26L278.345 541.044L277.552 541.019C277.168 539.812 276.617 538.654 275.91 537.536C275.481 536.845 274.854 536.256 274.037 535.776C273.216 535.3 272.395 535.048 271.57 535.024C270.033 534.983 268.779 535.394 267.812 536.26C266.838 537.125 266.34 538.182 266.304 539.442C266.287 540.06 266.409 540.629 266.664 541.141C266.918 541.653 267.222 542.08 267.594 542.417C267.958 542.755 268.459 543.084 269.094 543.397C269.725 543.714 270.284 543.954 270.765 544.125C271.254 544.287 271.861 544.482 272.609 544.71C273.932 545.112 275.056 545.547 275.991 546.015C276.917 546.486 277.734 547.055 278.438 547.738C279.137 548.413 279.659 549.222 279.983 550.16C280.31 551.107 280.456 552.197 280.423 553.436C280.359 555.867 279.469 557.802 277.758 559.249C276.043 560.696 273.968 561.387 271.537 561.326C270.065 561.285 268.552 560.858 266.999 560.049C266.316 559.704 265.843 559.525 265.576 559.517C265.03 559.501 264.617 559.615 264.334 559.85C264.047 560.09 263.747 560.505 263.44 561.106L262.639 561.086L262.704 551.868ZM296.655 548.421C296.529 546.767 296.638 545.194 296.986 543.694C297.334 542.19 297.868 540.873 298.588 539.731C299.304 538.585 300.157 537.585 301.148 536.711C302.143 535.841 303.235 535.158 304.424 534.67C305.618 534.179 306.839 533.894 308.097 533.797C309.921 533.658 311.64 533.817 313.246 534.264C313.978 534.475 314.556 534.569 314.977 534.536C315.341 534.508 315.62 534.386 315.81 534.175C315.996 533.951 316.186 533.618 316.368 533.167L317.169 533.106L317.816 541.694L317.019 541.755C316.449 539.987 315.652 538.495 314.617 537.28C314.31 536.91 313.994 536.585 313.675 536.308C313.347 536.024 312.926 535.739 312.413 535.459C311.899 535.17 311.28 534.963 310.56 534.837C309.832 534.711 309.039 534.679 308.17 534.744C305.549 534.943 303.599 536.182 302.325 538.463C301.059 540.743 300.582 543.954 300.893 548.096C301.205 552.229 302.159 555.298 303.745 557.306C305.33 559.31 307.446 560.212 310.079 560.013C310.948 559.948 311.729 559.793 312.429 559.558C313.12 559.318 313.703 559.021 314.168 558.663C314.633 558.302 315.005 557.96 315.284 557.631C315.559 557.306 315.822 556.94 316.073 556.526C316.91 555.168 317.476 553.571 317.772 551.742L318.573 551.681L319.22 560.265L318.423 560.326C318.257 560.045 318.116 559.838 318.002 559.704C317.889 559.562 317.731 559.436 317.525 559.326C317.323 559.208 317.096 559.163 316.841 559.184C316.421 559.216 315.859 559.391 315.167 559.712C313.65 560.403 311.976 560.818 310.148 560.96C308.558 561.082 306.993 560.887 305.468 560.383C303.931 559.875 302.544 559.107 301.286 558.066C300.024 557.038 298.976 555.684 298.139 554.01C297.302 552.339 296.808 550.473 296.655 548.421ZM327.398 558.704L327.281 557.761L330.751 557.322L327.73 533.195L324.259 533.634L324.142 532.691L334.832 531.342L334.949 532.28L331.479 532.719L334.5 556.851L339.88 556.168C341.113 556.013 342.141 555.688 342.99 555.205C343.835 554.713 344.527 553.973 345.057 552.965C345.619 551.9 345.995 550.86 346.181 549.843C346.359 548.827 346.444 547.657 346.432 546.348L347.508 546.21L348.341 556.054L327.398 558.704ZM348.074 530.256L347.864 529.33L358.356 526.899L358.566 527.822L355.169 528.61L359.496 547.462C359.731 548.482 360.075 549.319 360.524 549.969C360.981 550.62 361.523 551.075 362.15 551.335C362.772 551.599 363.428 551.737 364.103 551.758C364.783 551.774 365.535 551.689 366.356 551.498C368.613 550.973 370.279 549.961 371.343 548.466C372.415 546.962 372.69 545.084 372.172 542.828L368.213 525.586L364.593 526.423L364.382 525.501L372.751 523.558L372.961 524.485L369.345 525.322L373.337 542.706C373.911 545.218 373.592 547.311 372.362 548.986C371.137 550.664 369.208 551.811 366.57 552.424C360.354 553.863 356.612 551.831 355.347 546.324L351.476 529.468L348.074 530.256ZM384.755 547.518L384.496 546.604L387.861 545.649L381.269 522.249L377.904 523.204L377.645 522.294L388.638 519.164C391.328 518.4 393.467 518.368 395.073 519.071C396.679 519.774 397.747 521.079 398.284 522.989C398.677 524.391 398.511 525.708 397.791 526.948C397.071 528.2 395.983 529.183 394.527 529.915L394.588 530.126C396.63 529.809 398.39 530.073 399.858 530.923C401.334 531.772 402.325 533.093 402.831 534.89C403.441 537.056 403.126 538.979 401.876 540.662C400.626 542.34 398.632 543.568 395.89 544.348L384.755 547.518ZM391.502 544.612L395.283 543.535C398.713 542.56 399.846 540.007 398.681 535.874C398.147 533.988 397.378 532.606 396.367 531.74C395.352 530.866 394.094 530.647 392.602 531.073L388.052 532.37L391.502 544.612ZM387.793 531.451L392.343 530.155C393.581 529.801 394.389 529.094 394.753 528.017C395.13 526.944 395.109 525.684 394.705 524.241C394.503 523.525 394.248 522.891 393.941 522.339C393.633 521.786 393.245 521.286 392.772 520.835C392.294 520.388 391.704 520.103 390.996 519.973C390.284 519.851 389.495 519.908 388.618 520.156L384.905 521.213L387.793 531.451Z" fill="white" stroke="white" stroke-width="1.44747"/>
<path fill-rule="evenodd" clip-rule="evenodd" d="M116.243 515.014C96.6751 506.877 77.2204 495.508 57.8182 480.218C42.7924 468.378 30.7312 453.058 22.0474 439.836C37.7649 453.989 53.6603 465.841 70.3769 476.811C81.9809 484.428 93.9855 491.619 106.597 498.858C113.638 502.898 119.192 505.292 120.191 507.418C120.676 511.844 119.078 514.417 116.243 515.014Z" fill="#FE5700"/>
<path fill-rule="evenodd" clip-rule="evenodd" d="M455.791 513.449C475.23 505.007 494.507 493.33 513.666 477.738C528.502 465.662 540.324 450.152 548.798 436.796C533.307 451.197 517.598 463.297 501.055 474.527C489.568 482.327 477.681 489.708 465.183 497.146C458.206 501.296 452.689 503.776 451.726 505.918C451.31 510.352 452.948 512.901 455.791 513.449Z" fill="#FE5700"/>
<path fill-rule="evenodd" clip-rule="evenodd" d="M548.126 334.593C548.952 330.919 549.372 326.098 548.774 321.574C548.195 317.18 546.658 313.059 543.609 310.539C544.567 307.999 546.234 305.442 548.353 303.45C550.116 301.8 552.195 300.54 554.448 300.016C555.933 302.093 556.932 304.548 557.453 307.117C558.129 310.425 558.012 313.925 557.13 317.042C560.256 315.307 562.97 313.587 565.733 312.299C569.62 310.486 573.604 309.523 578.979 310.567C579.068 313.555 578.247 316.424 576.844 318.993C575.363 321.696 573.236 324.07 570.825 325.915C568.111 327.996 564.985 329.585 561.826 330.748C563.193 328.419 563.686 327.13 564.058 325.671C564.337 324.574 564.552 323.383 565.021 321.582C563.067 321.964 560.883 323.168 558.707 324.745C554.638 327.691 550.594 331.943 548.126 334.593Z" fill="white"/>
<path fill-rule="evenodd" clip-rule="evenodd" d="M30.8607 342.336C30.0316 338.662 29.615 333.845 30.2136 329.317C30.792 324.923 32.3289 320.806 35.3786 318.282C34.42 315.746 32.7536 313.185 30.6342 311.198C28.8708 309.543 26.7918 308.283 24.5389 307.759C23.0546 309.836 22.0555 312.291 21.5338 314.86C20.8583 318.168 20.9756 321.668 21.8573 324.785C18.7308 323.054 16.0169 321.334 13.2544 320.042C9.36747 318.229 5.38349 317.266 0.00815108 318.31C-0.0808312 321.302 0.740232 324.167 2.14373 326.74C3.62407 329.439 5.75155 331.813 8.16216 333.662C10.8761 335.743 14.0026 337.333 17.1615 338.491C15.7944 336.166 15.301 334.874 14.9289 333.418C14.6498 332.317 14.4354 331.126 13.9662 329.325C15.9198 329.712 18.1039 330.911 20.2799 332.488C24.3488 335.434 28.3935 339.69 30.8607 342.336Z" fill="white"/>
</g>
<defs>
<clipPath id="clip0">
<path d="M0 0H578.987V561.618H0V0Z" fill="white"/>
</clipPath>
</defs>
</svg>
