<svg width="58" height="50" viewBox="0 0 58 50" fill="none" xmlns="http://www.w3.org/2000/svg">
<path fill-rule="evenodd" clip-rule="evenodd" d="M22.6105 21.295C20.9632 20.2075 19.8383 19.2242 18.7831 18.1213C17.9183 17.2177 17.1002 16.2328 16.0807 15.0448C15.1844 14.0004 14.2194 12.9968 12.8428 11.9609C13.8681 11.9014 15.0119 12.0938 16.12 12.4472C17.289 12.8198 18.5151 13.3907 19.5677 14.1683C20.8625 15.1245 21.8941 16.3938 22.2334 17.99C21.6717 17.4547 21.3051 16.937 20.7466 16.5102C20.1173 16.0292 19.6893 15.7416 19.0296 15.4291C19.746 16.4284 20.6108 17.518 21.3335 18.6512C21.8841 19.5139 22.353 20.402 22.6105 21.295V21.295Z" fill="#424B54"/>
<path fill-rule="evenodd" clip-rule="evenodd" d="M17.4846 10.2845C16.9654 8.93493 16.0645 8.03665 15.0119 7.38234C13.6111 6.51224 11.9413 6.07373 10.5442 5.58101C9.20058 5.10689 7.84962 4.48288 6.3471 3.05627C5.41989 2.17659 4.54512 1.15925 3.34887 0C2.80398 1.46435 2.86796 3.56706 3.51145 5.19512C3.76632 5.8388 4.11141 6.40806 4.54564 6.83434C4.84248 7.12615 5.18284 7.37065 5.57197 7.6008C5.27094 7.01134 4.93006 6.14708 4.74808 5.30036C4.62379 4.721 4.57291 4.15014 4.66102 3.68081C5.41621 4.58546 6.03296 5.07074 6.64603 5.45397C7.3986 5.92437 8.14593 6.24169 9.13922 6.9922C8.56233 7.14316 8.0531 7.08363 7.36766 6.93639C7.85906 7.68106 8.83557 8.37895 9.93899 8.96788C11.7121 9.91506 14.3149 10.7347 17.3929 12.2389C17.1086 11.6032 16.7174 11.052 16.2632 10.5805C15.508 9.79759 14.5771 9.23418 13.6667 8.86423C14.2908 8.81161 14.8818 8.99074 15.4551 9.25118C16.1489 9.56585 16.8165 9.99904 17.4846 10.2845V10.2845Z" fill="#424B54"/>
<path fill-rule="evenodd" clip-rule="evenodd" d="M5.40651 11.9391C4.62667 11.8296 4.12531 11.5952 3.77236 11.1562C3.53688 10.8628 3.36696 10.4785 3.22484 9.97938C3.14355 9.69448 3.08954 9.40108 3.05859 9.10821C3.43409 8.81959 4.03825 8.62665 4.62877 8.60858C5.22873 8.59051 5.81505 8.75369 6.13496 9.18103C5.43064 9.172 4.86372 9.44998 4.54433 9.85235C4.60989 10.6656 4.79764 11.2279 5.40651 11.9391Z" fill="#424B54"/>
<path fill-rule="evenodd" clip-rule="evenodd" d="M6.53521 15.9941C6.1036 15.9495 5.77844 15.7975 5.52199 15.5625C5.24194 15.3063 5.04423 14.9523 4.88113 14.5319C4.73323 14.1513 4.62887 13.7559 4.58691 13.4715C4.95297 13.387 5.43598 13.3487 5.91427 13.3801C6.4471 13.4152 6.97417 13.5363 7.32816 13.7761C7.58724 13.9515 7.77184 14.2146 7.81747 14.6244C7.3633 14.7317 6.70356 14.77 6.2132 14.6871C6.44553 15.0942 6.51318 15.5832 6.53521 15.9941V15.9941Z" fill="#424B54"/>
<path fill-rule="evenodd" clip-rule="evenodd" d="M9.07131 13.2089C8.6911 13.1531 8.39007 12.9527 8.15984 12.679C7.86405 12.3271 7.68522 11.8546 7.60708 11.4108C7.55935 11.1391 7.52946 10.8633 7.4917 10.6018C7.90391 10.5359 8.39426 10.5582 8.85892 10.6693C9.29997 10.7751 9.71795 10.9606 10.0242 11.2258C10.2796 11.4474 10.4422 11.744 10.4034 12.1639C10.0819 12.0789 9.85063 11.955 9.59733 11.8737C9.38178 11.8046 9.14946 11.7658 8.83112 11.8078C8.8049 11.9922 8.82902 12.2064 8.87255 12.4238C8.92814 12.7008 9.0152 12.9819 9.07131 13.2089V13.2089Z" fill="#424B54"/>
<path fill-rule="evenodd" clip-rule="evenodd" d="M14.5344 19.5691C13.4001 19.5521 12.3197 19.6983 11.542 20.0231C12.5463 21.0154 12.6465 23.6879 13.7515 25.1129C15.5765 27.9853 19.1574 27.2087 21.0837 24.8838C20.2047 25.8257 19.0163 26.3721 17.8573 26.5162C16.659 26.665 15.5587 26.2775 14.7448 25.5568C13.8904 24.8009 13.3099 23.4641 13.2968 22.2087C13.2915 21.6889 13.398 21.1318 13.6261 20.6423C13.8296 20.2048 14.1301 19.8221 14.5344 19.5691V19.5691Z" fill="#424B54"/>
<path fill-rule="evenodd" clip-rule="evenodd" d="M14.5689 17.595C14.1205 17.4829 13.6721 17.1953 13.253 16.8201C12.738 16.3731 12.318 15.9144 11.8801 15.3185C11.5596 14.8598 11.3042 14.4543 11.2969 13.97C11.4663 13.7021 11.7322 13.7569 12.0232 13.9536C12.5408 14.3022 12.9085 14.7599 13.3349 15.2032C13.5137 15.3887 13.9553 15.7985 14.3554 16.0919C14.8274 16.4379 15.0052 16.8966 14.9638 17.2161C14.9339 17.4441 14.7933 17.6009 14.5689 17.595V17.595Z" fill="#424B54"/>
<path fill-rule="evenodd" clip-rule="evenodd" d="M28.6016 25.8433C28.3739 25.8565 28.1851 25.9304 28.0493 26.2446C27.7792 26.868 27.7289 27.8328 27.6051 28.5445C27.41 29.666 27.1819 30.7429 26.7608 31.7979C26.7492 31.8506 26.9323 32.3922 27.1436 32.987C27.3838 33.6636 27.6597 34.4083 27.7257 34.5773C27.893 35.0067 28.0672 35.4325 28.236 35.8343C28.3954 36.2128 28.5449 36.5333 28.6016 36.5561V25.8433Z" fill="#424B54"/>
<path fill-rule="evenodd" clip-rule="evenodd" d="M12.2612 24.2439C12.3032 24.9418 12.4422 25.6062 12.7133 26.1967C13.0358 26.8978 13.5451 27.4947 14.3013 27.9205C15.0722 28.3542 15.99 28.4217 16.9927 27.9231C16.1552 27.9061 15.3664 27.837 14.6123 27.4586C13.8209 27.061 13.3148 26.5714 12.9488 25.9613C12.6551 25.4712 12.4511 24.9035 12.2612 24.2439V24.2439Z" fill="#424B54"/>
<path fill-rule="evenodd" clip-rule="evenodd" d="M21.3382 22.269C21.1468 22.0483 20.9381 21.8427 20.7151 21.6516C20.7222 21.7265 20.7258 21.8023 20.7258 21.8792C20.7258 23.1878 19.679 24.2482 18.3884 24.2482C17.0977 24.2482 16.0509 23.1878 16.0509 21.8792C16.0509 21.0677 16.4536 20.3513 17.0676 19.9246C16.8851 19.8834 16.7002 19.8463 16.5137 19.8137C15.7943 20.3265 15.3308 21.1345 15.3308 22.0434C15.3308 22.1907 15.3429 22.3352 15.3665 22.4766C15.2768 22.1838 15.2286 21.8739 15.2286 21.5528C15.2286 20.8703 15.4465 20.2372 15.8184 19.7136C15.7634 19.7074 15.7085 19.7016 15.6535 19.6962C15.5769 19.6888 15.5004 19.6819 15.4238 19.676L15.2591 19.7791C15.1464 19.8498 15.0158 19.9955 14.8889 20.1666C14.7022 20.4186 14.5365 20.7141 14.4342 20.9341C14.3424 21.1319 14.2737 21.3445 14.2281 21.5619C14.1793 21.7947 14.1562 22.027 14.1583 22.2481C14.1646 22.8498 14.2868 23.41 14.5029 23.9032C14.7211 24.4002 15.0368 24.8281 15.4275 25.1592C15.8093 25.4824 16.244 25.6961 16.7061 25.813C17.2106 25.9406 17.7513 25.9544 18.2941 25.8709C19.2087 25.7301 20.1202 25.3144 20.8743 24.7C21.3442 24.3168 21.7512 23.8575 22.0575 23.3414C21.9616 23.149 21.854 22.965 21.7362 22.7892C21.2678 23.8889 20.1933 24.6878 18.9128 24.7978C20.2229 24.562 21.2301 23.5335 21.3382 22.269Z" fill="#424B54"/>
<path fill-rule="evenodd" clip-rule="evenodd" d="M10.5292 18.8191C10.0792 18.5427 9.48134 18.125 8.93854 17.6535C8.49015 17.2639 8.00137 16.6867 7.73862 16.0908C7.62429 15.832 7.55664 15.6422 7.52832 15.3345C8.13405 15.166 8.72929 15.1617 9.29516 15.2951C9.86523 15.4301 10.4059 15.706 10.8989 16.0967C11.3379 16.4443 11.6955 16.8764 11.8434 17.3543C11.9163 17.5924 11.9394 17.8502 11.8917 18.1345C11.4066 17.8342 11.0096 17.4616 10.5675 17.1544C10.2921 16.9631 9.99791 16.7845 9.65702 16.6654C9.93498 16.9981 10.1568 17.3043 10.3666 17.7215C10.4925 18.0288 10.6057 18.3939 10.5292 18.8191Z" fill="#424B54"/>
<path fill-rule="evenodd" clip-rule="evenodd" d="M25.1005 19.1317C24.6595 19.1545 24.2845 18.9908 23.9677 18.7208C23.3457 18.1898 22.901 17.2724 22.6514 16.3624C22.546 15.9771 22.5119 15.5412 22.4343 15.1325C22.3545 14.7158 22.2297 14.3272 21.936 14.0476C22.6729 13.7362 23.4774 13.9589 24.1266 14.4325C24.6825 14.8386 25.1252 15.4291 25.3129 16.027C25.455 16.481 25.4188 16.97 25.0575 17.4818C24.9631 17.0056 24.7413 16.616 24.5084 16.2715C24.3364 16.018 24.0925 15.8357 23.845 15.7384C23.9677 16.2529 24.0857 16.7685 24.2389 17.2703C24.4376 17.9241 24.6962 18.555 25.1005 19.1317V19.1317Z" fill="#424B54"/>
<path fill-rule="evenodd" clip-rule="evenodd" d="M20.5731 13.1324C20.1766 12.9166 19.7822 12.6444 19.4985 12.3138C19.0554 11.701 18.7087 10.892 18.5503 10.0596C18.4103 9.31974 18.4182 8.56125 18.6405 7.90588C19.487 8.24819 20.206 8.80575 20.8023 9.48345C21.268 10.0134 21.8407 10.8325 22.1585 11.6638C22.3478 12.1581 22.4475 12.6572 22.3808 13.1021C22.0809 13.0298 21.741 12.7401 21.4106 12.3792C20.915 11.8376 20.4404 11.1344 20.1546 10.7623C20.2443 11.1413 20.389 11.592 20.4881 12.0342C20.5752 12.4254 20.6266 12.8097 20.5731 13.1324V13.1324Z" fill="#424B54"/>
<path fill-rule="evenodd" clip-rule="evenodd" d="M22.7514 11.3407C22.4834 11.1163 22.2999 10.7395 22.1803 10.3276C22.0382 9.83803 21.9858 9.298 21.9884 8.90521C21.992 8.43056 22.0896 7.96228 22.3062 7.5849C22.8747 7.79645 23.236 8.23495 23.5486 8.63626C23.8764 9.05669 24.0767 9.56642 24.0993 10.2718C24.1097 10.6056 24.0809 10.9983 23.986 11.2646C23.8092 11.1828 23.6346 10.9611 23.4741 10.6964C23.2334 10.2999 23.0257 9.80614 22.8946 9.53985C22.904 9.78541 22.893 10.0134 22.9004 10.2994C22.9067 10.5519 22.8238 11.1477 22.7514 11.3407V11.3407Z" fill="#424B54"/>
<path fill-rule="evenodd" clip-rule="evenodd" d="M26.3966 13.8339C26.4726 13.5347 26.5203 13.211 26.4884 12.9165C26.3908 12.4121 26.1532 11.8662 25.8171 11.4043C25.5187 10.994 25.1426 10.6501 24.7194 10.4614C24.4986 11.045 24.4425 11.6632 24.5013 12.275C24.5479 12.7528 24.6869 13.4172 24.9486 13.9589C25.1044 14.281 25.3036 14.56 25.5522 14.7306C25.6545 14.5467 25.6687 14.2422 25.643 13.91C25.6047 13.4119 25.4778 12.8501 25.4258 12.5349C25.5706 12.7544 25.7253 13.034 25.8973 13.287C26.0489 13.5102 26.2141 13.7128 26.3966 13.8339V13.8339Z" fill="#424B54"/>
<path fill-rule="evenodd" clip-rule="evenodd" d="M28.523 19.3443C28.7663 18.9733 28.8518 18.4492 28.8476 17.906C28.8424 17.2607 28.7097 16.5878 28.5644 16.1137C28.3887 15.5402 28.1013 15.0102 27.7022 14.6345C27.0907 15.1017 26.8128 15.7661 26.5794 16.3683C26.335 16.9987 26.2773 17.6907 26.5054 18.5518C26.6135 18.9595 26.7902 19.424 27.0021 19.7116C27.1856 19.5468 27.3173 19.2135 27.4154 18.8335C27.5627 18.2642 27.6356 17.5892 27.698 17.2187C27.7756 17.519 27.8711 17.7912 27.966 18.1393C28.0494 18.4476 28.3656 19.1381 28.523 19.3443V19.3443Z" fill="#424B54"/>
<path fill-rule="evenodd" clip-rule="evenodd" d="M27.8569 22.8253C27.6644 22.3081 27.345 21.8388 26.9402 21.4704C26.4912 21.0622 25.9327 20.8135 25.3417 20.6934C24.7134 20.5653 24.0484 20.5823 23.4385 20.7066C23.4563 21.4938 23.7725 22.2459 24.2613 22.871C24.6258 23.3372 25.3364 23.9133 26.0806 24.2381C26.6968 24.5065 27.3366 24.6032 27.8223 24.3221C27.8223 24.3189 27.1048 23.6662 26.5164 23.023C26.0932 22.5601 25.7576 22.1604 25.6653 21.9658C25.9574 21.9828 26.2726 22.0907 26.572 22.2247C27.1452 22.4809 27.6628 22.8322 27.8569 22.8253Z" fill="#424B54"/>
<path fill-rule="evenodd" clip-rule="evenodd" d="M26.9871 12.1262C26.8214 11.6627 26.5308 11.103 26.1506 10.6475C25.7803 10.2047 25.3257 9.86081 24.8169 9.80022C24.7451 9.4526 24.7477 9.05237 24.8405 8.68296C24.9176 8.37627 25.0566 8.09031 25.2664 7.87238C25.5727 7.99516 25.8527 8.19448 26.0892 8.44005C26.3934 8.75631 26.6247 9.14964 26.7458 9.55519C26.9661 9.14219 27.1423 8.76056 27.3537 8.42251C27.651 7.9468 28.0187 7.55772 28.6779 7.29089C28.8961 7.61353 29.0067 7.98719 29.0324 8.36989C29.0597 8.77225 28.9931 9.18472 28.8588 9.55891C28.7078 9.98094 28.4775 10.3775 28.2138 10.7299C28.2006 10.3764 28.1645 10.1994 28.1031 10.0128C28.0575 9.87198 27.9977 9.72581 27.9232 9.49406C27.737 9.67531 27.5823 9.96287 27.4549 10.2903C27.2168 10.9037 27.072 11.659 26.9871 12.1262V12.1262Z" fill="#424B54"/>
<path fill-rule="evenodd" clip-rule="evenodd" d="M5.53418 22.1491C5.68732 21.6357 6.05442 21.2657 6.50439 21.0048C7.15837 20.6253 7.98961 20.4743 8.59901 20.4429C9.14495 20.4148 9.98983 20.511 10.4099 20.9899C9.91745 21.0978 9.32326 21.1275 8.89007 21.4289C9.10405 21.523 9.12188 21.5772 9.34791 21.7298C9.76799 22.0125 10.2384 22.2884 10.8725 22.1582C10.713 22.4649 10.1597 22.7285 9.73128 22.7854C8.96979 22.8874 8.2513 22.7939 7.54908 22.6408C6.87045 22.4925 6.20651 22.2884 5.53418 22.1491V22.1491Z" fill="#424B54"/>
<path fill-rule="evenodd" clip-rule="evenodd" d="M3.90381 25.8433C4.31654 25.1842 5.23536 24.5448 5.86207 24.1738C6.43371 23.8362 7.2875 23.5508 8.12765 23.4838C8.94368 23.4195 9.74713 23.5609 10.2674 24.0611C9.59294 24.2274 8.78845 24.2503 8.25876 24.6463C8.51521 24.8796 8.86764 25.0035 9.18912 25.0428C9.78226 25.1156 10.2537 25.1486 10.786 25.0343C10.5841 25.4367 10.0744 25.7322 9.5127 25.9076C8.80942 26.1271 7.81823 26.1936 6.8155 26.1675C5.74827 26.1399 4.66739 26.007 3.90381 25.8433V25.8433Z" fill="#424B54"/>
<path fill-rule="evenodd" clip-rule="evenodd" d="M4.58154 30.3266C4.90145 29.5788 5.42904 28.9314 6.07882 28.4078C6.80727 27.8205 7.69043 27.3884 8.60662 27.1439C9.41793 26.9275 10.2644 26.8196 11.0736 26.8946C10.4097 27.2783 9.5202 27.627 9.0545 28.2388C9.39171 28.285 9.88888 28.2505 10.3908 28.1729C10.9582 28.0852 11.5314 27.9411 11.8839 27.7955C11.7485 28.2383 11.2372 28.6231 10.6142 28.9399C9.73312 29.389 8.62813 29.7032 8.04652 29.8573C6.91216 30.1576 5.71801 30.2777 4.58154 30.3266V30.3266Z" fill="#424B54"/>
<path fill-rule="evenodd" clip-rule="evenodd" d="M7.29714 19.5293C6.75697 19.44 6.02013 19.2794 5.31895 19.0589C4.73944 18.876 4.054 18.5518 3.58358 18.1441C3.37905 17.9671 3.24531 17.8321 3.10791 17.5892C3.64389 17.2676 4.22707 17.0826 4.83122 17.0205C5.4401 16.9572 6.06995 17.0189 6.69351 17.1884C7.24837 17.3399 7.75393 17.5849 8.06912 17.9315C8.2254 18.1037 8.3392 18.3078 8.39374 18.555C7.81004 18.4566 7.28717 18.2722 6.74333 18.1553C6.40402 18.0824 6.05159 18.0256 5.67452 18.032C6.06628 18.2196 6.39248 18.403 6.74753 18.6804C6.98038 18.8936 7.2211 19.1583 7.29714 19.5293V19.5293Z" fill="#424B54"/>
<path fill-rule="evenodd" clip-rule="evenodd" d="M4.81254 21.101C4.13391 20.3218 2.88312 20.9043 2.39959 21.2418C1.85365 21.6235 1.21907 22.5584 1.18604 23.5295C1.62709 23.5683 2.18405 23.5609 2.46829 23.5189C3.07402 23.4301 3.5822 22.9321 4.60434 23.2042C4.74436 23.234 4.60014 22.7365 4.21887 22.4893C3.88218 22.2879 3.56647 22.2512 3.17629 22.1513C3.37085 21.9264 3.54497 21.7245 3.73691 21.5581C4.01801 21.3141 4.33687 21.1472 4.81254 21.101V21.101Z" fill="#424B54"/>
<path fill-rule="evenodd" clip-rule="evenodd" d="M3.74161 24.5729C3.14952 24.0876 1.88614 24.6006 1.02081 25.5743C0.302855 26.3822 -0.122467 27.5261 0.164927 28.5062C0.613848 28.1639 1.23793 27.9396 1.51064 27.8508C2.09329 27.6606 3.41856 27.4357 4.54663 27.3709C4.68928 27.3762 3.86905 26.8335 3.43009 26.6852C3.06508 26.5433 2.52911 26.5337 2.12738 26.5013C2.13892 26.2159 2.29258 25.8911 2.45411 25.6955C2.69116 25.4069 3.2801 24.6994 3.74161 24.5729V24.5729Z" fill="#424B54"/>
<path fill-rule="evenodd" clip-rule="evenodd" d="M0.0823565 33.4074C-0.0865133 32.66 0.0168018 31.8824 0.278498 31.1431C0.59054 30.4133 0.932474 29.8982 1.39556 29.4597C2.02488 29.0058 3.12201 29.1179 3.32812 29.6585C3.44874 30.4797 2.37678 31.1324 1.78836 31.648C1.14382 32.229 0.65085 32.6574 0.0823565 33.4074Z" fill="#424B54"/>
<path fill-rule="evenodd" clip-rule="evenodd" d="M7.4942 32.8976C7.10402 34.0239 5.95549 35.0072 5.22547 35.7237C4.62236 36.3158 3.11512 37.2354 2.31483 37.5436C1.96712 37.6781 1.71696 37.7531 1.33412 37.7605C1.29846 36.7118 1.3572 35.8943 1.62991 35.1316C1.91573 34.3327 2.40555 33.6104 3.00604 33.0422C3.60285 32.4777 4.3098 32.0658 5.03457 31.8824C5.34452 31.8042 5.66495 31.7995 5.99692 31.8967C5.18561 32.4075 4.62656 32.9215 4.24372 33.511C3.98097 33.9155 3.75127 34.2514 3.56667 34.8961C3.87399 34.7292 4.4451 34.3699 5.06237 34.001C6.05146 33.4105 7.15908 32.7945 7.4942 32.8976V32.8976Z" fill="#424B54"/>
<path fill-rule="evenodd" clip-rule="evenodd" d="M10.5644 36.0815C10.5319 36.1283 9.17985 37.3508 7.82994 38.7811C7.00657 39.6528 6.05104 40.8046 5.78252 41.2261C5.49251 41.6806 5.20354 42.1558 4.94657 42.7325C4.53803 41.8002 4.55376 40.5091 4.62718 39.5683C4.7006 38.6206 5.00163 37.6851 5.49408 36.8001C5.93251 36.0113 6.52146 35.3331 7.23365 34.9813C7.58765 34.8064 7.9857 34.7081 8.44144 34.716C8.03604 35.222 7.44657 35.9731 7.04905 36.7491C6.70921 37.4119 6.52146 37.8318 6.63421 38.4415C6.85291 37.928 7.31599 37.3519 7.88553 36.8868C8.69631 36.225 9.72264 35.7892 10.5644 36.0815Z" fill="#424B54"/>
<path fill-rule="evenodd" clip-rule="evenodd" d="M15.8507 37.3056C15.9006 38.4978 13.3518 41.334 12.7251 42.1441C12.1445 42.8941 11.1816 43.8519 10.5513 44.4392C10.278 44.6938 9.71793 45.2099 9.3655 45.3609C8.94857 44.4004 8.77236 43.2975 8.74614 42.4869C8.71939 41.6375 8.90976 40.7823 9.25957 40.0291C9.60727 39.2807 10.1128 38.6323 10.7191 38.1901C10.9787 38.0003 11.2745 37.8759 11.6185 37.8414C11.0516 38.6206 10.7207 39.3079 10.5806 39.9994C10.4847 40.474 10.3945 40.8721 10.4584 41.5403C10.6829 41.2697 11.082 40.7217 11.5204 40.1466C11.9027 39.6454 12.896 38.7641 13.8563 38.1725C14.6571 37.6787 15.4312 37.4374 15.8507 37.3056Z" fill="#424B54"/>
<path fill-rule="evenodd" clip-rule="evenodd" d="M19.7663 39.0952C19.973 40.5872 19.1271 42.6022 18.1306 44.2946C17.5113 45.3459 17.0199 46.0396 16.411 46.7051C16.0486 47.1016 15.6442 47.4885 15.1466 47.9355C14.6331 47.024 14.3672 45.6781 14.2587 44.8745C14.1443 44.0325 14.2461 43.1619 14.5172 42.3758C14.6861 41.8857 14.9897 41.1873 15.3742 40.6122C15.7124 40.1062 16.1136 39.6958 16.5405 39.6071C16.2967 40.028 16.1692 40.9508 16.143 41.815C16.1257 42.405 16.1551 42.9674 16.2269 43.324C16.6527 42.9828 17.9476 41.3457 18.2874 40.8237C18.7946 40.0445 19.3678 39.2685 19.7663 39.0952Z" fill="#424B54"/>
<path fill-rule="evenodd" clip-rule="evenodd" d="M23.9385 40.1816C24.6218 40.8094 24.4194 43.1518 23.9757 45.1493C23.7088 46.35 23.3196 47.4061 23.0532 47.9302C22.8193 48.3889 22.4978 48.8545 21.9681 49.4063C21.2906 48.5595 20.7944 47.2249 20.5495 46.4191C20.2926 45.5756 20.2522 44.6656 20.3995 43.8136C20.4913 43.282 20.6869 42.514 20.9853 41.8591C21.2486 41.283 21.5911 40.7934 22.0143 40.6297C21.8339 41.1028 21.8564 42.0707 21.9734 42.9615C22.0536 43.5691 22.1769 44.1404 22.3101 44.4939C22.6898 44.0719 22.9908 42.8611 23.2525 42.2673C23.6432 41.3818 23.6862 40.6085 23.9385 40.1816V40.1816Z" fill="#424B54"/>
<path fill-rule="evenodd" clip-rule="evenodd" d="M28.1944 41.8384C29.2098 42.422 29.4982 43.9465 29.4426 45.3869C29.4059 46.3426 29.2176 47.2616 28.9905 47.8446C28.8096 48.3087 28.5605 48.7509 28.2154 49.1931C27.4712 48.803 26.801 47.8547 26.3699 46.8544C26.0537 46.1199 25.8659 45.3566 25.8722 44.7661C25.8775 44.276 25.868 43.669 25.943 43.0992C26.0102 42.5927 26.1444 42.1148 26.4161 41.7741C26.3872 41.8964 26.7119 42.7303 27.0575 43.534C27.3511 44.2186 27.6611 44.8814 27.7812 45.0653C28.0387 44.7113 28.142 43.922 28.1803 43.1699C28.206 42.6602 28.2013 42.1669 28.1944 41.8384V41.8384Z" fill="#424B54"/>
<path fill-rule="evenodd" clip-rule="evenodd" d="M25.5908 25.476C25.2337 25.1082 24.6783 25.1289 24.3715 25.2469C23.9383 25.4127 23.6022 25.7253 23.3489 26.1053C23.1396 26.4194 22.9875 26.7803 22.8853 27.1423C23.148 27.2725 23.7668 27.3087 24.3584 27.2635C24.6437 27.2422 25.1451 27.1497 25.5594 26.9595C25.9496 26.7803 26.2632 26.5146 26.2474 26.1388C25.8253 26.1824 25.5337 26.1903 25.229 26.1845C24.9993 26.1802 24.7612 26.1691 24.4539 26.16C24.5199 26.0468 24.6385 25.9501 24.7748 25.8672C25.1126 25.662 25.5594 25.5429 25.5908 25.476V25.476Z" fill="#424B54"/>
<path fill-rule="evenodd" clip-rule="evenodd" d="M22.4588 27.897C22.0419 27.7572 21.5709 27.8141 21.1886 28.0267C20.8634 28.2069 20.6516 28.4764 20.5225 28.7879C20.3694 29.1594 20.3338 29.591 20.3657 30.0061C20.6495 30.0752 21.3674 29.9503 21.9349 29.776C22.2086 29.692 22.678 29.4911 23.0414 29.2141C23.3839 28.9532 23.8742 28.4716 23.7783 28.108C23.3954 28.2372 22.9733 28.4121 22.55 28.5343C22.2946 28.6082 22.0387 28.6635 21.7906 28.6778C21.82 28.5099 21.8913 28.4073 22.0067 28.293C22.1882 28.1128 22.3764 27.9603 22.4588 27.897V27.897Z" fill="#424B54"/>
<path fill-rule="evenodd" clip-rule="evenodd" d="M17.5505 29.5182C16.9746 29.3258 16.4387 29.4422 15.9111 29.7351C15.4013 30.0184 15.0882 30.3819 14.8842 30.8072C14.6503 31.2962 14.5601 31.866 14.4814 32.4894C14.912 32.5038 16.0448 32.3512 16.8278 32.111C17.2049 31.9946 17.8525 31.7177 18.3544 31.3355C18.8264 30.9756 19.503 30.3107 19.3708 29.8095C18.8427 29.9881 18.26 30.2289 17.6763 30.3979C17.3239 30.4999 16.9704 30.5759 16.629 30.5956C16.6689 30.3639 16.7675 30.2225 16.9269 30.0646C17.1776 29.8164 17.4361 29.6059 17.5505 29.5182V29.5182Z" fill="#424B54"/>
<path fill-rule="evenodd" clip-rule="evenodd" d="M11.734 30.2369C11.1131 30.0503 10.5435 30.1922 9.98919 30.5228C9.45374 30.8423 9.13068 31.2415 8.92668 31.7023C8.69225 32.2322 8.53859 32.9897 8.47461 33.6588C9.37822 33.6408 10.2315 33.4675 11.0244 33.1337C11.5997 32.8913 12.1431 32.565 12.6518 32.152C13.1448 31.7523 14.0804 30.3767 13.9225 29.8452C12.9345 30.3395 12.6644 30.7992 11.8808 31.1532C11.5966 31.2813 11.2494 31.3775 10.7842 31.4185C10.8194 31.1697 10.9201 31.0156 11.0853 30.8412C11.3449 30.568 11.615 30.3342 11.734 30.2369Z" fill="#424B54"/>
<path fill-rule="evenodd" clip-rule="evenodd" d="M17.3535 32.8142C17.3036 33.3 15.9836 34.5916 14.6327 35.5728C13.8785 36.1208 12.9534 36.5726 12.622 36.7337C12.2968 36.8915 11.9769 37.018 11.6932 37.0914C11.5138 36.5179 11.497 35.8811 11.5495 35.4203C11.604 34.9377 11.7954 34.4673 12.0776 34.0665C12.3582 33.6678 12.7289 33.3367 13.1448 33.1299C13.3226 33.0417 13.5182 32.9923 13.7359 32.9971C13.5308 33.1927 13.2959 33.5998 13.128 34.0064C13.0016 34.312 12.9135 34.6177 12.9046 34.8335C13.3577 34.4524 13.4254 34.3854 13.686 34.1951C14.0615 33.9214 14.4113 33.7508 15.2342 33.4143C15.7765 33.1927 17.0802 32.8589 17.3535 32.8142V32.8142Z" fill="#424B54"/>
<path fill-rule="evenodd" clip-rule="evenodd" d="M24.4926 34.9058C24.6903 35.3049 24.7118 35.837 24.642 36.3765C24.5592 37.018 24.3462 37.6702 24.1443 38.1241C23.8999 38.6732 23.5501 39.1643 23.108 39.4891C22.5563 38.9485 22.3597 38.2528 22.2002 37.625C22.0334 36.9675 22.0591 36.2723 22.3901 35.4437C22.5469 35.0514 22.7787 34.6113 23.0241 34.3514C23.1872 34.5385 23.2774 34.8861 23.3293 35.2762C23.4075 35.8609 23.398 36.5413 23.4159 36.9176C23.5292 36.6284 23.6566 36.3696 23.7935 36.0347C23.9136 35.7392 24.3116 35.0913 24.4926 34.9058V34.9058Z" fill="#424B54"/>
<path fill-rule="evenodd" clip-rule="evenodd" d="M21.4517 33.4164C21.4129 34.1191 21.1407 34.8696 20.7804 35.5596C20.353 36.3797 19.8007 37.1148 19.3675 37.5847C18.8436 38.1523 18.2552 38.56 17.6736 38.6658C17.4675 37.4943 17.6705 36.3834 17.8697 35.3948C18.079 34.3594 18.4839 33.4212 19.2401 32.5346C19.5988 32.1147 20.0514 31.6869 20.4175 31.5184C20.4636 31.9021 20.3556 32.4512 20.1883 33.029C19.9387 33.8954 19.5563 34.8261 19.366 35.3586C19.6282 35.0472 19.8867 34.7894 20.1946 34.4333C20.4668 34.1181 21.1847 33.5323 21.4517 33.4164V33.4164Z" fill="#424B54"/>
<path fill-rule="evenodd" clip-rule="evenodd" d="M27.6044 37.4762C27.8609 37.818 27.9721 38.2458 27.9962 38.67C28.025 39.1739 27.9312 39.6724 27.8142 40.0126C27.6731 40.4246 27.4204 40.7785 27.0512 40.989C26.4307 40.4947 26.1245 39.9159 25.8654 39.3961C25.5943 38.8512 25.5014 38.2974 25.6787 37.6718C25.7626 37.3752 25.911 37.0488 26.1019 36.8687C26.2902 37.0366 26.436 37.3247 26.5514 37.6426C26.725 38.1193 26.8309 38.6625 26.9117 38.966C26.9714 38.7471 27.0501 38.5541 27.1246 38.3016C27.1901 38.0784 27.4618 37.6043 27.6044 37.4762V37.4762Z" fill="#424B54"/>
<path fill-rule="evenodd" clip-rule="evenodd" d="M24.7731 30.838C24.9613 31.1628 25.0059 31.5465 24.9718 31.9181C24.9314 32.3592 24.7804 32.7823 24.6288 33.0656C24.4463 33.4085 24.1699 33.6891 23.8065 33.8316C23.3078 33.3351 23.1059 32.7983 22.9396 32.3183C22.765 31.8155 22.7534 31.3238 22.9973 30.7992C23.1127 30.5505 23.2905 30.2831 23.4882 30.147C23.6366 30.3134 23.731 30.5797 23.7944 30.8683C23.8888 31.3015 23.914 31.7857 23.9471 32.0579C24.0299 31.874 24.1275 31.715 24.2282 31.5035C24.3168 31.3164 24.6267 30.9342 24.7731 30.838V30.838Z" fill="#424B54"/>
<path fill-rule="evenodd" clip-rule="evenodd" d="M34.8114 21.2796C36.703 20.5455 37.8526 19.4336 38.8475 18.1914C39.6751 17.1581 40.3956 16.0345 41.348 14.9635C42.1751 14.0333 43.0194 12.7109 44.2891 11.7887C43.7704 11.7594 42.5191 12.275 41.3024 12.8714C40.1596 13.4316 39.0468 14.0631 38.6 14.382C37.4058 15.2335 34.793 17.9246 34.4805 19.3459C35.1035 19.221 36.456 18.1165 37.014 17.6455C37.5002 17.2352 37.495 17.3277 38.0577 16.9264C37.6916 17.6025 37.849 17.35 37.1824 18.3588C36.6742 19.1269 35.0495 20.4844 34.8114 21.2796V21.2796Z" fill="#424B54"/>
<path fill-rule="evenodd" clip-rule="evenodd" d="M39.7231 10.2844C40.2423 8.9349 41.1433 8.03663 42.1964 7.38232C43.5967 6.51222 45.267 6.07371 46.6636 5.58098C47.7586 5.19457 49.484 4.6742 50.943 3.71161C51.7465 3.18115 52.4665 2.42213 52.9831 1.77527C53.2055 2.37164 52.9511 3.03604 52.5169 3.64358C51.9515 4.43395 51.082 5.12866 50.5618 5.45395C49.8092 5.92435 49.0619 6.24167 48.0691 6.99218C48.6454 7.14314 49.1552 7.0836 49.8401 6.93637C49.3487 7.68104 48.3727 8.37893 47.2693 8.96786C45.4957 9.91504 42.8934 10.7346 39.8149 12.2389C40.0997 11.6032 40.4904 11.052 40.9451 10.5805C41.6998 9.79757 42.6306 9.23415 43.5411 8.86421C42.9175 8.81159 42.3265 8.99071 41.7527 9.25116C41.0594 9.56582 40.3913 9.99902 39.7231 10.2844V10.2844Z" fill="#424B54"/>
<path fill-rule="evenodd" clip-rule="evenodd" d="M44.9468 24.2438C44.9049 24.9417 44.7659 25.6061 44.4948 26.1967C44.1722 26.8977 43.663 27.4946 42.9073 27.9204C42.1358 28.3541 41.2181 28.4216 40.2153 27.923C41.0529 27.906 41.8416 27.8369 42.5958 27.4585C43.3877 27.0609 43.8932 26.5714 44.2593 25.9612C44.5535 25.4711 44.757 24.9035 44.9468 24.2438V24.2438Z" fill="#424B54"/>
<path fill-rule="evenodd" clip-rule="evenodd" d="M35.8701 22.2686C36.0613 22.048 36.27 21.8425 36.4929 21.6515C36.4857 21.7264 36.482 21.8023 36.482 21.8791C36.482 23.1878 37.5288 24.2482 38.8194 24.2482C40.1106 24.2482 41.1569 23.1878 41.1569 21.8791C41.1569 21.0677 40.7542 20.3513 40.1403 19.9246C40.3229 19.8833 40.5079 19.8463 40.6946 19.8136C41.4135 20.3264 41.8775 21.1344 41.8775 22.0433C41.8775 22.1906 41.8649 22.3352 41.8418 22.4765C41.931 22.1837 41.9797 21.8738 41.9797 21.5528C41.9797 20.8702 41.7618 20.2371 41.3895 19.7136C41.4446 19.7074 41.4997 19.7016 41.5548 19.6962C41.6314 19.6887 41.708 19.6818 41.7845 19.676L41.9487 19.7791C42.0614 19.8498 42.192 19.9954 42.3189 20.1666C42.5062 20.4185 42.6714 20.714 42.7736 20.9341C42.8659 21.1318 42.9346 21.3444 42.9802 21.5618C43.029 21.7946 43.0516 22.0269 43.0495 22.248C43.0432 22.8497 42.9215 23.4099 42.7049 23.9032C42.4867 24.4002 42.1716 24.828 41.7803 25.1592C41.3991 25.4823 40.9638 25.696 40.5017 25.8129C39.9972 25.9405 39.4565 25.9543 38.9137 25.8709C37.9991 25.73 37.0876 25.3144 36.334 24.6999C35.8641 24.3167 35.4572 23.8575 35.1509 23.3414C35.2467 23.1489 35.3542 22.9649 35.4721 22.789C35.9399 23.8888 37.0149 24.6877 38.295 24.7977C36.9848 24.5619 35.978 23.5333 35.8701 22.2686Z" fill="#424B54"/>
<path fill-rule="evenodd" clip-rule="evenodd" d="M29.3511 22.8252C29.5435 22.3081 29.8629 21.8387 30.2683 21.4704C30.7167 21.0622 31.2752 20.8134 31.8663 20.6933C32.4946 20.5652 33.1601 20.5822 33.7695 20.7066C33.7522 21.4938 33.4359 22.2459 32.9472 22.8709C32.5827 23.3371 31.8721 23.9133 31.1274 24.238C30.5111 24.5064 29.8713 24.6032 29.3857 24.322C29.3862 24.3188 30.1036 23.6661 30.6915 23.023C31.1153 22.56 31.4504 22.1603 31.5427 21.9658C31.2506 21.9828 30.9359 22.0907 30.636 22.2246C30.0627 22.4808 29.5451 22.8321 29.3511 22.8252Z" fill="#424B54"/>
<path fill-rule="evenodd" clip-rule="evenodd" d="M37.4415 39.0952C37.2349 40.5872 38.0808 42.6022 39.0777 44.2946C39.6966 45.3459 40.188 46.0396 40.7969 46.7051C41.1593 47.1016 41.5636 47.4885 42.0613 47.9355C42.5747 47.024 42.8406 45.6781 42.9492 44.8745C43.0635 44.0325 42.9618 43.1619 42.6911 42.3758C42.5217 41.8857 42.2181 41.1873 41.8337 40.6122C41.4954 40.1062 41.0942 39.6958 40.6679 39.6071C40.9117 40.028 41.0392 40.9508 41.0649 41.815C41.0827 42.405 41.0528 42.9674 40.9809 43.324C40.5556 42.9828 39.2608 41.3457 38.9204 40.8237C38.4133 40.0445 37.8401 39.2685 37.4415 39.0952Z" fill="#424B54"/>
<path fill-rule="evenodd" clip-rule="evenodd" d="M33.4817 42.3321C33.1355 43.0035 33.6348 44.3918 34.5242 45.7849C35.0586 46.6226 35.828 47.2546 36.1757 47.5778C36.4799 47.8605 36.8533 48.1236 37.4087 48.3926C37.6903 47.5565 37.6987 46.4004 37.663 45.718C37.6399 45.2826 37.3914 44.4566 37.0856 43.6934C36.8082 43.0019 36.4835 42.3619 36.2371 42.1121C35.8778 41.7485 35.3911 41.1367 35.024 41.132C35.292 41.4408 35.4667 42.7807 35.624 43.4914C35.731 43.9761 35.795 44.446 35.7913 44.7527C35.5081 44.6039 35.0251 44.0282 34.5358 43.4553C34.1587 43.0136 33.778 42.5735 33.4817 42.3321V42.3321Z" fill="#424B54"/>
<path fill-rule="evenodd" clip-rule="evenodd" d="M38.3514 28.8569C38.9267 28.6645 39.4632 28.7804 39.9908 29.0738C40.5006 29.3571 40.8137 29.7207 41.0171 30.1459C41.2516 30.6344 41.3418 31.2047 41.4204 31.8282C40.9899 31.8425 39.8571 31.69 39.0741 31.4492C38.6965 31.3333 38.0493 31.0564 37.5474 30.6742C37.0749 30.3139 36.3984 29.6495 36.5311 29.1482C37.0592 29.3263 37.6418 29.5676 38.225 29.7366C38.578 29.8387 38.9314 29.9147 39.2729 29.9344C39.233 29.7026 39.1344 29.5612 38.975 29.4034C38.7243 29.1551 38.4652 28.9447 38.3514 28.8569V28.8569Z" fill="#424B54"/>
<path fill-rule="evenodd" clip-rule="evenodd" d="M45.2418 30.8868C45.6048 30.7305 45.9593 30.7763 46.3169 30.9378C46.6626 31.093 46.8854 31.312 47.0407 31.5767C47.2185 31.8808 47.3632 32.3283 47.4476 32.728C46.9001 32.7806 46.372 32.736 45.8691 32.5898C45.5046 32.4835 45.1537 32.3241 44.8176 32.1104C44.4924 31.9026 43.8321 31.1366 43.8909 30.8039C44.5223 31.0335 44.7174 31.2929 45.2156 31.4518C45.3966 31.5092 45.6131 31.5432 45.8974 31.5353C45.8591 31.3875 45.7873 31.3009 45.6756 31.2073C45.4999 31.0601 45.3205 30.9378 45.2418 30.8868V30.8868Z" fill="#424B54"/>
<path fill-rule="evenodd" clip-rule="evenodd" d="M39.8545 32.8141C39.9048 33.3 41.2243 34.5916 42.5758 35.5728C43.33 36.1208 44.2551 36.5726 44.586 36.7336C44.9111 36.8915 45.2311 37.018 45.5153 37.0913C45.6947 36.5178 45.7114 35.881 45.659 35.4202C45.6039 34.9376 45.413 34.4672 45.1304 34.0664C44.8498 33.6678 44.4795 33.3366 44.0631 33.1299C43.8853 33.0416 43.6897 32.9922 43.4721 32.997C43.6777 33.1926 43.9126 33.5997 44.0804 34.0064C44.2063 34.312 44.2944 34.6176 44.3038 34.8334C43.8507 34.4523 43.7831 34.3853 43.5219 34.195C43.1469 33.9213 42.7966 33.7507 41.9743 33.4142C41.432 33.1926 40.1277 32.8588 39.8545 32.8141V32.8141Z" fill="#424B54"/>
<path fill-rule="evenodd" clip-rule="evenodd" d="M33.697 36.133C34.0568 36.226 34.4029 36.5051 34.7029 36.8479C35.06 37.255 35.3527 37.752 35.5262 38.1326C35.736 38.5924 35.8519 39.0893 35.8115 39.5534C35.168 39.6113 34.6226 39.3546 34.1407 39.1111C33.6356 38.8565 33.2135 38.4563 32.8757 37.786C32.7158 37.4687 32.5673 37.0765 32.5396 36.7751C32.7467 36.773 33.0147 36.9064 33.2885 37.0876C33.6986 37.3598 34.1207 37.7409 34.3667 37.937C34.2471 37.7047 34.1554 37.4793 34.0206 37.2067C33.901 36.9659 33.7138 36.3525 33.697 36.133Z" fill="#424B54"/>
<path fill-rule="evenodd" clip-rule="evenodd" d="M35.0957 33.2245C35.2142 33.7725 35.5215 34.3274 35.8908 34.8239C36.3297 35.4138 36.8552 35.9215 37.2543 36.2356C37.7368 36.6151 38.2507 36.8596 38.7206 36.8686C38.7369 35.9215 38.439 35.0737 38.159 34.3221C37.8658 33.5344 37.43 32.8482 36.7251 32.2481C36.3911 31.9637 35.9815 31.6857 35.6726 31.6002C35.6841 31.9074 35.8378 32.3257 36.0407 32.7583C36.3454 33.4073 36.7618 34.0903 36.9779 34.4847C36.733 34.2732 36.4981 34.1036 36.2112 33.8629C35.9579 33.6502 35.3202 33.2819 35.0957 33.2245V33.2245Z" fill="#424B54"/>
<path fill-rule="evenodd" clip-rule="evenodd" d="M29.6749 38.8725C29.5847 39.5103 29.6361 40.5893 29.7746 41.1947C29.9392 41.9144 30.298 42.364 30.5691 42.735C30.8109 43.0662 31.3872 43.5982 31.7795 43.6578C32.1214 42.5777 32.1639 41.579 32.1891 40.6913C32.2148 39.7617 32.0863 38.9325 31.7008 38.1735C31.5178 37.8137 31.2697 37.4533 31.0395 37.3231C30.943 37.6755 30.9273 38.1687 30.9483 38.6843C30.9797 39.4571 31.0935 40.2805 31.1392 40.7535C31.006 40.4862 30.867 40.2682 30.7091 39.9631C30.5696 39.6937 29.8438 38.9612 29.6749 38.8725V38.8725Z" fill="#424B54"/>
<path fill-rule="evenodd" clip-rule="evenodd" d="M32.4883 32.061C32.7604 32.28 32.9361 32.6127 33.0421 32.9656C33.169 33.3855 33.1978 33.8341 33.1758 34.1552C33.1496 34.5437 33.0242 34.9142 32.7767 35.1943C32.1872 34.9466 31.8275 34.54 31.5165 34.1701C31.1913 33.7831 31.0041 33.3393 31.0146 32.7589C31.0198 32.4841 31.0686 32.1667 31.1819 31.9605C31.3644 32.0509 31.5385 32.2555 31.6948 32.4931C31.9292 32.8498 32.1248 33.2813 32.2507 33.5163C32.2523 33.3143 32.2748 33.1288 32.2811 32.8939C32.2863 32.6866 32.4028 32.2093 32.4883 32.061Z" fill="#424B54"/>
<path fill-rule="evenodd" clip-rule="evenodd" d="M31.8842 29.0138C31.8716 29.5714 32.1469 30.2278 32.5251 30.7811C32.7742 31.1457 33.0925 31.5098 33.4748 31.7692C33.8231 32.0052 34.2237 32.1546 34.6753 32.1386C34.8856 31.5205 34.7959 30.9804 34.7025 30.5021C34.6045 30.0008 34.359 29.5719 33.855 29.2105C33.6164 29.0393 33.2262 28.8139 32.9687 28.7714C33.0663 29.0553 33.2147 29.3152 33.3589 29.5645C33.5556 29.9062 33.6038 30.2496 33.617 30.6583C33.4932 30.476 33.2436 30.1619 32.9614 29.8568C32.5833 29.447 32.148 29.0526 31.8842 29.0138V29.0138Z" fill="#424B54"/>
<path fill-rule="evenodd" clip-rule="evenodd" d="M27.5726 21.1802C27.6183 20.8645 27.9943 20.4616 28.3756 20.2017C28.7285 19.9614 29.1774 19.7775 29.7165 19.65C29.7213 20.1198 29.6457 20.5743 29.4643 20.9719C29.2797 21.3753 28.9886 21.7543 28.5539 21.9605C28.2345 22.1194 27.4809 21.5092 27.5726 21.1802Z" fill="#424B54"/>
<path fill-rule="evenodd" clip-rule="evenodd" d="M31.17 45.8839C31.0955 46.4276 31.0751 47.0038 31.1532 47.5598C31.2549 48.2885 31.5256 48.9811 32.0631 49.5152C32.3127 49.7635 32.619 49.9415 32.9971 50C33.2347 49.7868 33.4057 49.3664 33.4896 48.9109C33.5903 48.3671 33.5667 47.7734 33.3852 47.4237C33.1817 47.0309 32.8152 46.713 32.3306 46.392C32.0337 46.1959 31.6944 46.0353 31.17 45.8839V45.8839Z" fill="#424B54"/>
<path fill-rule="evenodd" clip-rule="evenodd" d="M28.8306 14.8226C28.1378 14.6249 27.7261 14.2379 27.5965 13.7404C27.4927 13.3402 27.5714 12.8682 27.8331 12.3659C28.2306 11.6032 28.9187 10.9255 29.3739 10.3089C29.8343 10.8176 30.193 11.2997 30.5061 11.9152C30.6608 12.2522 30.7516 12.5923 30.8234 12.9713C30.3703 13.4656 29.9397 14.0216 29.5779 14.7461C29.5149 14.2714 29.5228 13.9493 29.4992 13.5762C29.4814 13.2881 29.4452 12.9702 29.3435 12.5275C29.2328 12.8342 29.0603 13.1377 28.9538 13.4954C28.8164 13.9573 28.7917 14.4681 28.8306 14.8226Z" fill="#424B54"/>
<path fill-rule="evenodd" clip-rule="evenodd" d="M30.911 10.917C30.6058 10.5688 30.2586 10.2494 30.0462 9.87411C29.892 9.60144 29.8091 9.29953 29.8653 8.93544C29.9324 8.64682 30.1762 8.26359 30.4427 7.88834C30.675 7.56039 30.9246 7.23881 31.0883 6.99219C31.3893 7.24307 31.5838 7.48969 31.7396 7.75705C31.9121 8.05205 32.0364 8.37256 32.2053 8.75206C31.6499 9.40265 31.2487 10.1776 30.911 10.917V10.917Z" fill="#424B54"/>
<path fill-rule="evenodd" clip-rule="evenodd" d="M30.0315 18.7703C29.8904 17.9799 29.7876 16.8679 29.956 16.0542C30.1421 15.2436 30.5019 14.5473 30.9676 13.851C31.2744 13.4098 31.5891 13.0755 32.0694 12.78C32.103 13.4088 32.0653 13.9227 32.0694 14.4442C32.0731 14.9752 32.1203 15.5136 32.3301 16.1881C32.1277 16.4725 31.7925 16.9981 31.6468 17.3399C31.6357 17.3229 31.5487 16.987 31.4553 16.6479C31.3809 16.3779 31.3022 16.1063 31.2545 15.993C30.9702 16.3911 30.815 16.7202 30.6283 17.1029C30.3593 17.6535 30.1941 18.2499 30.0315 18.7703V18.7703Z" fill="#424B54"/>
<path fill-rule="evenodd" clip-rule="evenodd" d="M31.4663 12.3399C31.439 11.7079 31.5544 11.1211 31.814 10.5348C32.1434 9.81779 32.4732 9.19325 33.0066 8.68299C33.3459 8.30826 33.7807 7.9734 34.184 7.62738C34.2569 7.88942 34.3366 8.31624 34.3644 8.73295C34.3895 9.11884 34.3707 9.49516 34.2595 9.72371C34.0581 9.67747 33.8567 9.63176 33.6558 9.58605C33.155 9.96821 32.8503 10.3966 32.4481 10.8867C32.1208 11.3151 31.7862 11.6744 31.4663 12.3399V12.3399Z" fill="#424B54"/>
<path fill-rule="evenodd" clip-rule="evenodd" d="M32.8862 14.6467C32.838 14.264 32.7252 13.4252 32.8338 12.8028C32.9617 12.1071 33.1432 11.8083 33.5056 11.2194C33.9409 10.6044 34.3232 10.0894 34.8791 9.58231C35.4958 9.04919 36.6632 8.30931 37.4908 8.77121C37.4724 8.8217 36.7351 9.69819 36.1383 10.732C35.7145 11.466 35.4135 12.3787 35.2567 12.688C34.9646 13.405 34.7107 13.9302 34.3809 14.3559C34.2041 14.1306 34.1449 13.8404 34.1433 13.5299C34.1412 13.0558 34.2744 12.5339 34.3358 12.1219C34.1543 12.2495 33.9943 12.4738 33.8528 12.7252C33.665 13.0585 33.5092 13.4396 33.3802 13.7069C33.2161 14.0471 33.0477 14.3814 32.8862 14.6467Z" fill="#424B54"/>
<path fill-rule="evenodd" clip-rule="evenodd" d="M36.4102 12.6338C36.3682 12.2283 36.48 11.7887 36.6551 11.3699C36.8271 10.9574 37.0684 10.5316 37.3495 10.1351C37.64 9.72531 37.973 9.34687 38.3186 9.04603C38.7843 8.66173 39.5144 8.23864 40.1919 8.29126C40.1773 8.32847 39.6916 9.16402 39.2322 9.91932C39.0051 10.293 38.7676 10.7942 38.5431 11.3348C38.155 12.2687 37.8068 13.319 37.6206 14.028C37.3893 13.4667 37.3343 12.8948 37.4114 12.3319C37.4774 11.8503 37.6405 11.3746 37.8734 10.9186C37.7124 11.0265 37.5467 11.1317 37.392 11.2529C37.179 11.4198 37.0191 11.6245 36.8775 11.8445C36.7144 12.0996 36.5759 12.3744 36.4102 12.6338V12.6338Z" fill="#424B54"/>
<path fill-rule="evenodd" clip-rule="evenodd" d="M30.6592 20.2282C30.8831 19.3868 31.341 18.6751 31.8974 17.9331C32.2587 17.3899 32.5561 16.9742 32.8671 16.5846C33.219 16.1434 33.6616 15.6651 34.1415 15.2037C34.8631 14.5095 35.6697 13.8536 36.3808 13.4194C36.4653 13.9233 36.4086 14.3846 36.2749 14.8263C36.1013 15.3988 35.7971 15.9377 35.4998 16.4916C35.1337 17.1746 34.7304 17.8374 34.4635 18.0862C34.508 17.4776 34.4241 16.9498 34.3124 16.6324C34.0109 17.081 33.7088 17.5302 33.4067 17.9788C33.1041 18.3875 32.5687 18.9494 32.0012 19.415C31.5387 19.7945 31.0551 20.1102 30.6592 20.2282V20.2282Z" fill="#424B54"/>
<path fill-rule="evenodd" clip-rule="evenodd" d="M41.5142 17.2947C41.8891 16.6085 42.5573 15.8527 43.3104 15.1288C44.2801 14.1975 45.3903 13.3184 46.1943 12.7098C46.8608 12.2054 47.5416 11.7031 48.2779 11.1131C48.3759 11.4246 48.1835 11.8679 47.8478 12.3526C47.0722 13.4709 45.5319 14.8077 45.0321 15.2367C43.8443 16.1137 42.551 16.8456 41.5142 17.2947V17.2947Z" fill="#424B54"/>
<path fill-rule="evenodd" clip-rule="evenodd" d="M50.9502 9.69023C50.9906 9.31019 51.193 8.80205 51.4516 8.27797C51.825 7.52108 52.3153 6.73177 52.6032 6.25127C52.9882 5.60812 53.3805 4.96445 53.7129 4.36542C53.917 4.58334 54.0035 4.99262 54.0302 5.42103C53.9767 6.20874 53.8692 6.78917 53.6568 7.31963C53.4313 7.88305 53.0878 8.39118 52.5655 9.0322C52.0347 9.48878 51.5942 9.7689 50.9502 9.69023V9.69023Z" fill="#424B54"/>
<path fill-rule="evenodd" clip-rule="evenodd" d="M46.5571 18.8707C46.7139 18.5523 46.7926 18.3195 46.9206 18.1542C47.0758 17.9533 47.3039 17.8518 47.8326 17.8162C48.2049 17.7906 48.5495 17.8714 48.6025 18.1053C48.5657 18.5284 48.4352 18.7724 48.2228 18.9127C48.0009 19.0599 47.6894 19.0934 47.3045 19.0998C46.9971 19.0567 46.758 19.0132 46.5571 18.8707V18.8707Z" fill="#424B54"/>
<path fill-rule="evenodd" clip-rule="evenodd" d="M48.2407 21.6862C48.3514 21.3359 48.6351 21.0696 48.9776 20.8915C49.405 20.6699 49.8235 20.5832 50.1796 20.6582C50.6327 20.7533 50.9846 21.1095 51.1246 21.7776C50.961 22.1512 50.3547 22.2554 49.7286 22.1991C49.1239 22.1449 48.5008 21.9413 48.2407 21.6862V21.6862Z" fill="#424B54"/>
<path fill-rule="evenodd" clip-rule="evenodd" d="M47.6899 24.3943C48.0156 24.7829 48.2453 25.072 48.4913 25.3107C48.8867 25.6955 49.3556 25.9687 49.8617 26.1287C50.2817 26.2616 50.727 26.3163 51.1775 26.2919C51.168 25.8906 51.1124 25.4393 50.9472 25.055C50.7611 24.6202 50.3829 24.3635 49.9335 24.2343C49.2045 24.0244 48.2862 24.1498 47.6899 24.3943Z" fill="#424B54"/>
<path fill-rule="evenodd" clip-rule="evenodd" d="M47.1235 28.1968C47.3517 28.5035 47.6889 28.9883 48.0586 29.4768C48.2128 29.6809 48.8935 30.5616 49.4804 30.9443C49.8837 31.2074 50.2429 31.2356 50.3578 30.6504C50.4569 30.1465 50.3179 29.7027 50.0551 29.3301C49.815 28.9893 49.3603 28.6189 48.8558 28.3648C48.2568 28.0629 47.5877 27.9252 47.1235 28.1968V28.1968Z" fill="#424B54"/>
<path fill-rule="evenodd" clip-rule="evenodd" d="M43.4546 38.8693C43.7514 39.4035 44.1505 40.011 44.5334 40.618C44.9398 41.2633 45.3284 41.9091 45.5581 42.4688C46.0133 43.5797 46.3091 44.9287 46.4292 44.9436C46.6442 44.7687 47.0266 44.1591 47.0549 43.3899C47.09 42.4247 47.036 41.7183 46.7182 40.9572C46.2137 39.7463 45.1963 38.9182 43.4546 38.8693V38.8693Z" fill="#424B54"/>
<path fill-rule="evenodd" clip-rule="evenodd" d="M50.4819 13.843C50.5082 13.3492 50.6581 12.89 50.8947 12.4754C51.4049 11.5803 52.317 10.8947 53.2452 10.5226C53.2998 11.1306 53.2741 11.7738 53.0769 12.3404C52.9096 12.8198 52.6196 13.2451 52.1497 13.547C51.7249 13.8202 51.1941 13.9068 50.4819 13.843V13.843Z" fill="#424B54"/>
<path fill-rule="evenodd" clip-rule="evenodd" d="M50.9956 16.0159C51.2935 16.1323 51.6234 16.2684 51.9417 16.4315C52.3571 16.6452 52.753 16.9046 53.0336 17.2262C53.1668 17.3787 53.3194 17.6184 53.6073 18.1122C53.7809 18.0229 53.9015 17.9033 53.9246 17.4999C53.8743 16.9928 53.6199 16.6155 53.2297 16.2301C52.5831 15.6842 51.5741 15.5673 50.9956 16.0159V16.0159Z" fill="#424B54"/>
<path fill-rule="evenodd" clip-rule="evenodd" d="M52.3091 20.2314C52.8713 20.688 53.2457 21.1308 53.5856 21.5772C53.8043 21.8637 54.2742 22.517 54.7283 23.0246C55.0252 23.3557 55.3152 23.6247 55.5244 23.6895C55.784 23.6183 55.9602 23.478 56.008 23.2C55.9922 22.5696 55.7337 21.9653 55.3288 21.4656C54.6046 20.5705 53.412 20.0092 52.3091 20.2314Z" fill="#424B54"/>
<path fill-rule="evenodd" clip-rule="evenodd" d="M52.8979 25.1108C53.5797 25.6647 54.0334 26.201 54.4461 26.7421C54.7109 27.0897 55.2805 27.8817 55.8311 28.4966C56.1909 28.8985 56.5428 29.2248 56.7966 29.303C57.1108 29.2163 57.3242 29.0462 57.3819 28.7092C57.3636 27.9454 57.0499 27.213 56.5591 26.6065C55.6806 25.5217 54.2347 24.8413 52.8979 25.1108V25.1108Z" fill="#424B54"/>
<path fill-rule="evenodd" clip-rule="evenodd" d="M51.9766 32.3719C52.1984 33.0321 52.5104 33.7879 52.8073 34.5422C53.1219 35.3437 53.4198 36.1436 53.574 36.8267C53.8803 38.182 54.004 39.8027 54.1184 39.8324C54.3465 39.6475 54.7876 38.9671 54.9066 38.063C55.0561 36.9282 55.0875 36.0905 54.8725 35.1609C54.5306 33.6827 53.649 32.6037 51.9766 32.3719V32.3719Z" fill="#424B54"/>
<path fill-rule="evenodd" clip-rule="evenodd" d="M55.4033 30.5605C55.7919 31.2032 56.0253 31.7846 56.2298 32.3614C56.3615 32.7324 56.6373 33.57 56.9263 34.2429C57.1151 34.682 57.3097 35.0503 57.4728 35.1731C57.7019 35.1572 57.874 35.044 57.9631 34.7479C58.0628 34.0458 57.9542 33.3133 57.7051 32.6611C57.2598 31.4928 56.3641 30.5818 55.4033 30.5605V30.5605Z" fill="#424B54"/>
<path fill-rule="evenodd" clip-rule="evenodd" d="M49.6035 36.7289C49.6995 37.4746 49.7629 38.0184 49.8505 38.5191C49.9911 39.3254 50.2092 40.0716 50.482 40.7228C50.7085 41.2628 50.9728 41.7374 51.2623 42.1255C51.3688 41.6577 51.46 41.0884 51.4637 40.4963C51.4684 39.8261 51.3032 39.1829 51.0573 38.6195C50.6576 37.7048 50.0467 36.9994 49.6035 36.7289V36.7289Z" fill="#424B54"/>
</svg>
